<svg xmlns:xlink="http://www.w3.org/1999/xlink" version="1.1" class="highcharts-root" style="font-family:Open Sans, sans-serif;font-size:12px;color:#000000;fill:#000000;" xmlns="http://www.w3.org/2000/svg" width="480" height="227" viewBox="0 0 480 227"><desc>Created with Highcharts 9.2.2</desc><defs><clipPath id="highcharts-64cwp2t-1969-"><rect x="0" y="0" width="416" height="146" fill="none"></rect></clipPath><clipPath id="highcharts-64cwp2t-1987-"><rect x="0" y="0" width="416" height="146" fill="none"></rect></clipPath><clipPath id="highcharts-64cwp2t-2056-"><rect x="0" y="0" width="416" height="146" fill="none"></rect></clipPath><clipPath id="highcharts-64cwp2t-2057-"><rect x="51" y="16" width="416" height="146" fill="none"></rect></clipPath></defs><rect fill="#ffffff" class="highcharts-background" x="0" y="0" width="480" height="227" rx="0" ry="0"></rect><rect fill="#ffffff" class="highcharts-plot-background" x="51" y="16" width="416" height="146"></rect><g class="highcharts-pane-group" data-z-index="0"></g><g class="highcharts-plot-lines-0" data-z-index="0"><path fill="none" class="highcharts-plot-line "></path></g><g class="highcharts-plot-lines-0" data-z-index="0"><path fill="none" class="highcharts-plot-line " stroke="#000000" stroke-width="0.25" d="M 51 162.125 L 467 162.125"></path></g><rect fill="none" class="highcharts-plot-border" data-z-index="1" x="51" y="16" width="416" height="146"></rect><g class="highcharts-grid highcharts-xaxis-grid" data-z-index="1"><path fill="none" stroke-dasharray="none" data-z-index="1" class="highcharts-grid-line" d="M 90.5 16 L 90.5 162" opacity="1"></path><path fill="none" stroke-dasharray="none" data-z-index="1" class="highcharts-grid-line" d="M 210.5 16 L 210.5 162" opacity="1"></path><path fill="none" stroke-dasharray="none" data-z-index="1" class="highcharts-grid-line" d="M 330.5 16 L 330.5 162" opacity="1"></path><path fill="none" stroke-dasharray="none" data-z-index="1" class="highcharts-grid-line" d="M 450.5 16 L 450.5 162" opacity="1"></path></g><g class="highcharts-grid highcharts-yaxis-grid" data-z-index="1"><path fill="none" stroke-dasharray="none" data-z-index="1" class="highcharts-grid-line" d="M 51 162.5 L 467 162.5" opacity="1"></path><path fill="none" stroke-dasharray="none" data-z-index="1" class="highcharts-grid-line" d="M 51 89.5 L 467 89.5" opacity="1"></path><path fill="none" stroke-dasharray="none" data-z-index="1" class="highcharts-grid-line" d="M 51 16.5 L 467 16.5" opacity="1"></path></g><g class="highcharts-grid highcharts-yaxis-grid" data-z-index="1"></g><g class="highcharts-axis highcharts-xaxis" data-z-index="2"><path fill="none" class="highcharts-axis-line" stroke="#000000" stroke-width="0.25" data-z-index="7" d="M 51 162.125 L 467 162.125"></path></g><g class="highcharts-axis highcharts-yaxis" data-z-index="2"><path fill="none" class="highcharts-tick" stroke="#000000" stroke-width="0.25" d="M 51 162.125 L 61 162.125" opacity="1"></path><path fill="none" class="highcharts-tick" stroke="#000000" stroke-width="0.25" d="M 51 89.125 L 61 89.125" opacity="1"></path><path fill="none" class="highcharts-tick" stroke="#000000" stroke-width="0.25" d="M 51 15.875 L 61 15.875" opacity="1"></path><path fill="none" class="highcharts-axis-line" stroke="#000000" stroke-width="0.25" data-z-index="7" d="M 50.875 16 L 50.875 162"></path></g><g class="highcharts-axis highcharts-yaxis" data-z-index="2"><path fill="none" class="highcharts-axis-line" stroke="#000000" stroke-width="0.25" data-z-index="7" d="M 467.125 16 L 467.125 162"></path></g><g class="highcharts-series-group" data-z-index="3"><g class="highcharts-series highcharts-series-0 highcharts-column-series highcharts-color-0" data-z-index="0.1" opacity="1" transform="translate(51,16) scale(1 1)" clip-path="url(#highcharts-64cwp2t-1969-)"><rect x="10" y="0" width="12" height="83" fill="#4156A6" opacity="1" class="highcharts-point highcharts-color-0"></rect><rect x="34" y="0" width="12" height="79" fill="#4156A6" opacity="1" class="highcharts-point highcharts-color-0"></rect><rect x="58" y="0" width="12" height="76" fill="#4156A6" opacity="1" class="highcharts-point highcharts-color-0"></rect><rect x="82" y="0" width="12" height="74" fill="#4156A6" opacity="1" class="highcharts-point highcharts-color-0"></rect><rect x="106" y="0" width="12" height="66" fill="#4156A6" opacity="1" class="highcharts-point highcharts-color-0"></rect><rect x="130" y="0" width="12" height="66" fill="#4156A6" opacity="1" class="highcharts-point highcharts-color-0"></rect><rect x="154" y="0" width="12" height="68" fill="#4156A6" opacity="1" class="highcharts-point highcharts-color-0"></rect><rect x="178" y="0" width="12" height="63" fill="#4156A6" opacity="1" class="highcharts-point highcharts-color-0"></rect><rect x="202" y="0" width="12" height="63" fill="#4156A6" opacity="1" class="highcharts-point highcharts-color-0"></rect><rect x="226" y="0" width="12" height="64" fill="#4156A6" opacity="1" class="highcharts-point highcharts-color-0"></rect><rect x="250" y="0" width="12" height="63" fill="#4156A6" opacity="1" class="highcharts-point highcharts-color-0"></rect><rect x="274" y="0" width="12" height="62" fill="#4156A6" opacity="1" class="highcharts-point highcharts-color-0"></rect><rect x="298" y="0" width="12" height="63" fill="#4156A6" opacity="1" class="highcharts-point highcharts-color-0"></rect><rect x="322" y="0" width="12" height="63" fill="#4156A6" opacity="1" class="highcharts-point highcharts-color-0"></rect><rect x="346" y="0" width="12" height="60" fill="#4156A6" opacity="1" class="highcharts-point highcharts-color-0"></rect><rect x="370" y="0" width="12" height="59" fill="#4156A6" opacity="1" class="highcharts-point highcharts-color-0"></rect><rect x="394" y="0" width="12" height="61" fill="#4156A6" opacity="1" class="highcharts-point highcharts-color-0"></rect></g><g class="highcharts-markers highcharts-series-0 highcharts-column-series highcharts-color-0" data-z-index="0.1" opacity="1" transform="translate(51,16) scale(1 1)" clip-path="none"></g><g class="highcharts-series highcharts-series-1 highcharts-column-series highcharts-color-1" data-z-index="0.1" opacity="1" transform="translate(51,16) scale(1 1)" clip-path="url(#highcharts-64cwp2t-1969-)"><rect x="10" y="83" width="12" height="14" fill="#F15D61" opacity="1" class="highcharts-point highcharts-color-1"></rect><rect x="34" y="79" width="12" height="12" fill="#F15D61" opacity="1" class="highcharts-point highcharts-color-1"></rect><rect x="58" y="76" width="12" height="12" fill="#F15D61" opacity="1" class="highcharts-point highcharts-color-1"></rect><rect x="82" y="74" width="12" height="12" fill="#F15D61" opacity="1" class="highcharts-point highcharts-color-1"></rect><rect x="106" y="66" width="12" height="11" fill="#F15D61" opacity="1" class="highcharts-point highcharts-color-1"></rect><rect x="130" y="66" width="12" height="11" fill="#F15D61" opacity="1" class="highcharts-point highcharts-color-1"></rect><rect x="154" y="68" width="12" height="12" fill="#F15D61" opacity="1" class="highcharts-point highcharts-color-1"></rect><rect x="178" y="63" width="12" height="11" fill="#F15D61" opacity="1" class="highcharts-point highcharts-color-1"></rect><rect x="202" y="63" width="12" height="12" fill="#F15D61" opacity="1" class="highcharts-point highcharts-color-1"></rect><rect x="226" y="64" width="12" height="13" fill="#F15D61" opacity="1" class="highcharts-point highcharts-color-1"></rect><rect x="250" y="63" width="12" height="13" fill="#F15D61" opacity="1" class="highcharts-point highcharts-color-1"></rect><rect x="274" y="62" width="12" height="14" fill="#F15D61" opacity="1" class="highcharts-point highcharts-color-1"></rect><rect x="298" y="63" width="12" height="16" fill="#F15D61" opacity="1" class="highcharts-point highcharts-color-1"></rect><rect x="322" y="63" width="12" height="15" fill="#F15D61" opacity="1" class="highcharts-point highcharts-color-1"></rect><rect x="346" y="60" width="12" height="18" fill="#F15D61" opacity="1" class="highcharts-point highcharts-color-1"></rect><rect x="370" y="59" width="12" height="17" fill="#F15D61" opacity="1" class="highcharts-point highcharts-color-1"></rect><rect x="394" y="61" width="12" height="17" fill="#F15D61" opacity="1" class="highcharts-point highcharts-color-1"></rect></g><g class="highcharts-markers highcharts-series-1 highcharts-column-series highcharts-color-1" data-z-index="0.1" opacity="1" transform="translate(51,16) scale(1 1)" clip-path="none"></g><g class="highcharts-series highcharts-series-2 highcharts-column-series highcharts-color-2" data-z-index="0.1" opacity="1" transform="translate(51,16) scale(1 1)" clip-path="url(#highcharts-64cwp2t-1969-)"><rect x="10" y="97" width="12" height="21" fill="#969497" opacity="1" class="highcharts-point highcharts-color-2"></rect><rect x="34" y="91" width="12" height="23" fill="#969497" opacity="1" class="highcharts-point highcharts-color-2"></rect><rect x="58" y="88" width="12" height="24" fill="#969497" opacity="1" class="highcharts-point highcharts-color-2"></rect><rect x="82" y="86" width="12" height="23" fill="#969497" opacity="1" class="highcharts-point highcharts-color-2"></rect><rect x="106" y="77" width="12" height="29" fill="#969497" opacity="1" class="highcharts-point highcharts-color-2"></rect><rect x="130" y="77" width="12" height="40" fill="#969497" opacity="1" class="highcharts-point highcharts-color-2"></rect><rect x="154" y="80" width="12" height="41" fill="#969497" opacity="1" class="highcharts-point highcharts-color-2"></rect><rect x="178" y="74" width="12" height="44" fill="#969497" opacity="1" class="highcharts-point highcharts-color-2"></rect><rect x="202" y="75" width="12" height="46" fill="#969497" opacity="1" class="highcharts-point highcharts-color-2"></rect><rect x="226" y="77" width="12" height="47" fill="#969497" opacity="1" class="highcharts-point highcharts-color-2"></rect><rect x="250" y="76" width="12" height="48" fill="#969497" opacity="1" class="highcharts-point highcharts-color-2"></rect><rect x="274" y="76" width="12" height="49" fill="#969497" opacity="1" class="highcharts-point highcharts-color-2"></rect><rect x="298" y="79" width="12" height="46" fill="#969497" opacity="1" class="highcharts-point highcharts-color-2"></rect><rect x="322" y="78" width="12" height="47" fill="#969497" opacity="1" class="highcharts-point highcharts-color-2"></rect><rect x="346" y="78" width="12" height="50" fill="#969497" opacity="1" class="highcharts-point highcharts-color-2"></rect><rect x="370" y="76" width="12" height="49" fill="#969497" opacity="1" class="highcharts-point highcharts-color-2"></rect><rect x="394" y="78" width="12" height="49" fill="#969497" opacity="1" class="highcharts-point highcharts-color-2"></rect></g><g class="highcharts-markers highcharts-series-2 highcharts-column-series highcharts-color-2" data-z-index="0.1" opacity="1" transform="translate(51,16) scale(1 1)" clip-path="none"></g><g class="highcharts-series highcharts-series-3 highcharts-column-series highcharts-color-3" data-z-index="0.1" opacity="1" transform="translate(51,16) scale(1 1)" clip-path="url(#highcharts-64cwp2t-1969-)"><rect x="10" y="118" width="12" height="14" fill="#5B91CC" opacity="1" class="highcharts-point highcharts-color-3"></rect><rect x="34" y="114" width="12" height="12" fill="#5B91CC" opacity="1" class="highcharts-point highcharts-color-3"></rect><rect x="58" y="112" width="12" height="12" fill="#5B91CC" opacity="1" class="highcharts-point highcharts-color-3"></rect><rect x="82" y="109" width="12" height="15" fill="#5B91CC" opacity="1" class="highcharts-point highcharts-color-3"></rect><rect x="106" y="106" width="12" height="17" fill="#5B91CC" opacity="1" class="highcharts-point highcharts-color-3"></rect><rect x="130" y="117" width="12" height="14" fill="#5B91CC" opacity="1" class="highcharts-point highcharts-color-3"></rect><rect x="154" y="121" width="12" height="13" fill="#5B91CC" opacity="1" class="highcharts-point highcharts-color-3"></rect><rect x="178" y="118" width="12" height="13" fill="#5B91CC" opacity="1" class="highcharts-point highcharts-color-3"></rect><rect x="202" y="121" width="12" height="13" fill="#5B91CC" opacity="1" class="highcharts-point highcharts-color-3"></rect><rect x="226" y="124" width="12" height="10" fill="#5B91CC" opacity="1" class="highcharts-point highcharts-color-3"></rect><rect x="250" y="124" width="12" height="9" fill="#5B91CC" opacity="1" class="highcharts-point highcharts-color-3"></rect><rect x="274" y="125" width="12" height="8" fill="#5B91CC" opacity="1" class="highcharts-point highcharts-color-3"></rect><rect x="298" y="125" width="12" height="8" fill="#5B91CC" opacity="1" class="highcharts-point highcharts-color-3"></rect><rect x="322" y="125" width="12" height="7" fill="#5B91CC" opacity="1" class="highcharts-point highcharts-color-3"></rect><rect x="346" y="128" width="12" height="8" fill="#5B91CC" opacity="1" class="highcharts-point highcharts-color-3"></rect><rect x="370" y="125" width="12" height="9" fill="#5B91CC" opacity="1" class="highcharts-point highcharts-color-3"></rect><rect x="394" y="127" width="12" height="7" fill="#5B91CC" opacity="1" class="highcharts-point highcharts-color-3"></rect></g><g class="highcharts-markers highcharts-series-3 highcharts-column-series highcharts-color-3" data-z-index="0.1" opacity="1" transform="translate(51,16) scale(1 1)" clip-path="none"></g><g class="highcharts-series highcharts-series-4 highcharts-column-series highcharts-color-4" data-z-index="0.1" opacity="1" transform="translate(51,16) scale(1 1)" clip-path="url(#highcharts-64cwp2t-1969-)"><rect x="10" y="132" width="12" height="15" fill="#97499C" opacity="1" class="highcharts-point highcharts-color-4"></rect><rect x="34" y="126" width="12" height="21" fill="#97499C" opacity="1" class="highcharts-point highcharts-color-4"></rect><rect x="58" y="124" width="12" height="23" fill="#97499C" opacity="1" class="highcharts-point highcharts-color-4"></rect><rect x="82" y="124" width="12" height="23" fill="#97499C" opacity="1" class="highcharts-point highcharts-color-4"></rect><rect x="106" y="123" width="12" height="24" fill="#97499C" opacity="1" class="highcharts-point highcharts-color-4"></rect><rect x="130" y="131" width="12" height="16" fill="#97499C" opacity="1" class="highcharts-point highcharts-color-4"></rect><rect x="154" y="134" width="12" height="13" fill="#97499C" opacity="1" class="highcharts-point highcharts-color-4"></rect><rect x="178" y="131" width="12" height="16" fill="#97499C" opacity="1" class="highcharts-point highcharts-color-4"></rect><rect x="202" y="134" width="12" height="13" fill="#97499C" opacity="1" class="highcharts-point highcharts-color-4"></rect><rect x="226" y="134" width="12" height="13" fill="#97499C" opacity="1" class="highcharts-point highcharts-color-4"></rect><rect x="250" y="133" width="12" height="14" fill="#97499C" opacity="1" class="highcharts-point highcharts-color-4"></rect><rect x="274" y="133" width="12" height="14" fill="#97499C" opacity="1" class="highcharts-point highcharts-color-4"></rect><rect x="298" y="133" width="12" height="14" fill="#97499C" opacity="1" class="highcharts-point highcharts-color-4"></rect><rect x="322" y="132" width="12" height="15" fill="#97499C" opacity="1" class="highcharts-point highcharts-color-4"></rect><rect x="346" y="136" width="12" height="11" fill="#97499C" opacity="1" class="highcharts-point highcharts-color-4"></rect><rect x="370" y="134" width="12" height="13" fill="#97499C" opacity="1" class="highcharts-point highcharts-color-4"></rect><rect x="394" y="134" width="12" height="13" fill="#97499C" opacity="1" class="highcharts-point highcharts-color-4"></rect></g><g class="highcharts-markers highcharts-series-4 highcharts-column-series highcharts-color-4" data-z-index="0.1" opacity="1" transform="translate(51,16) scale(1 1)" clip-path="none"></g></g><text x="13" text-anchor="start" class="highcharts-title" data-z-index="4" style="color:#333333;font-size:20px;fill:#333333;" y="31"></text><text x="13" text-anchor="start" class="highcharts-subtitle" data-z-index="4" style="color:#000000;font-size:20px;fill:#000000;" y="36"></text><text x="13" text-anchor="start" class="highcharts-caption" data-z-index="4" style="color:#666666;font-size:16px;fill:#666666;" y="230"></text><g class="highcharts-legend highcharts-no-tooltip" data-z-index="7" transform="translate(38,193)"><rect fill="none" class="highcharts-legend-box" rx="0" ry="0" x="0" y="0" width="403" height="22" visibility="visible"></rect><g data-z-index="1"><g><g class="highcharts-legend-item highcharts-column-series highcharts-color-0 highcharts-series-0" data-z-index="1" transform="translate(8,3)"><text x="21" y="11" style="color:#000000;cursor:pointer;font-size:8px;font-weight:normal;fill:#000000;" text-anchor="start" data-z-index="2">Innskudd</text><rect x="4" y="4" width="8" height="8" fill="#4156A6" class="highcharts-point" data-z-index="3"></rect></g><g class="highcharts-legend-item highcharts-column-series highcharts-color-1 highcharts-series-1" data-z-index="1" transform="translate(83.75,3)"><text x="21" y="11" style="color:#000000;cursor:pointer;font-size:8px;font-weight:normal;fill:#000000;" text-anchor="start" data-z-index="2">Egenkapital</text><rect x="4" y="4" width="8" height="8" fill="#F15D61" class="highcharts-point" data-z-index="3"></rect></g><g class="highcharts-legend-item highcharts-column-series highcharts-color-2 highcharts-series-2" data-z-index="1" transform="translate(167.8125,3)"><text x="21" y="11" style="color:#000000;cursor:pointer;font-size:8px;font-weight:normal;fill:#000000;" text-anchor="start" data-z-index="2">Lange innlån</text><rect x="4" y="4" width="8" height="8" fill="#969497" class="highcharts-point" data-z-index="3"></rect></g><g class="highcharts-legend-item highcharts-column-series highcharts-color-3 highcharts-series-3" data-z-index="1" transform="translate(257,3)"><text x="21" y="11" style="color:#000000;cursor:pointer;font-size:8px;font-weight:normal;fill:#000000;" text-anchor="start" data-z-index="2">Korte innlån</text><rect x="4" y="4" width="8" height="8" fill="#5B91CC" class="highcharts-point" data-z-index="3"></rect></g><g class="highcharts-legend-item highcharts-column-series highcharts-color-4 highcharts-series-4" data-z-index="1" transform="translate(344.140625,3)"><text x="21" y="11" style="color:#000000;cursor:pointer;font-size:8px;font-weight:normal;fill:#000000;" text-anchor="start" data-z-index="2">Banklån</text><rect x="4" y="4" width="8" height="8" fill="#97499C" class="highcharts-point" data-z-index="3"></rect></g></g></g></g><g class="highcharts-axis-labels highcharts-xaxis-labels" data-z-index="7"><text x="90.87066974596" style="color:#000000;cursor:default;font-size:8px;fill:#000000;" text-anchor="middle" transform="translate(0,0)" y="179" opacity="1">2005</text><text x="210.96304849885" style="color:#000000;cursor:default;font-size:8px;fill:#000000;" text-anchor="middle" transform="translate(0,0)" y="179" opacity="1">2010</text><text x="331.05542725173" style="color:#000000;cursor:default;font-size:8px;fill:#000000;" text-anchor="middle" transform="translate(0,0)" y="179" opacity="1">2015</text><text x="451.14780600462" style="color:#000000;cursor:default;font-size:8px;fill:#000000;" text-anchor="middle" transform="translate(0,0)" y="179" opacity="1">2020</text></g><g class="highcharts-axis-labels highcharts-yaxis-labels" data-z-index="7"><text x="36" style="color:#000000;cursor:default;font-size:8px;fill:#000000;" text-anchor="end" transform="translate(0,0)" y="166" opacity="1">0 %</text><text x="36" style="color:#000000;cursor:default;font-size:8px;fill:#000000;" text-anchor="end" transform="translate(0,0)" y="93" opacity="1">50 %</text><text x="36" style="color:#000000;cursor:default;font-size:8px;fill:#000000;" text-anchor="end" transform="translate(0,0)" y="20" opacity="1">100 %</text></g><g class="highcharts-axis-labels highcharts-yaxis-labels" data-z-index="7"></g><g class="highcharts-control-points" data-z-index="99" clip-path="url(#highcharts-64cwp2t-2057-)"></g></svg>