<svg xmlns:xlink="http://www.w3.org/1999/xlink" version="1.1" class="highcharts-root" style="font-family:Open Sans, sans-serif;font-size:12px;color:#000000;fill:#000000;" xmlns="http://www.w3.org/2000/svg" width="480" height="227" viewBox="0 0 480 227"><desc>Created with Highcharts 9.2.2</desc><defs><clipPath id="highcharts-6x9db0n-4636-"><rect x="0" y="0" width="384" height="146" fill="none"></rect></clipPath><clipPath id="highcharts-6x9db0n-4666-"><rect x="0" y="0" width="384" height="146" fill="none"></rect></clipPath><clipPath id="highcharts-6x9db0n-4725-"><rect x="48" y="16" width="384" height="146" fill="none"></rect></clipPath></defs><rect fill="#ffffff" class="highcharts-background" x="0" y="0" width="480" height="227" rx="0" ry="0"></rect><rect fill="#ffffff" class="highcharts-plot-background" x="48" y="16" width="384" height="146"></rect><g class="highcharts-pane-group" data-z-index="0"></g><g class="highcharts-plot-lines-0" data-z-index="0"><path fill="none" class="highcharts-plot-line "></path></g><g class="highcharts-plot-lines-0" data-z-index="0"><path fill="none" class="highcharts-plot-line " stroke="#000000" stroke-width="0.25" d="M 48 162.125 L 432 162.125"></path></g><g class="highcharts-plot-lines-0" data-z-index="0"><path fill="none" class="highcharts-plot-line " stroke="#000000" stroke-width="0.25" d="M 48 162.125 L 432 162.125"></path></g><rect fill="none" class="highcharts-plot-border" data-z-index="1" x="48" y="16" width="384" height="146"></rect><g class="highcharts-grid highcharts-xaxis-grid" data-z-index="1"><path fill="none" stroke-dasharray="none" data-z-index="1" class="highcharts-grid-line" d="M 109.5 16 L 109.5 162" opacity="1"></path><path fill="none" stroke-dasharray="none" data-z-index="1" class="highcharts-grid-line" d="M 213.5 16 L 213.5 162" opacity="1"></path><path fill="none" stroke-dasharray="none" data-z-index="1" class="highcharts-grid-line" d="M 317.5 16 L 317.5 162" opacity="1"></path><path fill="none" stroke-dasharray="none" data-z-index="1" class="highcharts-grid-line" d="M 421.5 16 L 421.5 162" opacity="1"></path></g><g class="highcharts-grid highcharts-yaxis-grid" data-z-index="1"><path fill="none" stroke-dasharray="none" data-z-index="1" class="highcharts-grid-line" d="M 48 162.5 L 432 162.5" opacity="1"></path><path fill="none" stroke-dasharray="none" data-z-index="1" class="highcharts-grid-line" d="M 48 144.5 L 432 144.5" opacity="1"></path><path fill="none" stroke-dasharray="none" data-z-index="1" class="highcharts-grid-line" d="M 48 126.5 L 432 126.5" opacity="1"></path><path fill="none" stroke-dasharray="none" data-z-index="1" class="highcharts-grid-line" d="M 48 107.5 L 432 107.5" opacity="1"></path><path fill="none" stroke-dasharray="none" data-z-index="1" class="highcharts-grid-line" d="M 48 89.5 L 432 89.5" opacity="1"></path><path fill="none" stroke-dasharray="none" data-z-index="1" class="highcharts-grid-line" d="M 48 71.5 L 432 71.5" opacity="1"></path><path fill="none" stroke-dasharray="none" data-z-index="1" class="highcharts-grid-line" d="M 48 53.5 L 432 53.5" opacity="1"></path><path fill="none" stroke-dasharray="none" data-z-index="1" class="highcharts-grid-line" d="M 48 34.5 L 432 34.5" opacity="1"></path><path fill="none" stroke-dasharray="none" data-z-index="1" class="highcharts-grid-line" d="M 48 16.5 L 432 16.5" opacity="1"></path></g><g class="highcharts-grid highcharts-yaxis-grid" data-z-index="1"><path fill="none" stroke-dasharray="none" data-z-index="1" class="highcharts-grid-line" d="M 48 162.5 L 432 162.5" opacity="1"></path><path fill="none" stroke-dasharray="none" data-z-index="1" class="highcharts-grid-line" d="M 48 144.5 L 432 144.5" opacity="1"></path><path fill="none" stroke-dasharray="none" data-z-index="1" class="highcharts-grid-line" d="M 48 126.5 L 432 126.5" opacity="1"></path><path fill="none" stroke-dasharray="none" data-z-index="1" class="highcharts-grid-line" d="M 48 107.5 L 432 107.5" opacity="1"></path><path fill="none" stroke-dasharray="none" data-z-index="1" class="highcharts-grid-line" d="M 48 89.5 L 432 89.5" opacity="1"></path><path fill="none" stroke-dasharray="none" data-z-index="1" class="highcharts-grid-line" d="M 48 71.5 L 432 71.5" opacity="1"></path><path fill="none" stroke-dasharray="none" data-z-index="1" class="highcharts-grid-line" d="M 48 53.5 L 432 53.5" opacity="1"></path><path fill="none" stroke-dasharray="none" data-z-index="1" class="highcharts-grid-line" d="M 48 34.5 L 432 34.5" opacity="1"></path><path fill="none" stroke-dasharray="none" data-z-index="1" class="highcharts-grid-line" d="M 48 16.5 L 432 16.5" opacity="1"></path></g><g class="highcharts-axis highcharts-xaxis" data-z-index="2"><path fill="none" class="highcharts-axis-line" stroke="#000000" stroke-width="0.25" data-z-index="7" d="M 48 162.125 L 432 162.125"></path></g><g class="highcharts-axis highcharts-yaxis" data-z-index="2"><path fill="none" class="highcharts-tick" stroke="#000000" stroke-width="0.25" d="M 48 162.125 L 58 162.125" opacity="1"></path><path fill="none" class="highcharts-tick" stroke="#000000" stroke-width="0.25" d="M 48 144.125 L 58 144.125" opacity="1"></path><path fill="none" class="highcharts-tick" stroke="#000000" stroke-width="0.25" d="M 48 126.125 L 58 126.125" opacity="1"></path><path fill="none" class="highcharts-tick" stroke="#000000" stroke-width="0.25" d="M 48 107.125 L 58 107.125" opacity="1"></path><path fill="none" class="highcharts-tick" stroke="#000000" stroke-width="0.25" d="M 48 89.125 L 58 89.125" opacity="1"></path><path fill="none" class="highcharts-tick" stroke="#000000" stroke-width="0.25" d="M 48 71.125 L 58 71.125" opacity="1"></path><path fill="none" class="highcharts-tick" stroke="#000000" stroke-width="0.25" d="M 48 53.125 L 58 53.125" opacity="1"></path><path fill="none" class="highcharts-tick" stroke="#000000" stroke-width="0.25" d="M 48 34.125 L 58 34.125" opacity="1"></path><path fill="none" class="highcharts-tick" stroke="#000000" stroke-width="0.25" d="M 48 15.875 L 58 15.875" opacity="1"></path><path fill="none" class="highcharts-axis-line" stroke="#000000" stroke-width="0.25" data-z-index="7" d="M 47.875 16 L 47.875 162"></path></g><g class="highcharts-axis highcharts-yaxis" data-z-index="2"><path fill="none" class="highcharts-tick" stroke="#000000" stroke-width="0.25" d="M 432 162.125 L 422 162.125" opacity="1"></path><path fill="none" class="highcharts-tick" stroke="#000000" stroke-width="0.25" d="M 432 144.125 L 422 144.125" opacity="1"></path><path fill="none" class="highcharts-tick" stroke="#000000" stroke-width="0.25" d="M 432 126.125 L 422 126.125" opacity="1"></path><path fill="none" class="highcharts-tick" stroke="#000000" stroke-width="0.25" d="M 432 107.125 L 422 107.125" opacity="1"></path><path fill="none" class="highcharts-tick" stroke="#000000" stroke-width="0.25" d="M 432 89.125 L 422 89.125" opacity="1"></path><path fill="none" class="highcharts-tick" stroke="#000000" stroke-width="0.25" d="M 432 71.125 L 422 71.125" opacity="1"></path><path fill="none" class="highcharts-tick" stroke="#000000" stroke-width="0.25" d="M 432 53.125 L 422 53.125" opacity="1"></path><path fill="none" class="highcharts-tick" stroke="#000000" stroke-width="0.25" d="M 432 34.125 L 422 34.125" opacity="1"></path><path fill="none" class="highcharts-tick" stroke="#000000" stroke-width="0.25" d="M 432 15.875 L 422 15.875" opacity="1"></path><path fill="none" class="highcharts-axis-line" stroke="#000000" stroke-width="0.25" data-z-index="7" d="M 432.125 16 L 432.125 162"></path></g><g class="highcharts-series-group" data-z-index="3"><g class="highcharts-series highcharts-series-0 highcharts-line-series" data-z-index="0.1" opacity="1" transform="translate(48,16) scale(1 1)" clip-path="url(#highcharts-6x9db0n-4636-)"><path fill="none" d="M 10.043541106095 49.91375000000001 L 22.85236496253 48.545 L 35.803509084036 46.446250000000006 L 48.896973470613 46.9025 L 61.990437857191 46.62875 L 74.941581978696 44.98625 L 87.892726100202 42.431250000000006 L 100.98619048678 44.073750000000004 L 114.07965487336 42.8875 L 126.88847872979 42.705 L 139.8396228513 42.06625 L 152.93308723787 42.705 L 166.02655162445 42.1575 L 178.83537548089 42.431250000000006 L 191.78651960239 40.69749999999999 L 204.87998398897 41.0625 L 217.97344837555 42.1575 L 230.78227223198 40.150000000000006 L 243.73341635349 38.325 L 256.82688074007 38.325 L 269.92034512664 37.41250000000001 L 282.87148924815 38.325 L 295.82263336965 36.5 L 308.91609775623 36.5 L 322.00956214281 38.325 L 334.81838599924 36.5 L 347.76953012075 36.5 L 360.86299450733 36.5" class="highcharts-graph" data-z-index="1" stroke="#4156a6" stroke-width="2" stroke-linejoin="round" stroke-linecap="round"></path></g><g class="highcharts-markers highcharts-series-0 highcharts-line-series" data-z-index="0.1" opacity="1" transform="translate(48,16) scale(1 1)" clip-path="none"></g><g class="highcharts-series highcharts-series-1 highcharts-column-series" data-z-index="0.1" opacity="1" transform="translate(48,16) scale(1 1)" clip-path="url(#highcharts-6x9db0n-4636-)"><rect x="176" y="56" width="7" height="91" fill="#c8d5ed" opacity="1" class="highcharts-point"></rect><rect x="189" y="56" width="7" height="91" fill="#c8d5ed" opacity="1" class="highcharts-point"></rect><rect x="202" y="56" width="7" height="91" fill="#c8d5ed" opacity="1" class="highcharts-point"></rect><rect x="215" y="56" width="7" height="91" fill="#c8d5ed" opacity="1" class="highcharts-point"></rect><rect x="228" y="56" width="7" height="91" fill="#c8d5ed" opacity="1" class="highcharts-point"></rect><rect x="241" y="56" width="7" height="91" fill="#c8d5ed" opacity="1" class="highcharts-point"></rect><rect x="254" y="56" width="7" height="91" fill="#c8d5ed" opacity="1" class="highcharts-point"></rect><rect x="267" y="56" width="7" height="91" fill="#c8d5ed" opacity="1" class="highcharts-point"></rect><rect x="280" y="56" width="7" height="91" fill="#c8d5ed" opacity="1" class="highcharts-point"></rect><rect x="293" y="56" width="7" height="91" fill="#c8d5ed" opacity="1" class="highcharts-point"></rect><rect x="306" y="56" width="7" height="91" fill="#c8d5ed" opacity="1" class="highcharts-point"></rect><rect x="319" y="56" width="7" height="91" fill="#c8d5ed" opacity="1" class="highcharts-point"></rect><rect x="332" y="56" width="7" height="91" fill="#c8d5ed" opacity="1" class="highcharts-point"></rect></g><g class="highcharts-markers highcharts-series-1 highcharts-column-series" data-z-index="0.1" opacity="1" transform="translate(48,16) scale(1 1)" clip-path="none"></g><g class="highcharts-series highcharts-series-2 highcharts-column-series" data-z-index="0.1" opacity="1" transform="translate(48,16) scale(1 1)" clip-path="url(#highcharts-6x9db0n-4636-)"><rect x="345" y="56" width="7" height="91" fill="#5b91cc" opacity="1" class="highcharts-point"></rect><rect x="358" y="56" width="7" height="91" fill="#5b91cc" opacity="1" class="highcharts-point"></rect><rect x="371" y="56" width="7" height="91" fill="#5b91cc" opacity="1" class="highcharts-point"></rect></g><g class="highcharts-markers highcharts-series-2 highcharts-column-series" data-z-index="0.1" opacity="1" transform="translate(48,16) scale(1 1)" clip-path="none"></g></g><text x="13" text-anchor="start" class="highcharts-title" data-z-index="4" style="color:#333333;font-size:20px;fill:#333333;" y="31"></text><text x="13" text-anchor="start" class="highcharts-subtitle" data-z-index="4" style="color:#000000;font-size:20px;fill:#000000;" y="36"></text><text x="13" text-anchor="start" class="highcharts-caption" data-z-index="4" style="color:#666666;font-size:16px;fill:#666666;" y="230"></text><g class="highcharts-legend highcharts-no-tooltip" data-z-index="7" transform="translate(80,193)"><rect fill="none" class="highcharts-legend-box" rx="0" ry="0" x="0" y="0" width="319" height="22" visibility="visible"></rect><g data-z-index="1"><g><g class="highcharts-legend-item highcharts-line-series highcharts-color-undefined highcharts-series-0" data-z-index="1" transform="translate(8,3)"><path fill="none" d="M 0 8 L 16 8" class="highcharts-graph" stroke="#4156a6" stroke-width="2"></path><text x="21" y="11" style="color:#000000;cursor:pointer;font-size:8px;font-weight:normal;fill:#000000;" text-anchor="start" data-z-index="2">Faktisk NSFR-dekning</text></g><g class="highcharts-legend-item highcharts-column-series highcharts-color-undefined highcharts-series-1" data-z-index="1" transform="translate(128.578125,3)"><text x="21" y="11" style="color:#000000;cursor:pointer;font-size:8px;font-weight:normal;fill:#000000;" text-anchor="start" data-z-index="2">Basel-anbefaling</text><rect x="4" y="4" width="8" height="8" fill="#c8d5ed" class="highcharts-point" data-z-index="3"></rect></g><g class="highcharts-legend-item highcharts-column-series highcharts-color-undefined highcharts-series-2" data-z-index="1" transform="translate(231.359375,3)"><text x="21" y="11" style="color:#000000;cursor:pointer;font-size:8px;font-weight:normal;fill:#000000;" text-anchor="start" data-z-index="2">Vedtatt EU-krav</text><rect x="4" y="4" width="8" height="8" fill="#5b91cc" class="highcharts-point" data-z-index="3"></rect></g></g></g></g><g class="highcharts-axis-labels highcharts-xaxis-labels" data-z-index="7"><text x="110.13275812226" style="color:#000000;cursor:default;font-size:8px;fill:#000000;" text-anchor="middle" transform="translate(0,0)" y="179" opacity="1">2016</text><text x="214.16887188952" style="color:#000000;cursor:default;font-size:8px;fill:#000000;" text-anchor="middle" transform="translate(0,0)" y="179" opacity="1">2018</text><text x="318.06266539171" style="color:#000000;cursor:default;font-size:8px;fill:#000000;" text-anchor="middle" transform="translate(0,0)" y="179" opacity="1">2020</text><text x="422.09877915898" style="color:#000000;cursor:default;font-size:8px;fill:#000000;" text-anchor="middle" transform="translate(0,0)" y="179" opacity="1">2022</text></g><g class="highcharts-axis-labels highcharts-yaxis-labels" data-z-index="7"><text x="33" style="color:#000000;cursor:default;font-size:8px;fill:#000000;" text-anchor="end" transform="translate(0,0)" y="165" opacity="1">0%</text><text x="33" style="color:#000000;cursor:default;font-size:8px;fill:#000000;" text-anchor="end" transform="translate(0,0)" y="147" opacity="1">20%</text><text x="33" style="color:#000000;cursor:default;font-size:8px;fill:#000000;" text-anchor="end" transform="translate(0,0)" y="129" opacity="1">40%</text><text x="33" style="color:#000000;cursor:default;font-size:8px;fill:#000000;" text-anchor="end" transform="translate(0,0)" y="111" opacity="1">60%</text><text x="33" style="color:#000000;cursor:default;font-size:8px;fill:#000000;" text-anchor="end" transform="translate(0,0)" y="92" opacity="1">80%</text><text x="33" style="color:#000000;cursor:default;font-size:8px;fill:#000000;" text-anchor="end" transform="translate(0,0)" y="74" opacity="1">100%</text><text x="33" style="color:#000000;cursor:default;font-size:8px;fill:#000000;" text-anchor="end" transform="translate(0,0)" y="56" opacity="1">120%</text><text x="33" style="color:#000000;cursor:default;font-size:8px;fill:#000000;" text-anchor="end" transform="translate(0,0)" y="38" opacity="1">140%</text><text x="33" style="color:#000000;cursor:default;font-size:8px;fill:#000000;" text-anchor="end" transform="translate(0,0)" y="19" opacity="1">160%</text></g><g class="highcharts-axis-labels highcharts-yaxis-labels" data-z-index="7"><text x="447" style="color:#000000;cursor:default;font-size:8px;fill:#000000;" text-anchor="start" transform="translate(0,0)" y="165" opacity="1">0%</text><text x="447" style="color:#000000;cursor:default;font-size:8px;fill:#000000;" text-anchor="start" transform="translate(0,0)" y="147" opacity="1">20%</text><text x="447" style="color:#000000;cursor:default;font-size:8px;fill:#000000;" text-anchor="start" transform="translate(0,0)" y="129" opacity="1">40%</text><text x="447" style="color:#000000;cursor:default;font-size:8px;fill:#000000;" text-anchor="start" transform="translate(0,0)" y="111" opacity="1">60%</text><text x="447" style="color:#000000;cursor:default;font-size:8px;fill:#000000;" text-anchor="start" transform="translate(0,0)" y="92" opacity="1">80%</text><text x="447" style="color:#000000;cursor:default;font-size:8px;fill:#000000;" text-anchor="start" transform="translate(0,0)" y="74" opacity="1">100%</text><text x="447" style="color:#000000;cursor:default;font-size:8px;fill:#000000;" text-anchor="start" transform="translate(0,0)" y="56" opacity="1">120%</text><text x="447" style="color:#000000;cursor:default;font-size:8px;fill:#000000;" text-anchor="start" transform="translate(0,0)" y="38" opacity="1">140%</text><text x="447" style="color:#000000;cursor:default;font-size:8px;fill:#000000;" text-anchor="start" transform="translate(0,0)" y="19" opacity="1">160%</text></g><g class="highcharts-control-points" data-z-index="99" clip-path="url(#highcharts-6x9db0n-4725-)"></g></svg>