<svg xmlns:xlink="http://www.w3.org/1999/xlink" version="1.1" class="highcharts-root" style="font-family:Open Sans, sans-serif;font-size:12px;color:#000000;fill:#000000;" xmlns="http://www.w3.org/2000/svg" width="480" height="227" viewBox="0 0 480 227"><desc>Created with Highcharts 9.2.2</desc><defs><clipPath id="highcharts-3vg79w4-1057-"><rect x="0" y="0" width="387" height="146" fill="none"></rect></clipPath><clipPath id="highcharts-3vg79w4-1079-"><rect x="0" y="0" width="387" height="146" fill="none"></rect></clipPath><clipPath id="highcharts-3vg79w4-1143-"><rect x="47" y="16" width="387" height="146" fill="none"></rect></clipPath></defs><rect fill="#ffffff" class="highcharts-background" x="0" y="0" width="480" height="227" rx="0" ry="0"></rect><rect fill="#ffffff" class="highcharts-plot-background" x="47" y="16" width="387" height="146"></rect><g class="highcharts-pane-group" data-z-index="0"></g><g class="highcharts-plot-lines-0" data-z-index="0"><path fill="none" class="highcharts-plot-line "></path></g><g class="highcharts-plot-lines-0" data-z-index="0"><path fill="none" class="highcharts-plot-line " stroke="#000000" stroke-width="0.25" d="M 47 162.125 L 434 162.125"></path></g><g class="highcharts-plot-lines-0" data-z-index="0"><path fill="none" class="highcharts-plot-line " stroke="#000000" stroke-width="0.25" d="M 47 162.125 L 434 162.125"></path></g><rect fill="none" class="highcharts-plot-border" data-z-index="1" x="47" y="16" width="387" height="146"></rect><g class="highcharts-grid highcharts-xaxis-grid" data-z-index="1"><path fill="none" stroke-dasharray="none" data-z-index="1" class="highcharts-grid-line" d="M 69.5 16 L 69.5 162" opacity="1"></path><path fill="none" stroke-dasharray="none" data-z-index="1" class="highcharts-grid-line" d="M 145.5 16 L 145.5 162" opacity="1"></path><path fill="none" stroke-dasharray="none" data-z-index="1" class="highcharts-grid-line" d="M 221.5 16 L 221.5 162" opacity="1"></path><path fill="none" stroke-dasharray="none" data-z-index="1" class="highcharts-grid-line" d="M 297.5 16 L 297.5 162" opacity="1"></path><path fill="none" stroke-dasharray="none" data-z-index="1" class="highcharts-grid-line" d="M 373.5 16 L 373.5 162" opacity="1"></path></g><g class="highcharts-grid highcharts-yaxis-grid" data-z-index="1"><path fill="none" stroke-dasharray="none" data-z-index="1" class="highcharts-grid-line" d="M 47 162.5 L 434 162.5" opacity="1"></path><path fill="none" stroke-dasharray="none" data-z-index="1" class="highcharts-grid-line" d="M 47 113.5 L 434 113.5" opacity="1"></path><path fill="none" stroke-dasharray="none" data-z-index="1" class="highcharts-grid-line" d="M 47 65.5 L 434 65.5" opacity="1"></path><path fill="none" stroke-dasharray="none" data-z-index="1" class="highcharts-grid-line" d="M 47 16.5 L 434 16.5" opacity="1"></path></g><g class="highcharts-grid highcharts-yaxis-grid" data-z-index="1"><path fill="none" stroke-dasharray="none" data-z-index="1" class="highcharts-grid-line" d="M 47 162.5 L 434 162.5" opacity="1"></path><path fill="none" stroke-dasharray="none" data-z-index="1" class="highcharts-grid-line" d="M 47 113.5 L 434 113.5" opacity="1"></path><path fill="none" stroke-dasharray="none" data-z-index="1" class="highcharts-grid-line" d="M 47 65.5 L 434 65.5" opacity="1"></path><path fill="none" stroke-dasharray="none" data-z-index="1" class="highcharts-grid-line" d="M 47 16.5 L 434 16.5" opacity="1"></path></g><g class="highcharts-axis highcharts-xaxis" data-z-index="2"><path fill="none" class="highcharts-axis-line" stroke="#000000" stroke-width="0.25" data-z-index="7" d="M 47 162.125 L 434 162.125"></path></g><g class="highcharts-axis highcharts-yaxis" data-z-index="2"><path fill="none" class="highcharts-tick" stroke="#000000" stroke-width="0.25" d="M 47 162.125 L 57 162.125" opacity="1"></path><path fill="none" class="highcharts-tick" stroke="#000000" stroke-width="0.25" d="M 47 113.125 L 57 113.125" opacity="1"></path><path fill="none" class="highcharts-tick" stroke="#000000" stroke-width="0.25" d="M 47 65.125 L 57 65.125" opacity="1"></path><path fill="none" class="highcharts-tick" stroke="#000000" stroke-width="0.25" d="M 47 15.875 L 57 15.875" opacity="1"></path><path fill="none" class="highcharts-axis-line" stroke="#000000" stroke-width="0.25" data-z-index="7" d="M 46.875 16 L 46.875 162"></path></g><g class="highcharts-axis highcharts-yaxis" data-z-index="2"><path fill="none" class="highcharts-tick" stroke="#000000" stroke-width="0.25" d="M 434 162.125 L 424 162.125" opacity="1"></path><path fill="none" class="highcharts-tick" stroke="#000000" stroke-width="0.25" d="M 434 113.125 L 424 113.125" opacity="1"></path><path fill="none" class="highcharts-tick" stroke="#000000" stroke-width="0.25" d="M 434 65.125 L 424 65.125" opacity="1"></path><path fill="none" class="highcharts-tick" stroke="#000000" stroke-width="0.25" d="M 434 15.875 L 424 15.875" opacity="1"></path><path fill="none" class="highcharts-axis-line" stroke="#000000" stroke-width="0.25" data-z-index="7" d="M 434.125 16 L 434.125 162"></path></g><g class="highcharts-series-group" data-z-index="3"><g class="highcharts-series highcharts-series-0 highcharts-line-series highcharts-color-0" data-z-index="0.1" opacity="1" transform="translate(47,16) scale(1 1)" clip-path="url(#highcharts-3vg79w4-1057-)"><path fill="none" d="M 3.7941176470588 21.80266666666668 L 22.899690910847 21.51066666666668 L 41.797594900029 32.99600000000001 L 60.695498889211 36.20800000000001 L 79.801072152999 43.31333333333333 L 98.906645416787 47.304 L 117.59688013136 50.32133333333334 L 136.49478412054 50.80800000000002 L 155.60035738433 47.10933333333334 L 174.70593064812 45.45466666666667 L 193.3961653627 42.24266666666668 L 212.29406935188 36.69466666666668 L 231.39964261567 36.98666666666668 L 250.50521587946 39.32266666666666 L 269.19545059403 33.28800000000001 L 288.09335458321 33.09333333333335 L 307.198927847 33.58 L 326.30450111079 35.040000000000006 L 345.20240509997 50.56466666666668 L 364.10030908915 59.042400000000015 L 383.20588235294 63.120666666666665" class="highcharts-graph" data-z-index="1" stroke="#4156A6" stroke-width="2" stroke-linejoin="round" stroke-linecap="round"></path></g><g class="highcharts-markers highcharts-series-0 highcharts-line-series highcharts-color-0" data-z-index="0.1" opacity="1" transform="translate(47,16) scale(1 1)" clip-path="none"></g><g class="highcharts-series highcharts-series-1 highcharts-line-series highcharts-color-1" data-z-index="0.1" opacity="1" transform="translate(47,16) scale(1 1)" clip-path="url(#highcharts-3vg79w4-1057-)"><path fill="none" d="M 3.7941176470588 23.360000000000014 L 22.899690910847 25.501333333333335 L 41.797594900029 31.828000000000003 L 60.695498889211 31.146666666666675 L 79.801072152999 27.934666666666672 L 98.906645416787 25.988000000000014 L 117.59688013136 19.661333333333346 L 136.49478412054 21.12133333333334 L 155.60035738433 24.333333333333343 L 174.70593064812 27.448000000000008 L 193.3961653627 34.06666666666668 L 212.29406935188 32.60666666666667 L 231.39964261567 31.341333333333353 L 250.50521587946 25.988000000000014 L 269.19545059403 20.634666666666675 L 288.09335458321 20.926666666666677 L 307.198927847 21.60800000000002 L 326.30450111079 25.014666666666685 L 345.20240509997 47.45 L 364.10030908915 62.05000000000001 L 383.20588235294 71.78333333333335" class="highcharts-graph" data-z-index="1" stroke="#F15D61" stroke-width="2" stroke-linejoin="round" stroke-linecap="round"></path></g><g class="highcharts-markers highcharts-series-1 highcharts-line-series highcharts-color-1" data-z-index="0.1" opacity="1" transform="translate(47,16) scale(1 1)" clip-path="none"></g><g class="highcharts-series highcharts-series-2 highcharts-line-series highcharts-color-2" data-z-index="0.1" opacity="1" transform="translate(47,16) scale(1 1)" clip-path="url(#highcharts-3vg79w4-1057-)"><path fill="none" d="M 3.7941176470588 65.89466666666667 L 22.899690910847 55.96666666666667 L 41.797594900029 57.91333333333333 L 60.695498889211 61.51466666666667 L 79.801072152999 59.373333333333335 L 98.906645416787 52.56000000000002 L 117.59688013136 41.56133333333334 L 136.49478412054 33.09333333333335 L 155.60035738433 26.961333333333343 L 174.70593064812 23.554666666666677 L 193.3961653627 31.63333333333334 L 212.29406935188 39.128 L 231.39964261567 47.888000000000005 L 250.50521587946 56.16133333333333 L 269.19545059403 62.29333333333335 L 288.09335458321 65.7 L 307.198927847 67.84133333333335 L 326.30450111079 66.868 L 345.20240509997 94.9 L 364.10030908915 110.47333333333333 L 383.20588235294 120.93666666666667" class="highcharts-graph" data-z-index="1" stroke="#969497" stroke-width="2" stroke-linejoin="round" stroke-linecap="round"></path></g><g class="highcharts-markers highcharts-series-2 highcharts-line-series highcharts-color-2" data-z-index="0.1" opacity="1" transform="translate(47,16) scale(1 1)" clip-path="none"></g><g class="highcharts-series highcharts-series-3 highcharts-line-series highcharts-color-3" data-z-index="0.1" opacity="1" transform="translate(47,16) scale(1 1)" clip-path="url(#highcharts-3vg79w4-1057-)"><path fill="none" d="M 3.7941176470588 88.57333333333334 L 22.899690910847 86.14 L 41.797594900029 89.25466666666668 L 60.695498889211 91.98 L 79.801072152999 94.41333333333334 L 98.906645416787 97.33333333333334 L 117.59688013136 94.12133333333334 L 136.49478412054 91.00666666666666 L 155.60035738433 86.62666666666667 L 174.70593064812 80.00800000000001 L 193.3961653627 80.30000000000001 L 212.29406935188 79.81333333333335 L 231.39964261567 79.81333333333335 L 250.50521587946 78.548 L 269.19545059403 78.548 L 288.09335458321 79.03466666666667 L 307.198927847 80.49466666666667 L 326.30450111079 82.24666666666667 L 345.20240509997 95.63 L 364.10030908915 111.44666666666667 L 383.20588235294 121.42333333333333" class="highcharts-graph" data-z-index="1" stroke="#5B91CC" stroke-width="2" stroke-linejoin="round" stroke-linecap="round"></path></g><g class="highcharts-markers highcharts-series-3 highcharts-line-series highcharts-color-3" data-z-index="0.1" opacity="1" transform="translate(47,16) scale(1 1)" clip-path="none"></g></g><text x="13" text-anchor="start" class="highcharts-title" data-z-index="4" style="color:#333333;font-size:20px;fill:#333333;" y="31"></text><text x="13" text-anchor="start" class="highcharts-subtitle" data-z-index="4" style="color:#000000;font-size:20px;fill:#000000;" y="36"></text><text x="13" text-anchor="start" class="highcharts-caption" data-z-index="4" style="color:#666666;font-size:16px;fill:#666666;" y="230"></text><g class="highcharts-legend highcharts-no-tooltip" data-z-index="7" transform="translate(97,193)"><rect fill="none" class="highcharts-legend-box" rx="0" ry="0" x="0" y="0" width="285" height="22" visibility="visible"></rect><g data-z-index="1"><g><g class="highcharts-legend-item highcharts-line-series highcharts-color-0 highcharts-series-0" data-z-index="1" transform="translate(8,3)"><path fill="none" d="M 0 8 L 16 8" class="highcharts-graph" stroke="#4156A6" stroke-width="2"></path><text x="21" y="11" style="color:#000000;cursor:pointer;font-size:8px;font-weight:normal;fill:#000000;" text-anchor="start" data-z-index="2">Norske</text></g><g class="highcharts-legend-item highcharts-line-series highcharts-color-1 highcharts-series-1" data-z-index="1" transform="translate(75.515625,3)"><path fill="none" d="M 0 8 L 16 8" class="highcharts-graph" stroke="#F15D61" stroke-width="2"></path><text x="21" y="11" style="color:#000000;cursor:pointer;font-size:8px;font-weight:normal;fill:#000000;" text-anchor="start" data-z-index="2">Svenske</text></g><g class="highcharts-legend-item highcharts-line-series highcharts-color-2 highcharts-series-2" data-z-index="1" transform="translate(146.6875,3)"><path fill="none" d="M 0 8 L 16 8" class="highcharts-graph" stroke="#969497" stroke-width="2"></path><text x="21" y="11" style="color:#000000;cursor:pointer;font-size:8px;font-weight:normal;fill:#000000;" text-anchor="start" data-z-index="2">Danske</text></g><g class="highcharts-legend-item highcharts-line-series highcharts-color-3 highcharts-series-3" data-z-index="1" transform="translate(215.265625,3)"><path fill="none" d="M 0 8 L 16 8" class="highcharts-graph" stroke="#5B91CC" stroke-width="2"></path><text x="21" y="11" style="color:#000000;cursor:pointer;font-size:8px;font-weight:normal;fill:#000000;" text-anchor="start" data-z-index="2">Europeiske</text></g></g></g></g><g class="highcharts-axis-labels highcharts-xaxis-labels" data-z-index="7"><text x="70.107360185453" style="color:#000000;cursor:default;font-size:8px;fill:#000000;" text-anchor="middle" transform="translate(0,0)" y="179" opacity="1">2016</text><text x="146.11431469139" style="color:#000000;cursor:default;font-size:8px;fill:#000000;" text-anchor="middle" transform="translate(0,0)" y="179" opacity="1">2017</text><text x="221.91359992273" style="color:#000000;cursor:default;font-size:8px;fill:#000000;" text-anchor="middle" transform="translate(0,0)" y="179" opacity="1">2018</text><text x="297.71288515406" style="color:#000000;cursor:default;font-size:8px;fill:#000000;" text-anchor="middle" transform="translate(0,0)" y="179" opacity="1">2019</text><text x="373.5121703854" style="color:#000000;cursor:default;font-size:8px;fill:#000000;" text-anchor="middle" transform="translate(0,0)" y="179" opacity="1">2020</text></g><g class="highcharts-axis-labels highcharts-yaxis-labels" data-z-index="7"><text x="32" style="color:#000000;cursor:default;font-size:8px;fill:#000000;" text-anchor="end" transform="translate(0,0)" y="166" opacity="1">0 %</text><text x="32" style="color:#000000;cursor:default;font-size:8px;fill:#000000;" text-anchor="end" transform="translate(0,0)" y="117" opacity="1">5 %</text><text x="32" style="color:#000000;cursor:default;font-size:8px;fill:#000000;" text-anchor="end" transform="translate(0,0)" y="68" opacity="1">10 %</text><text x="32" style="color:#000000;cursor:default;font-size:8px;fill:#000000;" text-anchor="end" transform="translate(0,0)" y="20" opacity="1">15 %</text></g><g class="highcharts-axis-labels highcharts-yaxis-labels" data-z-index="7"><text x="449" style="color:#000000;cursor:default;font-size:8px;fill:#000000;" text-anchor="start" transform="translate(0,0)" y="166" opacity="1">0 %</text><text x="449" style="color:#000000;cursor:default;font-size:8px;fill:#000000;" text-anchor="start" transform="translate(0,0)" y="117" opacity="1">5 %</text><text x="449" style="color:#000000;cursor:default;font-size:8px;fill:#000000;" text-anchor="start" transform="translate(0,0)" y="68" opacity="1">10 %</text><text x="449" style="color:#000000;cursor:default;font-size:8px;fill:#000000;" text-anchor="start" transform="translate(0,0)" y="20" opacity="1">15 %</text></g><g class="highcharts-control-points" data-z-index="99" clip-path="url(#highcharts-3vg79w4-1143-)"></g></svg>