<svg xmlns:xlink="http://www.w3.org/1999/xlink" version="1.1" class="highcharts-root" style="font-family:Open Sans, sans-serif;font-size:12px;color:#000000;fill:#000000;" xmlns="http://www.w3.org/2000/svg" width="480" height="227" viewBox="0 0 480 227"><desc>Created with Highcharts 9.2.2</desc><defs><clipPath id="highcharts-dbtmcvi-16459-"><rect x="0" y="0" width="401" height="135" fill="none"></rect></clipPath><clipPath id="highcharts-dbtmcvi-16624-"><rect x="0" y="0" width="401" height="135" fill="none"></rect></clipPath><clipPath id="highcharts-dbtmcvi-16789-"><rect x="0" y="0" width="401" height="135" fill="none"></rect></clipPath><clipPath id="highcharts-dbtmcvi-16954-"><rect x="42" y="16" width="401" height="135" fill="none"></rect></clipPath></defs><rect fill="#ffffff" class="highcharts-background" x="0" y="0" width="480" height="227" rx="0" ry="0"></rect><rect fill="#ffffff" class="highcharts-plot-background" x="42" y="16" width="401" height="135"></rect><g class="highcharts-pane-group" data-z-index="0"></g><g class="highcharts-plot-lines-0" data-z-index="0"><path fill="none" class="highcharts-plot-line "></path></g><g class="highcharts-plot-lines-0" data-z-index="0"><path fill="none" class="highcharts-plot-line " stroke="#000000" stroke-width="0.25" d="M 42 151.125 L 443 151.125"></path></g><g class="highcharts-plot-lines-0" data-z-index="0"><path fill="none" class="highcharts-plot-line " stroke="#000000" stroke-width="0.25" d="M 42 151.125 L 443 151.125"></path></g><rect fill="none" class="highcharts-plot-border" data-z-index="1" x="42" y="16" width="401" height="135"></rect><g class="highcharts-grid highcharts-xaxis-grid" data-z-index="1"><path fill="none" stroke-dasharray="none" data-z-index="1" class="highcharts-grid-line" d="M 43.5 16 L 43.5 151" opacity="1"></path><path fill="none" stroke-dasharray="none" data-z-index="1" class="highcharts-grid-line" d="M 139.5 16 L 139.5 151" opacity="1"></path><path fill="none" stroke-dasharray="none" data-z-index="1" class="highcharts-grid-line" d="M 235.5 16 L 235.5 151" opacity="1"></path><path fill="none" stroke-dasharray="none" data-z-index="1" class="highcharts-grid-line" d="M 332.5 16 L 332.5 151" opacity="1"></path><path fill="none" stroke-dasharray="none" data-z-index="1" class="highcharts-grid-line" d="M 428.5 16 L 428.5 151" opacity="1"></path></g><g class="highcharts-grid highcharts-yaxis-grid" data-z-index="1"><path fill="none" stroke-dasharray="none" data-z-index="1" class="highcharts-grid-line" d="M 42 151.5 L 443 151.5" opacity="1"></path><path fill="none" stroke-dasharray="none" data-z-index="1" class="highcharts-grid-line" d="M 42 84.5 L 443 84.5" opacity="1"></path><path fill="none" stroke-dasharray="none" data-z-index="1" class="highcharts-grid-line" d="M 42 16.5 L 443 16.5" opacity="1"></path></g><g class="highcharts-grid highcharts-yaxis-grid" data-z-index="1"><path fill="none" stroke-dasharray="none" data-z-index="1" class="highcharts-grid-line" d="M 42 151.5 L 443 151.5" opacity="1"></path><path fill="none" stroke-dasharray="none" data-z-index="1" class="highcharts-grid-line" d="M 42 84.5 L 443 84.5" opacity="1"></path><path fill="none" stroke-dasharray="none" data-z-index="1" class="highcharts-grid-line" d="M 42 16.5 L 443 16.5" opacity="1"></path></g><g class="highcharts-axis highcharts-xaxis" data-z-index="2"><path fill="none" class="highcharts-axis-line" stroke="#000000" stroke-width="0.25" data-z-index="7" d="M 42 151.125 L 443 151.125"></path></g><g class="highcharts-axis highcharts-yaxis" data-z-index="2"><path fill="none" class="highcharts-tick" stroke="#000000" stroke-width="0.25" d="M 42 151.125 L 52 151.125" opacity="1"></path><path fill="none" class="highcharts-tick" stroke="#000000" stroke-width="0.25" d="M 42 84.125 L 52 84.125" opacity="1"></path><path fill="none" class="highcharts-tick" stroke="#000000" stroke-width="0.25" d="M 42 15.875 L 52 15.875" opacity="1"></path><path fill="none" class="highcharts-axis-line" stroke="#000000" stroke-width="0.25" data-z-index="7" d="M 41.875 16 L 41.875 151"></path></g><g class="highcharts-axis highcharts-yaxis" data-z-index="2"><path fill="none" class="highcharts-tick" stroke="#000000" stroke-width="0.25" d="M 443 151.125 L 433 151.125" opacity="1"></path><path fill="none" class="highcharts-tick" stroke="#000000" stroke-width="0.25" d="M 443 84.125 L 433 84.125" opacity="1"></path><path fill="none" class="highcharts-tick" stroke="#000000" stroke-width="0.25" d="M 443 15.875 L 433 15.875" opacity="1"></path><path fill="none" class="highcharts-axis-line" stroke="#000000" stroke-width="0.25" data-z-index="7" d="M 443.125 16 L 443.125 151"></path></g><g class="highcharts-series-group" data-z-index="3"><g class="highcharts-series highcharts-series-0 highcharts-line-series highcharts-color-0" data-z-index="0.1" opacity="1" transform="translate(42,16) scale(1 1)" clip-path="url(#highcharts-dbtmcvi-16459-)"><path fill="none" d="M 3.9313725490196 96.61359375 L 6.3348317492936 96.3478125 L 8.764702589131 96.66843750000001 L 11.194573428968 96.8878125 L 13.571620989679 96.6515625 L 15.975080189953 96.95109375 L 18.40495102979 97.58812499999999 L 20.834821869628 97.18312499999999 L 23.211869430338 96.946875 L 25.615328630612 96.72749999999999 L 28.04519947045 96.76546875 L 30.475070310287 96.17484375000001 L 32.852117870998 96.08625 L 35.255577071272 95.3690625 L 37.685447911109 95.4534375 L 40.115318750947 94.53375 L 42.518777951221 93.99796875 L 44.922237151495 93.200625 L 47.352107991332 92.84625 L 49.78197883117 91.6903125 L 52.15902639188 91.0996875 L 54.562485592154 89.6315625 L 56.992356431992 88.44609375 L 59.422227271829 85.7503125 L 61.79927483254 85.00359375 L 64.202734032814 82.74234375 L 66.632604872651 81.81 L 69.062475712489 80.62453125 L 71.439523273199 79.51499999999999 L 73.842982473473 78.2071875 L 76.272853313311 76.75171875000001 L 78.702724153148 73.3471875 L 81.106183353422 73.7015625 L 83.509642553696 73.10671875 L 85.939513393533 72.916875 L 88.369384233371 71.46984375 L 90.746431794081 72.6215625 L 93.149890994355 72.85359375 L 95.579761834193 73.07296875 L 98.00963267403 72.00140625 L 100.38668023474 72.84515625 L 102.79013943501 72.85359375 L 105.22001027485 73.89140625 L 107.64988111469 73.6171875 L 110.0269286754 74.99249999999999 L 112.43038787567 75.9796875 L 114.86025871551 77.40140625000001 L 117.29012955535 77.75999999999999 L 119.69358875562 79.1521875 L 122.0970479559 80.308125 L 124.52691879573 81.58640625000001 L 126.95678963557 81.63703125 L 129.33383719628 83.3203125 L 131.73729639656 84.24000000000001 L 134.16716723639 85.201875 L 136.59703807623 85.34953125 L 138.97408563694 86.045625 L 141.37754483722 86.24390625000001 L 143.80741567705 86.3746875 L 146.23728651689 86.1721875 L 148.6143340776 86.9315625 L 151.01779327788 86.990625 L 153.44766411771 86.990625 L 155.87753495755 87.075 L 158.28099415782 86.94 L 160.6844533581 86.8725 L 163.11432419794 86.64046875 L 165.54419503777 86.51390624999999 L 167.92124259848 86.58140625 L 170.32470179876 86.48859375 L 172.7545726386 86.2059375 L 175.18444347843 85.80515625000001 L 177.56149103914 85.71656250000001 L 179.96495023942 85.4803125 L 182.39482107925 85.9190625 L 184.82469191909 86.52234375 L 187.2017394798 86.93578124999999 L 189.60519868008 86.66578125000001 L 192.03506951991 85.85578125 L 194.46494035975 84.8221875 L 196.86839956003 84.20625 L 199.2718587603 82.94484374999999 L 201.70172960014 82.35843750000001 L 204.13160043997 81.68765625 L 206.50864800068 81.0675 L 208.91210720096 80.10140625 L 211.3419780408 78.97921875 L 213.77184888063 77.92453125 L 216.14889644134 77.32546875 L 218.55235564162 76.22015625 L 220.98222648146 75.9375 L 223.41209732129 75.853125 L 225.789144882 75.5325 L 228.19260408228 74.6128125 L 230.62247492212 73.61296875000001 L 233.05234576195 72.66796875 L 235.45580496223 71.91703125000001 L 237.8592641625 70.87921874999999 L 240.28913500234 69.83296875 L 242.71900584218 68.3353125 L 245.09605340289 67.1203125 L 247.49951260316 65.8040625 L 249.929383443 64.5890625 L 252.35925428284 63.20531249999999 L 254.73630184355 62.602031249999996 L 257.13976104382 60.766875 L 259.56963188366 59.62359375000001 L 261.99950272349 58.303124999999994 L 264.37655028421 58.066874999999996 L 266.78000948448 56.84343750000001 L 269.20988032432 56.041875000000005 L 271.63975116415 55.05890624999999 L 274.04321036443 54.645468750000006 L 276.4466695647 54.10125000000001 L 278.87654040454 53.907187500000006 L 281.30641124438 54.223593750000006 L 283.68345880509 54.143437500000005 L 286.08691800536 53.721562500000005 L 288.5167888452 53.58234374999999 L 290.94665968504 53.459999999999994 L 293.32370724575 54.067499999999995 L 295.72716644602 53.65828125 L 298.15703728586 52.48125 L 300.5869081257 51.747187499999995 L 302.96395568641 51.797812500000006 L 305.36741488668 50.99203125 L 307.79728572652 50.48578124999999 L 310.22715656636 49.95 L 312.63061576663 49.46906249999999 L 315.0340749669 48.9628125 L 317.46394580674 48.5071875 L 319.89381664658 47.80687499999999 L 322.27086420729 47.650781249999994 L 324.67432340756 47.271093750000006 L 327.1041942474 47.0559375 L 329.53406508724 46.49484375 L 331.91111264795 46.37249999999999 L 334.31457184822 45.71859375 L 336.74444268806 45.31781249999999 L 339.1743135279 44.90015625000001 L 341.55136108861 44.90015625000001 L 343.95482028888 46.30078125 L 346.38469112872 45.680625000000006 L 348.81456196856 46.465312499999996 L 351.21802116883 45.832499999999996 L 353.6214803691 44.43609375000001 L 356.05135120894 43.17046875000001 L 358.48122204878 42.3478125 L 360.85826960949 42.24234375 L 363.26172880976 41.44500000000001 L 365.6915996496 40.980937499999996 L 368.12147048944 40.267968749999994 L 370.49851805015 39.694218750000005 L 372.90197725042 38.905312499999994 L 375.33184809026 38.015156250000004 L 377.7617189301 38.04890625 L 380.13876649081 38.141718749999995 L 382.54222569108 37.57640624999999 L 384.97209653092 37.84640625 L 387.40196737076 37.795781250000005 L 389.80542657103 37.842187499999994 L 392.20888577131 37.175625 L 394.63875661114 36.42890625 L 397.06862745098 36.264375" class="highcharts-graph" data-z-index="1" stroke="#4156A6" stroke-width="2" stroke-linejoin="round" stroke-linecap="round"></path></g><g class="highcharts-markers highcharts-series-0 highcharts-line-series highcharts-color-0" data-z-index="0.1" opacity="1" transform="translate(42,16) scale(1 1)" clip-path="none"></g><g class="highcharts-series highcharts-series-1 highcharts-line-series highcharts-color-1" data-z-index="0.1" opacity="1" transform="translate(42,16) scale(1 1)" clip-path="url(#highcharts-dbtmcvi-16459-)"><path fill="none" d="M 3.9313725490196 109.603125 L 6.3348317492936 109.771875 L 8.764702589131 109.3921875 L 11.194573428968 109.2234375 L 13.571620989679 108.3375 L 15.975080189953 107.4515625 L 18.40495102979 107.1984375 L 20.834821869628 107.578125 L 23.211869430338 105.975 L 25.615328630612 105.9328125 L 28.04519947045 105.6375 L 30.475070310287 105.46875 L 32.852117870998 104.034375 L 35.255577071272 103.7390625 L 37.685447911109 103.190625 L 40.115318750947 103.4015625 L 42.518777951221 103.6125 L 44.922237151495 103.10625 L 47.352107991332 102.8109375 L 49.78197883117 102.853125 L 52.15902639188 100.8703125 L 54.562485592154 100.575 L 56.992356431992 99.4359375 L 59.422227271829 98.465625 L 61.79927483254 95.596875 L 64.202734032814 94.415625 L 66.632604872651 91.96875 L 69.062475712489 90.4921875 L 71.439523273199 85.0078125 L 73.842982473473 83.48906249999999 L 76.272853313311 81.759375 L 78.702724153148 79.8609375 L 81.106183353422 78.384375 L 83.509642553696 78.553125 L 85.939513393533 78.30000000000001 L 88.369384233371 77.9625 L 90.746431794081 76.865625 L 93.149890994355 79.5234375 L 95.579761834193 80.83125 L 98.00963267403 81.675 L 100.38668023474 79.6078125 L 102.79013943501 80.2828125 L 105.22001027485 80.746875 L 107.64988111469 81.675 L 110.0269286754 81.5484375 L 112.43038787567 82.7296875 L 114.86025871551 83.9953125 L 117.29012955535 85.21875 L 119.69358875562 79.65 L 122.0970479559 81.5484375 L 124.52691879573 82.2234375 L 126.95678963557 82.4765625 L 129.33383719628 83.278125 L 131.73729639656 87.496875 L 134.16716723639 90.9984375 L 136.59703807623 94.03593749999999 L 138.97408563694 93.403125 L 141.37754483722 94.8796875 L 143.80741567705 95.596875 L 146.23728651689 95.428125 L 148.6143340776 95.4703125 L 151.01779327788 96.525 L 153.44766411771 96.7359375 L 155.87753495755 97.0734375 L 158.28099415782 97.2421875 L 160.6844533581 97.621875 L 163.11432419794 98.0015625 L 165.54419503777 98.296875 L 167.92124259848 99.984375 L 170.32470179876 100.7015625 L 172.7545726386 100.490625 L 175.18444347843 100.06875 L 177.56149103914 100.9125 L 179.96495023942 100.74375 L 182.39482107925 97.83281249999999 L 184.82469191909 95.2171875 L 187.2017394798 95.8921875 L 189.60519868008 97.28437500000001 L 192.03506951991 97.83281249999999 L 194.46494035975 97.7484375 L 196.86839956003 97.36875 L 199.2718587603 96.69375 L 201.70172960014 95.17500000000001 L 204.13160043997 93.69843750000001 L 206.50864800068 92.98124999999999 L 208.91210720096 92.6015625 L 211.3419780408 91.63125 L 213.77184888063 91.2515625 L 216.14889644134 90.87187499999999 L 218.55235564162 90.7875 L 220.98222648146 89.9859375 L 223.41209732129 89.353125 L 225.789144882 89.47968750000001 L 228.19260408228 90.703125 L 230.62247492212 92.475 L 233.05234576195 93.8671875 L 235.45580496223 93.7828125 L 237.8592641625 93.825 L 240.28913500234 93.234375 L 242.71900584218 92.7703125 L 245.09605340289 92.053125 L 247.49951260316 91.715625 L 249.929383443 90.87187499999999 L 252.35925428284 90.1546875 L 254.73630184355 89.353125 L 257.13976104382 88.34062499999999 L 259.56963188366 87.6234375 L 261.99950272349 86.31562500000001 L 264.37655028421 84.6703125 L 266.78000948448 83.7421875 L 269.20988032432 82.01249999999999 L 271.63975116415 80.4515625 L 274.04321036443 78.6375 L 276.4466695647 77.8359375 L 278.87654040454 76.528125 L 281.30641124438 77.371875 L 283.68345880509 79.98750000000001 L 286.08691800536 82.5609375 L 288.5167888452 83.3203125 L 290.94665968504 83.3203125 L 293.32370724575 83.7 L 295.72716644602 83.6578125 L 298.15703728586 82.940625 L 300.5869081257 82.35 L 302.96395568641 82.35 L 305.36741488668 82.2234375 L 307.79728572652 81.37968749999999 L 310.22715656636 80.6625 L 312.63061576663 80.4515625 L 315.0340749669 80.3671875 L 317.46394580674 79.9453125 L 319.89381664658 79.6921875 L 322.27086420729 79.6078125 L 324.67432340756 79.396875 L 327.1041942474 79.1015625 L 329.53406508724 78.890625 L 331.91111264795 78.21562499999999 L 334.31457184822 78.384375 L 336.74444268806 78.21562499999999 L 339.1743135279 78.384375 L 341.55136108861 78.5953125 L 343.95482028888 79.7765625 L 346.38469112872 79.81875 L 348.81456196856 80.578125 L 351.21802116883 79.6078125 L 353.6214803691 79.5234375 L 356.05135120894 78.7640625 L 358.48122204878 78.046875 L 360.85826960949 77.5828125 L 363.26172880976 77.4140625 L 365.6915996496 76.95 L 368.12147048944 76.4859375 L 370.49851805015 75.8109375 L 372.90197725042 75.7265625 L 375.33184809026 75.346875 L 377.7617189301 74.9671875 L 380.13876649081 74.5453125 L 382.54222569108 74.41875 L 384.97209653092 73.8703125 L 387.40196737076 73.40625 L 389.80542657103 73.321875 L 392.20888577131 74.75625 L 394.63875661114 75.13593750000001 L 397.06862745098 75.05156249999999" class="highcharts-graph" data-z-index="1" stroke="#F15D61" stroke-width="2" stroke-linejoin="round" stroke-linecap="round"></path></g><g class="highcharts-markers highcharts-series-1 highcharts-line-series highcharts-color-1" data-z-index="0.1" opacity="1" transform="translate(42,16) scale(1 1)" clip-path="none"></g><g class="highcharts-series highcharts-series-2 highcharts-line-series highcharts-color-2" data-z-index="0.1" opacity="1" transform="translate(42,16) scale(1 1)" clip-path="url(#highcharts-dbtmcvi-16459-)"><path fill="none" d="M 3.9313725490196 116.521875 L 6.3348317492936 116.4796875 L 8.764702589131 115.8046875 L 11.194573428968 115.25625 L 13.571620989679 114.5390625 L 15.975080189953 113.4421875 L 18.40495102979 112.809375 L 20.834821869628 113.146875 L 23.211869430338 111.290625 L 25.615328630612 111.121875 L 28.04519947045 110.8265625 L 30.475070310287 110.615625 L 32.852117870998 108.9703125 L 35.255577071272 108.675 L 37.685447911109 108.2109375 L 40.115318750947 108.3796875 L 42.518777951221 108.759375 L 44.922237151495 108.2953125 L 47.352107991332 108.1265625 L 49.78197883117 108.3796875 L 52.15902639188 106.3546875 L 54.562485592154 106.14375 L 56.992356431992 105.13125 L 59.422227271829 104.2875 L 61.79927483254 101.671875 L 64.202734032814 100.06875 L 66.632604872651 97.5375 L 69.062475712489 95.72343749999999 L 71.439523273199 89.81718749999999 L 73.842982473473 88.34062499999999 L 76.272853313311 86.56875 L 78.702724153148 84.62812500000001 L 81.106183353422 83.615625 L 83.509642553696 83.8265625 L 85.939513393533 83.7421875 L 88.369384233371 83.48906249999999 L 90.746431794081 82.43437499999999 L 93.149890994355 85.471875 L 95.579761834193 87.2015625 L 98.00963267403 88.34062499999999 L 100.38668023474 86.23124999999999 L 102.79013943501 86.821875 L 105.22001027485 87.24375 L 107.64988111469 88.2140625 L 110.0269286754 88.678125 L 112.43038787567 89.859375 L 114.86025871551 91.1671875 L 117.29012955535 92.30625 L 119.69358875562 86.3578125 L 122.0970479559 88.42500000000001 L 124.52691879573 88.84687500000001 L 126.95678963557 88.6359375 L 129.33383719628 89.7328125 L 131.73729639656 94.8375 L 134.16716723639 99.6046875 L 136.59703807623 103.696875 L 138.97408563694 102.89531249999999 L 141.37754483722 104.7515625 L 143.80741567705 105.721875 L 146.23728651689 105.46875 L 148.6143340776 105.553125 L 151.01779327788 106.734375 L 153.44766411771 107.071875 L 155.87753495755 107.49375 L 158.28099415782 107.915625 L 160.6844533581 108.6328125 L 163.11432419794 109.2234375 L 165.54419503777 109.8984375 L 167.92124259848 112.978125 L 170.32470179876 114.3703125 L 172.7545726386 114.075 L 175.18444347843 113.6109375 L 177.56149103914 115.5515625 L 179.96495023942 115.171875 L 182.39482107925 109.6875 L 184.82469191909 104.9203125 L 187.2017394798 105.7640625 L 189.60519868008 107.9578125 L 192.03506951991 109.265625 L 194.46494035975 109.85625 L 196.86839956003 109.85625 L 199.2718587603 109.18125 L 201.70172960014 107.1984375 L 204.13160043997 105.1734375 L 206.50864800068 104.540625 L 208.91210720096 104.2453125 L 211.3419780408 103.5703125 L 213.77184888063 103.5703125 L 216.14889644134 103.6546875 L 218.55235564162 103.865625 L 220.98222648146 102.89531249999999 L 223.41209732129 102.009375 L 225.789144882 102.5578125 L 228.19260408228 105.215625 L 230.62247492212 109.3078125 L 233.05234576195 113.1046875 L 235.45580496223 114.0328125 L 237.8592641625 114.8765625 L 240.28913500234 115.1296875 L 242.71900584218 115.2140625 L 245.09605340289 115.509375 L 247.49951260316 115.4671875 L 249.929383443 115.2140625 L 252.35925428284 114.665625 L 254.73630184355 114.075 L 257.13976104382 113.2734375 L 259.56963188366 113.1046875 L 261.99950272349 111.20625 L 264.37655028421 108.675 L 266.78000948448 106.8609375 L 269.20988032432 104.3296875 L 271.63975116415 101.71406250000001 L 274.04321036443 99.3515625 L 276.4466695647 97.70625 L 278.87654040454 95.80781250000001 L 281.30641124438 97.19999999999999 L 283.68345880509 103.0640625 L 286.08691800536 108.759375 L 288.5167888452 111.121875 L 290.94665968504 111.459375 L 293.32370724575 112.05 L 295.72716644602 111.5859375 L 298.15703728586 110.86875 L 300.5869081257 110.7 L 302.96395568641 111.121875 L 305.36741488668 111.0375 L 307.79728572652 109.771875 L 310.22715656636 108.590625 L 312.63061576663 108.3796875 L 315.0340749669 108.759375 L 317.46394580674 108.7171875 L 319.89381664658 108.675 L 322.27086420729 109.3078125 L 324.67432340756 108.421875 L 327.1041942474 108.3375 L 329.53406508724 108.3796875 L 331.91111264795 107.915625 L 334.31457184822 108.6328125 L 336.74444268806 108.8015625 L 339.1743135279 109.7296875 L 341.55136108861 110.7 L 343.95482028888 111.5015625 L 346.38469112872 112.6828125 L 348.81456196856 114.159375 L 351.21802116883 113.3578125 L 353.6214803691 113.990625 L 356.05135120894 113.90625 L 358.48122204878 113.6109375 L 360.85826960949 112.7671875 L 363.26172880976 112.7671875 L 365.6915996496 112.5984375 L 368.12147048944 112.5140625 L 370.49851805015 112.303125 L 372.90197725042 112.134375 L 375.33184809026 112.7671875 L 377.7617189301 112.1765625 L 380.13876649081 111.3328125 L 382.54222569108 110.9953125 L 384.97209653092 109.9828125 L 387.40196737076 108.928125 L 389.80542657103 108.6328125 L 392.20888577131 112.809375 L 394.63875661114 115.003125 L 397.06862745098 115.3828125" class="highcharts-graph" data-z-index="1" stroke="#969497" stroke-width="2" stroke-linejoin="round" stroke-linecap="round"></path></g><g class="highcharts-markers highcharts-series-2 highcharts-line-series highcharts-color-2" data-z-index="0.1" opacity="1" transform="translate(42,16) scale(1 1)" clip-path="none"></g></g><text x="13" text-anchor="start" class="highcharts-title" data-z-index="4" style="color:#333333;font-size:20px;fill:#333333;" y="31"></text><text x="13" text-anchor="start" class="highcharts-subtitle" data-z-index="4" style="color:#000000;font-size:20px;fill:#000000;" y="36"></text><text x="13" text-anchor="start" class="highcharts-caption" data-z-index="4" style="color:#666666;font-size:16px;fill:#666666;" y="230"></text><g class="highcharts-legend highcharts-no-tooltip" data-z-index="7" transform="translate(75,182)"><rect fill="none" class="highcharts-legend-box" rx="0" ry="0" x="0" y="0" width="329" height="33" visibility="visible"></rect><g data-z-index="1"><g><g class="highcharts-legend-item highcharts-line-series highcharts-color-0 highcharts-series-0" data-z-index="1" transform="translate(8,3)"><path fill="none" d="M 0 8 L 16 8" class="highcharts-graph" stroke="#4156A6" stroke-width="2"></path><text x="21" y="11" style="color:#000000;cursor:pointer;font-size:8px;font-weight:normal;fill:#000000;" text-anchor="start" data-z-index="2">Gjeldsbelastning (venstre akse)</text></g><g class="highcharts-legend-item highcharts-line-series highcharts-color-1 highcharts-series-1" data-z-index="1" transform="translate(174.96875,3)"><path fill="none" d="M 0 8 L 16 8" class="highcharts-graph" stroke="#F15D61" stroke-width="2"></path><text x="21" y="11" style="color:#000000;cursor:pointer;font-size:8px;font-weight:normal;fill:#000000;" text-anchor="start" data-z-index="2">Gjeldsbetjeningsgrad (høyre akse)</text></g><g class="highcharts-legend-item highcharts-line-series highcharts-color-2 highcharts-series-2" data-z-index="1" transform="translate(8,14)"><path fill="none" d="M 0 8 L 16 8" class="highcharts-graph" stroke="#969497" stroke-width="2"></path><text x="21" y="11" style="color:#000000;cursor:pointer;font-size:8px;font-weight:normal;fill:#000000;" text-anchor="start" data-z-index="2">Rentebelastning (høyre akse)</text></g></g></g></g><g class="highcharts-axis-labels highcharts-xaxis-labels" data-z-index="7"><text x="43.554324988309" style="color:#000000;cursor:default;font-size:8px;fill:#000000;" text-anchor="middle" transform="translate(0,0)" y="168" opacity="1">1980</text><text x="140.03604431359" style="color:#000000;cursor:default;font-size:8px;fill:#000000;" text-anchor="middle" transform="translate(0,0)" y="168" opacity="1">1990</text><text x="236.49135199931" style="color:#000000;cursor:default;font-size:8px;fill:#000000;" text-anchor="middle" transform="translate(0,0)" y="168" opacity="1">2000</text><text x="332.9730713246" style="color:#000000;cursor:default;font-size:8px;fill:#000000;" text-anchor="middle" transform="translate(0,0)" y="168" opacity="1">2010</text><text x="429.42837901032" style="color:#000000;cursor:default;font-size:8px;fill:#000000;" text-anchor="middle" transform="translate(0,0)" y="168" opacity="1">2020</text></g><g class="highcharts-axis-labels highcharts-yaxis-labels" data-z-index="7"><text x="27" style="color:#000000;cursor:default;font-size:8px;fill:#000000;" text-anchor="end" transform="translate(0,0)" y="155" opacity="1">0</text><text x="27" style="color:#000000;cursor:default;font-size:8px;fill:#000000;" text-anchor="end" transform="translate(0,0)" y="87" opacity="1">160</text><text x="27" style="color:#000000;cursor:default;font-size:8px;fill:#000000;" text-anchor="end" transform="translate(0,0)" y="20" opacity="1">320</text></g><g class="highcharts-axis-labels highcharts-yaxis-labels" data-z-index="7"><text x="458" style="color:#000000;cursor:default;font-size:8px;fill:#000000;" text-anchor="start" transform="translate(0,0)" y="155" opacity="1">0</text><text x="458" style="color:#000000;cursor:default;font-size:8px;fill:#000000;" text-anchor="start" transform="translate(0,0)" y="87" opacity="1">16</text><text x="458" style="color:#000000;cursor:default;font-size:8px;fill:#000000;" text-anchor="start" transform="translate(0,0)" y="20" opacity="1">32</text></g><g class="highcharts-control-points" data-z-index="99" clip-path="url(#highcharts-dbtmcvi-16954-)"></g></svg>