<svg xmlns:xlink="http://www.w3.org/1999/xlink" version="1.1" class="highcharts-root" style="font-family:Open Sans, sans-serif;font-size:12px;color:#000000;fill:#000000;" xmlns="http://www.w3.org/2000/svg" width="480" height="227" viewBox="0 0 480 227"><desc>Created with Highcharts 9.2.2</desc><defs><clipPath id="highcharts-czihvs1-1561-"><rect x="0" y="0" width="392" height="124" fill="none"></rect></clipPath><clipPath id="highcharts-czihvs1-1588-"><rect x="0" y="0" width="392" height="124" fill="none"></rect></clipPath><clipPath id="highcharts-czihvs1-1693-"><rect x="44" y="16" width="392" height="124" fill="none"></rect></clipPath></defs><rect fill="#ffffff" class="highcharts-background" x="0" y="0" width="480" height="227" rx="0" ry="0"></rect><rect fill="#ffffff" class="highcharts-plot-background" x="44" y="16" width="392" height="124"></rect><g class="highcharts-pane-group" data-z-index="0"></g><g class="highcharts-plot-lines-0" data-z-index="0"><path fill="none" class="highcharts-plot-line "></path></g><g class="highcharts-plot-lines-0" data-z-index="0"><path fill="none" class="highcharts-plot-line " stroke="#000000" stroke-width="0.25" d="M 44 140.125 L 436 140.125"></path></g><g class="highcharts-plot-lines-0" data-z-index="0"><path fill="none" class="highcharts-plot-line " stroke="#000000" stroke-width="0.25" d="M 44 140.125 L 436 140.125"></path></g><rect fill="none" class="highcharts-plot-border" data-z-index="1" x="44" y="16" width="392" height="124"></rect><g class="highcharts-grid highcharts-xaxis-grid" data-z-index="1"><path fill="none" stroke-dasharray="none" data-z-index="1" class="highcharts-grid-line" d="M 113.5 16 L 113.5 140" opacity="1"></path><path fill="none" stroke-dasharray="none" data-z-index="1" class="highcharts-grid-line" d="M 187.5 16 L 187.5 140" opacity="1"></path><path fill="none" stroke-dasharray="none" data-z-index="1" class="highcharts-grid-line" d="M 261.5 16 L 261.5 140" opacity="1"></path><path fill="none" stroke-dasharray="none" data-z-index="1" class="highcharts-grid-line" d="M 335.5 16 L 335.5 140" opacity="1"></path><path fill="none" stroke-dasharray="none" data-z-index="1" class="highcharts-grid-line" d="M 409.5 16 L 409.5 140" opacity="1"></path></g><g class="highcharts-grid highcharts-yaxis-grid" data-z-index="1"><path fill="none" stroke-dasharray="none" data-z-index="1" class="highcharts-grid-line" d="M 44 140.5 L 436 140.5" opacity="1"></path><path fill="none" stroke-dasharray="none" data-z-index="1" class="highcharts-grid-line" d="M 44 128.5 L 436 128.5" opacity="1"></path><path fill="none" stroke-dasharray="none" data-z-index="1" class="highcharts-grid-line" d="M 44 115.5 L 436 115.5" opacity="1"></path><path fill="none" stroke-dasharray="none" data-z-index="1" class="highcharts-grid-line" d="M 44 103.5 L 436 103.5" opacity="1"></path><path fill="none" stroke-dasharray="none" data-z-index="1" class="highcharts-grid-line" d="M 44 90.5 L 436 90.5" opacity="1"></path><path fill="none" stroke-dasharray="none" data-z-index="1" class="highcharts-grid-line" d="M 44 78.5 L 436 78.5" opacity="1"></path><path fill="none" stroke-dasharray="none" data-z-index="1" class="highcharts-grid-line" d="M 44 66.5 L 436 66.5" opacity="1"></path><path fill="none" stroke-dasharray="none" data-z-index="1" class="highcharts-grid-line" d="M 44 53.5 L 436 53.5" opacity="1"></path><path fill="none" stroke-dasharray="none" data-z-index="1" class="highcharts-grid-line" d="M 44 41.5 L 436 41.5" opacity="1"></path><path fill="none" stroke-dasharray="none" data-z-index="1" class="highcharts-grid-line" d="M 44 28.5 L 436 28.5" opacity="1"></path><path fill="none" stroke-dasharray="none" data-z-index="1" class="highcharts-grid-line" d="M 44 16.5 L 436 16.5" opacity="1"></path></g><g class="highcharts-grid highcharts-yaxis-grid" data-z-index="1"><path fill="none" stroke-dasharray="none" data-z-index="1" class="highcharts-grid-line" d="M 44 140.5 L 436 140.5" opacity="1"></path><path fill="none" stroke-dasharray="none" data-z-index="1" class="highcharts-grid-line" d="M 44 128.5 L 436 128.5" opacity="1"></path><path fill="none" stroke-dasharray="none" data-z-index="1" class="highcharts-grid-line" d="M 44 115.5 L 436 115.5" opacity="1"></path><path fill="none" stroke-dasharray="none" data-z-index="1" class="highcharts-grid-line" d="M 44 103.5 L 436 103.5" opacity="1"></path><path fill="none" stroke-dasharray="none" data-z-index="1" class="highcharts-grid-line" d="M 44 90.5 L 436 90.5" opacity="1"></path><path fill="none" stroke-dasharray="none" data-z-index="1" class="highcharts-grid-line" d="M 44 78.5 L 436 78.5" opacity="1"></path><path fill="none" stroke-dasharray="none" data-z-index="1" class="highcharts-grid-line" d="M 44 66.5 L 436 66.5" opacity="1"></path><path fill="none" stroke-dasharray="none" data-z-index="1" class="highcharts-grid-line" d="M 44 53.5 L 436 53.5" opacity="1"></path><path fill="none" stroke-dasharray="none" data-z-index="1" class="highcharts-grid-line" d="M 44 41.5 L 436 41.5" opacity="1"></path><path fill="none" stroke-dasharray="none" data-z-index="1" class="highcharts-grid-line" d="M 44 28.5 L 436 28.5" opacity="1"></path><path fill="none" stroke-dasharray="none" data-z-index="1" class="highcharts-grid-line" d="M 44 16.5 L 436 16.5" opacity="1"></path></g><g class="highcharts-axis highcharts-xaxis" data-z-index="2"><path fill="none" class="highcharts-axis-line" stroke="#000000" stroke-width="0.25" data-z-index="7" d="M 44 140.125 L 436 140.125"></path></g><g class="highcharts-axis highcharts-yaxis" data-z-index="2"><path fill="none" class="highcharts-tick" stroke="#000000" stroke-width="0.25" d="M 44 140.125 L 54 140.125" opacity="1"></path><path fill="none" class="highcharts-tick" stroke="#000000" stroke-width="0.25" d="M 44 128.125 L 54 128.125" opacity="1"></path><path fill="none" class="highcharts-tick" stroke="#000000" stroke-width="0.25" d="M 44 115.125 L 54 115.125" opacity="1"></path><path fill="none" class="highcharts-tick" stroke="#000000" stroke-width="0.25" d="M 44 103.125 L 54 103.125" opacity="1"></path><path fill="none" class="highcharts-tick" stroke="#000000" stroke-width="0.25" d="M 44 90.125 L 54 90.125" opacity="1"></path><path fill="none" class="highcharts-tick" stroke="#000000" stroke-width="0.25" d="M 44 78.125 L 54 78.125" opacity="1"></path><path fill="none" class="highcharts-tick" stroke="#000000" stroke-width="0.25" d="M 44 66.125 L 54 66.125" opacity="1"></path><path fill="none" class="highcharts-tick" stroke="#000000" stroke-width="0.25" d="M 44 53.125 L 54 53.125" opacity="1"></path><path fill="none" class="highcharts-tick" stroke="#000000" stroke-width="0.25" d="M 44 41.125 L 54 41.125" opacity="1"></path><path fill="none" class="highcharts-tick" stroke="#000000" stroke-width="0.25" d="M 44 28.125 L 54 28.125" opacity="1"></path><path fill="none" class="highcharts-tick" stroke="#000000" stroke-width="0.25" d="M 44 15.875 L 54 15.875" opacity="1"></path><path fill="none" class="highcharts-axis-line" stroke="#000000" stroke-width="0.25" data-z-index="7" d="M 43.875 16 L 43.875 140"></path></g><g class="highcharts-axis highcharts-yaxis" data-z-index="2"><path fill="none" class="highcharts-tick" stroke="#000000" stroke-width="0.25" d="M 436 140.125 L 426 140.125" opacity="1"></path><path fill="none" class="highcharts-tick" stroke="#000000" stroke-width="0.25" d="M 436 128.125 L 426 128.125" opacity="1"></path><path fill="none" class="highcharts-tick" stroke="#000000" stroke-width="0.25" d="M 436 115.125 L 426 115.125" opacity="1"></path><path fill="none" class="highcharts-tick" stroke="#000000" stroke-width="0.25" d="M 436 103.125 L 426 103.125" opacity="1"></path><path fill="none" class="highcharts-tick" stroke="#000000" stroke-width="0.25" d="M 436 90.125 L 426 90.125" opacity="1"></path><path fill="none" class="highcharts-tick" stroke="#000000" stroke-width="0.25" d="M 436 78.125 L 426 78.125" opacity="1"></path><path fill="none" class="highcharts-tick" stroke="#000000" stroke-width="0.25" d="M 436 66.125 L 426 66.125" opacity="1"></path><path fill="none" class="highcharts-tick" stroke="#000000" stroke-width="0.25" d="M 436 53.125 L 426 53.125" opacity="1"></path><path fill="none" class="highcharts-tick" stroke="#000000" stroke-width="0.25" d="M 436 41.125 L 426 41.125" opacity="1"></path><path fill="none" class="highcharts-tick" stroke="#000000" stroke-width="0.25" d="M 436 28.125 L 426 28.125" opacity="1"></path><path fill="none" class="highcharts-tick" stroke="#000000" stroke-width="0.25" d="M 436 15.875 L 426 15.875" opacity="1"></path><path fill="none" class="highcharts-axis-line" stroke="#000000" stroke-width="0.25" data-z-index="7" d="M 436.125 16 L 436.125 140"></path></g><g class="highcharts-series-group" data-z-index="3"><g class="highcharts-series highcharts-series-0 highcharts-column-series" data-z-index="0.1" opacity="1" transform="translate(44,16) scale(1 1)" clip-path="url(#highcharts-czihvs1-1561-)"><rect x="317.5" y="50.5" width="8" height="12" fill="#60c3ad" stroke="#ffffff" stroke-width="1" opacity="1" class="highcharts-point"></rect><rect x="332.5" y="50.5" width="8" height="12" fill="#60c3ad" stroke="#ffffff" stroke-width="1" opacity="1" class="highcharts-point"></rect><rect x="347.5" y="50.5" width="8" height="12" fill="#60c3ad" stroke="#ffffff" stroke-width="1" opacity="1" class="highcharts-point"></rect><rect x="362.5" y="50.5" width="8" height="12" fill="#60c3ad" stroke="#ffffff" stroke-width="1" opacity="1" class="highcharts-point"></rect><rect x="376.5" y="50.5" width="8" height="12" fill="#60c3ad" stroke="#ffffff" stroke-width="1" opacity="1" class="highcharts-point"></rect></g><g class="highcharts-markers highcharts-series-0 highcharts-column-series" data-z-index="0.1" opacity="1" transform="translate(44,16) scale(1 1)" clip-path="none"></g><g class="highcharts-series highcharts-series-1 highcharts-column-series" data-z-index="0.1" opacity="1" transform="translate(44,16) scale(1 1)" clip-path="url(#highcharts-czihvs1-1561-)"><rect x="317.5" y="62.5" width="8" height="25" fill="#5b91cc" stroke="#ffffff" stroke-width="1" opacity="1" class="highcharts-point"></rect><rect x="332.5" y="62.5" width="8" height="25" fill="#5b91cc" stroke="#ffffff" stroke-width="1" opacity="1" class="highcharts-point"></rect><rect x="347.5" y="62.5" width="8" height="25" fill="#5b91cc" stroke="#ffffff" stroke-width="1" opacity="1" class="highcharts-point"></rect><rect x="362.5" y="62.5" width="8" height="25" fill="#5b91cc" stroke="#ffffff" stroke-width="1" opacity="1" class="highcharts-point"></rect><rect x="376.5" y="62.5" width="8" height="25" fill="#5b91cc" stroke="#ffffff" stroke-width="1" opacity="1" class="highcharts-point"></rect></g><g class="highcharts-markers highcharts-series-1 highcharts-column-series" data-z-index="0.1" opacity="1" transform="translate(44,16) scale(1 1)" clip-path="none"></g><g class="highcharts-series highcharts-series-2 highcharts-line-series" data-z-index="0.1" opacity="1" transform="translate(44,16) scale(1 1)" clip-path="url(#highcharts-czihvs1-1561-)"><path fill="none" d="M 277.35849056604 43.772000000000006 L 292.15094339623 36.952 L 306.94339622642 28.272000000000006 L 321.7358490566 27.775999999999996 L 336.52830188679 25.543999999999997 L 351.32075471698 25.171999999999997 L 366.11320754717 24.179999999999993" class="highcharts-graph" data-z-index="1" stroke="#5b91cc" stroke-width="2" stroke-linejoin="round" stroke-linecap="round"></path></g><g class="highcharts-markers highcharts-series-2 highcharts-line-series" data-z-index="0.1" opacity="1" transform="translate(44,16) scale(1 1)" clip-path="none"></g><g class="highcharts-series highcharts-series-3 highcharts-column-series" data-z-index="0.1" opacity="1" transform="translate(44,16) scale(1 1)" clip-path="url(#highcharts-czihvs1-1561-)"><rect x="317.5" y="87.5" width="8" height="37" fill="#4156a6" stroke="#ffffff" stroke-width="1" opacity="1" class="highcharts-point"></rect><rect x="332.5" y="87.5" width="8" height="37" fill="#4156a6" stroke="#ffffff" stroke-width="1" opacity="1" class="highcharts-point"></rect><rect x="347.5" y="87.5" width="8" height="37" fill="#4156a6" stroke="#ffffff" stroke-width="1" opacity="1" class="highcharts-point"></rect><rect x="362.5" y="87.5" width="8" height="37" fill="#4156a6" stroke="#ffffff" stroke-width="1" opacity="1" class="highcharts-point"></rect><rect x="376.5" y="87.5" width="8" height="37" fill="#4156a6" stroke="#ffffff" stroke-width="1" opacity="1" class="highcharts-point"></rect></g><g class="highcharts-markers highcharts-series-3 highcharts-column-series" data-z-index="0.1" opacity="1" transform="translate(44,16) scale(1 1)" clip-path="none"></g><g class="highcharts-series highcharts-series-4 highcharts-line-series" data-z-index="0.1" opacity="1" transform="translate(44,16) scale(1 1)" clip-path="url(#highcharts-czihvs1-1561-)"><path fill="none" d="M 11.094339622642 38.44 L 25.88679245283 42.16 L 40.679245283019 39.68000000000001 L 55.471698113208 40.92 L 70.264150943396 42.16 L 85.056603773585 43.39999999999999 L 99.849056603774 52.08 L 114.64150943396 52.08 L 129.43396226415 50.83999999999999 L 144.22641509434 49.599999999999994 L 159.01886792453 57.03999999999999 L 173.81132075472 54.56 L 188.60377358491 64.48 L 203.39622641509 58.28 L 218.18867924528 55.8 L 232.98113207547 52.08 L 247.77358490566 48.36 L 262.56603773585 44.639999999999986" class="highcharts-graph" data-z-index="1" stroke="#4156a6" stroke-width="2" stroke-linejoin="round" stroke-linecap="round"></path></g><g class="highcharts-markers highcharts-series-4 highcharts-line-series" data-z-index="0.1" opacity="1" transform="translate(44,16) scale(1 1)" clip-path="none"></g></g><text x="13" text-anchor="start" class="highcharts-title" data-z-index="4" style="color:#333333;font-size:20px;fill:#333333;" y="31"></text><text x="13" text-anchor="start" class="highcharts-subtitle" data-z-index="4" style="color:#000000;font-size:20px;fill:#000000;" y="36"></text><text x="13" text-anchor="start" class="highcharts-caption" data-z-index="4" style="color:#666666;font-size:16px;fill:#666666;" y="230"></text><g class="highcharts-legend highcharts-no-tooltip" data-z-index="7" transform="translate(35,171)"><rect fill="none" class="highcharts-legend-box" rx="0" ry="0" x="0" y="0" width="409" height="44" visibility="visible"></rect><g data-z-index="1"><g><g class="highcharts-legend-item highcharts-column-series highcharts-color-undefined highcharts-series-0" data-z-index="1" transform="translate(8,3)"><text x="21" y="11" style="color:#000000;cursor:pointer;font-size:8px;font-weight:normal;fill:#000000;" text-anchor="start" data-z-index="2">Bufferkrav for systemviktige banker</text><rect x="4" y="4" width="8" height="8" fill="#60c3ad" class="highcharts-point" data-z-index="3"></rect></g><g class="highcharts-legend-item highcharts-column-series highcharts-color-undefined highcharts-series-1" data-z-index="1" transform="translate(214.640625,3)"><text x="21" y="11" style="color:#000000;cursor:pointer;font-size:8px;font-weight:normal;fill:#000000;" text-anchor="start" data-z-index="2">Bufferkrav for alle banker</text><rect x="4" y="4" width="8" height="8" fill="#5b91cc" class="highcharts-point" data-z-index="3"></rect></g><g class="highcharts-legend-item highcharts-line-series highcharts-color-undefined highcharts-series-2" data-z-index="1" transform="translate(8,14)"><path fill="none" d="M 0 8 L 16 8" class="highcharts-graph" stroke="#5b91cc" stroke-width="2"></path><text x="21" y="11" style="color:#000000;cursor:pointer;font-size:8px;font-weight:normal;fill:#000000;" text-anchor="start" data-z-index="2">Uvektet kjernekapitaldekning</text></g><g class="highcharts-legend-item highcharts-column-series highcharts-color-undefined highcharts-series-3" data-z-index="1" transform="translate(214.640625,14)"><text x="21" y="11" style="color:#000000;cursor:pointer;font-size:8px;font-weight:normal;fill:#000000;" text-anchor="start" data-z-index="2">Minstekrav</text><rect x="4" y="4" width="8" height="8" fill="#4156a6" class="highcharts-point" data-z-index="3"></rect></g><g class="highcharts-legend-item highcharts-line-series highcharts-color-undefined highcharts-series-4" data-z-index="1" transform="translate(8,25)"><path fill="none" d="M 0 8 L 16 8" class="highcharts-graph" stroke="#4156a6" stroke-width="2"></path><text x="21" y="11" style="color:#000000;cursor:pointer;font-size:8px;font-weight:normal;fill:#000000;" text-anchor="start" data-z-index="2">Kjernekapital i prosent av forvaltningskapital</text></g></g></g></g><g class="highcharts-axis-labels highcharts-xaxis-labels" data-z-index="7"><text x="114.2641509434" style="color:#000000;cursor:default;font-size:8px;fill:#000000;" text-anchor="middle" transform="translate(0,0)" y="157" opacity="1">2000</text><text x="188.22641509434" style="color:#000000;cursor:default;font-size:8px;fill:#000000;" text-anchor="middle" transform="translate(0,0)" y="157" opacity="1">2005</text><text x="262.18867924528" style="color:#000000;cursor:default;font-size:8px;fill:#000000;" text-anchor="middle" transform="translate(0,0)" y="157" opacity="1">2010</text><text x="336.15094339623" style="color:#000000;cursor:default;font-size:8px;fill:#000000;" text-anchor="middle" transform="translate(0,0)" y="157" opacity="1">2015</text><text x="410.11320754717" style="color:#000000;cursor:default;font-size:8px;fill:#000000;" text-anchor="middle" transform="translate(0,0)" y="157" opacity="1">2020</text></g><g class="highcharts-axis-labels highcharts-yaxis-labels" data-z-index="7"><text x="29" style="color:#000000;cursor:default;font-size:8px;fill:#000000;" text-anchor="end" transform="translate(0,0)" y="143" opacity="1">0%</text><text x="29" style="color:#000000;cursor:default;font-size:8px;fill:#000000;" text-anchor="end" transform="translate(0,0)" y="131" opacity="1">1%</text><text x="29" style="color:#000000;cursor:default;font-size:8px;fill:#000000;" text-anchor="end" transform="translate(0,0)" y="119" opacity="1">2%</text><text x="29" style="color:#000000;cursor:default;font-size:8px;fill:#000000;" text-anchor="end" transform="translate(0,0)" y="106" opacity="1">3%</text><text x="29" style="color:#000000;cursor:default;font-size:8px;fill:#000000;" text-anchor="end" transform="translate(0,0)" y="94" opacity="1">4%</text><text x="29" style="color:#000000;cursor:default;font-size:8px;fill:#000000;" text-anchor="end" transform="translate(0,0)" y="81" opacity="1">5%</text><text x="29" style="color:#000000;cursor:default;font-size:8px;fill:#000000;" text-anchor="end" transform="translate(0,0)" y="69" opacity="1">6%</text><text x="29" style="color:#000000;cursor:default;font-size:8px;fill:#000000;" text-anchor="end" transform="translate(0,0)" y="57" opacity="1">7%</text><text x="29" style="color:#000000;cursor:default;font-size:8px;fill:#000000;" text-anchor="end" transform="translate(0,0)" y="44" opacity="1">8%</text><text x="29" style="color:#000000;cursor:default;font-size:8px;fill:#000000;" text-anchor="end" transform="translate(0,0)" y="32" opacity="1">9%</text><text x="29" style="color:#000000;cursor:default;font-size:8px;fill:#000000;" text-anchor="end" transform="translate(0,0)" y="19" opacity="1">10%</text></g><g class="highcharts-axis-labels highcharts-yaxis-labels" data-z-index="7"><text x="451" style="color:#000000;cursor:default;font-size:8px;fill:#000000;" text-anchor="start" transform="translate(0,0)" y="143" opacity="1">0%</text><text x="451" style="color:#000000;cursor:default;font-size:8px;fill:#000000;" text-anchor="start" transform="translate(0,0)" y="131" opacity="1">1%</text><text x="451" style="color:#000000;cursor:default;font-size:8px;fill:#000000;" text-anchor="start" transform="translate(0,0)" y="119" opacity="1">2%</text><text x="451" style="color:#000000;cursor:default;font-size:8px;fill:#000000;" text-anchor="start" transform="translate(0,0)" y="106" opacity="1">3%</text><text x="451" style="color:#000000;cursor:default;font-size:8px;fill:#000000;" text-anchor="start" transform="translate(0,0)" y="94" opacity="1">4%</text><text x="451" style="color:#000000;cursor:default;font-size:8px;fill:#000000;" text-anchor="start" transform="translate(0,0)" y="81" opacity="1">5%</text><text x="451" style="color:#000000;cursor:default;font-size:8px;fill:#000000;" text-anchor="start" transform="translate(0,0)" y="69" opacity="1">6%</text><text x="451" style="color:#000000;cursor:default;font-size:8px;fill:#000000;" text-anchor="start" transform="translate(0,0)" y="57" opacity="1">7%</text><text x="451" style="color:#000000;cursor:default;font-size:8px;fill:#000000;" text-anchor="start" transform="translate(0,0)" y="44" opacity="1">8%</text><text x="451" style="color:#000000;cursor:default;font-size:8px;fill:#000000;" text-anchor="start" transform="translate(0,0)" y="32" opacity="1">9%</text><text x="451" style="color:#000000;cursor:default;font-size:8px;fill:#000000;" text-anchor="start" transform="translate(0,0)" y="19" opacity="1">10%</text></g><g class="highcharts-control-points" data-z-index="99" clip-path="url(#highcharts-czihvs1-1693-)"></g></svg>