<svg xmlns:xlink="http://www.w3.org/1999/xlink" version="1.1" class="highcharts-root" style="font-family:Open Sans, sans-serif;font-size:12px;color:#000000;fill:#000000;" xmlns="http://www.w3.org/2000/svg" width="480" height="227" viewBox="0 0 480 227"><desc>Created with Highcharts 9.2.2</desc><defs><clipPath id="highcharts-n6bv5h7-1237-"><rect x="0" y="0" width="400" height="146" fill="none"></rect></clipPath><clipPath id="highcharts-n6bv5h7-1257-"><rect x="0" y="0" width="400" height="146" fill="none"></rect></clipPath><clipPath id="highcharts-n6bv5h7-1277-"><rect x="45" y="16" width="400" height="146" fill="none"></rect></clipPath></defs><rect fill="#ffffff" class="highcharts-background" x="0" y="0" width="480" height="227" rx="0" ry="0"></rect><rect fill="#ffffff" class="highcharts-plot-background" x="45" y="16" width="400" height="146"></rect><g class="highcharts-pane-group" data-z-index="0"></g><g class="highcharts-plot-lines-0" data-z-index="0"><path fill="none" class="highcharts-plot-line "></path></g><g class="highcharts-plot-lines-0" data-z-index="0"><path fill="none" class="highcharts-plot-line " stroke="#000000" stroke-width="0.25" d="M 45 113.125 L 445 113.125"></path></g><g class="highcharts-plot-lines-0" data-z-index="0"><path fill="none" class="highcharts-plot-line " stroke="#000000" stroke-width="0.25" d="M 45 113.125 L 445 113.125"></path></g><rect fill="none" class="highcharts-plot-border" data-z-index="1" x="45" y="16" width="400" height="146"></rect><g class="highcharts-grid highcharts-xaxis-grid" data-z-index="1"><path fill="none" stroke-dasharray="none" data-z-index="1" class="highcharts-grid-line" d="M 113.5 16 L 113.5 162" opacity="1"></path><path fill="none" stroke-dasharray="none" data-z-index="1" class="highcharts-grid-line" d="M 222.5 16 L 222.5 162" opacity="1"></path><path fill="none" stroke-dasharray="none" data-z-index="1" class="highcharts-grid-line" d="M 331.5 16 L 331.5 162" opacity="1"></path><path fill="none" stroke-dasharray="none" data-z-index="1" class="highcharts-grid-line" d="M 440.5 16 L 440.5 162" opacity="1"></path></g><g class="highcharts-grid highcharts-yaxis-grid" data-z-index="1"><path fill="none" stroke-dasharray="none" data-z-index="1" class="highcharts-grid-line" d="M 45 162.5 L 445 162.5" opacity="1"></path><path fill="none" stroke-dasharray="none" data-z-index="1" class="highcharts-grid-line" d="M 45 113.5 L 445 113.5" opacity="1"></path><path fill="none" stroke-dasharray="none" data-z-index="1" class="highcharts-grid-line" d="M 45 65.5 L 445 65.5" opacity="1"></path><path fill="none" stroke-dasharray="none" data-z-index="1" class="highcharts-grid-line" d="M 45 16.5 L 445 16.5" opacity="1"></path></g><g class="highcharts-grid highcharts-yaxis-grid" data-z-index="1"><path fill="none" stroke-dasharray="none" data-z-index="1" class="highcharts-grid-line" d="M 45 162.5 L 445 162.5" opacity="1"></path><path fill="none" stroke-dasharray="none" data-z-index="1" class="highcharts-grid-line" d="M 45 113.5 L 445 113.5" opacity="1"></path><path fill="none" stroke-dasharray="none" data-z-index="1" class="highcharts-grid-line" d="M 45 65.5 L 445 65.5" opacity="1"></path><path fill="none" stroke-dasharray="none" data-z-index="1" class="highcharts-grid-line" d="M 45 16.5 L 445 16.5" opacity="1"></path></g><g class="highcharts-axis highcharts-xaxis" data-z-index="2"><path fill="none" class="highcharts-axis-line" stroke="#000000" stroke-width="0.25" data-z-index="7" d="M 45 162.125 L 445 162.125"></path></g><g class="highcharts-axis highcharts-yaxis" data-z-index="2"><path fill="none" class="highcharts-tick" stroke="#000000" stroke-width="0.25" d="M 45 162.125 L 55 162.125" opacity="1"></path><path fill="none" class="highcharts-tick" stroke="#000000" stroke-width="0.25" d="M 45 113.125 L 55 113.125" opacity="1"></path><path fill="none" class="highcharts-tick" stroke="#000000" stroke-width="0.25" d="M 45 65.125 L 55 65.125" opacity="1"></path><path fill="none" class="highcharts-tick" stroke="#000000" stroke-width="0.25" d="M 45 15.875 L 55 15.875" opacity="1"></path><path fill="none" class="highcharts-axis-line" stroke="#000000" stroke-width="0.25" data-z-index="7" d="M 44.875 16 L 44.875 162"></path></g><g class="highcharts-axis highcharts-yaxis" data-z-index="2"><path fill="none" class="highcharts-tick" stroke="#000000" stroke-width="0.25" d="M 445 162.125 L 435 162.125" opacity="1"></path><path fill="none" class="highcharts-tick" stroke="#000000" stroke-width="0.25" d="M 445 113.125 L 435 113.125" opacity="1"></path><path fill="none" class="highcharts-tick" stroke="#000000" stroke-width="0.25" d="M 445 65.125 L 435 65.125" opacity="1"></path><path fill="none" class="highcharts-tick" stroke="#000000" stroke-width="0.25" d="M 445 15.875 L 435 15.875" opacity="1"></path><path fill="none" class="highcharts-axis-line" stroke="#000000" stroke-width="0.25" data-z-index="7" d="M 445.125 16 L 445.125 162"></path></g><g class="highcharts-series-group" data-z-index="3"><g class="highcharts-series highcharts-series-0 highcharts-line-series highcharts-color-0" data-z-index="0.1" opacity="1" transform="translate(45,16) scale(1 1)" clip-path="url(#highcharts-n6bv5h7-1237-)"><path fill="none" d="M 3.9215686274523 69.59333333333335 L 25.70806100218 52.56 L 47.494553376907 38.93333333333332 L 69.281045751635 33.58 L 91.067538126362 34.55333333333334 L 112.85403050109 38.93333333333332 L 134.64052287582 66.67333333333335 L 156.42701525054 60.83333333333334 L 178.21350762527 47.69333333333334 L 200 53.533333333333346 L 221.78649237473 53.533333333333346 L 243.57298474946 46.23333333333335 L 265.35947712418 40.393333333333345 L 287.14596949891 41.366666666666674 L 308.93246187364 44.286666666666676 L 330.71895424837 39.42 L 352.50544662309 35.52666666666667 L 374.29193899782 34.06666666666668 L 396.07843137255 51.10000000000001" class="highcharts-graph" data-z-index="1" stroke="#4156A6" stroke-width="2" stroke-linejoin="round" stroke-linecap="round"></path></g><g class="highcharts-markers highcharts-series-0 highcharts-line-series highcharts-color-0" data-z-index="0.1" opacity="1" transform="translate(45,16) scale(1 1)" clip-path="none"></g><g class="highcharts-series highcharts-series-1 highcharts-line-series highcharts-color-1" data-z-index="0.1" opacity="1" transform="translate(45,16) scale(1 1)" clip-path="url(#highcharts-n6bv5h7-1237-)"><path fill="none" d="M 3.9215686274523 71.54 L 25.70806100218 80.78666666666666 L 47.494553376907 92.46666666666667 L 69.281045751635 97.82 L 91.067538126362 98.79333333333334 L 112.85403050109 96.84666666666666 L 134.64052287582 86.62666666666667 L 156.42701525054 77.86666666666667 L 178.21350762527 88.57333333333334 L 200 89.06 L 221.78649237473 89.54666666666668 L 243.57298474946 91.00666666666667 L 265.35947712418 91.00666666666667 L 287.14596949891 91.49333333333334 L 308.93246187364 84.68 L 330.71895424837 91.97999999999999 L 352.50544662309 94.41333333333333 L 374.29193899782 90.03333333333333 L 396.07843137255 79.32666666666667" class="highcharts-graph" data-z-index="1" stroke="#F15D61" stroke-width="2" stroke-linejoin="round" stroke-linecap="round"></path></g><g class="highcharts-markers highcharts-series-1 highcharts-line-series highcharts-color-1" data-z-index="0.1" opacity="1" transform="translate(45,16) scale(1 1)" clip-path="none"></g></g><text x="13" text-anchor="start" class="highcharts-title" data-z-index="4" style="color:#333333;font-size:20px;fill:#333333;" y="31"></text><text x="13" text-anchor="start" class="highcharts-subtitle" data-z-index="4" style="color:#000000;font-size:20px;fill:#000000;" y="36"></text><text x="13" text-anchor="start" class="highcharts-caption" data-z-index="4" style="color:#666666;font-size:16px;fill:#666666;" y="230"></text><g class="highcharts-legend highcharts-no-tooltip" data-z-index="7" transform="translate(145,193)"><rect fill="none" class="highcharts-legend-box" rx="0" ry="0" x="0" y="0" width="189" height="22" visibility="visible"></rect><g data-z-index="1"><g><g class="highcharts-legend-item highcharts-line-series highcharts-color-0 highcharts-series-0" data-z-index="1" transform="translate(8,3)"><path fill="none" d="M 0 8 L 16 8" class="highcharts-graph" stroke="#4156A6" stroke-width="2"></path><text x="21" y="11" style="color:#000000;cursor:pointer;font-size:8px;font-weight:normal;fill:#000000;" text-anchor="start" data-z-index="2">Resultat før skatt</text></g><g class="highcharts-legend-item highcharts-line-series highcharts-color-1 highcharts-series-1" data-z-index="1" transform="translate(113.109375,3)"><path fill="none" d="M 0 8 L 16 8" class="highcharts-graph" stroke="#F15D61" stroke-width="2"></path><text x="21" y="11" style="color:#000000;cursor:pointer;font-size:8px;font-weight:normal;fill:#000000;" text-anchor="start" data-z-index="2">Tap på utlån</text></g></g></g></g><g class="highcharts-axis-labels highcharts-xaxis-labels" data-z-index="7"><text x="114.28104575163" style="color:#000000;cursor:default;font-size:8px;fill:#000000;" text-anchor="middle" transform="translate(0,0)" y="179" opacity="1">2005</text><text x="223.21350762527" style="color:#000000;cursor:default;font-size:8px;fill:#000000;" text-anchor="middle" transform="translate(0,0)" y="179" opacity="1">2010</text><text x="332.14596949891" style="color:#000000;cursor:default;font-size:8px;fill:#000000;" text-anchor="middle" transform="translate(0,0)" y="179" opacity="1">2015</text><text x="441.07843137255" style="color:#000000;cursor:default;font-size:8px;fill:#000000;" text-anchor="middle" transform="translate(0,0)" y="179" opacity="1">2020</text></g><g class="highcharts-axis-labels highcharts-yaxis-labels" data-z-index="7"><text x="30" style="color:#000000;cursor:default;font-size:8px;fill:#000000;" text-anchor="end" transform="translate(0,0)" y="166" opacity="1">-1 %</text><text x="30" style="color:#000000;cursor:default;font-size:8px;fill:#000000;" text-anchor="end" transform="translate(0,0)" y="117" opacity="1">0 %</text><text x="30" style="color:#000000;cursor:default;font-size:8px;fill:#000000;" text-anchor="end" transform="translate(0,0)" y="68" opacity="1">1 %</text><text x="30" style="color:#000000;cursor:default;font-size:8px;fill:#000000;" text-anchor="end" transform="translate(0,0)" y="20" opacity="1">2 %</text></g><g class="highcharts-axis-labels highcharts-yaxis-labels" data-z-index="7"><text x="460" style="color:#000000;cursor:default;font-size:8px;fill:#000000;" text-anchor="start" transform="translate(0,0)" y="166" opacity="1">-1</text><text x="460" style="color:#000000;cursor:default;font-size:8px;fill:#000000;" text-anchor="start" transform="translate(0,0)" y="117" opacity="1">0</text><text x="460" style="color:#000000;cursor:default;font-size:8px;fill:#000000;" text-anchor="start" transform="translate(0,0)" y="68" opacity="1">1</text><text x="460" style="color:#000000;cursor:default;font-size:8px;fill:#000000;" text-anchor="start" transform="translate(0,0)" y="20" opacity="1">2</text></g><g class="highcharts-control-points" data-z-index="99" clip-path="url(#highcharts-n6bv5h7-1277-)"></g></svg>