<svg xmlns:xlink="http://www.w3.org/1999/xlink" version="1.1" class="highcharts-root" style="font-family:Open Sans, sans-serif;font-size:12px;color:#000000;fill:#000000;" xmlns="http://www.w3.org/2000/svg" width="480" height="422.7875" viewBox="0 0 480 422.7875"><desc>Created with Highcharts 9.2.2</desc><defs><clipPath id="highcharts-iovacin-460-"><rect x="0" y="0" width="376" height="390" fill="none"></rect></clipPath><clipPath id="highcharts-iovacin-491-"><rect x="0" y="0" width="376" height="390" fill="none"></rect></clipPath><clipPath id="highcharts-iovacin-492-"><rect x="77" y="16" width="390" height="376" fill="none"></rect></clipPath></defs><rect fill="#ffffff" class="highcharts-background" x="0" y="0" width="480" height="422.7875" rx="0" ry="0"></rect><rect fill="#ffffff" class="highcharts-plot-background" x="77" y="16" width="390" height="376"></rect><g class="highcharts-pane-group" data-z-index="0"></g><g class="highcharts-plot-lines-0" data-z-index="0"><path fill="none" class="highcharts-plot-line "></path></g><g class="highcharts-plot-lines-0" data-z-index="0"><path fill="none" class="highcharts-plot-line " stroke="#000000" stroke-width="0.25" d="M 76.875 16 L 76.875 392"></path></g><rect fill="none" class="highcharts-plot-border" data-z-index="1" x="77" y="16" width="390" height="376"></rect><g class="highcharts-grid highcharts-xaxis-grid" data-z-index="1"><path fill="none" stroke-dasharray="none" data-z-index="1" class="highcharts-grid-line" d="M 77 29.5 L 467 29.5" opacity="1"></path><path fill="none" stroke-dasharray="none" data-z-index="1" class="highcharts-grid-line" d="M 77 41.5 L 467 41.5" opacity="1"></path><path fill="none" stroke-dasharray="none" data-z-index="1" class="highcharts-grid-line" d="M 77 54.5 L 467 54.5" opacity="1"></path><path fill="none" stroke-dasharray="none" data-z-index="1" class="highcharts-grid-line" d="M 77 66.5 L 467 66.5" opacity="1"></path><path fill="none" stroke-dasharray="none" data-z-index="1" class="highcharts-grid-line" d="M 77 79.5 L 467 79.5" opacity="1"></path><path fill="none" stroke-dasharray="none" data-z-index="1" class="highcharts-grid-line" d="M 77 91.5 L 467 91.5" opacity="1"></path><path fill="none" stroke-dasharray="none" data-z-index="1" class="highcharts-grid-line" d="M 77 104.5 L 467 104.5" opacity="1"></path><path fill="none" stroke-dasharray="none" data-z-index="1" class="highcharts-grid-line" d="M 77 116.5 L 467 116.5" opacity="1"></path><path fill="none" stroke-dasharray="none" data-z-index="1" class="highcharts-grid-line" d="M 77 129.5 L 467 129.5" opacity="1"></path><path fill="none" stroke-dasharray="none" data-z-index="1" class="highcharts-grid-line" d="M 77 141.5 L 467 141.5" opacity="1"></path><path fill="none" stroke-dasharray="none" data-z-index="1" class="highcharts-grid-line" d="M 77 154.5 L 467 154.5" opacity="1"></path><path fill="none" stroke-dasharray="none" data-z-index="1" class="highcharts-grid-line" d="M 77 166.5 L 467 166.5" opacity="1"></path><path fill="none" stroke-dasharray="none" data-z-index="1" class="highcharts-grid-line" d="M 77 179.5 L 467 179.5" opacity="1"></path><path fill="none" stroke-dasharray="none" data-z-index="1" class="highcharts-grid-line" d="M 77 191.5 L 467 191.5" opacity="1"></path><path fill="none" stroke-dasharray="none" data-z-index="1" class="highcharts-grid-line" d="M 77 204.5 L 467 204.5" opacity="1"></path><path fill="none" stroke-dasharray="none" data-z-index="1" class="highcharts-grid-line" d="M 77 217.5 L 467 217.5" opacity="1"></path><path fill="none" stroke-dasharray="none" data-z-index="1" class="highcharts-grid-line" d="M 77 229.5 L 467 229.5" opacity="1"></path><path fill="none" stroke-dasharray="none" data-z-index="1" class="highcharts-grid-line" d="M 77 242.5 L 467 242.5" opacity="1"></path><path fill="none" stroke-dasharray="none" data-z-index="1" class="highcharts-grid-line" d="M 77 254.5 L 467 254.5" opacity="1"></path><path fill="none" stroke-dasharray="none" data-z-index="1" class="highcharts-grid-line" d="M 77 267.5 L 467 267.5" opacity="1"></path><path fill="none" stroke-dasharray="none" data-z-index="1" class="highcharts-grid-line" d="M 77 279.5 L 467 279.5" opacity="1"></path><path fill="none" stroke-dasharray="none" data-z-index="1" class="highcharts-grid-line" d="M 77 292.5 L 467 292.5" opacity="1"></path><path fill="none" stroke-dasharray="none" data-z-index="1" class="highcharts-grid-line" d="M 77 304.5 L 467 304.5" opacity="1"></path><path fill="none" stroke-dasharray="none" data-z-index="1" class="highcharts-grid-line" d="M 77 317.5 L 467 317.5" opacity="1"></path><path fill="none" stroke-dasharray="none" data-z-index="1" class="highcharts-grid-line" d="M 77 329.5 L 467 329.5" opacity="1"></path><path fill="none" stroke-dasharray="none" data-z-index="1" class="highcharts-grid-line" d="M 77 342.5 L 467 342.5" opacity="1"></path><path fill="none" stroke-dasharray="none" data-z-index="1" class="highcharts-grid-line" d="M 77 354.5 L 467 354.5" opacity="1"></path><path fill="none" stroke-dasharray="none" data-z-index="1" class="highcharts-grid-line" d="M 77 367.5 L 467 367.5" opacity="1"></path><path fill="none" stroke-dasharray="none" data-z-index="1" class="highcharts-grid-line" d="M 77 379.5 L 467 379.5" opacity="1"></path><path fill="none" stroke-dasharray="none" data-z-index="1" class="highcharts-grid-line" d="M 77 392.5 L 467 392.5" opacity="1"></path><path fill="none" stroke-dasharray="none" data-z-index="1" class="highcharts-grid-line" d="M 77 16.5 L 467 16.5" opacity="1"></path></g><g class="highcharts-grid highcharts-yaxis-grid" data-z-index="1"><path fill="none" stroke-dasharray="none" data-z-index="1" class="highcharts-grid-line" d="M 76.5 16 L 76.5 392" opacity="1"></path><path fill="none" stroke-dasharray="none" data-z-index="1" class="highcharts-grid-line" d="M 141.5 16 L 141.5 392" opacity="1"></path><path fill="none" stroke-dasharray="none" data-z-index="1" class="highcharts-grid-line" d="M 206.5 16 L 206.5 392" opacity="1"></path><path fill="none" stroke-dasharray="none" data-z-index="1" class="highcharts-grid-line" d="M 271.5 16 L 271.5 392" opacity="1"></path><path fill="none" stroke-dasharray="none" data-z-index="1" class="highcharts-grid-line" d="M 336.5 16 L 336.5 392" opacity="1"></path><path fill="none" stroke-dasharray="none" data-z-index="1" class="highcharts-grid-line" d="M 401.5 16 L 401.5 392" opacity="1"></path><path fill="none" stroke-dasharray="none" data-z-index="1" class="highcharts-grid-line" d="M 466.5 16 L 466.5 392" opacity="1"></path></g><g class="highcharts-axis highcharts-xaxis" data-z-index="2"><path fill="none" class="highcharts-axis-line" stroke="#000000" stroke-width="0.25" data-z-index="7" d="M 76.875 16 L 76.875 392"></path></g><g class="highcharts-axis highcharts-yaxis" data-z-index="2"><path fill="none" class="highcharts-tick" stroke="#000000" stroke-width="0.25" d="M 76.875 392 L 76.875 382" opacity="1"></path><path fill="none" class="highcharts-tick" stroke="#000000" stroke-width="0.25" d="M 141.875 392 L 141.875 382" opacity="1"></path><path fill="none" class="highcharts-tick" stroke="#000000" stroke-width="0.25" d="M 206.875 392 L 206.875 382" opacity="1"></path><path fill="none" class="highcharts-tick" stroke="#000000" stroke-width="0.25" d="M 271.875 392 L 271.875 382" opacity="1"></path><path fill="none" class="highcharts-tick" stroke="#000000" stroke-width="0.25" d="M 336.875 392 L 336.875 382" opacity="1"></path><path fill="none" class="highcharts-tick" stroke="#000000" stroke-width="0.25" d="M 401.875 392 L 401.875 382" opacity="1"></path><path fill="none" class="highcharts-tick" stroke="#000000" stroke-width="0.25" d="M 467.125 392 L 467.125 382" opacity="1"></path><path fill="none" class="highcharts-axis-line" stroke="#000000" stroke-width="0.25" data-z-index="7" d="M 77 392.125 L 467 392.125"></path></g><g class="highcharts-series-group" data-z-index="3"><g class="highcharts-series highcharts-series-0 highcharts-column-series" data-z-index="0.1" opacity="1" transform="translate(467,392) rotate(90) scale(-1,1) scale(1 1)" clip-path="url(#highcharts-iovacin-460-)" width="390" height="376"><rect x="367" y="33" width="7" height="358" fill="#5b91cc" opacity="1" class="highcharts-point highcharts-color-0"></rect><rect x="354" y="51" width="7" height="340" fill="#5b91cc" opacity="1" class="highcharts-point highcharts-color-1"></rect><rect x="342" y="88" width="7" height="303" fill="#5b91cc" opacity="1" class="highcharts-point highcharts-color-2"></rect><rect x="329" y="100" width="7" height="291" fill="#5b91cc" opacity="1" class="highcharts-point highcharts-color-3"></rect><rect x="317" y="104" width="7" height="287" fill="#5b91cc" opacity="1" class="highcharts-point highcharts-color-4"></rect><rect x="304" y="110" width="7" height="281" fill="#4156a6" opacity="1" class="highcharts-point highcharts-color-5"></rect><rect x="292" y="119" width="7" height="272" fill="#5b91cc" opacity="1" class="highcharts-point highcharts-color-6"></rect><rect x="279" y="129" width="7" height="262" fill="#5b91cc" opacity="1" class="highcharts-point highcharts-color-7"></rect><rect x="266" y="129" width="7" height="262" fill="#5b91cc" opacity="1" class="highcharts-point highcharts-color-8"></rect><rect x="254" y="137" width="7" height="254" fill="#4156a6" opacity="1" class="highcharts-point highcharts-color-9"></rect><rect x="241" y="139" width="7" height="252" fill="#f15d61" opacity="1" class="highcharts-point highcharts-color-10"></rect><rect x="229" y="144" width="7" height="247" fill="#5b91cc" opacity="1" class="highcharts-point highcharts-color-11"></rect><rect x="216" y="149" width="7" height="242" fill="#4156a6" opacity="1" class="highcharts-point highcharts-color-12"></rect><rect x="204" y="156" width="7" height="235" fill="#4156a6" opacity="1" class="highcharts-point highcharts-color-13"></rect><rect x="191" y="160" width="7" height="231" fill="#5b91cc" opacity="1" class="highcharts-point highcharts-color-14"></rect><rect x="179" y="162" width="7" height="229" fill="#5b91cc" opacity="1" class="highcharts-point highcharts-color-15"></rect><rect x="166" y="162" width="7" height="229" fill="#5b91cc" opacity="1" class="highcharts-point highcharts-color-16"></rect><rect x="154" y="170" width="7" height="221" fill="#5b91cc" opacity="1" class="highcharts-point highcharts-color-17"></rect><rect x="141" y="185" width="7" height="206" fill="#5b91cc" opacity="1" class="highcharts-point highcharts-color-18"></rect><rect x="129" y="186" width="7" height="205" fill="#5b91cc" opacity="1" class="highcharts-point highcharts-color-19"></rect><rect x="116" y="188" width="7" height="203" fill="#5b91cc" opacity="1" class="highcharts-point highcharts-color-20"></rect><rect x="104" y="188" width="7" height="203" fill="#5b91cc" opacity="1" class="highcharts-point highcharts-color-21"></rect><rect x="91" y="190" width="7" height="201" fill="#5b91cc" opacity="1" class="highcharts-point highcharts-color-22"></rect><rect x="78" y="191" width="7" height="200" fill="#5b91cc" opacity="1" class="highcharts-point highcharts-color-23"></rect><rect x="66" y="199" width="7" height="192" fill="#5b91cc" opacity="1" class="highcharts-point highcharts-color-24"></rect><rect x="53" y="200" width="7" height="191" fill="#5b91cc" opacity="1" class="highcharts-point highcharts-color-25"></rect><rect x="41" y="201" width="7" height="190" fill="#5b91cc" opacity="1" class="highcharts-point highcharts-color-26"></rect><rect x="28" y="202" width="7" height="189" fill="#5b91cc" opacity="1" class="highcharts-point highcharts-color-27"></rect><rect x="16" y="226" width="7" height="165" fill="#5b91cc" opacity="1" class="highcharts-point highcharts-color-28"></rect><rect x="3" y="230" width="7" height="161" fill="#5b91cc" opacity="1" class="highcharts-point highcharts-color-29"></rect></g><g class="highcharts-markers highcharts-series-0 highcharts-column-series" data-z-index="0.1" opacity="1" transform="translate(467,392) rotate(90) scale(-1,1) scale(1 1)" clip-path="none"></g></g><text x="13" text-anchor="start" class="highcharts-title" data-z-index="4" style="color:#333333;font-size:20px;fill:#333333;" y="31"></text><text x="13" text-anchor="start" class="highcharts-subtitle" data-z-index="4" style="color:#000000;font-size:20px;fill:#000000;" y="36"></text><text x="13" text-anchor="start" class="highcharts-caption" data-z-index="4" style="color:#666666;font-size:16px;fill:#666666;" y="426"></text><g class="highcharts-legend highcharts-no-tooltip" data-z-index="7"><rect fill="none" class="highcharts-legend-box" rx="0" ry="0" x="0" y="0" width="8" height="8" visibility="hidden"></rect><g data-z-index="1"><g></g></g></g><g class="highcharts-axis-labels highcharts-xaxis-labels" data-z-index="7"><text x="62" style="color:#000000;cursor:default;font-size:8px;fill:#000000;" text-anchor="end" transform="translate(0,0)" y="26" opacity="1">Estland</text><text x="62" style="color:#000000;cursor:default;font-size:8px;fill:#000000;" text-anchor="end" transform="translate(0,0)" y="38" opacity="1">Latvia</text><text x="62" style="color:#000000;cursor:default;font-size:8px;fill:#000000;" text-anchor="end" transform="translate(0,0)" y="51" opacity="1">Kroatia</text><text x="62" style="color:#000000;cursor:default;font-size:8px;fill:#000000;" text-anchor="end" transform="translate(0,0)" y="63" opacity="1">Tsjekkia</text><text x="62" style="color:#000000;cursor:default;font-size:8px;fill:#000000;" text-anchor="end" transform="translate(0,0)" y="76" opacity="1">Bulgaria</text><text x="62" style="color:#000000;cursor:default;font-size:8px;fill:#000000;" text-anchor="end" transform="translate(0,0)" y="88" opacity="1">Island</text><text x="62" style="color:#000000;cursor:default;font-size:8px;fill:#000000;" text-anchor="end" transform="translate(0,0)" y="101" opacity="1">Litauen</text><text x="62" style="color:#000000;cursor:default;font-size:8px;fill:#000000;" text-anchor="end" transform="translate(0,0)" y="113" opacity="1">Luxembourg</text><text x="62" style="color:#000000;cursor:default;font-size:8px;fill:#000000;" text-anchor="end" transform="translate(0,0)" y="126" opacity="1">Malta</text><text x="62" style="color:#000000;cursor:default;font-size:8px;fill:#000000;" text-anchor="end" transform="translate(0,0)" y="139" opacity="1">Sverige</text><text x="62" style="color:#000000;cursor:default;font-size:8px;fill:#000000;" text-anchor="end" transform="translate(0,0)" y="151" opacity="1">Norge</text><text x="62" style="color:#000000;cursor:default;font-size:8px;fill:#000000;" text-anchor="end" transform="translate(0,0)" y="164" opacity="1">Romania</text><text x="62" style="color:#000000;cursor:default;font-size:8px;fill:#000000;" text-anchor="end" transform="translate(0,0)" y="176" opacity="1">Danmark</text><text x="62" style="color:#000000;cursor:default;font-size:8px;fill:#000000;" text-anchor="end" transform="translate(0,0)" y="189" opacity="1">Finland</text><text x="62" style="color:#000000;cursor:default;font-size:8px;fill:#000000;" text-anchor="end" transform="translate(0,0)" y="201" opacity="1">Belgia</text><text x="62" style="color:#000000;cursor:default;font-size:8px;fill:#000000;" text-anchor="end" transform="translate(0,0)" y="214" opacity="1">Polen</text><text x="62" style="color:#000000;cursor:default;font-size:8px;fill:#000000;" text-anchor="end" transform="translate(0,0)" y="226" opacity="1">Irland</text><text x="62" style="color:#000000;cursor:default;font-size:8px;fill:#000000;" text-anchor="end" transform="translate(0,0)" y="239" opacity="1">Nederland</text><text x="62" style="color:#000000;cursor:default;font-size:8px;fill:#000000;" text-anchor="end" transform="translate(0,0)" y="251" opacity="1">Slovakia</text><text x="62" style="color:#000000;cursor:default;font-size:8px;fill:#000000;" text-anchor="end" transform="translate(0,0)" y="264" opacity="1">Frankrike</text><text x="62" style="color:#000000;cursor:default;font-size:8px;fill:#000000;" text-anchor="end" transform="translate(0,0)" y="276" opacity="1">Tyskland</text><text x="62" style="color:#000000;cursor:default;font-size:8px;fill:#000000;" text-anchor="end" transform="translate(0,0)" y="289" opacity="1">Storbritannia</text><text x="62" style="color:#000000;cursor:default;font-size:8px;fill:#000000;" text-anchor="end" transform="translate(0,0)" y="301" opacity="1">Kypros</text><text x="62" style="color:#000000;cursor:default;font-size:8px;fill:#000000;" text-anchor="end" transform="translate(0,0)" y="314" opacity="1">Slovenia</text><text x="62" style="color:#000000;cursor:default;font-size:8px;fill:#000000;" text-anchor="end" transform="translate(0,0)" y="327" opacity="1">Østerrike</text><text x="62" style="color:#000000;cursor:default;font-size:8px;fill:#000000;" text-anchor="end" transform="translate(0,0)" y="339" opacity="1">Portugal</text><text x="62" style="color:#000000;cursor:default;font-size:8px;fill:#000000;" text-anchor="end" transform="translate(0,0)" y="352" opacity="1">Ungarn</text><text x="62" style="color:#000000;cursor:default;font-size:8px;fill:#000000;" text-anchor="end" transform="translate(0,0)" y="364" opacity="1">Italia</text><text x="62" style="color:#000000;cursor:default;font-size:8px;fill:#000000;" text-anchor="end" transform="translate(0,0)" y="377" opacity="1">Hellas</text><text x="62" style="color:#000000;cursor:default;font-size:8px;fill:#000000;" text-anchor="end" transform="translate(0,0)" y="389" opacity="1">Spania</text></g><g class="highcharts-axis-labels highcharts-yaxis-labels" data-z-index="7"><text x="77" style="color:#000000;cursor:default;font-size:8px;fill:#000000;" text-anchor="middle" transform="translate(0,0)" y="409" opacity="1">0%</text><text x="142" style="color:#000000;cursor:default;font-size:8px;fill:#000000;" text-anchor="middle" transform="translate(0,0)" y="409" opacity="1">5%</text><text x="207" style="color:#000000;cursor:default;font-size:8px;fill:#000000;" text-anchor="middle" transform="translate(0,0)" y="409" opacity="1">10%</text><text x="272" style="color:#000000;cursor:default;font-size:8px;fill:#000000;" text-anchor="middle" transform="translate(0,0)" y="409" opacity="1">15%</text><text x="337" style="color:#000000;cursor:default;font-size:8px;fill:#000000;" text-anchor="middle" transform="translate(0,0)" y="409" opacity="1">20%</text><text x="402" style="color:#000000;cursor:default;font-size:8px;fill:#000000;" text-anchor="middle" transform="translate(0,0)" y="409" opacity="1">25%</text><text x="459.09375" style="color:#000000;cursor:default;font-size:8px;fill:#000000;" text-anchor="middle" transform="translate(0,0)" y="409" opacity="1">30%</text></g><g class="highcharts-control-points" data-z-index="99" clip-path="url(#highcharts-iovacin-492-)"></g></svg>