<svg xmlns:xlink="http://www.w3.org/1999/xlink" version="1.1" class="highcharts-root" style="font-family:Open Sans, sans-serif;font-size:12px;color:#000000;fill:#000000;" xmlns="http://www.w3.org/2000/svg" width="480" height="227" viewBox="0 0 480 227"><desc>Created with Highcharts 9.2.2</desc><defs><clipPath id="highcharts-4de4pul-2064-"><rect x="0" y="0" width="406" height="156" fill="none"></rect></clipPath><clipPath id="highcharts-4de4pul-2115-"><rect x="0" y="0" width="406" height="156" fill="none"></rect></clipPath><clipPath id="highcharts-4de4pul-2116-"><rect x="37" y="16" width="406" height="156" fill="none"></rect></clipPath></defs><rect fill="#ffffff" class="highcharts-background" x="0" y="0" width="480" height="227" rx="0" ry="0"></rect><rect fill="#ffffff" class="highcharts-plot-background" x="37" y="16" width="406" height="156"></rect><g class="highcharts-pane-group" data-z-index="0"></g><g class="highcharts-plot-lines-0" data-z-index="0"><path fill="none" class="highcharts-plot-line "></path></g><g class="highcharts-plot-lines-0" data-z-index="0"><path fill="none" class="highcharts-plot-line " stroke="#000000" stroke-width="0.25" d="M 37 172.125 L 443 172.125"></path></g><g class="highcharts-plot-lines-0" data-z-index="0"><path fill="none" class="highcharts-plot-line " stroke="#000000" stroke-width="0.25" d="M 37 172.125 L 443 172.125"></path></g><rect fill="none" class="highcharts-plot-border" data-z-index="1" x="37" y="16" width="406" height="156"></rect><g class="highcharts-grid highcharts-xaxis-grid" data-z-index="1"><path fill="none" stroke-dasharray="none" data-z-index="1" class="highcharts-grid-line" d="M 40.5 16 L 40.5 172" opacity="1"></path><path fill="none" stroke-dasharray="none" data-z-index="1" class="highcharts-grid-line" d="M 89.5 16 L 89.5 172" opacity="1"></path><path fill="none" stroke-dasharray="none" data-z-index="1" class="highcharts-grid-line" d="M 138.5 16 L 138.5 172" opacity="1"></path><path fill="none" stroke-dasharray="none" data-z-index="1" class="highcharts-grid-line" d="M 186.5 16 L 186.5 172" opacity="1"></path><path fill="none" stroke-dasharray="none" data-z-index="1" class="highcharts-grid-line" d="M 235.5 16 L 235.5 172" opacity="1"></path><path fill="none" stroke-dasharray="none" data-z-index="1" class="highcharts-grid-line" d="M 284.5 16 L 284.5 172" opacity="1"></path><path fill="none" stroke-dasharray="none" data-z-index="1" class="highcharts-grid-line" d="M 332.5 16 L 332.5 172" opacity="1"></path><path fill="none" stroke-dasharray="none" data-z-index="1" class="highcharts-grid-line" d="M 381.5 16 L 381.5 172" opacity="1"></path><path fill="none" stroke-dasharray="none" data-z-index="1" class="highcharts-grid-line" d="M 430.5 16 L 430.5 172" opacity="1"></path><path fill="none" stroke-dasharray="none" data-z-index="1" class="highcharts-grid-line" d="M 56.5 16 L 56.5 172" opacity="1"></path><path fill="none" stroke-dasharray="none" data-z-index="1" class="highcharts-grid-line" d="M 73.5 16 L 73.5 172" opacity="1"></path><path fill="none" stroke-dasharray="none" data-z-index="1" class="highcharts-grid-line" d="M 105.5 16 L 105.5 172" opacity="1"></path><path fill="none" stroke-dasharray="none" data-z-index="1" class="highcharts-grid-line" d="M 121.5 16 L 121.5 172" opacity="1"></path><path fill="none" stroke-dasharray="none" data-z-index="1" class="highcharts-grid-line" d="M 154.5 16 L 154.5 172" opacity="1"></path><path fill="none" stroke-dasharray="none" data-z-index="1" class="highcharts-grid-line" d="M 170.5 16 L 170.5 172" opacity="1"></path><path fill="none" stroke-dasharray="none" data-z-index="1" class="highcharts-grid-line" d="M 202.5 16 L 202.5 172" opacity="1"></path><path fill="none" stroke-dasharray="none" data-z-index="1" class="highcharts-grid-line" d="M 219.5 16 L 219.5 172" opacity="1"></path><path fill="none" stroke-dasharray="none" data-z-index="1" class="highcharts-grid-line" d="M 251.5 16 L 251.5 172" opacity="1"></path><path fill="none" stroke-dasharray="none" data-z-index="1" class="highcharts-grid-line" d="M 267.5 16 L 267.5 172" opacity="1"></path><path fill="none" stroke-dasharray="none" data-z-index="1" class="highcharts-grid-line" d="M 300.5 16 L 300.5 172" opacity="1"></path><path fill="none" stroke-dasharray="none" data-z-index="1" class="highcharts-grid-line" d="M 316.5 16 L 316.5 172" opacity="1"></path><path fill="none" stroke-dasharray="none" data-z-index="1" class="highcharts-grid-line" d="M 349.5 16 L 349.5 172" opacity="1"></path><path fill="none" stroke-dasharray="none" data-z-index="1" class="highcharts-grid-line" d="M 365.5 16 L 365.5 172" opacity="1"></path><path fill="none" stroke-dasharray="none" data-z-index="1" class="highcharts-grid-line" d="M 397.5 16 L 397.5 172" opacity="1"></path><path fill="none" stroke-dasharray="none" data-z-index="1" class="highcharts-grid-line" d="M 414.5 16 L 414.5 172" opacity="1"></path></g><g class="highcharts-grid highcharts-yaxis-grid" data-z-index="1"><path fill="none" stroke-dasharray="none" data-z-index="1" class="highcharts-grid-line" d="M 37 172.5 L 443 172.5" opacity="1"></path><path fill="none" stroke-dasharray="none" data-z-index="1" class="highcharts-grid-line" d="M 37 120.5 L 443 120.5" opacity="1"></path><path fill="none" stroke-dasharray="none" data-z-index="1" class="highcharts-grid-line" d="M 37 68.5 L 443 68.5" opacity="1"></path><path fill="none" stroke-dasharray="none" data-z-index="1" class="highcharts-grid-line" d="M 37 16.5 L 443 16.5" opacity="1"></path></g><g class="highcharts-grid highcharts-yaxis-grid" data-z-index="1"><path fill="none" stroke-dasharray="none" data-z-index="1" class="highcharts-grid-line" d="M 37 172.5 L 443 172.5" opacity="1"></path><path fill="none" stroke-dasharray="none" data-z-index="1" class="highcharts-grid-line" d="M 37 120.5 L 443 120.5" opacity="1"></path><path fill="none" stroke-dasharray="none" data-z-index="1" class="highcharts-grid-line" d="M 37 68.5 L 443 68.5" opacity="1"></path><path fill="none" stroke-dasharray="none" data-z-index="1" class="highcharts-grid-line" d="M 37 16.5 L 443 16.5" opacity="1"></path></g><g class="highcharts-axis highcharts-xaxis" data-z-index="2"><path fill="none" class="highcharts-axis-line" stroke="#000000" stroke-width="0.25" data-z-index="7" d="M 37 172.125 L 443 172.125"></path></g><g class="highcharts-axis highcharts-yaxis" data-z-index="2"><path fill="none" class="highcharts-tick" stroke="#000000" stroke-width="0.25" d="M 37 172.125 L 47 172.125" opacity="1"></path><path fill="none" class="highcharts-tick" stroke="#000000" stroke-width="0.25" d="M 37 120.125 L 47 120.125" opacity="1"></path><path fill="none" class="highcharts-tick" stroke="#000000" stroke-width="0.25" d="M 37 68.125 L 47 68.125" opacity="1"></path><path fill="none" class="highcharts-tick" stroke="#000000" stroke-width="0.25" d="M 37 15.875 L 47 15.875" opacity="1"></path><path fill="none" class="highcharts-axis-line" stroke="#000000" stroke-width="0.25" data-z-index="7" d="M 36.875 16 L 36.875 172"></path></g><g class="highcharts-axis highcharts-yaxis" data-z-index="2"><path fill="none" class="highcharts-tick" stroke="#000000" stroke-width="0.25" d="M 443 172.125 L 433 172.125" opacity="1"></path><path fill="none" class="highcharts-tick" stroke="#000000" stroke-width="0.25" d="M 443 120.125 L 433 120.125" opacity="1"></path><path fill="none" class="highcharts-tick" stroke="#000000" stroke-width="0.25" d="M 443 68.125 L 433 68.125" opacity="1"></path><path fill="none" class="highcharts-tick" stroke="#000000" stroke-width="0.25" d="M 443 15.875 L 433 15.875" opacity="1"></path><path fill="none" class="highcharts-axis-line" stroke="#000000" stroke-width="0.25" data-z-index="7" d="M 443.125 16 L 443.125 172"></path></g><g class="highcharts-series-group" data-z-index="3"><g class="highcharts-series highcharts-series-0 highcharts-line-series highcharts-color-0" data-z-index="0.1" opacity="1" transform="translate(37,16) scale(1 1)" clip-path="url(#highcharts-4de4pul-2064-)"><path fill="none" d="M 4.06 142.6871647032 L 12.18 113.513721152 L 20.3 102.2874154224 L 28.42 77.54440287359999 L 36.54 75.49566537759999 L 44.66 69.67563626399999 L 52.78 64.4878119288 L 60.9 62.6293949736 L 69.02 57.842944598399995 L 77.14 58.28844651759999 L 85.26 56.03418601039999 L 93.38 54.004370170399994 L 101.5 49.285578159999986 L 109.62 48.9253544 L 117.74 48.748368967999994 L 125.86 48.21410016799999 L 133.98 48.263118488 L 142.1 48.149880167999996 L 150.22 46.77737136799999 L 158.34 46.491641767999994 L 166.46 45.86994776 L 174.58 45.335970368000005 L 182.7 45.00259836800001 L 190.82 44.31580296 L 198.94 44.663970727999995 L 207.06 44.41983072800001 L 215.18 44.033886728 L 223.3 43.844294727999994 L 231.42 42.555694272 L 239.54 42.28980028000001 L 247.66 41.97839307999999 L 255.78 42.57747468000001 L 263.9 42.29394686399999 L 272.02 41.68098126400001 L 280.14 40.297583664 L 288.26 38.864900464 L 296.38 38.833794064 L 304.5 38.60013404 L 312.62 38.398114039999996 L 320.74 38.19578204 L 328.86 37.91272295199998 L 336.98 37.469178552 L 345.1 37.17687615199999 L 353.22 36.699984152 L 361.34 36.699984152 L 369.46 36.34777078399999 L 377.58 35.865158784 L 385.7 35.69909678399999 L 393.82 35.389062384 L 401.94 35.389062384" class="highcharts-graph" data-z-index="1" stroke="#4156A6" stroke-width="2" stroke-linejoin="round" stroke-linecap="round"></path></g><g class="highcharts-markers highcharts-series-0 highcharts-line-series highcharts-color-0" data-z-index="0.1" opacity="1" transform="translate(37,16) scale(1 1)" clip-path="none"></g></g><text x="13" text-anchor="start" class="highcharts-title" data-z-index="4" style="color:#333333;font-size:20px;fill:#333333;" y="31"></text><text x="13" text-anchor="start" class="highcharts-subtitle" data-z-index="4" style="color:#000000;font-size:20px;fill:#000000;" y="36"></text><text x="13" text-anchor="start" class="highcharts-caption" data-z-index="4" style="color:#666666;font-size:16px;fill:#666666;" y="230"></text><g class="highcharts-axis-labels highcharts-xaxis-labels" data-z-index="7"><text x="43.18132034355965" style="color:#000000;cursor:default;font-size:8px;fill:#000000;" text-anchor="end" transform="translate(0,0) rotate(-45 43.18132034355965 186)" y="186" opacity="1">2. kv. 2020</text><text x="91.90132034355965" style="color:#000000;cursor:default;font-size:8px;fill:#000000;" text-anchor="end" transform="translate(0,0) rotate(-45 91.90132034355965 186)" y="186" opacity="1">2. kv. 2020</text><text x="140.62132034355963" style="color:#000000;cursor:default;font-size:8px;fill:#000000;" text-anchor="end" transform="translate(0,0) rotate(-45 140.62132034355963 186)" y="186" opacity="1">3. kv. 2020</text><text x="189.34132034355963" style="color:#000000;cursor:default;font-size:8px;fill:#000000;" text-anchor="end" transform="translate(0,0) rotate(-45 189.34132034355963 186)" y="186" opacity="1">3. kv. 2020</text><text x="238.06132034355963" style="color:#000000;cursor:default;font-size:8px;fill:#000000;" text-anchor="end" transform="translate(0,0) rotate(-45 238.06132034355963 186)" y="186" opacity="1">4. kv. 2020</text><text x="286.7813203435597" style="color:#000000;cursor:default;font-size:8px;fill:#000000;" text-anchor="end" transform="translate(0,0) rotate(-45 286.7813203435597 186)" y="186" opacity="1">4. kv. 2020</text><text x="335.50132034355966" style="color:#000000;cursor:default;font-size:8px;fill:#000000;" text-anchor="end" transform="translate(0,0) rotate(-45 335.50132034355966 186)" y="186" opacity="1">4. kv. 2020</text><text x="384.2213203435597" style="color:#000000;cursor:default;font-size:8px;fill:#000000;" text-anchor="end" transform="translate(0,0) rotate(-45 384.2213203435597 186)" y="186" opacity="1">1. kv. 2021</text><text x="432.94132034355965" style="color:#000000;cursor:default;font-size:8px;fill:#000000;" text-anchor="end" transform="translate(0,0) rotate(-45 432.94132034355965 186)" y="186" opacity="1">1. kv. 2021</text><text x="59.42132034355964" style="color:#000000;cursor:default;font-size:8px;fill:#000000;" text-anchor="end" transform="translate(0,0) rotate(-45 59.42132034355964 186)" y="186" opacity="1">2. kv. 2020</text><text x="75.66132034355965" style="color:#000000;cursor:default;font-size:8px;fill:#000000;" text-anchor="end" transform="translate(0,0) rotate(-45 75.66132034355965 186)" y="186" opacity="1">2. kv. 2020</text><text x="108.14132034355964" style="color:#000000;cursor:default;font-size:8px;fill:#000000;" text-anchor="end" transform="translate(0,0) rotate(-45 108.14132034355964 186)" y="186" opacity="1">2. kv. 2020</text><text x="124.38132034355965" style="color:#000000;cursor:default;font-size:8px;fill:#000000;" text-anchor="end" transform="translate(0,0) rotate(-45 124.38132034355965 186)" y="186" opacity="1">2. kv. 2020</text><text x="156.86132034355964" style="color:#000000;cursor:default;font-size:8px;fill:#000000;" text-anchor="end" transform="translate(0,0) rotate(-45 156.86132034355964 186)" y="186" opacity="1">3. kv. 2020</text><text x="173.10132034355962" style="color:#000000;cursor:default;font-size:8px;fill:#000000;" text-anchor="end" transform="translate(0,0) rotate(-45 173.10132034355962 186)" y="186" opacity="1">3. kv. 2020</text><text x="205.58132034355964" style="color:#000000;cursor:default;font-size:8px;fill:#000000;" text-anchor="end" transform="translate(0,0) rotate(-45 205.58132034355964 186)" y="186" opacity="1">3. kv. 2020</text><text x="221.82132034355962" style="color:#000000;cursor:default;font-size:8px;fill:#000000;" text-anchor="end" transform="translate(0,0) rotate(-45 221.82132034355962 186)" y="186" opacity="1">3. kv. 2020</text><text x="254.30132034355964" style="color:#000000;cursor:default;font-size:8px;fill:#000000;" text-anchor="end" transform="translate(0,0) rotate(-45 254.30132034355964 186)" y="186" opacity="1">4. kv. 2020</text><text x="270.5413203435597" style="color:#000000;cursor:default;font-size:8px;fill:#000000;" text-anchor="end" transform="translate(0,0) rotate(-45 270.5413203435597 186)" y="186" opacity="1">4. kv. 2020</text><text x="303.02132034355964" style="color:#000000;cursor:default;font-size:8px;fill:#000000;" text-anchor="end" transform="translate(0,0) rotate(-45 303.02132034355964 186)" y="186" opacity="1">4. kv. 2020</text><text x="319.26132034355965" style="color:#000000;cursor:default;font-size:8px;fill:#000000;" text-anchor="end" transform="translate(0,0) rotate(-45 319.26132034355965 186)" y="186" opacity="1">4. kv. 2020</text><text x="351.74132034355966" style="color:#000000;cursor:default;font-size:8px;fill:#000000;" text-anchor="end" transform="translate(0,0) rotate(-45 351.74132034355966 186)" y="186" opacity="1">1. kv. 2021</text><text x="367.9813203435597" style="color:#000000;cursor:default;font-size:8px;fill:#000000;" text-anchor="end" transform="translate(0,0) rotate(-45 367.9813203435597 186)" y="186" opacity="1">1. kv. 2021</text><text x="400.46132034355963" style="color:#000000;cursor:default;font-size:8px;fill:#000000;" text-anchor="end" transform="translate(0,0) rotate(-45 400.46132034355963 186)" y="186" opacity="1">1. kv. 2021</text><text x="416.70132034355964" style="color:#000000;cursor:default;font-size:8px;fill:#000000;" text-anchor="end" transform="translate(0,0) rotate(-45 416.70132034355964 186)" y="186" opacity="1">1. kv. 2021</text></g><g class="highcharts-axis-labels highcharts-yaxis-labels" data-z-index="7"><text x="22" style="color:#000000;cursor:default;font-size:8px;fill:#000000;" text-anchor="end" transform="translate(0,0)" y="176" opacity="1">0</text><text x="22" style="color:#000000;cursor:default;font-size:8px;fill:#000000;" text-anchor="end" transform="translate(0,0)" y="124" opacity="1">5</text><text x="22" style="color:#000000;cursor:default;font-size:8px;fill:#000000;" text-anchor="end" transform="translate(0,0)" y="72" opacity="1">10</text><text x="22" style="color:#000000;cursor:default;font-size:8px;fill:#000000;" text-anchor="end" transform="translate(0,0)" y="20" opacity="1">15</text></g><g class="highcharts-axis-labels highcharts-yaxis-labels" data-z-index="7"><text x="458" style="color:#000000;cursor:default;font-size:8px;fill:#000000;" text-anchor="start" transform="translate(0,0)" y="176" opacity="1">0</text><text x="458" style="color:#000000;cursor:default;font-size:8px;fill:#000000;" text-anchor="start" transform="translate(0,0)" y="124" opacity="1">5</text><text x="458" style="color:#000000;cursor:default;font-size:8px;fill:#000000;" text-anchor="start" transform="translate(0,0)" y="72" opacity="1">10</text><text x="458" style="color:#000000;cursor:default;font-size:8px;fill:#000000;" text-anchor="start" transform="translate(0,0)" y="20" opacity="1">15</text></g><g class="highcharts-control-points" data-z-index="99" clip-path="url(#highcharts-4de4pul-2116-)"></g></svg>