<svg xmlns:xlink="http://www.w3.org/1999/xlink" version="1.1" class="highcharts-root" style="font-family:Open Sans, sans-serif;font-size:12px;color:#000000;fill:#000000;" xmlns="http://www.w3.org/2000/svg" width="480" height="227" viewBox="0 0 480 227"><desc>Created with Highcharts 9.2.2</desc><defs><clipPath id="highcharts-7gegkq0-3167-"><rect x="0" y="0" width="396" height="146" fill="none"></rect></clipPath><clipPath id="highcharts-7gegkq0-3387-"><rect x="0" y="0" width="396" height="146" fill="none"></rect></clipPath><clipPath id="highcharts-7gegkq0-3607-"><rect x="42" y="16" width="396" height="146" fill="none"></rect></clipPath></defs><rect fill="#ffffff" class="highcharts-background" x="0" y="0" width="480" height="227" rx="0" ry="0"></rect><rect fill="#ffffff" class="highcharts-plot-background" x="42" y="16" width="396" height="146"></rect><g class="highcharts-pane-group" data-z-index="0"></g><g class="highcharts-plot-lines-0" data-z-index="0"><path fill="none" class="highcharts-plot-line "></path></g><g class="highcharts-plot-lines-0" data-z-index="0"><path fill="none" class="highcharts-plot-line " stroke="#000000" stroke-width="0.25" d="M 42 162.125 L 438 162.125"></path></g><g class="highcharts-plot-lines-0" data-z-index="0"><path fill="none" class="highcharts-plot-line " stroke="#000000" stroke-width="0.25" d="M 42 162.125 L 438 162.125"></path></g><rect fill="none" class="highcharts-plot-border" data-z-index="1" x="42" y="16" width="396" height="146"></rect><g class="highcharts-grid highcharts-xaxis-grid" data-z-index="1"><path fill="none" stroke-dasharray="none" data-z-index="1" class="highcharts-grid-line" d="M 88.5 16 L 88.5 162" opacity="1"></path><path fill="none" stroke-dasharray="none" data-z-index="1" class="highcharts-grid-line" d="M 195.5 16 L 195.5 162" opacity="1"></path><path fill="none" stroke-dasharray="none" data-z-index="1" class="highcharts-grid-line" d="M 301.5 16 L 301.5 162" opacity="1"></path><path fill="none" stroke-dasharray="none" data-z-index="1" class="highcharts-grid-line" d="M 408.5 16 L 408.5 162" opacity="1"></path></g><g class="highcharts-grid highcharts-yaxis-grid" data-z-index="1"><path fill="none" stroke-dasharray="none" data-z-index="1" class="highcharts-grid-line" d="M 42 162.5 L 438 162.5" opacity="1"></path><path fill="none" stroke-dasharray="none" data-z-index="1" class="highcharts-grid-line" d="M 42 126.5 L 438 126.5" opacity="1"></path><path fill="none" stroke-dasharray="none" data-z-index="1" class="highcharts-grid-line" d="M 42 89.5 L 438 89.5" opacity="1"></path><path fill="none" stroke-dasharray="none" data-z-index="1" class="highcharts-grid-line" d="M 42 53.5 L 438 53.5" opacity="1"></path><path fill="none" stroke-dasharray="none" data-z-index="1" class="highcharts-grid-line" d="M 42 16.5 L 438 16.5" opacity="1"></path></g><g class="highcharts-grid highcharts-yaxis-grid" data-z-index="1"><path fill="none" stroke-dasharray="none" data-z-index="1" class="highcharts-grid-line" d="M 42 162.5 L 438 162.5" opacity="1"></path><path fill="none" stroke-dasharray="none" data-z-index="1" class="highcharts-grid-line" d="M 42 126.5 L 438 126.5" opacity="1"></path><path fill="none" stroke-dasharray="none" data-z-index="1" class="highcharts-grid-line" d="M 42 89.5 L 438 89.5" opacity="1"></path><path fill="none" stroke-dasharray="none" data-z-index="1" class="highcharts-grid-line" d="M 42 53.5 L 438 53.5" opacity="1"></path><path fill="none" stroke-dasharray="none" data-z-index="1" class="highcharts-grid-line" d="M 42 16.5 L 438 16.5" opacity="1"></path></g><g class="highcharts-axis highcharts-xaxis" data-z-index="2"><path fill="none" class="highcharts-axis-line" stroke="#000000" stroke-width="0.25" data-z-index="7" d="M 42 162.125 L 438 162.125"></path></g><g class="highcharts-axis highcharts-yaxis" data-z-index="2"><path fill="none" class="highcharts-tick" stroke="#000000" stroke-width="0.25" d="M 42 162.125 L 52 162.125" opacity="1"></path><path fill="none" class="highcharts-tick" stroke="#000000" stroke-width="0.25" d="M 42 126.125 L 52 126.125" opacity="1"></path><path fill="none" class="highcharts-tick" stroke="#000000" stroke-width="0.25" d="M 42 89.125 L 52 89.125" opacity="1"></path><path fill="none" class="highcharts-tick" stroke="#000000" stroke-width="0.25" d="M 42 53.125 L 52 53.125" opacity="1"></path><path fill="none" class="highcharts-tick" stroke="#000000" stroke-width="0.25" d="M 42 15.875 L 52 15.875" opacity="1"></path><path fill="none" class="highcharts-axis-line" stroke="#000000" stroke-width="0.25" data-z-index="7" d="M 41.875 16 L 41.875 162"></path></g><g class="highcharts-axis highcharts-yaxis" data-z-index="2"><path fill="none" class="highcharts-tick" stroke="#000000" stroke-width="0.25" d="M 438 162.125 L 428 162.125" opacity="1"></path><path fill="none" class="highcharts-tick" stroke="#000000" stroke-width="0.25" d="M 438 126.125 L 428 126.125" opacity="1"></path><path fill="none" class="highcharts-tick" stroke="#000000" stroke-width="0.25" d="M 438 89.125 L 428 89.125" opacity="1"></path><path fill="none" class="highcharts-tick" stroke="#000000" stroke-width="0.25" d="M 438 53.125 L 428 53.125" opacity="1"></path><path fill="none" class="highcharts-tick" stroke="#000000" stroke-width="0.25" d="M 438 15.875 L 428 15.875" opacity="1"></path><path fill="none" class="highcharts-axis-line" stroke="#000000" stroke-width="0.25" data-z-index="7" d="M 438.125 16 L 438.125 162"></path></g><g class="highcharts-series-group" data-z-index="3"><g class="highcharts-series highcharts-series-0 highcharts-line-series highcharts-color-0" data-z-index="0.1" opacity="1" transform="translate(42,16) scale(1 1)" clip-path="url(#highcharts-7gegkq0-3167-)"><path fill="none" d="M 3.8823529411765 109.65695 L 5.6965365585487 109.6387 L 7.3351540194009 109.6533 L 9.1493376367731 109.6679 L 10.904999201972 109.78105 L 12.719182819344 109.42335 L 14.474844384543 109.15325 L 16.289028001915 109.18975 L 18.103211619287 108.29915 L 19.858873184486 107.9159 L 21.673056801859 107.30635000000001 L 23.428718367057 106.8355 L 25.24290198443 106.70410000000001 L 27.057085601802 106.24785 L 28.754225114827 105.98505 L 30.5684087322 105.62004999999999 L 32.324070297398 105.42295 L 34.138253914771 105.02875 L 35.89391547997 104.5871 L 37.708099097342 104.44839999999999 L 39.522282714714 104.13085000000001 L 41.277944279913 103.8133 L 43.092127897285 103.24025 L 44.847789462484 102.7694 L 46.661973079856 102.80955 L 48.476156697228 102.6088 L 50.11477415808 102.2438 L 51.928957775453 102.09415 L 53.684619340652 101.84960000000001 L 55.498802958024 101.71455 L 57.254464523223 101.19624999999999 L 59.068648140595 100.81665 L 60.882831757967 100.46260000000001 L 62.638493323166 99.81655 L 64.452676940538 99.3749 L 66.208338505737 98.86755 L 68.022522123109 98.53174999999999 L 69.836705740481 98.13024999999999 L 71.475323201334 97.5353 L 73.289506818706 97.00605 L 75.045168383905 96.141 L 76.859352001277 95.46575000000001 L 78.615013566476 95.05695 L 80.429197183848 94.28315 L 82.24338080122 93.148 L 83.999042366419 92.4691 L 85.813225983791 91.92160000000001 L 87.56888754899 91.16239999999999 L 89.383071166362 90.29005000000001 L 91.197254783734 89.77175 L 92.835872244587 89.58195 L 94.650055861959 89.2279 L 96.405717427158 89.10015000000001 L 98.21990104453 88.99065 L 99.975562609729 88.38839999999999 L 101.7897462271 88.6804 L 103.60392984447 88.8483 L 105.35959140967 88.90305000000001 L 107.17377502704 88.7972 L 108.92943659224 88.695 L 110.74362020962 88.8483 L 112.55780382699 89.00890000000001 L 114.25494334001 88.8994 L 116.06912695739 89.02715 L 117.82478852258 89.25710000000001 L 119.63897213996 89.60385 L 121.39463370516 90.06739999999999 L 123.20881732253 90.3156 L 125.0230009399 90.4689 L 126.7786625051 91.98 L 128.59284612247 92.98375 L 130.34850768767 93.04214999999999 L 132.16269130504 92.47274999999999 L 133.97687492241 91.80115 L 135.61549238327 91.42885000000001 L 137.42967600064 90.88865 L 139.18533756584 90.39955 L 140.99952118321 89.5418 L 142.75518274841 88.7826 L 144.56936636578 88.34825000000001 L 146.38354998315 87.819 L 148.13921154835 87.1328 L 149.95339516572 86.7313 L 151.70905673092 86.30425 L 153.52324034829 86.17285000000001 L 155.33742396567 86.07795000000002 L 156.97604142652 86.0524 L 158.79022504389 85.63995 L 160.54588660909 85.41364999999999 L 162.36007022646 85.0085 L 164.11573179166 84.8552 L 165.92991540903 84.5194 L 167.74409902641 83.80765000000001 L 169.4997605916 83.1251 L 171.31394420898 82.34765000000002 L 173.06960577418 82.13595000000001 L 174.88378939155 81.47895 L 176.69797300892 80.99715 L 178.33659046977 80.5117 L 180.15077408714 80.42775 L 181.90643565234 79.73425 L 183.72061926972 79.59920000000001 L 185.47628083491 79.2123 L 187.29046445229 79.05170000000001 L 189.10464806966 78.20855 L 190.86030963486 77.62455 L 192.67449325223 77.1537 L 194.43015481743 76.94565 L 196.2443384348 76.7595 L 198.05852205217 76.5916 L 199.7556615652 75.98205 L 201.56984518257 75.6134 L 203.32550674777 75.3579 L 205.13969036514 75.01845 L 206.89535193034 74.2556 L 208.70953554771 73.86505 L 210.52371916509 73.4599 L 212.27938073028 72.9343 L 214.09356434766 72.34665000000001 L 215.84922591286 71.70425 L 217.66340953023 71.20054999999999 L 219.4775931476 70.883 L 221.11621060845 71.38305 L 222.93039422582 70.8465 L 224.68605579102 70.7224 L 226.5002394084 70.78445 L 228.25590097359 71.03265 L 230.07008459097 70.8611 L 231.88426820834 71.08375 L 233.63992977354 71.5911 L 235.45411339091 72.0072 L 237.20977495611 72.0875 L 239.02395857348 71.93785 L 240.83814219085 71.68965 L 242.47675965171 71.1458 L 244.29094326908 70.7443 L 246.04660483428 70.35010000000001 L 247.86078845165 69.9851 L 249.61645001685 69.0872 L 251.43063363422 69.2478 L 253.24481725159 68.41195 L 255.00047881679 67.73305 L 256.81466243416 66.8899 L 258.57032399936 65.7292 L 260.38450761673 65.79125 L 262.19869123411 65.1306 L 263.83730869496 64.96635 L 265.65149231233 64.46995 L 267.40715387753 64.4882 L 269.2213374949 63.6049 L 270.9769990601 63.572050000000004 L 272.79118267747 63.08295000000001 L 274.60536629484 62.84205 L 276.36102786004 63.155950000000004 L 278.17521147742 62.2252 L 279.93087304261 62.042699999999996 L 281.74505665999 61.45505 L 283.55924027736 61.411249999999995 L 285.25637979038 60.51700000000001 L 287.07056340776 59.834450000000004 L 288.82622497296 58.57155 L 290.64040859033 57.73570000000001 L 292.39607015553 56.5385 L 294.2102537729 55.5749 L 296.02443739027 54.490849999999995 L 297.78009895547 53.465199999999996 L 299.59428257284 52.55635000000001 L 301.34994413804 51.77159999999999 L 303.16412775541 51.027 L 304.97831137279 50.3408 L 306.61692883364 50.24955000000001 L 308.43111245101 50.50505 L 310.18677401621 51.35549999999999 L 312.00095763358 51.96140000000001 L 313.75661919878 52.2607 L 315.57080281615 52.43955000000001 L 317.38498643352 52.778999999999996 L 319.14064799872 52.60380000000001 L 320.9548316161 52.709649999999996 L 322.71049318129 52.727900000000005 L 324.52467679867 53.05640000000001 L 326.33886041604 52.54174999999999 L 327.97747787689 52.26435000000001 L 329.79166149426 51.37375 L 331.54732305946 50.42840000000001 L 333.36150667683 50.7423 L 335.11716824203 50.384600000000006 L 336.93135185941 50.43570000000001 L 338.74553547678 50.35905000000001 L 340.50119704198 50.351749999999996 L 342.31538065935 50.716750000000005 L 344.07104222455 50.099900000000005 L 345.88522584192 49.782349999999994 L 347.69940945929 49.79695000000001 L 349.33802692014 49.19104999999999 L 351.15221053752 49.13265000000001 L 352.90787210272 48.6691 L 354.72205572009 48.3917 L 356.47771728529 48.957449999999994 L 358.29190090266 47.96830000000001 L 360.10608452003 47.92450000000001 L 361.86174608523 48.04495 L 363.6759297026 47.74565 L 365.4315912678 47.61789999999999 L 367.24577488517 46.77475 L 369.05995850254 46.424350000000004 L 370.75709801557 47.6836 L 372.57128163294 47.78580000000001 L 374.32694319814 46.20900000000002 L 376.14112681551 45.04465000000002 L 377.89678838071 44.157700000000006 L 379.71097199808 43.727000000000004 L 381.52515561546 42.2743 L 383.28081718066 41.10995 L 385.09500079803 40.19380000000001 L 386.85066236323 39.2448 L 388.6648459806 38.2885 L 390.47902959797 36.835800000000006 L 392.11764705882 35.42325000000001" class="highcharts-graph" data-z-index="1" stroke="#4156A6" stroke-width="2" stroke-linejoin="round" stroke-linecap="round"></path></g><g class="highcharts-markers highcharts-series-0 highcharts-line-series highcharts-color-0" data-z-index="0.1" opacity="1" transform="translate(42,16) scale(1 1)" clip-path="none"></g><g class="highcharts-series highcharts-series-1 highcharts-line-series highcharts-color-1" data-z-index="0.1" opacity="1" transform="translate(42,16) scale(1 1)" clip-path="url(#highcharts-7gegkq0-3167-)"><path fill="none" d="M 3.8823529411765 110.14605 L 5.6965365585487 110.2081 L 7.3351540194009 110.21539999999999 L 9.1493376367731 110.23365000000001 L 10.904999201972 110.44535 L 12.719182819344 110.33585 L 14.474844384543 109.90514999999999 L 16.289028001915 110.011 L 18.103211619287 108.39405 L 19.858873184486 108.1714 L 21.673056801859 106.85740000000001 L 23.428718367057 107.03625 L 25.24290198443 106.77345 L 27.057085601802 105.70765 L 28.754225114827 105.777 L 30.5684087322 105.84635 L 32.324070297398 105.44120000000001 L 34.138253914771 105.01050000000001 L 35.89391547997 104.3973 L 37.708099097342 104.3827 L 39.522282714714 104.16735 L 41.277944279913 103.6454 L 43.092127897285 103.20009999999999 L 44.847789462484 103.0395 L 46.661973079856 102.54310000000001 L 48.476156697228 102.29490000000001 L 50.11477415808 102.21825 L 51.928957775453 101.87514999999999 L 53.684619340652 101.7328 L 55.498802958024 101.56855 L 57.254464523223 101.21085 L 59.068648140595 100.72540000000001 L 60.882831757967 100.21440000000001 L 62.638493323166 99.42235 L 64.452676940538 99.07195 L 66.208338505737 98.5938 L 68.022522123109 98.0244 L 69.836705740481 97.2944 L 71.475323201334 96.6009 L 73.289506818706 95.7395 L 75.045168383905 94.80875 L 76.859352001277 93.99115 L 78.615013566476 93.3889 L 80.429197183848 92.66985 L 82.24338080122 91.5858 L 83.999042366419 91.0018 L 85.813225983791 90.4689 L 87.56888754899 89.0162 L 89.383071166362 88.47964999999999 L 91.197254783734 88.3008 L 92.835872244587 88.35555 L 94.650055861959 88.26429999999999 L 96.405717427158 88.2059 L 98.21990104453 88.3519 L 99.975562609729 87.68395 L 101.7897462271 88.53075000000001 L 103.60392984447 88.96875 L 105.35959140967 89.35565 L 107.17377502704 89.44325 L 108.92943659224 89.6148 L 110.74362020962 89.81555 L 112.55780382699 90.39955 L 114.25494334001 90.05279999999999 L 116.06912695739 90.3448 L 117.82478852258 90.88135 L 119.63897213996 91.07845 L 121.39463370516 91.75735 L 123.20881732253 92.02015 L 125.0230009399 91.9581 L 126.7786625051 93.4838 L 128.59284612247 94.91460000000001 L 130.34850768767 95.91105 L 132.16269130504 94.4839 L 133.97687492241 93.56774999999999 L 135.61549238327 93.00565 L 137.42967600064 92.3158 L 139.18533756584 91.72815 L 140.99952118321 90.72805 L 142.75518274841 90.3594 L 144.56936636578 89.5856 L 146.38354998315 89.25710000000001 L 148.13921154835 88.55995 L 149.95339516572 88.26429999999999 L 151.70905673092 88.038 L 153.52324034829 87.7533 L 155.33742396567 88.06355 L 156.97604142652 87.73505 L 158.79022504389 87.48685 L 160.54588660909 87.17660000000001 L 162.36007022646 87.05615 L 164.11573179166 87.6292 L 165.92991540903 86.34075000000001 L 167.74409902641 85.34795 L 169.4997605916 84.59605 L 171.31394420898 83.9792 L 173.06960577418 83.09225 L 174.88378939155 82.12135 L 176.69797300892 81.60305 L 178.33659046977 81.38040000000001 L 180.15077408714 80.95335 L 181.90643565234 80.54820000000001 L 183.72061926972 80.39125 L 185.47628083491 80.4168 L 187.29046445229 79.26705 L 189.10464806966 78.4166 L 190.86030963486 77.16465 L 192.67449325223 76.8909 L 194.43015481743 76.80695 L 196.2443384348 76.6573 L 198.05852205217 75.90905000000001 L 199.7556615652 75.29585 L 201.56984518257 74.9418 L 203.32550674777 74.12785000000001 L 205.13969036514 73.2336 L 206.89535193034 72.50725 L 208.70953554771 71.905 L 210.52371916509 71.8831 L 212.27938073028 70.89395 L 214.09356434766 69.7515 L 215.84922591286 68.56525 L 217.66340953023 68.80980000000001 L 219.4775931476 69.15655 L 221.11621060845 68.8025 L 222.93039422582 69.14925 L 224.68605579102 69.4741 L 226.5002394084 69.9413 L 228.25590097359 70.2479 L 230.07008459097 70.4012 L 231.88426820834 70.87570000000001 L 233.63992977354 71.90135000000001 L 235.45411339091 72.66420000000001 L 237.20977495611 73.09125 L 239.02395857348 72.82115 L 240.83814219085 72.20065 L 242.47675965171 71.42685 L 244.29094326908 70.1311 L 246.04660483428 69.75515 L 247.86078845165 68.92660000000001 L 249.61645001685 68.23310000000001 L 251.43063363422 67.7732 L 253.24481725159 66.47745 L 255.00047881679 65.1744 L 256.81466243416 64.32395 L 258.57032399936 63.53920000000001 L 260.38450761673 62.575599999999994 L 262.19869123411 61.393 L 263.83730869496 61.32730000000001 L 265.65149231233 60.77615 L 267.40715387753 60.54984999999999 L 269.2213374949 58.6336 L 270.9769990601 56.19905 L 272.79118267747 57.465599999999995 L 274.60536629484 57.2539 L 276.36102786004 57.04220000000001 L 278.17521147742 55.89245 L 279.93087304261 54.70255 L 281.74505665999 53.85940000000001 L 283.55924027736 53.111149999999995 L 285.25637979038 51.687650000000005 L 287.07056340776 50.06705000000001 L 288.82622497296 47.32955000000001 L 290.64040859033 44.880399999999995 L 292.39607015553 39.909099999999995 L 294.2102537729 39.81784999999999 L 296.02443739027 37.53659999999999 L 297.78009895547 34.82830000000001 L 299.59428257284 33.1931 L 301.34994413804 31.214799999999997 L 303.16412775541 30.711100000000002 L 304.97831137279 30.378950000000003 L 306.61692883364 31.481250000000003 L 308.43111245101 32.8719 L 310.18677401621 35.33565 L 312.00095763358 37.5001 L 313.75661919878 40.040499999999994 L 315.57080281615 39.284949999999995 L 317.38498643352 40.2595 L 319.14064799872 40.85080000000001 L 320.9548316161 41.00045 L 322.71049318129 42.978750000000005 L 324.52467679867 41.4567 L 326.33886041604 40.79969999999999 L 327.97747787689 39.22655000000002 L 329.79166149426 37.37235 L 331.54732305946 36.16055 L 333.36150667683 36.01820000000001 L 335.11716824203 34.817350000000005 L 336.93135185941 35.718900000000005 L 338.74553547678 36.04010000000001 L 340.50119704198 35.59845 L 342.31538065935 35.99995 L 344.07104222455 36.28830000000001 L 345.88522584192 35.795550000000006 L 347.69940945929 35.53275000000001 L 349.33802692014 34.131150000000005 L 351.15221053752 34.018 L 352.90787210272 33.726 L 354.72205572009 32.543400000000005 L 356.47771728529 32.631 L 358.29190090266 31.594400000000007 L 360.10608452003 31.13085000000001 L 361.86174608523 31.379050000000007 L 363.6759297026 30.711100000000002 L 365.4315912678 30.196450000000013 L 367.24577488517 29.692750000000018 L 369.05995850254 29.10875 L 370.75709801557 30.762199999999993 L 372.57128163294 31.952100000000016 L 374.32694319814 29.167150000000007 L 376.14112681551 26.502650000000003 L 377.89678838071 26.272700000000015 L 379.71097199808 24.59734999999999 L 381.52515561546 22.494950000000003 L 383.28081718066 20.586 L 385.09500079803 18.782899999999998 L 386.85066236323 16.47245000000001 L 388.6648459806 14.574450000000013 L 390.47902959797 11.424499999999995 L 392.11764705882 12.457449999999994" class="highcharts-graph" data-z-index="1" stroke="#F15D61" stroke-width="2" stroke-linejoin="round" stroke-linecap="round"></path></g><g class="highcharts-markers highcharts-series-1 highcharts-line-series highcharts-color-1" data-z-index="0.1" opacity="1" transform="translate(42,16) scale(1 1)" clip-path="none"></g></g><text x="13" text-anchor="start" class="highcharts-title" data-z-index="4" style="color:#333333;font-size:20px;fill:#333333;" y="31"></text><text x="13" text-anchor="start" class="highcharts-subtitle" data-z-index="4" style="color:#000000;font-size:20px;fill:#000000;" y="36"></text><text x="13" text-anchor="start" class="highcharts-caption" data-z-index="4" style="color:#666666;font-size:16px;fill:#666666;" y="230"></text><g class="highcharts-legend highcharts-no-tooltip" data-z-index="7" transform="translate(179,193)"><rect fill="none" class="highcharts-legend-box" rx="0" ry="0" x="0" y="0" width="122" height="22" visibility="visible"></rect><g data-z-index="1"><g><g class="highcharts-legend-item highcharts-line-series highcharts-color-0 highcharts-series-0" data-z-index="1" transform="translate(8,3)"><path fill="none" d="M 0 8 L 16 8" class="highcharts-graph" stroke="#4156A6" stroke-width="2"></path><text x="21" y="11" style="color:#000000;cursor:pointer;font-size:8px;font-weight:normal;fill:#000000;" text-anchor="start" data-z-index="2">Landet</text></g><g class="highcharts-legend-item highcharts-line-series highcharts-color-1 highcharts-series-1" data-z-index="1" transform="translate(75.515625,3)"><path fill="none" d="M 0 8 L 16 8" class="highcharts-graph" stroke="#F15D61" stroke-width="2"></path><text x="21" y="11" style="color:#000000;cursor:pointer;font-size:8px;font-weight:normal;fill:#000000;" text-anchor="start" data-z-index="2">Oslo</text></g></g></g></g><g class="highcharts-axis-labels highcharts-xaxis-labels" data-z-index="7"><text x="88.661973079856" style="color:#000000;cursor:default;font-size:8px;fill:#000000;" text-anchor="middle" transform="translate(0,0)" y="179" opacity="1">2005</text><text x="195.52324034829" style="color:#000000;cursor:default;font-size:8px;fill:#000000;" text-anchor="middle" transform="translate(0,0)" y="179" opacity="1">2010</text><text x="302.38450761673" style="color:#000000;cursor:default;font-size:8px;fill:#000000;" text-anchor="middle" transform="translate(0,0)" y="179" opacity="1">2015</text><text x="409.24577488517" style="color:#000000;cursor:default;font-size:8px;fill:#000000;" text-anchor="middle" transform="translate(0,0)" y="179" opacity="1">2020</text></g><g class="highcharts-axis-labels highcharts-yaxis-labels" data-z-index="7"><text x="27" style="color:#000000;cursor:default;font-size:8px;fill:#000000;" text-anchor="end" transform="translate(0,0)" y="166" opacity="1">0</text><text x="27" style="color:#000000;cursor:default;font-size:8px;fill:#000000;" text-anchor="end" transform="translate(0,0)" y="129" opacity="1">100</text><text x="27" style="color:#000000;cursor:default;font-size:8px;fill:#000000;" text-anchor="end" transform="translate(0,0)" y="93" opacity="1">200</text><text x="27" style="color:#000000;cursor:default;font-size:8px;fill:#000000;" text-anchor="end" transform="translate(0,0)" y="56" opacity="1">300</text><text x="27" style="color:#000000;cursor:default;font-size:8px;fill:#000000;" text-anchor="end" transform="translate(0,0)" y="20" opacity="1">400</text></g><g class="highcharts-axis-labels highcharts-yaxis-labels" data-z-index="7"><text x="453" style="color:#000000;cursor:default;font-size:8px;fill:#000000;" text-anchor="start" transform="translate(0,0)" y="166" opacity="1">0</text><text x="453" style="color:#000000;cursor:default;font-size:8px;fill:#000000;" text-anchor="start" transform="translate(0,0)" y="129" opacity="1">100</text><text x="453" style="color:#000000;cursor:default;font-size:8px;fill:#000000;" text-anchor="start" transform="translate(0,0)" y="93" opacity="1">200</text><text x="453" style="color:#000000;cursor:default;font-size:8px;fill:#000000;" text-anchor="start" transform="translate(0,0)" y="56" opacity="1">300</text><text x="453" style="color:#000000;cursor:default;font-size:8px;fill:#000000;" text-anchor="start" transform="translate(0,0)" y="20" opacity="1">400</text></g><g class="highcharts-control-points" data-z-index="99" clip-path="url(#highcharts-7gegkq0-3607-)"></g></svg>