<svg xmlns:xlink="http://www.w3.org/1999/xlink" version="1.1" class="highcharts-root" style="font-family:Open Sans, sans-serif;font-size:12px;color:#000000;fill:#000000;" xmlns="http://www.w3.org/2000/svg" width="480" height="227" viewBox="0 0 480 227"><desc>Created with Highcharts 9.2.2</desc><defs><clipPath id="highcharts-fkuc00g-406-"><rect x="0" y="0" width="388" height="73" fill="none"></rect></clipPath><clipPath id="highcharts-fkuc00g-415-"><rect x="0" y="0" width="388" height="73" fill="none"></rect></clipPath><clipPath id="highcharts-fkuc00g-424-"><rect x="0" y="0" width="388" height="73" fill="none"></rect></clipPath><clipPath id="highcharts-fkuc00g-441-"><rect x="48" y="16" width="388" height="73" fill="none"></rect></clipPath></defs><rect fill="#ffffff" class="highcharts-background" x="0" y="0" width="480" height="227" rx="0" ry="0"></rect><rect fill="#ffffff" class="highcharts-plot-background" x="48" y="16" width="388" height="73"></rect><g class="highcharts-pane-group" data-z-index="0"></g><g class="highcharts-plot-lines-0" data-z-index="0"><path fill="none" class="highcharts-plot-line "></path></g><g class="highcharts-plot-lines-0" data-z-index="0"><path fill="none" class="highcharts-plot-line " stroke="#000000" stroke-width="0.25" d="M 48 89.125 L 436 89.125"></path></g><g class="highcharts-plot-lines-0" data-z-index="0"><path fill="none" class="highcharts-plot-line " stroke="#000000" stroke-width="0.25" d="M 48 89.125 L 436 89.125"></path></g><rect fill="none" class="highcharts-plot-border" data-z-index="1" x="48" y="16" width="388" height="73"></rect><g class="highcharts-grid highcharts-xaxis-grid" data-z-index="1"><path fill="none" stroke-dasharray="none" data-z-index="1" class="highcharts-grid-line" d="M 96.5 16 L 96.5 89" opacity="1"></path><path fill="none" stroke-dasharray="none" data-z-index="1" class="highcharts-grid-line" d="M 144.5 16 L 144.5 89" opacity="1"></path><path fill="none" stroke-dasharray="none" data-z-index="1" class="highcharts-grid-line" d="M 193.5 16 L 193.5 89" opacity="1"></path><path fill="none" stroke-dasharray="none" data-z-index="1" class="highcharts-grid-line" d="M 241.5 16 L 241.5 89" opacity="1"></path><path fill="none" stroke-dasharray="none" data-z-index="1" class="highcharts-grid-line" d="M 290.5 16 L 290.5 89" opacity="1"></path><path fill="none" stroke-dasharray="none" data-z-index="1" class="highcharts-grid-line" d="M 338.5 16 L 338.5 89" opacity="1"></path><path fill="none" stroke-dasharray="none" data-z-index="1" class="highcharts-grid-line" d="M 387.5 16 L 387.5 89" opacity="1"></path><path fill="none" stroke-dasharray="none" data-z-index="1" class="highcharts-grid-line" d="M 435.5 16 L 435.5 89" opacity="1"></path><path fill="none" stroke-dasharray="none" data-z-index="1" class="highcharts-grid-line" d="M 47.5 16 L 47.5 89" opacity="1"></path></g><g class="highcharts-grid highcharts-yaxis-grid" data-z-index="1"><path fill="none" stroke-dasharray="none" data-z-index="1" class="highcharts-grid-line" d="M 48 89.5 L 436 89.5" opacity="1"></path><path fill="none" stroke-dasharray="none" data-z-index="1" class="highcharts-grid-line" d="M 48 74.5 L 436 74.5" opacity="1"></path><path fill="none" stroke-dasharray="none" data-z-index="1" class="highcharts-grid-line" d="M 48 60.5 L 436 60.5" opacity="1"></path><path fill="none" stroke-dasharray="none" data-z-index="1" class="highcharts-grid-line" d="M 48 45.5 L 436 45.5" opacity="1"></path><path fill="none" stroke-dasharray="none" data-z-index="1" class="highcharts-grid-line" d="M 48 31.5 L 436 31.5" opacity="1"></path><path fill="none" stroke-dasharray="none" data-z-index="1" class="highcharts-grid-line" d="M 48 16.5 L 436 16.5" opacity="1"></path></g><g class="highcharts-grid highcharts-yaxis-grid" data-z-index="1"><path fill="none" stroke-dasharray="none" data-z-index="1" class="highcharts-grid-line" d="M 48 89.5 L 436 89.5" opacity="1"></path><path fill="none" stroke-dasharray="none" data-z-index="1" class="highcharts-grid-line" d="M 48 74.5 L 436 74.5" opacity="1"></path><path fill="none" stroke-dasharray="none" data-z-index="1" class="highcharts-grid-line" d="M 48 60.5 L 436 60.5" opacity="1"></path><path fill="none" stroke-dasharray="none" data-z-index="1" class="highcharts-grid-line" d="M 48 45.5 L 436 45.5" opacity="1"></path><path fill="none" stroke-dasharray="none" data-z-index="1" class="highcharts-grid-line" d="M 48 31.5 L 436 31.5" opacity="1"></path><path fill="none" stroke-dasharray="none" data-z-index="1" class="highcharts-grid-line" d="M 48 16.5 L 436 16.5" opacity="1"></path></g><g class="highcharts-axis highcharts-xaxis" data-z-index="2"><path fill="none" class="highcharts-axis-line" stroke="#000000" stroke-width="0.25" data-z-index="7" d="M 48 89.125 L 436 89.125"></path></g><g class="highcharts-axis highcharts-yaxis" data-z-index="2"><path fill="none" class="highcharts-tick" stroke="#000000" stroke-width="0.25" d="M 48 89.125 L 58 89.125" opacity="1"></path><path fill="none" class="highcharts-tick" stroke="#000000" stroke-width="0.25" d="M 48 74.125 L 58 74.125" opacity="1"></path><path fill="none" class="highcharts-tick" stroke="#000000" stroke-width="0.25" d="M 48 60.125 L 58 60.125" opacity="1"></path><path fill="none" class="highcharts-tick" stroke="#000000" stroke-width="0.25" d="M 48 45.125 L 58 45.125" opacity="1"></path><path fill="none" class="highcharts-tick" stroke="#000000" stroke-width="0.25" d="M 48 31.125 L 58 31.125" opacity="1"></path><path fill="none" class="highcharts-tick" stroke="#000000" stroke-width="0.25" d="M 48 15.875 L 58 15.875" opacity="1"></path><path fill="none" class="highcharts-axis-line" stroke="#000000" stroke-width="0.25" data-z-index="7" d="M 47.875 16 L 47.875 89"></path></g><g class="highcharts-axis highcharts-yaxis" data-z-index="2"><path fill="none" class="highcharts-tick" stroke="#000000" stroke-width="0.25" d="M 436 89.125 L 426 89.125" opacity="1"></path><path fill="none" class="highcharts-tick" stroke="#000000" stroke-width="0.25" d="M 436 74.125 L 426 74.125" opacity="1"></path><path fill="none" class="highcharts-tick" stroke="#000000" stroke-width="0.25" d="M 436 60.125 L 426 60.125" opacity="1"></path><path fill="none" class="highcharts-tick" stroke="#000000" stroke-width="0.25" d="M 436 45.125 L 426 45.125" opacity="1"></path><path fill="none" class="highcharts-tick" stroke="#000000" stroke-width="0.25" d="M 436 31.125 L 426 31.125" opacity="1"></path><path fill="none" class="highcharts-tick" stroke="#000000" stroke-width="0.25" d="M 436 15.875 L 426 15.875" opacity="1"></path><path fill="none" class="highcharts-axis-line" stroke="#000000" stroke-width="0.25" data-z-index="7" d="M 436.125 16 L 436.125 89"></path></g><g class="highcharts-series-group" data-z-index="3"><g class="highcharts-series highcharts-series-0 highcharts-column-series highcharts-color-0" data-z-index="0.1" opacity="1" transform="translate(48,16) scale(1 1)" clip-path="url(#highcharts-fkuc00g-406-)"><rect x="10.5" y="14.5" width="12" height="59" fill="#4156A6" stroke="#ffffff" stroke-width="1" opacity="1" class="highcharts-point highcharts-color-0"></rect><rect x="59.5" y="62.5" width="12" height="11" fill="#4156A6" stroke="#ffffff" stroke-width="1" opacity="1" class="highcharts-point highcharts-color-0"></rect><rect x="107.5" y="67.5" width="12" height="6" fill="#4156A6" stroke="#ffffff" stroke-width="1" opacity="1" class="highcharts-point highcharts-color-0"></rect><rect x="156.5" y="67.5" width="12" height="6" fill="#4156A6" stroke="#ffffff" stroke-width="1" opacity="1" class="highcharts-point highcharts-color-0"></rect><rect x="204.5" y="68.5" width="12" height="5" fill="#4156A6" stroke="#ffffff" stroke-width="1" opacity="1" class="highcharts-point highcharts-color-0"></rect><rect x="253.5" y="68.5" width="12" height="5" fill="#4156A6" stroke="#ffffff" stroke-width="1" opacity="1" class="highcharts-point highcharts-color-0"></rect><rect x="301.5" y="68.5" width="12" height="5" fill="#4156A6" stroke="#ffffff" stroke-width="1" opacity="1" class="highcharts-point highcharts-color-0"></rect><rect x="350.5" y="69.5" width="12" height="4" fill="#4156A6" stroke="#ffffff" stroke-width="1" opacity="1" class="highcharts-point highcharts-color-0"></rect></g><g class="highcharts-markers highcharts-series-0 highcharts-column-series highcharts-color-0" data-z-index="0.1" opacity="1" transform="translate(48,16) scale(1 1)" clip-path="none"></g><g class="highcharts-series highcharts-series-1 highcharts-column-series" data-z-index="0.1" opacity="1" transform="translate(48,16) scale(1 1)" clip-path="url(#highcharts-fkuc00g-406-)"><rect x="25.5" y="36.5" width="12" height="37" fill="#5b91cc" stroke="#ffffff" stroke-width="1" opacity="1" class="highcharts-point"></rect><rect x="73.5" y="65.5" width="12" height="8" fill="#5b91cc" stroke="#ffffff" stroke-width="1" opacity="1" class="highcharts-point"></rect><rect x="122.5" y="67.5" width="12" height="6" fill="#5b91cc" stroke="#ffffff" stroke-width="1" opacity="1" class="highcharts-point"></rect><rect x="170.5" y="66.5" width="12" height="7" fill="#5b91cc" stroke="#ffffff" stroke-width="1" opacity="1" class="highcharts-point"></rect><rect x="219.5" y="68.5" width="12" height="5" fill="#5b91cc" stroke="#ffffff" stroke-width="1" opacity="1" class="highcharts-point"></rect><rect x="267.5" y="68.5" width="12" height="5" fill="#5b91cc" stroke="#ffffff" stroke-width="1" opacity="1" class="highcharts-point"></rect><rect x="316.5" y="69.5" width="12" height="4" fill="#5b91cc" stroke="#ffffff" stroke-width="1" opacity="1" class="highcharts-point"></rect><rect x="364.5" y="70.5" width="12" height="3" fill="#5b91cc" stroke="#ffffff" stroke-width="1" opacity="1" class="highcharts-point"></rect></g><g class="highcharts-markers highcharts-series-1 highcharts-column-series" data-z-index="0.1" opacity="1" transform="translate(48,16) scale(1 1)" clip-path="none"></g><g class="highcharts-series highcharts-series-2 highcharts-line-series" data-z-index="0.1" opacity="1" transform="translate(48,16) scale(1 1)" clip-path="url(#highcharts-fkuc00g-406-)"><path fill="none" d="M 24.25 65.7 L 72.75 65.7 L 121.25 65.7 L 169.75 65.7 L 218.25 65.7 L 266.75 65.7 L 315.25 65.7 L 363.75 65.7" class="highcharts-graph" data-z-index="1" stroke="#f15d61" stroke-width="2" stroke-linejoin="round" stroke-linecap="round"></path></g><g class="highcharts-markers highcharts-series-2 highcharts-line-series" data-z-index="0.1" opacity="1" transform="translate(48,16) scale(1 1)" clip-path="none"></g><g class="highcharts-series highcharts-series-3 highcharts-line-series" data-z-index="0.1" opacity="1" transform="translate(48,16) scale(1 1)" clip-path="url(#highcharts-fkuc00g-406-)"><path fill="none" d="M 24.25 58.4 L 72.75 58.4 L 121.25 58.4 L 169.75 58.4 L 218.25 58.4 L 266.75 58.4 L 315.25 58.4 L 363.75 58.4" class="highcharts-graph" data-z-index="1" stroke="#0a0a0a" stroke-width="2" stroke-linejoin="round" stroke-linecap="round"></path></g><g class="highcharts-markers highcharts-series-3 highcharts-line-series" data-z-index="0.1" opacity="1" transform="translate(48,16) scale(1 1)" clip-path="none"></g></g><text x="13" text-anchor="start" class="highcharts-title" data-z-index="4" style="color:#333333;font-size:20px;fill:#333333;" y="31"></text><text x="13" text-anchor="start" class="highcharts-subtitle" data-z-index="4" style="color:#000000;font-size:20px;fill:#000000;" y="36"></text><text x="13" text-anchor="start" class="highcharts-caption" data-z-index="4" style="color:#666666;font-size:16px;fill:#666666;" y="230"></text><g class="highcharts-legend highcharts-no-tooltip" data-z-index="7" transform="translate(76,182)"><rect fill="none" class="highcharts-legend-box" rx="0" ry="0" x="0" y="0" width="327" height="33" visibility="visible"></rect><g data-z-index="1"><g><g class="highcharts-legend-item highcharts-column-series highcharts-color-0 highcharts-series-0" data-z-index="1" transform="translate(8,3)"><text x="21" y="11" style="color:#000000;cursor:pointer;font-size:8px;font-weight:normal;fill:#000000;" text-anchor="start" data-z-index="2">Forvaltningskapital (venstre akse)</text><rect x="4" y="4" width="8" height="8" fill="#4156A6" class="highcharts-point" data-z-index="3"></rect></g><g class="highcharts-legend-item highcharts-column-series highcharts-color-undefined highcharts-series-1" data-z-index="1" transform="translate(173.734375,3)"><text x="21" y="11" style="color:#000000;cursor:pointer;font-size:8px;font-weight:normal;fill:#000000;" text-anchor="start" data-z-index="2">Utlånsandel (høyre akse)</text><rect x="4" y="4" width="8" height="8" fill="#5b91cc" class="highcharts-point" data-z-index="3"></rect></g><g class="highcharts-legend-item highcharts-line-series highcharts-color-undefined highcharts-series-2" data-z-index="1" transform="translate(8,14)"><path fill="none" d="M 0 8 L 16 8" class="highcharts-graph" stroke="#f15d61" stroke-width="2"></path><text x="21" y="11" style="color:#000000;cursor:pointer;font-size:8px;font-weight:normal;fill:#000000;" text-anchor="start" data-z-index="2">Kriterier (1 pst. bufferkrav)</text></g><g class="highcharts-legend-item highcharts-line-series highcharts-color-undefined highcharts-series-3" data-z-index="1" transform="translate(173.734375,14)"><path fill="none" d="M 0 8 L 16 8" class="highcharts-graph" stroke="#0a0a0a" stroke-width="2"></path><text x="21" y="11" style="color:#000000;cursor:pointer;font-size:8px;font-weight:normal;fill:#000000;" text-anchor="start" data-z-index="2">Kriterier (2 pst. bufferkrav)</text></g></g></g></g><g class="highcharts-axis-labels highcharts-xaxis-labels" data-z-index="7"><text x="74.37132034355965" style="color:#000000;cursor:default;font-size:8px;fill:#000000;" text-anchor="end" transform="translate(0,0) rotate(-45 74.37132034355965 103)" y="103" opacity="1">DNB</text><text x="122.87132034355963" style="color:#000000;cursor:default;font-size:8px;fill:#000000;" text-anchor="end" transform="translate(0,0) rotate(-45 122.87132034355963 103)" y="103" opacity="1">Kommunalbanken</text><text x="171.37132034355963" style="color:#000000;cursor:default;font-size:8px;fill:#000000;" text-anchor="end" transform="translate(0,0) rotate(-45 171.37132034355963 103)" y="103" opacity="1">Sparebank 1 SR-Bank</text><text x="219.87132034355963" style="color:#000000;cursor:default;font-size:8px;fill:#000000;" text-anchor="end" transform="translate(0,0) rotate(-45 219.87132034355963 103)" y="103" opacity="1">Nordea Eiendomskreditt</text><text x="268.37132034355966" style="color:#000000;cursor:default;font-size:8px;fill:#000000;" text-anchor="end" transform="translate(0,0) rotate(-45 268.37132034355966 103)" y="103" opacity="1">Sparebank 1 SMN</text><text x="316.87132034355966" style="color:#000000;cursor:default;font-size:8px;fill:#000000;" text-anchor="end" transform="translate(0,0) rotate(-45 316.87132034355966 103)" y="103" opacity="1">Sparebanken Vest</text><text x="365.37132034355966" style="color:#000000;cursor:default;font-size:8px;fill:#000000;" text-anchor="end" transform="translate(0,0) rotate(-45 365.37132034355966 103)" y="103" opacity="1">Sparebank 1 Østlandet</text><text x="413.87132034355966" style="color:#000000;cursor:default;font-size:8px;fill:#000000;" text-anchor="end" transform="translate(0,0) rotate(-45 413.87132034355966 103)" y="103" opacity="1">Sparebank 1 Nord-Norge</text></g><g class="highcharts-axis-labels highcharts-yaxis-labels" data-z-index="7"><text x="33" style="color:#000000;cursor:default;font-size:8px;fill:#000000;" text-anchor="end" transform="translate(0,0)" y="92" opacity="1">0%</text><text x="33" style="color:#000000;cursor:default;font-size:8px;fill:#000000;" text-anchor="end" transform="translate(0,0)" y="78" opacity="1">20%</text><text x="33" style="color:#000000;cursor:default;font-size:8px;fill:#000000;" text-anchor="end" transform="translate(0,0)" y="63" opacity="1">40%</text><text x="33" style="color:#000000;cursor:default;font-size:8px;fill:#000000;" text-anchor="end" transform="translate(0,0)" y="49" opacity="1">60%</text><text x="33" style="color:#000000;cursor:default;font-size:8px;fill:#000000;" text-anchor="end" transform="translate(0,0)" y="34" opacity="1">80%</text><text x="33" style="color:#000000;cursor:default;font-size:8px;fill:#000000;" text-anchor="end" transform="translate(0,0)" y="19" opacity="1">100%</text></g><g class="highcharts-axis-labels highcharts-yaxis-labels" data-z-index="7"><text x="451" style="color:#000000;cursor:default;font-size:8px;fill:#000000;" text-anchor="start" transform="translate(0,0)" y="92" opacity="1">0%</text><text x="451" style="color:#000000;cursor:default;font-size:8px;fill:#000000;" text-anchor="start" transform="translate(0,0)" y="78" opacity="1">10%</text><text x="451" style="color:#000000;cursor:default;font-size:8px;fill:#000000;" text-anchor="start" transform="translate(0,0)" y="63" opacity="1">20%</text><text x="451" style="color:#000000;cursor:default;font-size:8px;fill:#000000;" text-anchor="start" transform="translate(0,0)" y="49" opacity="1">30%</text><text x="451" style="color:#000000;cursor:default;font-size:8px;fill:#000000;" text-anchor="start" transform="translate(0,0)" y="34" opacity="1">40%</text><text x="451" style="color:#000000;cursor:default;font-size:8px;fill:#000000;" text-anchor="start" transform="translate(0,0)" y="19" opacity="1">50%</text></g><g class="highcharts-control-points" data-z-index="99" clip-path="url(#highcharts-fkuc00g-441-)"></g></svg>