<svg xmlns:xlink="http://www.w3.org/1999/xlink" version="1.1" class="highcharts-root" style="font-family:Open Sans, sans-serif;font-size:12px;color:#000000;fill:#000000;" xmlns="http://www.w3.org/2000/svg" width="480" height="227" viewBox="0 0 480 227"><desc>Created with Highcharts 9.2.2</desc><defs><clipPath id="highcharts-tvv0n2v-2699-"><rect x="0" y="0" width="384" height="146" fill="none"></rect></clipPath><clipPath id="highcharts-tvv0n2v-2725-"><rect x="0" y="0" width="384" height="135" fill="none"></rect></clipPath><clipPath id="highcharts-tvv0n2v-2776-"><rect x="48" y="16" width="384" height="146" fill="none"></rect></clipPath></defs><rect fill="#ffffff" class="highcharts-background" x="0" y="0" width="480" height="227" rx="0" ry="0"></rect><rect fill="#ffffff" class="highcharts-plot-background" x="48" y="16" width="384" height="146"></rect><g class="highcharts-pane-group" data-z-index="0"></g><g class="highcharts-plot-lines-0" data-z-index="0"><path fill="none" class="highcharts-plot-line "></path></g><g class="highcharts-plot-lines-0" data-z-index="0"><path fill="none" class="highcharts-plot-line " stroke="#000000" stroke-width="0.25" d="M 48 162.125 L 432 162.125"></path></g><g class="highcharts-plot-lines-0" data-z-index="0"><path fill="none" class="highcharts-plot-line " stroke="#000000" stroke-width="0.25" d="M 48 162.125 L 432 162.125"></path></g><rect fill="none" class="highcharts-plot-border" data-z-index="1" x="48" y="16" width="384" height="146"></rect><g class="highcharts-grid highcharts-xaxis-grid" data-z-index="1"><path fill="none" stroke-dasharray="none" data-z-index="1" class="highcharts-grid-line" d="M 55.5 16 L 55.5 162" opacity="1"></path><path fill="none" stroke-dasharray="none" data-z-index="1" class="highcharts-grid-line" d="M 85.5 16 L 85.5 162" opacity="1"></path><path fill="none" stroke-dasharray="none" data-z-index="1" class="highcharts-grid-line" d="M 116.5 16 L 116.5 162" opacity="1"></path><path fill="none" stroke-dasharray="none" data-z-index="1" class="highcharts-grid-line" d="M 147.5 16 L 147.5 162" opacity="1"></path><path fill="none" stroke-dasharray="none" data-z-index="1" class="highcharts-grid-line" d="M 178.5 16 L 178.5 162" opacity="1"></path><path fill="none" stroke-dasharray="none" data-z-index="1" class="highcharts-grid-line" d="M 208.5 16 L 208.5 162" opacity="1"></path><path fill="none" stroke-dasharray="none" data-z-index="1" class="highcharts-grid-line" d="M 239.5 16 L 239.5 162" opacity="1"></path><path fill="none" stroke-dasharray="none" data-z-index="1" class="highcharts-grid-line" d="M 270.5 16 L 270.5 162" opacity="1"></path><path fill="none" stroke-dasharray="none" data-z-index="1" class="highcharts-grid-line" d="M 300.5 16 L 300.5 162" opacity="1"></path><path fill="none" stroke-dasharray="none" data-z-index="1" class="highcharts-grid-line" d="M 331.5 16 L 331.5 162" opacity="1"></path><path fill="none" stroke-dasharray="none" data-z-index="1" class="highcharts-grid-line" d="M 362.5 16 L 362.5 162" opacity="1"></path><path fill="none" stroke-dasharray="none" data-z-index="1" class="highcharts-grid-line" d="M 393.5 16 L 393.5 162" opacity="1"></path><path fill="none" stroke-dasharray="none" data-z-index="1" class="highcharts-grid-line" d="M 423.5 16 L 423.5 162" opacity="1"></path></g><g class="highcharts-grid highcharts-yaxis-grid" data-z-index="1"><path fill="none" stroke-dasharray="none" data-z-index="1" class="highcharts-grid-line" d="M 48 162.5 L 432 162.5" opacity="1"></path><path fill="none" stroke-dasharray="none" data-z-index="1" class="highcharts-grid-line" d="M 48 147.5 L 432 147.5" opacity="1"></path><path fill="none" stroke-dasharray="none" data-z-index="1" class="highcharts-grid-line" d="M 48 133.5 L 432 133.5" opacity="1"></path><path fill="none" stroke-dasharray="none" data-z-index="1" class="highcharts-grid-line" d="M 48 118.5 L 432 118.5" opacity="1"></path><path fill="none" stroke-dasharray="none" data-z-index="1" class="highcharts-grid-line" d="M 48 104.5 L 432 104.5" opacity="1"></path><path fill="none" stroke-dasharray="none" data-z-index="1" class="highcharts-grid-line" d="M 48 89.5 L 432 89.5" opacity="1"></path><path fill="none" stroke-dasharray="none" data-z-index="1" class="highcharts-grid-line" d="M 48 74.5 L 432 74.5" opacity="1"></path><path fill="none" stroke-dasharray="none" data-z-index="1" class="highcharts-grid-line" d="M 48 60.5 L 432 60.5" opacity="1"></path><path fill="none" stroke-dasharray="none" data-z-index="1" class="highcharts-grid-line" d="M 48 45.5 L 432 45.5" opacity="1"></path><path fill="none" stroke-dasharray="none" data-z-index="1" class="highcharts-grid-line" d="M 48 31.5 L 432 31.5" opacity="1"></path><path fill="none" stroke-dasharray="none" data-z-index="1" class="highcharts-grid-line" d="M 48 16.5 L 432 16.5" opacity="1"></path></g><g class="highcharts-grid highcharts-yaxis-grid" data-z-index="1"><path fill="none" stroke-dasharray="none" data-z-index="1" class="highcharts-grid-line" d="M 48 162.5 L 432 162.5" opacity="1"></path><path fill="none" stroke-dasharray="none" data-z-index="1" class="highcharts-grid-line" d="M 48 147.5 L 432 147.5" opacity="1"></path><path fill="none" stroke-dasharray="none" data-z-index="1" class="highcharts-grid-line" d="M 48 133.5 L 432 133.5" opacity="1"></path><path fill="none" stroke-dasharray="none" data-z-index="1" class="highcharts-grid-line" d="M 48 118.5 L 432 118.5" opacity="1"></path><path fill="none" stroke-dasharray="none" data-z-index="1" class="highcharts-grid-line" d="M 48 104.5 L 432 104.5" opacity="1"></path><path fill="none" stroke-dasharray="none" data-z-index="1" class="highcharts-grid-line" d="M 48 89.5 L 432 89.5" opacity="1"></path><path fill="none" stroke-dasharray="none" data-z-index="1" class="highcharts-grid-line" d="M 48 74.5 L 432 74.5" opacity="1"></path><path fill="none" stroke-dasharray="none" data-z-index="1" class="highcharts-grid-line" d="M 48 60.5 L 432 60.5" opacity="1"></path><path fill="none" stroke-dasharray="none" data-z-index="1" class="highcharts-grid-line" d="M 48 45.5 L 432 45.5" opacity="1"></path><path fill="none" stroke-dasharray="none" data-z-index="1" class="highcharts-grid-line" d="M 48 31.5 L 432 31.5" opacity="1"></path><path fill="none" stroke-dasharray="none" data-z-index="1" class="highcharts-grid-line" d="M 48 16.5 L 432 16.5" opacity="1"></path></g><g class="highcharts-axis highcharts-xaxis" data-z-index="2"><path fill="none" class="highcharts-axis-line" stroke="#000000" stroke-width="0.25" data-z-index="7" d="M 48 162.125 L 432 162.125"></path></g><g class="highcharts-axis highcharts-yaxis" data-z-index="2"><path fill="none" class="highcharts-tick" stroke="#000000" stroke-width="0.25" d="M 48 162.125 L 58 162.125" opacity="1"></path><path fill="none" class="highcharts-tick" stroke="#000000" stroke-width="0.25" d="M 48 147.125 L 58 147.125" opacity="1"></path><path fill="none" class="highcharts-tick" stroke="#000000" stroke-width="0.25" d="M 48 133.125 L 58 133.125" opacity="1"></path><path fill="none" class="highcharts-tick" stroke="#000000" stroke-width="0.25" d="M 48 118.125 L 58 118.125" opacity="1"></path><path fill="none" class="highcharts-tick" stroke="#000000" stroke-width="0.25" d="M 48 104.125 L 58 104.125" opacity="1"></path><path fill="none" class="highcharts-tick" stroke="#000000" stroke-width="0.25" d="M 48 89.125 L 58 89.125" opacity="1"></path><path fill="none" class="highcharts-tick" stroke="#000000" stroke-width="0.25" d="M 48 74.125 L 58 74.125" opacity="1"></path><path fill="none" class="highcharts-tick" stroke="#000000" stroke-width="0.25" d="M 48 60.125 L 58 60.125" opacity="1"></path><path fill="none" class="highcharts-tick" stroke="#000000" stroke-width="0.25" d="M 48 45.125 L 58 45.125" opacity="1"></path><path fill="none" class="highcharts-tick" stroke="#000000" stroke-width="0.25" d="M 48 31.125 L 58 31.125" opacity="1"></path><path fill="none" class="highcharts-tick" stroke="#000000" stroke-width="0.25" d="M 48 15.875 L 58 15.875" opacity="1"></path><path fill="none" class="highcharts-axis-line" stroke="#000000" stroke-width="0.25" data-z-index="7" d="M 47.875 16 L 47.875 162"></path></g><g class="highcharts-axis highcharts-yaxis" data-z-index="2"><path fill="none" class="highcharts-tick" stroke="#000000" stroke-width="0.25" d="M 432 162.125 L 422 162.125" opacity="1"></path><path fill="none" class="highcharts-tick" stroke="#000000" stroke-width="0.25" d="M 432 147.125 L 422 147.125" opacity="1"></path><path fill="none" class="highcharts-tick" stroke="#000000" stroke-width="0.25" d="M 432 133.125 L 422 133.125" opacity="1"></path><path fill="none" class="highcharts-tick" stroke="#000000" stroke-width="0.25" d="M 432 118.125 L 422 118.125" opacity="1"></path><path fill="none" class="highcharts-tick" stroke="#000000" stroke-width="0.25" d="M 432 104.125 L 422 104.125" opacity="1"></path><path fill="none" class="highcharts-tick" stroke="#000000" stroke-width="0.25" d="M 432 89.125 L 422 89.125" opacity="1"></path><path fill="none" class="highcharts-tick" stroke="#000000" stroke-width="0.25" d="M 432 74.125 L 422 74.125" opacity="1"></path><path fill="none" class="highcharts-tick" stroke="#000000" stroke-width="0.25" d="M 432 60.125 L 422 60.125" opacity="1"></path><path fill="none" class="highcharts-tick" stroke="#000000" stroke-width="0.25" d="M 432 45.125 L 422 45.125" opacity="1"></path><path fill="none" class="highcharts-tick" stroke="#000000" stroke-width="0.25" d="M 432 31.125 L 422 31.125" opacity="1"></path><path fill="none" class="highcharts-tick" stroke="#000000" stroke-width="0.25" d="M 432 15.875 L 422 15.875" opacity="1"></path><path fill="none" class="highcharts-axis-line" stroke="#000000" stroke-width="0.25" data-z-index="7" d="M 432.125 16 L 432.125 162"></path></g><g class="highcharts-series-group" data-z-index="3"><g class="highcharts-series highcharts-series-0 highcharts-line-series highcharts-color-0" data-z-index="0.1" opacity="1" transform="translate(48,16) scale(1 1)" clip-path="url(#highcharts-tvv0n2v-2699-)"><path fill="none" d="M 7.68 53.509 L 23.04 61.393 L 38.4 51.61099999999999 L 53.76 59.42200000000001 L 69.12 50.370000000000005 L 84.48 32.485 L 99.84 52.414000000000016 L 115.2 45.40599999999999 L 130.56 44.238 L 145.92 46.135999999999996 L 161.28 49.348 L 176.64 54.531000000000006 L 192 54.458 L 207.36 57.742999999999995 L 222.72 44.238 L 238.08 47.012 L 253.44 50.95400000000001 L 268.8 47.45 L 284.16 32.120000000000005 L 299.52 35.769999999999996 L 314.88 36.5 L 330.24 45.260000000000005 L 345.6 39.42 L 360.96 34.31 L 376.32 29.200000000000003" class="highcharts-graph" data-z-index="1" stroke="#4156A6" stroke-width="2" stroke-linejoin="round" stroke-linecap="round"></path></g><g class="highcharts-markers highcharts-series-0 highcharts-line-series highcharts-color-0" data-z-index="0.1" opacity="1" transform="translate(48,16) scale(1 1)" clip-path="none"></g><g class="highcharts-series highcharts-series-1 highcharts-column-series" data-z-index="0.1" opacity="1" transform="translate(48,16) scale(1 1)" clip-path="url(#highcharts-tvv0n2v-2699-)"><rect x="65" y="74" width="8" height="22" fill="#5b91cc" opacity="1" class="highcharts-point"></rect><rect x="81" y="74" width="8" height="22" fill="#5b91cc" opacity="1" class="highcharts-point"></rect><rect x="96" y="74" width="8" height="22" fill="#5b91cc" opacity="1" class="highcharts-point"></rect><rect x="112" y="74" width="8" height="22" fill="#5b91cc" opacity="1" class="highcharts-point"></rect><rect x="127" y="74" width="8" height="15" fill="#5b91cc" opacity="1" class="highcharts-point"></rect><rect x="142" y="74" width="8" height="15" fill="#5b91cc" opacity="1" class="highcharts-point"></rect><rect x="158" y="74" width="8" height="15" fill="#5b91cc" opacity="1" class="highcharts-point"></rect><rect x="173" y="74" width="8" height="15" fill="#5b91cc" opacity="1" class="highcharts-point"></rect></g><g class="highcharts-markers highcharts-series-1 highcharts-column-series" data-z-index="0.1" opacity="1" transform="translate(48,16) scale(1 1)" clip-path="none"></g><g class="highcharts-series highcharts-series-2 highcharts-column-series" data-z-index="0.1" opacity="1" transform="translate(48,16) scale(1 1)" clip-path="url(#highcharts-tvv0n2v-2699-)"><rect x="65" y="96" width="8" height="51" fill="#4156a6" opacity="1" class="highcharts-point"></rect><rect x="81" y="96" width="8" height="51" fill="#4156a6" opacity="1" class="highcharts-point"></rect><rect x="96" y="96" width="8" height="51" fill="#4156a6" opacity="1" class="highcharts-point"></rect><rect x="112" y="96" width="8" height="51" fill="#4156a6" opacity="1" class="highcharts-point"></rect><rect x="127" y="89" width="8" height="58" fill="#4156a6" opacity="1" class="highcharts-point"></rect><rect x="142" y="89" width="8" height="58" fill="#4156a6" opacity="1" class="highcharts-point"></rect><rect x="158" y="89" width="8" height="58" fill="#4156a6" opacity="1" class="highcharts-point"></rect><rect x="173" y="89" width="8" height="58" fill="#4156a6" opacity="1" class="highcharts-point"></rect><rect x="188" y="74" width="8" height="73" fill="#4156a6" opacity="1" class="highcharts-point"></rect><rect x="204" y="74" width="8" height="73" fill="#4156a6" opacity="1" class="highcharts-point"></rect><rect x="219" y="74" width="8" height="73" fill="#4156a6" opacity="1" class="highcharts-point"></rect><rect x="234" y="74" width="8" height="73" fill="#4156a6" opacity="1" class="highcharts-point"></rect><rect x="250" y="74" width="8" height="73" fill="#4156a6" opacity="1" class="highcharts-point"></rect><rect x="265" y="74" width="8" height="73" fill="#4156a6" opacity="1" class="highcharts-point"></rect><rect x="280" y="74" width="8" height="73" fill="#4156a6" opacity="1" class="highcharts-point"></rect><rect x="296" y="74" width="8" height="73" fill="#4156a6" opacity="1" class="highcharts-point"></rect><rect x="311" y="74" width="8" height="73" fill="#4156a6" opacity="1" class="highcharts-point"></rect><rect x="327" y="74" width="8" height="73" fill="#4156a6" opacity="1" class="highcharts-point"></rect><rect x="342" y="74" width="8" height="73" fill="#4156a6" opacity="1" class="highcharts-point"></rect><rect x="357" y="74" width="8" height="73" fill="#4156a6" opacity="1" class="highcharts-point"></rect><rect x="373" y="74" width="8" height="73" fill="#4156a6" opacity="1" class="highcharts-point"></rect></g><g class="highcharts-markers highcharts-series-2 highcharts-column-series" data-z-index="0.1" opacity="1" transform="translate(48,16) scale(1 1)" clip-path="none"></g></g><text x="13" text-anchor="start" class="highcharts-title" data-z-index="4" style="color:#333333;font-size:20px;fill:#333333;" y="31"></text><text x="13" text-anchor="start" class="highcharts-subtitle" data-z-index="4" style="color:#000000;font-size:20px;fill:#000000;" y="36"></text><text x="13" text-anchor="start" class="highcharts-caption" data-z-index="4" style="color:#666666;font-size:16px;fill:#666666;" y="230"></text><g class="highcharts-legend highcharts-no-tooltip" data-z-index="7" transform="translate(43,193)"><rect fill="none" class="highcharts-legend-box" rx="0" ry="0" x="0" y="0" width="394" height="22" visibility="visible"></rect><g data-z-index="1"><g><g class="highcharts-legend-item highcharts-line-series highcharts-color-0 highcharts-series-0" data-z-index="1" transform="translate(8,3)"><path fill="none" d="M 0 8 L 16 8" class="highcharts-graph" stroke="#4156A6" stroke-width="2"></path><text x="21" y="11" style="color:#000000;cursor:pointer;font-size:8px;font-weight:normal;fill:#000000;" text-anchor="start" data-z-index="2">Faktisk likviditetsreserve</text></g><g class="highcharts-legend-item highcharts-column-series highcharts-color-undefined highcharts-series-1" data-z-index="1" transform="translate(139.421875,3)"><text x="21" y="11" style="color:#000000;cursor:pointer;font-size:8px;font-weight:normal;fill:#000000;" text-anchor="start" data-z-index="2">Krav for systemviktige banker</text><rect x="4" y="4" width="8" height="8" fill="#5b91cc" class="highcharts-point" data-z-index="3"></rect></g><g class="highcharts-legend-item highcharts-column-series highcharts-color-undefined highcharts-series-2" data-z-index="1" transform="translate(291.40625,3)"><text x="21" y="11" style="color:#000000;cursor:pointer;font-size:8px;font-weight:normal;fill:#000000;" text-anchor="start" data-z-index="2">Krav for alle banker</text><rect x="4" y="4" width="8" height="8" fill="#4156a6" class="highcharts-point" data-z-index="3"></rect></g></g></g></g><g class="highcharts-axis-labels highcharts-xaxis-labels" data-z-index="7"><text x="55.68" style="color:#000000;cursor:default;font-size:8px;fill:#000000;" text-anchor="middle" transform="translate(0,0)" y="179" opacity="1">2014</text><text x="86.4" style="color:#000000;cursor:default;font-size:8px;fill:#000000;" text-anchor="middle" transform="translate(0,0)" y="179" opacity="1"></text><text x="117.12" style="color:#000000;cursor:default;font-size:8px;fill:#000000;" text-anchor="middle" transform="translate(0,0)" y="179" opacity="1">2015</text><text x="147.84" style="color:#000000;cursor:default;font-size:8px;fill:#000000;" text-anchor="middle" transform="translate(0,0)" y="179" opacity="1"></text><text x="178.56" style="color:#000000;cursor:default;font-size:8px;fill:#000000;" text-anchor="middle" transform="translate(0,0)" y="179" opacity="1">2016</text><text x="209.28" style="color:#000000;cursor:default;font-size:8px;fill:#000000;" text-anchor="middle" transform="translate(0,0)" y="179" opacity="1"></text><text x="240" style="color:#000000;cursor:default;font-size:8px;fill:#000000;" text-anchor="middle" transform="translate(0,0)" y="179" opacity="1">2017</text><text x="270.72" style="color:#000000;cursor:default;font-size:8px;fill:#000000;" text-anchor="middle" transform="translate(0,0)" y="179" opacity="1"></text><text x="301.44" style="color:#000000;cursor:default;font-size:8px;fill:#000000;" text-anchor="middle" transform="translate(0,0)" y="179" opacity="1">2018</text><text x="332.16" style="color:#000000;cursor:default;font-size:8px;fill:#000000;" text-anchor="middle" transform="translate(0,0)" y="179" opacity="1"></text><text x="362.88" style="color:#000000;cursor:default;font-size:8px;fill:#000000;" text-anchor="middle" transform="translate(0,0)" y="179" opacity="1">2019</text><text x="393.6" style="color:#000000;cursor:default;font-size:8px;fill:#000000;" text-anchor="middle" transform="translate(0,0)" y="179" opacity="1"></text><text x="424.32" style="color:#000000;cursor:default;font-size:8px;fill:#000000;" text-anchor="middle" transform="translate(0,0)" y="179" opacity="1">2020</text></g><g class="highcharts-axis-labels highcharts-yaxis-labels" data-z-index="7"><text x="33" style="color:#000000;cursor:default;font-size:8px;fill:#000000;" text-anchor="end" transform="translate(0,0)" y="165" opacity="1">0%</text><text x="33" style="color:#000000;cursor:default;font-size:8px;fill:#000000;" text-anchor="end" transform="translate(0,0)" y="151" opacity="1">20%</text><text x="33" style="color:#000000;cursor:default;font-size:8px;fill:#000000;" text-anchor="end" transform="translate(0,0)" y="136" opacity="1">40%</text><text x="33" style="color:#000000;cursor:default;font-size:8px;fill:#000000;" text-anchor="end" transform="translate(0,0)" y="122" opacity="1">60%</text><text x="33" style="color:#000000;cursor:default;font-size:8px;fill:#000000;" text-anchor="end" transform="translate(0,0)" y="107" opacity="1">80%</text><text x="33" style="color:#000000;cursor:default;font-size:8px;fill:#000000;" text-anchor="end" transform="translate(0,0)" y="92" opacity="1">100%</text><text x="33" style="color:#000000;cursor:default;font-size:8px;fill:#000000;" text-anchor="end" transform="translate(0,0)" y="78" opacity="1">120%</text><text x="33" style="color:#000000;cursor:default;font-size:8px;fill:#000000;" text-anchor="end" transform="translate(0,0)" y="63" opacity="1">140%</text><text x="33" style="color:#000000;cursor:default;font-size:8px;fill:#000000;" text-anchor="end" transform="translate(0,0)" y="49" opacity="1">160%</text><text x="33" style="color:#000000;cursor:default;font-size:8px;fill:#000000;" text-anchor="end" transform="translate(0,0)" y="34" opacity="1">180%</text><text x="33" style="color:#000000;cursor:default;font-size:8px;fill:#000000;" text-anchor="end" transform="translate(0,0)" y="19" opacity="1">200%</text></g><g class="highcharts-axis-labels highcharts-yaxis-labels" data-z-index="7"><text x="447" style="color:#000000;cursor:default;font-size:8px;fill:#000000;" text-anchor="start" transform="translate(0,0)" y="165" opacity="1">0%</text><text x="447" style="color:#000000;cursor:default;font-size:8px;fill:#000000;" text-anchor="start" transform="translate(0,0)" y="151" opacity="1">20%</text><text x="447" style="color:#000000;cursor:default;font-size:8px;fill:#000000;" text-anchor="start" transform="translate(0,0)" y="136" opacity="1">40%</text><text x="447" style="color:#000000;cursor:default;font-size:8px;fill:#000000;" text-anchor="start" transform="translate(0,0)" y="122" opacity="1">60%</text><text x="447" style="color:#000000;cursor:default;font-size:8px;fill:#000000;" text-anchor="start" transform="translate(0,0)" y="107" opacity="1">80%</text><text x="447" style="color:#000000;cursor:default;font-size:8px;fill:#000000;" text-anchor="start" transform="translate(0,0)" y="92" opacity="1">100%</text><text x="447" style="color:#000000;cursor:default;font-size:8px;fill:#000000;" text-anchor="start" transform="translate(0,0)" y="78" opacity="1">120%</text><text x="447" style="color:#000000;cursor:default;font-size:8px;fill:#000000;" text-anchor="start" transform="translate(0,0)" y="63" opacity="1">140%</text><text x="447" style="color:#000000;cursor:default;font-size:8px;fill:#000000;" text-anchor="start" transform="translate(0,0)" y="49" opacity="1">160%</text><text x="447" style="color:#000000;cursor:default;font-size:8px;fill:#000000;" text-anchor="start" transform="translate(0,0)" y="34" opacity="1">180%</text><text x="447" style="color:#000000;cursor:default;font-size:8px;fill:#000000;" text-anchor="start" transform="translate(0,0)" y="19" opacity="1">200%</text></g><g class="highcharts-control-points" data-z-index="99" clip-path="url(#highcharts-tvv0n2v-2776-)"></g></svg>