<svg xmlns:xlink="http://www.w3.org/1999/xlink" version="1.1" class="highcharts-root" style="font-family:Open Sans, sans-serif;font-size:12px;color:#000000;fill:#000000;" xmlns="http://www.w3.org/2000/svg" width="480" height="227" viewBox="0 0 480 227"><desc>Created with Highcharts 9.2.2</desc><defs><clipPath id="highcharts-778pwct-14983-"><rect x="0" y="0" width="406" height="146" fill="none"></rect></clipPath><clipPath id="highcharts-778pwct-15515-"><rect x="0" y="0" width="406" height="146" fill="none"></rect></clipPath><clipPath id="highcharts-778pwct-17109-"><rect x="37" y="16" width="406" height="146" fill="none"></rect></clipPath></defs><rect fill="#ffffff" class="highcharts-background" x="0" y="0" width="480" height="227" rx="0" ry="0"></rect><rect fill="#ffffff" class="highcharts-plot-background" x="37" y="16" width="406" height="146"></rect><g class="highcharts-pane-group" data-z-index="0"></g><g class="highcharts-plot-lines-0" data-z-index="0"><path fill="none" class="highcharts-plot-line "></path></g><g class="highcharts-plot-lines-0" data-z-index="0"><path fill="none" class="highcharts-plot-line " stroke="#000000" stroke-width="0.25" d="M 37 162.125 L 443 162.125"></path></g><g class="highcharts-plot-lines-0" data-z-index="0"><path fill="none" class="highcharts-plot-line " stroke="#000000" stroke-width="0.25" d="M 37 162.125 L 443 162.125"></path></g><rect fill="none" class="highcharts-plot-border" data-z-index="1" x="37" y="16" width="406" height="146"></rect><g class="highcharts-grid highcharts-xaxis-grid" data-z-index="1"><path fill="none" stroke-dasharray="none" data-z-index="1" class="highcharts-grid-line" d="M 78.5 16 L 78.5 162" opacity="1"></path><path fill="none" stroke-dasharray="none" data-z-index="1" class="highcharts-grid-line" d="M 156.5 16 L 156.5 162" opacity="1"></path><path fill="none" stroke-dasharray="none" data-z-index="1" class="highcharts-grid-line" d="M 234.5 16 L 234.5 162" opacity="1"></path><path fill="none" stroke-dasharray="none" data-z-index="1" class="highcharts-grid-line" d="M 313.5 16 L 313.5 162" opacity="1"></path><path fill="none" stroke-dasharray="none" data-z-index="1" class="highcharts-grid-line" d="M 391.5 16 L 391.5 162" opacity="1"></path></g><g class="highcharts-grid highcharts-yaxis-grid" data-z-index="1"><path fill="none" stroke-dasharray="none" data-z-index="1" class="highcharts-grid-line" d="M 37 162.5 L 443 162.5" opacity="1"></path><path fill="none" stroke-dasharray="none" data-z-index="1" class="highcharts-grid-line" d="M 37 89.5 L 443 89.5" opacity="1"></path><path fill="none" stroke-dasharray="none" data-z-index="1" class="highcharts-grid-line" d="M 37 16.5 L 443 16.5" opacity="1"></path></g><g class="highcharts-grid highcharts-yaxis-grid" data-z-index="1"><path fill="none" stroke-dasharray="none" data-z-index="1" class="highcharts-grid-line" d="M 37 162.5 L 443 162.5" opacity="1"></path><path fill="none" stroke-dasharray="none" data-z-index="1" class="highcharts-grid-line" d="M 37 89.5 L 443 89.5" opacity="1"></path><path fill="none" stroke-dasharray="none" data-z-index="1" class="highcharts-grid-line" d="M 37 16.5 L 443 16.5" opacity="1"></path></g><g class="highcharts-axis highcharts-xaxis" data-z-index="2"><path fill="none" class="highcharts-axis-line" stroke="#000000" stroke-width="0.25" data-z-index="7" d="M 37 162.125 L 443 162.125"></path></g><g class="highcharts-axis highcharts-yaxis" data-z-index="2"><path fill="none" class="highcharts-tick" stroke="#000000" stroke-width="0.25" d="M 37 162.125 L 47 162.125" opacity="1"></path><path fill="none" class="highcharts-tick" stroke="#000000" stroke-width="0.25" d="M 37 89.125 L 47 89.125" opacity="1"></path><path fill="none" class="highcharts-tick" stroke="#000000" stroke-width="0.25" d="M 37 15.875 L 47 15.875" opacity="1"></path><path fill="none" class="highcharts-axis-line" stroke="#000000" stroke-width="0.25" data-z-index="7" d="M 36.875 16 L 36.875 162"></path></g><g class="highcharts-axis highcharts-yaxis" data-z-index="2"><path fill="none" class="highcharts-tick" stroke="#000000" stroke-width="0.25" d="M 443 162.125 L 433 162.125" opacity="1"></path><path fill="none" class="highcharts-tick" stroke="#000000" stroke-width="0.25" d="M 443 89.125 L 433 89.125" opacity="1"></path><path fill="none" class="highcharts-tick" stroke="#000000" stroke-width="0.25" d="M 443 15.875 L 433 15.875" opacity="1"></path><path fill="none" class="highcharts-axis-line" stroke="#000000" stroke-width="0.25" data-z-index="7" d="M 443.125 16 L 443.125 162"></path></g><g class="highcharts-series-group" data-z-index="3"><g class="highcharts-series highcharts-series-0 highcharts-line-series highcharts-color-0" data-z-index="0.1" opacity="1" transform="translate(37,16) scale(1 1)" clip-path="url(#highcharts-778pwct-14983-)"><path fill="none" d="M 134.41132159078 99.28 L 135.16092463351 99.426 L 135.91052767623 99.864 L 136.66013071895 99.864 L 137.40973376168 100.30199999999999 L 138.1593368044 101.03200000000001 L 138.90893984713 101.03200000000001 L 139.65854288985 101.178 L 140.40814593257 101.178 L 141.1577489753 101.178 L 141.90735201802 101.616 L 142.65695506074 101.616 L 143.40655810347 101.762 L 144.15616114619 101.908 L 144.90576418891 101.616 L 145.65536723164 102.054 L 146.40497027436 102.054 L 147.15457331709 102.93 L 147.90417635981 103.514 L 148.65377940253 104.682 L 149.40338244526 105.70400000000001 L 150.15298548798 106.288 L 150.9025885307 106.58 L 151.65219157343 104.682 L 152.40179461615 103.66 L 153.15139765888 104.39 L 153.9010007016 104.244 L 154.65060374432 104.244 L 155.40020678705 104.244 L 156.14980982977 104.098 L 156.89941287249 103.514 L 157.64901591522 103.368 L 158.39861895794 102.638 L 159.89782504339 102.2 L 160.64742808611 102.492 L 161.39703112884 102.492 L 162.14663417156 102.346 L 162.89623721428 102.054 L 163.64584025701 101.616 L 164.39544329973 101.324 L 165.14504634245 100.01 L 165.89464938518 99.426 L 166.6442524279 99.426 L 167.39385547063 99.572 L 168.14345851335 99.718 L 168.89306155607 100.156 L 169.6426645988 100.01 L 170.39226764152 100.156 L 171.14187068424 100.30199999999999 L 171.89147372697 100.30199999999999 L 172.64107676969 100.30199999999999 L 173.39067981241 100.594 L 174.14028285514 100.886 L 174.88988589786 101.03200000000001 L 175.63948894059 101.178 L 176.38909198331 101.178 L 177.13869502603 101.03200000000001 L 177.88829806876 101.03200000000001 L 178.63790111148 100.886 L 179.3875041542 100.886 L 180.13710719693 100.74000000000001 L 180.88671023965 100.886 L 181.63631328238 100.886 L 182.3859163251 100.886 L 183.13551936782 101.03200000000001 L 183.88512241055 101.03200000000001 L 184.63472545327 99.572 L 185.38432849599 98.842 L 186.13393153872 97.528 L 186.88353458144 96.36 L 187.63313762416 95.63 L 188.38274066689 93.148 L 189.13234370961 93.878 L 189.88194675234 93.44 L 190.63154979506 94.024 L 191.38115283778 94.17 L 192.13075588051 92.856 L 192.88035892323 92.564 L 193.62996196595 91.834 L 194.37956500868 91.396 L 195.1291680514 90.082 L 195.87877109413 89.78999999999999 L 196.62837413685 89.352 L 197.37797717957 90.374 L 198.1275802223 90.082 L 198.87718326502 90.374 L 199.62678630774 90.52000000000001 L 200.37638935047 90.22800000000001 L 201.12599239319 88.184 L 201.87559543591 86.87 L 202.62519847864 80.3 L 203.37480152136 78.548 L 204.12440456409 77.67200000000001 L 204.87400760681 78.548 L 205.62361064953 79.71600000000001 L 206.37321369226 80.884 L 207.12281673498 80.884 L 207.8724197777 80.3 L 208.62202282043 80.738 L 209.37162586315 81.03 L 210.12122890587 81.468 L 210.8708319486 81.75999999999999 L 211.62043499132 82.19800000000001 L 212.37003803405 82.636 L 213.11964107677 82.636 L 213.86924411949 82.344 L 214.61884716222 82.05199999999999 L 215.36845020494 82.636 L 216.11805324766 69.642 L 216.86765629039 69.78800000000001 L 217.61725933311 69.78800000000001 L 218.36686237584 70.372 L 219.11646541856 71.102 L 219.86606846128 71.248 L 220.61567150401 72.27000000000001 L 221.36527454673 72.27000000000001 L 222.11487758945 73.292 L 222.86448063218 74.314 L 223.6140836749 77.67200000000001 L 224.36368671762 82.636 L 225.11328976035 82.928 L 225.86289280307 80.3 L 226.6124958458 80.15400000000001 L 227.36209888852 81.75999999999999 L 228.11170193124 82.49000000000001 L 228.86130497397 83.07400000000001 L 229.61090801669 82.78200000000001 L 230.36051105941 82.928 L 231.11011410214 83.22 L 231.85971714486 83.07400000000001 L 232.60932018759 83.366 L 233.35892323031 83.95 L 234.10852627303 83.95 L 234.85812931576 84.388 L 235.60773235848 85.702 L 236.3573354012 85.848 L 237.10693844393 85.848 L 237.85654148665 87.45400000000001 L 238.60614452937 89.78999999999999 L 239.3557475721 89.78999999999999 L 240.10535061482 89.936 L 240.85495365755 93.148 L 241.60455670027 94.024 L 242.35415974299 95.338 L 243.10376278572 95.48400000000001 L 243.85336582844 96.06800000000001 L 244.60296887116 96.36 L 245.35257191389 96.36 L 246.10217495661 98.988 L 246.85177799934 99.28 L 247.60138104206 99.28 L 248.35098408478 99.134 L 249.10058712751 98.988 L 249.85019017023 99.572 L 250.59979321295 100.01 L 251.34939625568 100.594 L 252.0989992984 100.74000000000001 L 252.84860234112 100.74000000000001 L 253.59820538385 100.594 L 254.34780842657 100.594 L 255.0974114693 100.594 L 255.84701451202 100.74000000000001 L 256.59661755474 100.74000000000001 L 257.34622059747 100.74000000000001 L 258.09582364019 101.03200000000001 L 258.84542668291 101.03200000000001 L 259.59502972564 101.178 L 260.34463276836 101.324 L 261.09423581109 101.324 L 261.84383885381 101.47 L 262.59344189653 101.47 L 263.34304493926 101.324 L 264.09264798198 101.762 L 264.8422510247 101.762 L 265.59185406743 101.762 L 266.34145711015 101.47 L 267.09106015287 101.47 L 267.8406631956 101.47 L 268.59026623832 101.47 L 269.33986928105 101.324 L 270.08947232377 101.178 L 270.83907536649 101.178 L 271.58867840922 101.178 L 272.33828145194 101.178 L 273.08788449466 101.178 L 273.83748753739 101.03200000000001 L 274.58709058011 100.886 L 275.33669362284 100.886 L 276.08629666556 100.886 L 276.83589970828 101.47 L 277.58550275101 101.47 L 278.33510579373 102.492 L 279.08470883645 103.22200000000001 L 279.83431187918 103.368 L 280.5839149219 103.368 L 281.33351796462 103.368 L 282.08312100735 103.514 L 282.83272405007 104.244 L 283.5823270928 103.952 L 284.33193013552 104.244 L 285.08153317824 104.828 L 285.83113622097 105.26599999999999 L 286.58073926369 104.974 L 287.33034230641 104.536 L 288.07994534914 104.098 L 288.82954839186 104.098 L 289.57915143459 103.952 L 290.32875447731 103.952 L 291.07835752003 103.66 L 291.82796056276 103.66 L 292.57756360548 103.22200000000001 L 293.3271666482 102.346 L 294.07676969093 102.054 L 294.82637273365 101.908 L 295.57597577637 101.908 L 296.3255788191 101.762 L 297.07518186182 101.616 L 297.82478490455 101.47 L 298.57438794727 101.47 L 299.32399098999 101.47 L 300.07359403272 101.47 L 300.82319707544 101.178 L 301.57280011816 100.74000000000001 L 302.32240316089 100.44800000000001 L 303.07200620361 100.01 L 303.82160924634 99.426 L 304.57121228906 98.696 L 305.32081533178 98.55000000000001 L 306.07041837451 98.112 L 306.82002141723 97.96600000000001 L 307.56962445995 97.528 L 308.31922750268 97.236 L 309.0688305454 96.944 L 309.81843358812 96.798 L 310.56803663085 96.798 L 311.31763967357 96.214 L 312.0672427163 95.48400000000001 L 312.81684575902 94.9 L 313.56644880174 94.024 L 314.31605184447 94.17 L 315.06565488719 94.316 L 315.81525792991 94.316 L 316.56486097264 94.316 L 317.31446401536 94.316 L 318.06406705809 94.024 L 318.81367010081 94.462 L 319.56327314353 94.754 L 320.31287618626 94.9 L 321.06247922898 95.922 L 321.8120822717 97.09 L 322.56168531443 97.09 L 323.31128835715 97.382 L 324.06089139987 97.82 L 324.8104944426 97.82 L 325.56009748532 98.25800000000001 L 326.30970052805 98.842 L 327.05930357077 98.842 L 327.80890661349 99.426 L 328.55850965622 99.718 L 329.30811269894 100.156 L 330.05771574166 100.44800000000001 L 330.80731878439 100.594 L 331.55692182711 100.30199999999999 L 332.30652486983 97.96600000000001 L 333.05612791256 97.674 L 333.80573095528 94.9 L 334.55533399801 95.48400000000001 L 335.30493704073 94.754 L 336.05454008345 95.48400000000001 L 336.80414312618 96.214 L 337.5537461689 96.652 L 338.30334921162 96.798 L 339.05295225435 97.236 L 339.80255529707 98.112 L 340.5521583398 98.112 L 341.30176138252 98.842 L 342.05136442524 98.988 L 342.80096746797 99.28 L 343.55057051069 99.572 L 344.30017355341 100.01 L 345.04977659614 100.156 L 345.79937963886 100.30199999999999 L 346.54898268158 101.03200000000001 L 347.29858572431 101.178 L 348.04818876703 101.178 L 348.79779180976 101.616 L 349.54739485248 101.762 L 350.2969978952 101.762 L 351.04660093793 101.762 L 351.79620398065 101.908 L 352.54580702337 102.2 L 353.2954100661 102.78399999999999 L 354.04501310882 102.78399999999999 L 354.79461615155 102.78399999999999 L 355.54421919427 102.93 L 356.29382223699 103.368 L 357.04342527972 104.536 L 357.79302832244 105.26599999999999 L 358.54263136516 104.974 L 359.29223440789 109.646 L 360.04183745061 110.084 L 360.79144049333 108.47800000000001 L 361.54104353606 104.682 L 362.29064657878 90.082 L 363.04024962151 28.762000000000015 L 363.78985266423 41.025999999999996 L 364.53945570695 57.232 L 365.28905874968 72.70800000000001 L 366.0386617924 83.22 L 366.78826483512 84.97200000000001 L 367.53786787785 85.848 L 368.28747092057 86.14000000000001 L 369.0370739633 89.78999999999999 L 369.78667700602 91.10400000000001 L 370.53628004874 92.564 L 371.28588309147 93.878 L 372.03548613419 103.514 L 372.78508917691 103.806 L 373.53469221964 102.93 L 374.28429526236 102.93 L 375.03389830508 100.886 L 375.78350134781 101.03200000000001 L 376.53310439053 101.03200000000001 L 377.28270743326 101.03200000000001 L 378.03231047598 101.616 L 378.7819135187 103.22200000000001 L 379.53151656143 103.66 L 380.28111960415 104.828 L 381.03072264687 104.974 L 381.7803256896 105.12 L 382.52992873232 103.806 L 383.27953177505 103.514 L 384.02913481777 102.78399999999999 L 384.77873786049 102.492 L 385.52834090322 102.2 L 386.27794394594 102.346 L 387.02754698866 101.762 L 387.77715003139 101.47 L 388.52675307411 101.908 L 389.27635611683 102.78399999999999 L 390.02595915956 103.22200000000001 L 390.77556220228 103.514 L 391.52516524501 103.514 L 392.27476828773 103.806 L 393.02437133045 103.952 L 393.77397437318 104.098 L 394.5235774159 104.682 L 395.27318045862 104.828 L 396.02278350135 104.682 L 396.77238654407 104.828 L 397.5219895868 104.828 L 398.27159262952 105.12 L 399.02119567224 106.142 L 399.77079871497 106.288 L 400.52040175769 106.288 L 401.27000480041 106.288 L 402.01960784314 106.288" class="highcharts-graph" data-z-index="1" stroke="#4156A6" stroke-width="2" stroke-linejoin="round" stroke-linecap="round"></path></g><g class="highcharts-markers highcharts-series-0 highcharts-line-series highcharts-color-0" data-z-index="0.1" opacity="1" transform="translate(37,16) scale(1 1)" clip-path="none"></g><g class="highcharts-series highcharts-series-1 highcharts-line-series highcharts-color-1" data-z-index="0.1" opacity="1" transform="translate(37,16) scale(1 1)" clip-path="url(#highcharts-778pwct-14983-)"><path fill="none" d="M 3.9803921568627 110.96000000000001 L 4.7299951995864 111.106 L 5.4795982423101 111.398 L 6.2292012850338 111.54400000000001 L 6.9788043277575 111.54400000000001 L 7.7284073704811 111.25200000000001 L 8.4780104132048 111.25200000000001 L 9.2276134559285 111.25200000000001 L 9.9772164986522 111.106 L 10.726819541376 111.106 L 11.4764225841 111.83600000000001 L 12.226025626823 111.25200000000001 L 12.975628669547 111.398 L 13.725231712271 111.398 L 14.474834754994 111.54400000000001 L 15.224437797718 111.398 L 15.974040840442 111.69 L 16.723643883165 111.982 L 17.473246925889 111.982 L 18.222849968613 111.982 L 18.972453011336 111.982 L 19.72205605406 111.982 L 20.471659096784 112.128 L 21.221262139507 112.128 L 21.970865182231 111.69 L 22.720468224955 111.982 L 23.470071267678 111.83600000000001 L 24.219674310402 111.69 L 24.969277353126 111.69 L 25.718880395849 111.69 L 26.468483438573 111.69 L 27.218086481297 110.96000000000001 L 27.967689524021 110.22999999999999 L 28.717292566744 109.208 L 29.466895609468 108.03999999999999 L 30.216498652192 107.164 L 30.966101694915 105.70400000000001 L 31.715704737639 103.952 L 32.465307780363 102.93 L 33.214910823086 102.638 L 33.96451386581 102.2 L 34.714116908534 102.2 L 35.463719951257 101.03200000000001 L 36.213322993981 101.616 L 36.962926036705 101.47 L 37.712529079428 101.324 L 38.462132122152 100.01 L 39.211735164876 99.718 L 39.961338207599 99.718 L 40.710941250323 99.134 L 41.460544293047 98.55000000000001 L 42.21014733577 98.988 L 42.959750378494 99.134 L 43.709353421218 99.426 L 44.458956463942 99.718 L 45.208559506665 99.864 L 45.958162549389 100.156 L 46.707765592113 100.30199999999999 L 47.457368634836 100.30199999999999 L 48.20697167756 100.30199999999999 L 48.956574720284 100.30199999999999 L 49.706177763007 100.30199999999999 L 50.455780805731 100.30199999999999 L 51.205383848455 100.156 L 51.954986891178 100.156 L 52.704589933902 100.156 L 53.454192976626 100.30199999999999 L 54.203796019349 100.156 L 54.953399062073 100.156 L 55.703002104797 100.156 L 56.45260514752 100.156 L 57.202208190244 100.01 L 57.951811232968 100.01 L 58.701414275691 99.864 L 59.451017318415 99.718 L 60.200620361139 99.718 L 60.950223403862 99.718 L 61.699826446586 99.718 L 62.44942948931 99.718 L 63.199032532034 99.718 L 63.948635574757 99.864 L 64.698238617481 99.864 L 65.447841660205 100.30199999999999 L 66.197444702928 100.44800000000001 L 66.947047745652 100.44800000000001 L 67.696650788376 100.44800000000001 L 68.446253831099 100.886 L 69.195856873823 103.514 L 69.945459916547 104.244 L 70.69506295927 105.55799999999999 L 71.444666001994 105.70400000000001 L 72.194269044718 106.142 L 72.943872087441 106.142 L 73.693475130165 106.142 L 74.443078172889 106.288 L 75.192681215612 106.434 L 75.942284258336 106.872 L 76.69188730106 106.726 L 77.441490343783 107.74799999999999 L 78.191093386507 108.47800000000001 L 78.940696429231 108.47800000000001 L 79.690299471955 108.47800000000001 L 80.439902514678 108.03999999999999 L 81.189505557402 108.03999999999999 L 81.939108600126 108.03999999999999 L 82.688711642849 108.77000000000001 L 83.438314685573 109.208 L 84.187917728297 109.5 L 84.93752077102 110.376 L 85.687123813744 111.25200000000001 L 86.436726856468 111.25200000000001 L 87.186329899191 111.25200000000001 L 87.935932941915 111.398 L 88.685535984639 111.54400000000001 L 89.435139027362 112.712 L 90.184742070086 113.29599999999999 L 90.93434511281 114.026 L 91.683948155533 114.172 L 92.433551198257 114.61 L 93.183154240981 114.61 L 93.932757283704 114.902 L 94.682360326428 114.902 L 95.431963369152 115.194 L 96.181566411875 115.632 L 96.931169454599 117.822 L 97.680772497323 119.428 L 98.430375540047 121.034 L 99.17997858277 121.034 L 99.929581625494 120.888 L 100.67918466822 120.304 L 101.42878771094 119.72 L 102.17839075366 119.72 L 102.92799379639 119.72 L 103.67759683911 119.72 L 104.42719988184 119.72 L 105.17680292456 120.012 L 105.92640596728 120.304 L 106.67600901001 120.742 L 107.42561205273 120.888 L 108.17521509545 121.18 L 108.92481813818 121.18 L 109.6744211809 121.326 L 110.42402422363 121.326 L 111.17362726635 121.034 L 111.92323030907 121.034 L 112.6728333518 120.888 L 113.42243639452 120.596 L 114.17203943724 120.596 L 114.92164247997 120.596 L 115.67124552269 120.596 L 116.42084856541 120.742 L 117.17045160814 120.45 L 117.92005465086 120.45 L 118.66965769359 120.45 L 119.41926073631 120.45 L 120.16886377903 120.45 L 120.91846682176 120.45 L 121.66806986448 120.596 L 122.4176729072 120.742 L 123.16727594993 121.034 L 123.91687899265 121.18 L 124.66648203538 121.326 L 125.4160850781 121.76400000000001 L 126.16568812082 121.76400000000001 L 126.91529116355 122.348 L 127.66489420627 122.64 L 128.41449724899 122.64 L 129.16410029172 122.64 L 129.91370333444 123.078 L 130.66330637716 123.078 L 131.41290941989 123.224 L 132.16251246261 123.224 L 132.91211550534 123.224 L 133.66171854806 123.37 L 134.41132159078 123.37 L 135.16092463351 123.516 L 135.91052767623 123.80799999999999 L 136.66013071895 124.392 L 137.40973376168 124.976 L 138.1593368044 124.976 L 138.90893984713 125.268 L 139.65854288985 125.268 L 140.40814593257 125.414 L 141.1577489753 125.414 L 141.90735201802 125.414 L 142.65695506074 125.56 L 143.40655810347 125.56 L 144.15616114619 125.56 L 144.90576418891 125.706 L 145.65536723164 126.28999999999999 L 146.40497027436 126.436 L 147.15457331709 126.874 L 147.90417635981 127.02 L 148.65377940253 127.312 L 149.40338244526 127.312 L 150.15298548798 127.458 L 150.9025885307 127.458 L 151.65219157343 126.28999999999999 L 152.40179461615 123.516 L 153.15139765888 123.662 L 153.9010007016 123.95400000000001 L 154.65060374432 123.80799999999999 L 155.40020678705 124.1 L 156.14980982977 123.662 L 156.89941287249 123.80799999999999 L 157.64901591522 123.662 L 158.39861895794 123.078 L 159.89782504339 123.078 L 160.64742808611 123.224 L 161.39703112884 123.224 L 162.14663417156 122.932 L 162.89623721428 122.786 L 163.64584025701 122.932 L 164.39544329973 123.078 L 165.14504634245 122.786 L 165.89464938518 122.494 L 166.6442524279 121.91 L 167.39385547063 121.91 L 168.14345851335 121.76400000000001 L 168.89306155607 121.76400000000001 L 169.6426645988 121.91 L 170.39226764152 122.056 L 171.14187068424 122.202 L 171.89147372697 122.056 L 172.64107676969 122.202 L 173.39067981241 122.64 L 174.14028285514 123.078 L 174.88988589786 123.95400000000001 L 175.63948894059 124.24600000000001 L 176.38909198331 124.392 L 177.13869502603 124.392 L 177.88829806876 124.392 L 178.63790111148 124.1 L 179.3875041542 124.1 L 180.13710719693 123.95400000000001 L 180.88671023965 124.1 L 181.63631328238 124.24600000000001 L 182.3859163251 123.95400000000001 L 183.13551936782 124.1 L 183.88512241055 124.1 L 184.63472545327 123.516 L 185.38432849599 122.786 L 186.13393153872 121.326 L 186.88353458144 120.45 L 187.63313762416 118.69800000000001 L 188.38274066689 116.946 L 189.13234370961 117.092 L 189.88194675234 117.53 L 190.63154979506 117.092 L 191.38115283778 116.654 L 192.13075588051 116.362 L 192.88035892323 116.21600000000001 L 193.62996196595 115.486 L 194.37956500868 115.194 L 195.1291680514 114.026 L 195.87877109413 113.15 L 196.62837413685 113.29599999999999 L 197.37797717957 113.29599999999999 L 198.1275802223 113.004 L 198.87718326502 112.858 L 199.62678630774 112.712 L 200.37638935047 111.982 L 201.12599239319 111.83600000000001 L 201.87559543591 111.54400000000001 L 202.62519847864 106.58 L 203.37480152136 104.39 L 204.12440456409 104.244 L 204.87400760681 104.39 L 205.62361064953 103.076 L 206.37321369226 103.66 L 207.12281673498 103.806 L 207.8724197777 103.806 L 208.62202282043 104.682 L 209.37162586315 105.12 L 210.12122890587 105.412 L 210.8708319486 106.142 L 211.62043499132 106.872 L 212.37003803405 108.03999999999999 L 213.11964107677 108.03999999999999 L 213.86924411949 108.916 L 214.61884716222 108.77000000000001 L 215.36845020494 109.208 L 216.11805324766 106.726 L 216.86765629039 106.58 L 217.61725933311 106.288 L 218.36686237584 107.018 L 219.11646541856 108.03999999999999 L 219.86606846128 108.186 L 220.61567150401 108.47800000000001 L 221.36527454673 108.47800000000001 L 222.11487758945 110.376 L 222.86448063218 110.96000000000001 L 223.6140836749 112.712 L 224.36368671762 113.88 L 225.11328976035 114.464 L 225.86289280307 114.026 L 226.6124958458 113.88 L 227.36209888852 114.026 L 228.11170193124 114.026 L 228.86130497397 114.318 L 229.61090801669 114.464 L 230.36051105941 114.902 L 231.11011410214 114.902 L 231.85971714486 114.756 L 232.60932018759 114.756 L 233.35892323031 114.61 L 234.10852627303 114.61 L 234.85812931576 114.756 L 235.60773235848 115.486 L 236.3573354012 115.632 L 237.10693844393 116.21600000000001 L 237.85654148665 117.384 L 238.60614452937 120.158 L 239.3557475721 120.158 L 240.10535061482 120.304 L 240.85495365755 121.76400000000001 L 241.60455670027 121.76400000000001 L 242.35415974299 122.932 L 243.10376278572 122.932 L 243.85336582844 122.932 L 244.60296887116 123.224 L 245.35257191389 123.37 L 246.10217495661 124.1 L 246.85177799934 124.24600000000001 L 247.60138104206 124.392 L 248.35098408478 124.392 L 249.10058712751 124.1 L 249.85019017023 124.976 L 250.59979321295 125.414 L 251.34939625568 125.852 L 252.0989992984 125.99799999999999 L 252.84860234112 125.852 L 253.59820538385 126.144 L 254.34780842657 126.144 L 255.0974114693 125.852 L 255.84701451202 125.99799999999999 L 256.59661755474 125.99799999999999 L 257.34622059747 125.99799999999999 L 258.09582364019 126.144 L 258.84542668291 126.144 L 259.59502972564 126.28999999999999 L 260.34463276836 126.582 L 261.09423581109 126.728 L 261.84383885381 127.02 L 262.59344189653 127.02 L 263.34304493926 127.312 L 264.09264798198 127.312 L 264.8422510247 127.312 L 265.59185406743 127.458 L 266.34145711015 127.458 L 267.09106015287 127.458 L 267.8406631956 127.312 L 268.59026623832 127.312 L 269.33986928105 126.874 L 270.08947232377 127.02 L 270.83907536649 127.02 L 271.58867840922 126.874 L 272.33828145194 127.02 L 273.08788449466 127.166 L 273.83748753739 127.166 L 274.58709058011 127.166 L 275.33669362284 127.312 L 276.08629666556 127.312 L 276.83589970828 127.458 L 277.58550275101 127.896 L 278.33510579373 127.896 L 279.08470883645 128.042 L 279.83431187918 128.188 L 280.5839149219 128.48 L 281.33351796462 128.772 L 282.08312100735 128.772 L 282.83272405007 128.918 L 283.5823270928 129.648 L 284.33193013552 129.794 L 285.08153317824 129.794 L 285.83113622097 129.794 L 286.58073926369 129.502 L 287.33034230641 128.918 L 288.07994534914 128.918 L 288.82954839186 128.626 L 289.57915143459 128.626 L 290.32875447731 128.626 L 291.07835752003 128.626 L 291.82796056276 128.48 L 292.57756360548 128.188 L 293.3271666482 126.728 L 294.07676969093 126.874 L 294.82637273365 126.874 L 295.57597577637 126.728 L 296.3255788191 126.728 L 297.07518186182 126.728 L 297.82478490455 126.728 L 298.57438794727 126.874 L 299.32399098999 127.02 L 300.07359403272 127.02 L 300.82319707544 127.166 L 301.57280011816 127.02 L 302.32240316089 127.02 L 303.07200620361 127.02 L 303.82160924634 126.728 L 304.57121228906 125.706 L 305.32081533178 125.414 L 306.07041837451 125.414 L 306.82002141723 124.392 L 307.56962445995 124.1 L 308.31922750268 123.95400000000001 L 309.0688305454 123.662 L 309.81843358812 123.516 L 310.56803663085 123.516 L 311.31763967357 122.786 L 312.0672427163 122.202 L 312.81684575902 121.618 L 313.56644880174 120.742 L 314.31605184447 121.18 L 315.06565488719 121.618 L 315.81525792991 121.91 L 316.56486097264 121.47200000000001 L 317.31446401536 121.47200000000001 L 318.06406705809 121.47200000000001 L 318.81367010081 121.618 L 319.56327314353 121.91 L 320.31287618626 122.202 L 321.06247922898 122.494 L 321.8120822717 122.932 L 322.56168531443 123.516 L 323.31128835715 123.95400000000001 L 324.06089139987 125.268 L 324.8104944426 125.56 L 325.56009748532 125.706 L 326.30970052805 125.99799999999999 L 327.05930357077 125.852 L 327.80890661349 126.144 L 328.55850965622 126.582 L 329.30811269894 126.728 L 330.05771574166 126.728 L 330.80731878439 126.874 L 331.55692182711 126.436 L 332.30652486983 125.122 L 333.05612791256 125.122 L 333.80573095528 124.83 L 334.55533399801 124.83 L 335.30493704073 124.976 L 336.05454008345 125.122 L 336.80414312618 125.268 L 337.5537461689 125.414 L 338.30334921162 125.414 L 339.05295225435 125.56 L 339.80255529707 125.56 L 340.5521583398 125.706 L 341.30176138252 125.706 L 342.05136442524 126.582 L 342.80096746797 126.436 L 343.55057051069 126.728 L 344.30017355341 127.02 L 345.04977659614 127.02 L 345.79937963886 127.312 L 346.54898268158 127.312 L 347.29858572431 127.312 L 348.04818876703 127.604 L 348.79779180976 127.896 L 349.54739485248 128.042 L 350.2969978952 128.042 L 351.04660093793 128.188 L 351.79620398065 128.188 L 352.54580702337 128.334 L 353.2954100661 128.48 L 354.04501310882 128.48 L 354.79461615155 128.48 L 355.54421919427 128.772 L 356.29382223699 129.21 L 357.04342527972 129.648 L 357.79302832244 129.794 L 358.54263136516 129.94 L 359.29223440789 131.838 L 360.04183745061 131.984 L 360.79144049333 131.4 L 361.54104353606 128.042 L 362.29064657878 119.866 L 363.04024962151 88.476 L 363.78985266423 92.126 L 364.53945570695 96.944 L 365.28905874968 101.616 L 366.0386617924 103.514 L 366.78826483512 105.85 L 367.53786787785 107.602 L 368.28747092057 109.5 L 369.0370739633 112.128 L 369.78667700602 113.15 L 370.53628004874 115.048 L 371.28588309147 115.778 L 372.03548613419 125.122 L 372.78508917691 125.56 L 373.53469221964 125.99799999999999 L 374.28429526236 127.02 L 375.03389830508 126.728 L 375.78350134781 127.02 L 376.53310439053 127.02 L 377.28270743326 127.02 L 378.03231047598 127.02 L 378.7819135187 127.312 L 379.53151656143 127.75 L 380.28111960415 129.356 L 381.03072264687 129.648 L 381.7803256896 129.21 L 382.52992873232 129.064 L 383.27953177505 128.918 L 384.02913481777 128.626 L 384.77873786049 128.626 L 385.52834090322 128.334 L 386.27794394594 128.48 L 387.02754698866 128.188 L 387.77715003139 128.188 L 388.52675307411 128.334 L 389.27635611683 128.918 L 390.02595915956 129.502 L 390.77556220228 129.794 L 391.52516524501 129.94 L 392.27476828773 130.232 L 393.02437133045 130.232 L 393.77397437318 130.67 L 394.5235774159 131.108 L 395.27318045862 131.838 L 396.02278350135 132.13 L 396.77238654407 132.276 L 397.5219895868 133.006 L 398.27159262952 133.152 L 399.02119567224 133.444 L 399.77079871497 133.59 L 400.52040175769 133.444 L 401.27000480041 133.298 L 402.01960784314 133.444" class="highcharts-graph" data-z-index="1" stroke="#F15D61" stroke-width="2" stroke-linejoin="round" stroke-linecap="round"></path></g><g class="highcharts-markers highcharts-series-1 highcharts-line-series highcharts-color-1" data-z-index="0.1" opacity="1" transform="translate(37,16) scale(1 1)" clip-path="none"></g><g class="highcharts-series highcharts-series-2 highcharts-line-series highcharts-color-2" data-z-index="0.1" opacity="1" transform="translate(37,16) scale(1 1)" clip-path="url(#highcharts-778pwct-14983-)"><path fill="none" d="M 3.9803921568627 131.692 L 4.7299951995864 131.546 L 5.4795982423101 131.546 L 6.2292012850338 131.692 L 6.9788043277575 131.838 L 7.7284073704811 131.546 L 8.4780104132048 131.546 L 9.2276134559285 131.254 L 9.9772164986522 131.108 L 10.726819541376 131.108 L 11.4764225841 130.962 L 12.226025626823 130.816 L 12.975628669547 131.108 L 13.725231712271 131.108 L 14.474834754994 131.254 L 15.224437797718 131.108 L 15.974040840442 131.108 L 16.723643883165 131.254 L 17.473246925889 131.254 L 18.222849968613 131.254 L 18.972453011336 131.254 L 19.72205605406 131.108 L 20.471659096784 131.108 L 21.221262139507 130.816 L 21.970865182231 130.67 L 22.720468224955 130.524 L 23.470071267678 130.524 L 24.219674310402 130.524 L 24.969277353126 130.378 L 25.718880395849 130.232 L 26.468483438573 130.232 L 27.218086481297 129.648 L 27.967689524021 128.626 L 28.717292566744 128.334 L 29.466895609468 127.75 L 30.216498652192 127.166 L 30.966101694915 126.144 L 31.715704737639 125.122 L 32.465307780363 123.37 L 33.214910823086 122.494 L 33.96451386581 122.202 L 34.714116908534 122.202 L 35.463719951257 122.202 L 36.213322993981 122.202 L 36.962926036705 122.64 L 37.712529079428 122.64 L 38.462132122152 121.91 L 39.211735164876 119.428 L 39.961338207599 118.99 L 40.710941250323 119.136 L 41.460544293047 118.99 L 42.21014733577 119.282 L 42.959750378494 118.69800000000001 L 43.709353421218 118.26 L 44.458956463942 118.552 L 45.208559506665 119.282 L 45.958162549389 119.282 L 46.707765592113 120.304 L 47.457368634836 121.18 L 48.20697167756 121.18 L 48.956574720284 121.618 L 49.706177763007 121.76400000000001 L 50.455780805731 122.056 L 51.205383848455 122.494 L 51.954986891178 122.64 L 52.704589933902 122.932 L 53.454192976626 122.786 L 54.203796019349 122.348 L 54.953399062073 122.348 L 55.703002104797 122.348 L 56.45260514752 122.348 L 57.202208190244 120.888 L 57.951811232968 120.596 L 58.701414275691 120.158 L 59.451017318415 118.406 L 60.200620361139 118.406 L 60.950223403862 118.552 L 61.699826446586 118.844 L 62.44942948931 119.282 L 63.199032532034 119.574 L 63.948635574757 119.866 L 64.698238617481 120.304 L 65.447841660205 120.596 L 66.197444702928 121.47200000000001 L 66.947047745652 122.494 L 67.696650788376 123.078 L 68.446253831099 123.224 L 69.195856873823 123.37 L 69.945459916547 125.122 L 70.69506295927 125.99799999999999 L 71.444666001994 126.144 L 72.194269044718 126.144 L 72.943872087441 126.144 L 73.693475130165 126.436 L 74.443078172889 126.582 L 75.192681215612 126.728 L 75.942284258336 127.75 L 76.69188730106 128.042 L 77.441490343783 128.188 L 78.191093386507 128.334 L 78.940696429231 128.334 L 79.690299471955 128.334 L 80.439902514678 128.48 L 81.189505557402 128.48 L 81.939108600126 128.48 L 82.688711642849 131.108 L 83.438314685573 131.546 L 84.187917728297 132.13 L 84.93752077102 132.422 L 85.687123813744 132.568 L 86.436726856468 132.714 L 87.186329899191 132.422 L 87.935932941915 132.568 L 88.685535984639 132.714 L 89.435139027362 132.86 L 90.184742070086 132.714 L 90.93434511281 132.714 L 91.683948155533 132.714 L 92.433551198257 132.714 L 93.183154240981 133.152 L 93.932757283704 133.152 L 94.682360326428 133.59 L 95.431963369152 133.736 L 96.181566411875 134.028 L 96.931169454599 134.32 L 97.680772497323 134.32 L 98.430375540047 134.466 L 99.17997858277 134.174 L 99.929581625494 133.882 L 100.67918466822 133.298 L 101.42878771094 133.152 L 102.17839075366 133.152 L 102.92799379639 133.152 L 103.67759683911 133.298 L 104.42719988184 133.298 L 105.17680292456 133.882 L 105.92640596728 134.32 L 106.67600901001 134.32 L 107.42561205273 134.174 L 108.17521509545 134.174 L 108.92481813818 134.32 L 109.6744211809 134.174 L 110.42402422363 134.028 L 111.17362726635 134.028 L 111.92323030907 134.028 L 112.6728333518 134.028 L 113.42243639452 134.028 L 114.17203943724 134.028 L 114.92164247997 134.028 L 115.67124552269 134.028 L 116.42084856541 134.028 L 117.17045160814 134.028 L 117.92005465086 134.028 L 118.66965769359 134.174 L 119.41926073631 134.174 L 120.16886377903 134.32 L 120.91846682176 134.32 L 121.66806986448 134.758 L 122.4176729072 134.904 L 123.16727594993 135.78 L 123.91687899265 136.218 L 124.66648203538 136.51 L 125.4160850781 136.948 L 126.16568812082 136.948 L 126.91529116355 137.094 L 127.66489420627 137.24 L 128.41449724899 137.386 L 129.16410029172 137.386 L 129.91370333444 137.824 L 130.66330637716 137.824 L 131.41290941989 137.824 L 132.16251246261 137.824 L 132.91211550534 137.824 L 133.66171854806 137.824 L 134.41132159078 137.824 L 135.16092463351 137.824 L 135.91052767623 137.824 L 136.66013071895 137.824 L 137.40973376168 137.824 L 138.1593368044 137.824 L 138.90893984713 137.824 L 139.65854288985 137.824 L 140.40814593257 137.97 L 141.1577489753 137.97 L 141.90735201802 137.97 L 142.65695506074 138.11599999999999 L 143.40655810347 138.11599999999999 L 144.15616114619 138.408 L 144.90576418891 138.846 L 145.65536723164 138.992 L 146.40497027436 139.284 L 147.15457331709 139.284 L 147.90417635981 139.43 L 148.65377940253 139.43 L 149.40338244526 139.43 L 150.15298548798 139.576 L 150.9025885307 139.43 L 151.65219157343 138.992 L 152.40179461615 138.408 L 153.15139765888 138.554 L 153.9010007016 138.554 L 154.65060374432 138.554 L 155.40020678705 138.408 L 156.14980982977 138.554 L 156.89941287249 138.554 L 157.64901591522 138.262 L 158.39861895794 137.97 L 159.89782504339 137.824 L 160.64742808611 137.97 L 161.39703112884 138.11599999999999 L 162.14663417156 138.11599999999999 L 162.89623721428 138.11599999999999 L 163.64584025701 138.262 L 164.39544329973 138.262 L 165.14504634245 138.408 L 165.89464938518 138.408 L 166.6442524279 138.408 L 167.39385547063 138.408 L 168.14345851335 138.11599999999999 L 168.89306155607 137.97 L 169.6426645988 137.97 L 170.39226764152 137.97 L 171.14187068424 138.11599999999999 L 171.89147372697 138.11599999999999 L 172.64107676969 138.262 L 173.39067981241 138.262 L 174.14028285514 138.408 L 174.88988589786 138.408 L 175.63948894059 138.408 L 176.38909198331 138.262 L 177.13869502603 138.11599999999999 L 177.88829806876 137.678 L 178.63790111148 137.24 L 179.3875041542 137.094 L 180.13710719693 136.948 L 180.88671023965 137.094 L 181.63631328238 136.948 L 182.3859163251 136.948 L 183.13551936782 136.802 L 183.88512241055 136.51 L 184.63472545327 135.78 L 185.38432849599 135.05 L 186.13393153872 133.59 L 186.88353458144 132.422 L 187.63313762416 129.94 L 188.38274066689 128.48 L 189.13234370961 129.502 L 189.88194675234 130.524 L 190.63154979506 130.67 L 191.38115283778 130.378 L 192.13075588051 130.378 L 192.88035892323 129.94 L 193.62996196595 128.772 L 194.37956500868 128.334 L 195.1291680514 127.458 L 195.87877109413 127.02 L 196.62837413685 126.582 L 197.37797717957 126.582 L 198.1275802223 126.582 L 198.87718326502 127.604 L 199.62678630774 127.604 L 200.37638935047 127.458 L 201.12599239319 127.458 L 201.87559543591 127.312 L 202.62519847864 126.874 L 203.37480152136 125.852 L 204.12440456409 125.852 L 204.87400760681 126.728 L 205.62361064953 126.874 L 206.37321369226 127.458 L 207.12281673498 127.75 L 207.8724197777 128.334 L 208.62202282043 129.502 L 209.37162586315 129.648 L 210.12122890587 130.232 L 210.8708319486 130.67 L 211.62043499132 131.108 L 212.37003803405 131.4 L 213.11964107677 131.4 L 213.86924411949 131.838 L 214.61884716222 131.838 L 215.36845020494 131.838 L 216.11805324766 131.838 L 216.86765629039 131.984 L 217.61725933311 131.254 L 218.36686237584 131.692 L 219.11646541856 132.13 L 219.86606846128 132.13 L 220.61567150401 132.422 L 221.36527454673 132.714 L 222.11487758945 133.736 L 222.86448063218 134.174 L 223.6140836749 135.05 L 224.36368671762 135.05 L 225.11328976035 134.904 L 225.86289280307 134.466 L 226.6124958458 134.174 L 227.36209888852 134.174 L 228.11170193124 134.028 L 228.86130497397 134.028 L 229.61090801669 133.882 L 230.36051105941 133.882 L 231.11011410214 133.882 L 231.85971714486 134.028 L 232.60932018759 134.174 L 233.35892323031 133.882 L 234.10852627303 133.59 L 234.85812931576 133.298 L 235.60773235848 133.59 L 236.3573354012 133.882 L 237.10693844393 134.028 L 237.85654148665 135.196 L 238.60614452937 135.63400000000001 L 239.3557475721 135.78 L 240.10535061482 135.926 L 240.85495365755 136.072 L 241.60455670027 136.072 L 242.35415974299 136.072 L 243.10376278572 136.072 L 243.85336582844 136.072 L 244.60296887116 136.364 L 245.35257191389 136.51 L 246.10217495661 136.802 L 246.85177799934 136.802 L 247.60138104206 136.802 L 248.35098408478 136.802 L 249.10058712751 136.656 L 249.85019017023 136.948 L 250.59979321295 136.948 L 251.34939625568 137.094 L 252.0989992984 137.094 L 252.84860234112 137.094 L 253.59820538385 137.24 L 254.34780842657 137.24 L 255.0974114693 137.24 L 255.84701451202 137.386 L 256.59661755474 137.386 L 257.34622059747 137.532 L 258.09582364019 137.532 L 258.84542668291 137.824 L 259.59502972564 137.97 L 260.34463276836 138.408 L 261.09423581109 138.408 L 261.84383885381 137.97 L 262.59344189653 137.97 L 263.34304493926 137.97 L 264.09264798198 138.11599999999999 L 264.8422510247 138.11599999999999 L 265.59185406743 137.97 L 266.34145711015 137.678 L 267.09106015287 137.678 L 267.8406631956 136.802 L 268.59026623832 136.948 L 269.33986928105 136.948 L 270.08947232377 136.948 L 270.83907536649 136.948 L 271.58867840922 136.948 L 272.33828145194 137.094 L 273.08788449466 137.094 L 273.83748753739 137.094 L 274.58709058011 136.948 L 275.33669362284 137.094 L 276.08629666556 137.094 L 276.83589970828 137.094 L 277.58550275101 137.532 L 278.33510579373 137.678 L 279.08470883645 137.678 L 279.83431187918 137.824 L 280.5839149219 137.824 L 281.33351796462 137.97 L 282.08312100735 138.11599999999999 L 282.83272405007 138.11599999999999 L 283.5823270928 138.11599999999999 L 284.33193013552 138.11599999999999 L 285.08153317824 138.11599999999999 L 285.83113622097 138.11599999999999 L 286.58073926369 138.11599999999999 L 287.33034230641 137.97 L 288.07994534914 137.97 L 288.82954839186 137.678 L 289.57915143459 137.678 L 290.32875447731 137.678 L 291.07835752003 137.824 L 291.82796056276 137.824 L 292.57756360548 137.678 L 293.3271666482 137.678 L 294.07676969093 137.532 L 294.82637273365 137.678 L 295.57597577637 137.678 L 296.3255788191 137.678 L 297.07518186182 137.678 L 297.82478490455 137.678 L 298.57438794727 137.678 L 299.32399098999 137.678 L 300.07359403272 137.824 L 300.82319707544 138.11599999999999 L 301.57280011816 138.11599999999999 L 302.32240316089 138.408 L 303.07200620361 138.554 L 303.82160924634 138.408 L 304.57121228906 138.262 L 305.32081533178 137.678 L 306.07041837451 137.678 L 306.82002141723 137.678 L 307.56962445995 137.532 L 308.31922750268 137.532 L 309.0688305454 137.386 L 309.81843358812 137.386 L 310.56803663085 137.386 L 311.31763967357 136.656 L 312.0672427163 136.218 L 312.81684575902 135.78 L 313.56644880174 135.342 L 314.31605184447 135.342 L 315.06565488719 135.488 L 315.81525792991 135.63400000000001 L 316.56486097264 135.488 L 317.31446401536 135.342 L 318.06406705809 135.342 L 318.81367010081 135.342 L 319.56327314353 135.488 L 320.31287618626 135.78 L 321.06247922898 135.926 L 321.8120822717 136.218 L 322.56168531443 136.51 L 323.31128835715 136.802 L 324.06089139987 136.802 L 324.8104944426 137.094 L 325.56009748532 137.386 L 326.30970052805 137.824 L 327.05930357077 137.824 L 327.80890661349 137.97 L 328.55850965622 138.11599999999999 L 329.30811269894 138.408 L 330.05771574166 138.408 L 330.80731878439 138.262 L 331.55692182711 137.824 L 332.30652486983 137.386 L 333.05612791256 137.24 L 333.80573095528 137.24 L 334.55533399801 137.532 L 335.30493704073 137.532 L 336.05454008345 137.824 L 336.80414312618 137.824 L 337.5537461689 137.824 L 338.30334921162 137.97 L 339.05295225435 137.97 L 339.80255529707 138.11599999999999 L 340.5521583398 138.262 L 341.30176138252 138.408 L 342.05136442524 138.262 L 342.80096746797 138.262 L 343.55057051069 138.262 L 344.30017355341 137.97 L 345.04977659614 137.824 L 345.79937963886 137.824 L 346.54898268158 137.824 L 347.29858572431 137.824 L 348.04818876703 137.532 L 348.79779180976 137.678 L 349.54739485248 137.678 L 350.2969978952 137.678 L 351.04660093793 137.386 L 351.79620398065 137.678 L 352.54580702337 137.678 L 353.2954100661 137.678 L 354.04501310882 137.678 L 354.79461615155 137.678 L 355.54421919427 138.11599999999999 L 356.29382223699 138.408 L 357.04342527972 138.554 L 357.79302832244 138.554 L 358.54263136516 138.7 L 359.29223440789 138.7 L 360.04183745061 138.7 L 360.79144049333 138.11599999999999 L 361.54104353606 135.488 L 362.29064657878 125.852 L 363.04024962151 114.756 L 363.78985266423 120.158 L 364.53945570695 122.932 L 365.28905874968 125.414 L 366.0386617924 126.436 L 366.78826483512 128.042 L 367.53786787785 129.648 L 368.28747092057 131.108 L 369.0370739633 131.984 L 369.78667700602 132.13 L 370.53628004874 132.422 L 371.28588309147 133.152 L 372.03548613419 134.612 L 372.78508917691 135.196 L 373.53469221964 135.926 L 374.28429526236 136.072 L 375.03389830508 136.072 L 375.78350134781 136.218 L 376.53310439053 136.364 L 377.28270743326 136.51 L 378.03231047598 136.656 L 378.7819135187 136.948 L 379.53151656143 137.24 L 380.28111960415 137.678 L 381.03072264687 137.678 L 381.7803256896 137.532 L 382.52992873232 137.386 L 383.27953177505 137.24 L 384.02913481777 136.948 L 384.77873786049 136.948 L 385.52834090322 136.802 L 386.27794394594 136.948 L 387.02754698866 136.802 L 387.77715003139 136.802 L 388.52675307411 137.094 L 389.27635611683 137.532 L 390.02595915956 137.97 L 390.77556220228 137.97 L 391.52516524501 137.97 L 392.27476828773 138.11599999999999 L 393.02437133045 138.11599999999999 L 393.77397437318 138.11599999999999 L 394.5235774159 138.7 L 395.27318045862 138.992 L 396.02278350135 138.992 L 396.77238654407 139.138 L 397.5219895868 139.284 L 398.27159262952 139.43 L 399.02119567224 139.576 L 399.77079871497 139.576 L 400.52040175769 139.43 L 401.27000480041 139.284 L 402.01960784314 139.138" class="highcharts-graph" data-z-index="1" stroke="#969497" stroke-width="2" stroke-linejoin="round" stroke-linecap="round"></path></g><g class="highcharts-markers highcharts-series-2 highcharts-line-series highcharts-color-2" data-z-index="0.1" opacity="1" transform="translate(37,16) scale(1 1)" clip-path="none"></g><g class="highcharts-series highcharts-series-3 highcharts-line-series highcharts-color-3" data-z-index="0.1" opacity="1" transform="translate(37,16) scale(1 1)" clip-path="url(#highcharts-778pwct-14983-)"><path fill="none" d="M 3.9803921568627 138.554 L 4.7299951995864 138.554 L 5.4795982423101 138.408 L 6.2292012850338 138.554 L 6.9788043277575 138.262 L 7.7284073704811 138.262 L 8.4780104132048 138.11599999999999 L 9.2276134559285 138.262 L 9.9772164986522 138.262 L 10.726819541376 137.97 L 11.4764225841 137.824 L 12.226025626823 138.11599999999999 L 12.975628669547 138.11599999999999 L 13.725231712271 138.11599999999999 L 14.474834754994 138.262 L 15.224437797718 138.262 L 15.974040840442 138.408 L 16.723643883165 138.554 L 17.473246925889 138.7 L 18.222849968613 138.7 L 18.972453011336 138.7 L 19.72205605406 138.554 L 20.471659096784 138.846 L 21.221262139507 138.846 L 21.970865182231 138.846 L 22.720468224955 138.846 L 23.470071267678 138.846 L 24.219674310402 138.846 L 24.969277353126 138.846 L 25.718880395849 138.846 L 26.468483438573 138.846 L 27.218086481297 138.7 L 27.967689524021 138.7 L 28.717292566744 138.408 L 29.466895609468 138.408 L 30.216498652192 138.262 L 30.966101694915 137.824 L 31.715704737639 137.24 L 32.465307780363 137.094 L 33.214910823086 136.656 L 33.96451386581 135.05 L 34.714116908534 135.05 L 35.463719951257 135.196 L 36.213322993981 135.488 L 36.962926036705 135.488 L 37.712529079428 135.488 L 38.462132122152 135.342 L 39.211735164876 134.174 L 39.961338207599 134.174 L 40.710941250323 134.174 L 41.460544293047 134.028 L 42.21014733577 134.028 L 42.959750378494 133.298 L 43.709353421218 132.714 L 44.458956463942 132.714 L 45.208559506665 133.152 L 45.958162549389 133.59 L 46.707765592113 134.174 L 47.457368634836 134.904 L 48.20697167756 135.196 L 48.956574720284 135.342 L 49.706177763007 135.342 L 50.455780805731 135.63400000000001 L 51.205383848455 135.926 L 51.954986891178 136.364 L 52.704589933902 136.51 L 53.454192976626 136.364 L 54.203796019349 136.51 L 54.953399062073 136.656 L 55.703002104797 136.656 L 56.45260514752 136.656 L 57.202208190244 136.51 L 57.951811232968 136.364 L 58.701414275691 136.218 L 59.451017318415 135.78 L 60.200620361139 135.488 L 60.950223403862 135.488 L 61.699826446586 135.63400000000001 L 62.44942948931 135.78 L 63.199032532034 135.78 L 63.948635574757 135.926 L 64.698238617481 136.072 L 65.447841660205 136.364 L 66.197444702928 136.802 L 66.947047745652 137.386 L 67.696650788376 137.532 L 68.446253831099 137.678 L 69.195856873823 137.824 L 69.945459916547 138.7 L 70.69506295927 138.7 L 71.444666001994 138.7 L 72.194269044718 138.846 L 72.943872087441 138.846 L 73.693475130165 138.992 L 74.443078172889 139.138 L 75.192681215612 139.138 L 75.942284258336 139.284 L 76.69188730106 139.284 L 77.441490343783 139.43 L 78.191093386507 139.43 L 78.940696429231 139.284 L 79.690299471955 139.284 L 80.439902514678 139.284 L 81.189505557402 139.284 L 81.939108600126 139.284 L 82.688711642849 139.576 L 83.438314685573 139.576 L 84.187917728297 139.868 L 84.93752077102 139.868 L 85.687123813744 139.722 L 86.436726856468 139.722 L 87.186329899191 139.722 L 87.935932941915 139.722 L 88.685535984639 139.722 L 89.435139027362 139.722 L 90.184742070086 139.722 L 90.93434511281 139.576 L 91.683948155533 139.576 L 92.433551198257 139.576 L 93.183154240981 139.576 L 93.932757283704 139.722 L 94.682360326428 139.722 L 95.431963369152 139.868 L 96.181566411875 140.014 L 96.931169454599 140.16 L 97.680772497323 140.452 L 98.430375540047 140.452 L 99.17997858277 140.16 L 99.929581625494 140.014 L 100.67918466822 139.868 L 101.42878771094 139.722 L 102.17839075366 139.722 L 102.92799379639 139.722 L 103.67759683911 139.722 L 104.42719988184 139.722 L 105.17680292456 139.868 L 105.92640596728 140.014 L 106.67600901001 140.014 L 107.42561205273 140.014 L 108.17521509545 140.16 L 108.92481813818 140.16 L 109.6744211809 140.16 L 110.42402422363 140.16 L 111.17362726635 140.014 L 111.92323030907 140.014 L 112.6728333518 139.868 L 113.42243639452 139.868 L 114.17203943724 139.868 L 114.92164247997 140.014 L 115.67124552269 140.014 L 116.42084856541 140.014 L 117.17045160814 140.014 L 117.92005465086 140.014 L 118.66965769359 140.014 L 119.41926073631 140.014 L 120.16886377903 140.014 L 120.91846682176 140.014 L 121.66806986448 140.16 L 122.4176729072 140.16 L 123.16727594993 140.598 L 123.91687899265 140.598 L 124.66648203538 140.598 L 125.4160850781 140.744 L 126.16568812082 140.744 L 126.91529116355 140.744 L 127.66489420627 140.89 L 128.41449724899 140.89 L 129.16410029172 140.89 L 129.91370333444 141.036 L 130.66330637716 141.036 L 131.41290941989 141.036 L 132.16251246261 141.036 L 132.91211550534 141.036 L 133.66171854806 141.328 L 134.41132159078 141.474 L 135.16092463351 141.766 L 135.91052767623 142.204 L 136.66013071895 142.35 L 137.40973376168 142.35 L 138.1593368044 142.35 L 138.90893984713 142.35 L 139.65854288985 142.35 L 140.40814593257 142.35 L 141.1577489753 142.35 L 141.90735201802 142.35 L 142.65695506074 142.35 L 143.40655810347 142.35 L 144.15616114619 142.496 L 144.90576418891 142.642 L 145.65536723164 142.788 L 146.40497027436 142.788 L 147.15457331709 142.934 L 147.90417635981 143.08 L 148.65377940253 143.226 L 149.40338244526 143.226 L 150.15298548798 143.226 L 150.9025885307 143.226 L 151.65219157343 143.226 L 152.40179461615 143.226 L 153.15139765888 143.226 L 153.9010007016 143.372 L 154.65060374432 143.372 L 155.40020678705 143.372 L 156.14980982977 143.372 L 156.89941287249 143.372 L 157.64901591522 143.226 L 158.39861895794 143.08 L 159.89782504339 143.08 L 160.64742808611 143.226 L 161.39703112884 143.226 L 162.14663417156 143.226 L 162.89623721428 142.934 L 163.64584025701 142.934 L 164.39544329973 142.934 L 165.14504634245 142.934 L 165.89464938518 142.934 L 166.6442524279 142.934 L 167.39385547063 142.642 L 168.14345851335 142.058 L 168.89306155607 142.058 L 169.6426645988 141.912 L 170.39226764152 142.204 L 171.14187068424 142.204 L 171.89147372697 142.204 L 172.64107676969 142.35 L 173.39067981241 142.204 L 174.14028285514 142.204 L 174.88988589786 142.058 L 175.63948894059 142.058 L 176.38909198331 141.912 L 177.13869502603 141.766 L 177.88829806876 141.62 L 178.63790111148 141.474 L 179.3875041542 141.328 L 180.13710719693 141.328 L 180.88671023965 141.474 L 181.63631328238 141.474 L 182.3859163251 141.328 L 183.13551936782 141.328 L 183.88512241055 141.036 L 184.63472545327 140.744 L 185.38432849599 140.306 L 186.13393153872 139.868 L 186.88353458144 139.722 L 187.63313762416 138.408 L 188.38274066689 138.262 L 189.13234370961 138.262 L 189.88194675234 138.408 L 190.63154979506 137.97 L 191.38115283778 137.532 L 192.13075588051 137.386 L 192.88035892323 137.386 L 193.62996196595 137.24 L 194.37956500868 136.802 L 195.1291680514 136.218 L 195.87877109413 135.926 L 196.62837413685 135.926 L 197.37797717957 135.926 L 198.1275802223 136.218 L 198.87718326502 136.51 L 199.62678630774 136.51 L 200.37638935047 136.364 L 201.12599239319 136.218 L 201.87559543591 136.072 L 202.62519847864 135.926 L 203.37480152136 135.488 L 204.12440456409 135.488 L 204.87400760681 135.488 L 205.62361064953 135.63400000000001 L 206.37321369226 135.78 L 207.12281673498 135.78 L 207.8724197777 135.926 L 208.62202282043 136.218 L 209.37162586315 136.364 L 210.12122890587 136.364 L 210.8708319486 136.51 L 211.62043499132 136.51 L 212.37003803405 136.51 L 213.11964107677 136.51 L 213.86924411949 136.656 L 214.61884716222 136.802 L 215.36845020494 137.24 L 216.11805324766 137.094 L 216.86765629039 137.24 L 217.61725933311 136.802 L 218.36686237584 137.094 L 219.11646541856 137.386 L 219.86606846128 137.386 L 220.61567150401 137.532 L 221.36527454673 137.678 L 222.11487758945 138.262 L 222.86448063218 138.408 L 223.6140836749 138.554 L 224.36368671762 138.7 L 225.11328976035 138.7 L 225.86289280307 138.7 L 226.6124958458 138.7 L 227.36209888852 138.7 L 228.11170193124 138.7 L 228.86130497397 138.7 L 229.61090801669 138.7 L 230.36051105941 138.554 L 231.11011410214 138.7 L 231.85971714486 138.554 L 232.60932018759 138.554 L 233.35892323031 138.262 L 234.10852627303 137.97 L 234.85812931576 137.97 L 235.60773235848 138.11599999999999 L 236.3573354012 138.262 L 237.10693844393 138.262 L 237.85654148665 138.846 L 238.60614452937 138.992 L 239.3557475721 138.992 L 240.10535061482 138.992 L 240.85495365755 138.992 L 241.60455670027 138.846 L 242.35415974299 138.846 L 243.10376278572 138.992 L 243.85336582844 139.138 L 244.60296887116 139.576 L 245.35257191389 139.868 L 246.10217495661 139.868 L 246.85177799934 140.014 L 247.60138104206 139.868 L 248.35098408478 139.868 L 249.10058712751 139.868 L 249.85019017023 140.014 L 250.59979321295 140.16 L 251.34939625568 140.16 L 252.0989992984 140.306 L 252.84860234112 140.306 L 253.59820538385 140.452 L 254.34780842657 140.452 L 255.0974114693 140.598 L 255.84701451202 140.744 L 256.59661755474 140.89 L 257.34622059747 141.036 L 258.09582364019 141.182 L 258.84542668291 141.182 L 259.59502972564 141.328 L 260.34463276836 141.328 L 261.09423581109 141.328 L 261.84383885381 141.182 L 262.59344189653 140.89 L 263.34304493926 141.036 L 264.09264798198 141.182 L 264.8422510247 141.182 L 265.59185406743 141.036 L 266.34145711015 141.036 L 267.09106015287 141.036 L 267.8406631956 140.89 L 268.59026623832 140.89 L 269.33986928105 140.89 L 270.08947232377 140.89 L 270.83907536649 141.036 L 271.58867840922 141.036 L 272.33828145194 141.036 L 273.08788449466 141.036 L 273.83748753739 141.036 L 274.58709058011 141.036 L 275.33669362284 141.036 L 276.08629666556 141.036 L 276.83589970828 141.182 L 277.58550275101 141.328 L 278.33510579373 141.328 L 279.08470883645 141.328 L 279.83431187918 141.474 L 280.5839149219 141.474 L 281.33351796462 141.62 L 282.08312100735 141.766 L 282.83272405007 141.766 L 283.5823270928 141.912 L 284.33193013552 141.912 L 285.08153317824 141.912 L 285.83113622097 141.912 L 286.58073926369 141.912 L 287.33034230641 141.766 L 288.07994534914 141.766 L 288.82954839186 141.766 L 289.57915143459 141.766 L 290.32875447731 141.766 L 291.07835752003 141.766 L 291.82796056276 141.766 L 292.57756360548 141.62 L 293.3271666482 141.62 L 294.07676969093 141.62 L 294.82637273365 141.62 L 295.57597577637 141.766 L 296.3255788191 141.912 L 297.07518186182 141.766 L 297.82478490455 141.766 L 298.57438794727 141.766 L 299.32399098999 141.766 L 300.07359403272 141.912 L 300.82319707544 142.058 L 301.57280011816 141.912 L 302.32240316089 141.912 L 303.07200620361 141.912 L 303.82160924634 141.912 L 304.57121228906 141.766 L 305.32081533178 141.474 L 306.07041837451 141.474 L 306.82002141723 141.328 L 307.56962445995 141.328 L 308.31922750268 141.182 L 309.0688305454 141.036 L 309.81843358812 141.036 L 310.56803663085 141.036 L 311.31763967357 140.89 L 312.0672427163 140.744 L 312.81684575902 140.744 L 313.56644880174 140.598 L 314.31605184447 140.598 L 315.06565488719 140.744 L 315.81525792991 140.744 L 316.56486097264 140.598 L 317.31446401536 140.598 L 318.06406705809 140.744 L 318.81367010081 141.036 L 319.56327314353 141.182 L 320.31287618626 141.182 L 321.06247922898 141.182 L 321.8120822717 141.474 L 322.56168531443 141.474 L 323.31128835715 141.62 L 324.06089139987 141.766 L 324.8104944426 141.766 L 325.56009748532 141.766 L 326.30970052805 141.912 L 327.05930357077 141.912 L 327.80890661349 141.912 L 328.55850965622 142.058 L 329.30811269894 142.204 L 330.05771574166 142.204 L 330.80731878439 142.204 L 331.55692182711 142.058 L 332.30652486983 141.912 L 333.05612791256 141.912 L 333.80573095528 141.912 L 334.55533399801 142.058 L 335.30493704073 142.204 L 336.05454008345 142.35 L 336.80414312618 142.35 L 337.5537461689 142.35 L 338.30334921162 142.35 L 339.05295225435 142.496 L 339.80255529707 142.35 L 340.5521583398 142.496 L 341.30176138252 142.496 L 342.05136442524 142.496 L 342.80096746797 142.35 L 343.55057051069 142.35 L 344.30017355341 142.204 L 345.04977659614 142.058 L 345.79937963886 142.058 L 346.54898268158 142.058 L 347.29858572431 142.058 L 348.04818876703 142.058 L 348.79779180976 142.058 L 349.54739485248 142.058 L 350.2969978952 142.058 L 351.04660093793 142.058 L 351.79620398065 142.058 L 352.54580702337 142.058 L 353.2954100661 142.058 L 354.04501310882 142.058 L 354.79461615155 142.058 L 355.54421919427 142.204 L 356.29382223699 142.35 L 357.04342527972 142.35 L 357.79302832244 142.35 L 358.54263136516 142.35 L 359.29223440789 142.35 L 360.04183745061 142.35 L 360.79144049333 142.204 L 361.54104353606 141.474 L 362.29064657878 138.846 L 363.04024962151 135.488 L 363.78985266423 136.802 L 364.53945570695 138.7 L 365.28905874968 138.992 L 366.0386617924 139.284 L 366.78826483512 140.306 L 367.53786787785 140.306 L 368.28747092057 140.306 L 369.0370739633 140.16 L 369.78667700602 140.014 L 370.53628004874 140.16 L 371.28588309147 140.306 L 372.03548613419 140.89 L 372.78508917691 140.89 L 373.53469221964 141.182 L 374.28429526236 141.328 L 375.03389830508 141.474 L 375.78350134781 141.474 L 376.53310439053 141.62 L 377.28270743326 141.766 L 378.03231047598 141.766 L 378.7819135187 141.766 L 379.53151656143 141.912 L 380.28111960415 142.204 L 381.03072264687 142.204 L 381.7803256896 142.204 L 382.52992873232 142.204 L 383.27953177505 142.204 L 384.02913481777 142.204 L 384.77873786049 142.204 L 385.52834090322 142.204 L 386.27794394594 142.35 L 387.02754698866 142.35 L 387.77715003139 142.35 L 388.52675307411 142.35 L 389.27635611683 142.934 L 390.02595915956 142.934 L 390.77556220228 142.788 L 391.52516524501 142.934 L 392.27476828773 142.788 L 393.02437133045 142.788 L 393.77397437318 142.934 L 394.5235774159 143.08 L 395.27318045862 143.372 L 396.02278350135 143.518 L 396.77238654407 143.518 L 397.5219895868 143.664 L 398.27159262952 143.81 L 399.02119567224 143.664 L 399.77079871497 143.664 L 400.52040175769 143.664 L 401.27000480041 143.518 L 402.01960784314 143.518" class="highcharts-graph" data-z-index="1" stroke="#5B91CC" stroke-width="2" stroke-linejoin="round" stroke-linecap="round"></path></g><g class="highcharts-markers highcharts-series-3 highcharts-line-series highcharts-color-3" data-z-index="0.1" opacity="1" transform="translate(37,16) scale(1 1)" clip-path="none"></g></g><text x="13" text-anchor="start" class="highcharts-title" data-z-index="4" style="color:#333333;font-size:20px;fill:#333333;" y="31"></text><text x="13" text-anchor="start" class="highcharts-subtitle" data-z-index="4" style="color:#000000;font-size:20px;fill:#000000;" y="36"></text><text x="13" text-anchor="start" class="highcharts-caption" data-z-index="4" style="color:#666666;font-size:16px;fill:#666666;" y="230"></text><g class="highcharts-legend highcharts-no-tooltip" data-z-index="7" transform="translate(64,193)"><rect fill="none" class="highcharts-legend-box" rx="0" ry="0" x="0" y="0" width="351" height="22" visibility="visible"></rect><g data-z-index="1"><g><g class="highcharts-legend-item highcharts-line-series highcharts-color-0 highcharts-series-0" data-z-index="1" transform="translate(8,3)"><path fill="none" d="M 0 8 L 16 8" class="highcharts-graph" stroke="#4156A6" stroke-width="2"></path><text x="21" y="11" style="color:#000000;cursor:pointer;font-size:8px;font-weight:normal;fill:#000000;" text-anchor="start" data-z-index="2">Hybridkapital</text></g><g class="highcharts-legend-item highcharts-line-series highcharts-color-1 highcharts-series-1" data-z-index="1" transform="translate(98.859375,3)"><path fill="none" d="M 0 8 L 16 8" class="highcharts-graph" stroke="#F15D61" stroke-width="2"></path><text x="21" y="11" style="color:#000000;cursor:pointer;font-size:8px;font-weight:normal;fill:#000000;" text-anchor="start" data-z-index="2">Ansvarlige ln</text></g><g class="highcharts-legend-item highcharts-line-series highcharts-color-2 highcharts-series-2" data-z-index="1" transform="translate(193.171875,3)"><path fill="none" d="M 0 8 L 16 8" class="highcharts-graph" stroke="#969497" stroke-width="2"></path><text x="21" y="11" style="color:#000000;cursor:pointer;font-size:8px;font-weight:normal;fill:#000000;" text-anchor="start" data-z-index="2">Seniorobligasjoner</text></g><g class="highcharts-legend-item highcharts-line-series highcharts-color-3 highcharts-series-3" data-z-index="1" transform="translate(304.171875,3)"><path fill="none" d="M 0 8 L 16 8" class="highcharts-graph" stroke="#5B91CC" stroke-width="2"></path><text x="21" y="11" style="color:#000000;cursor:pointer;font-size:8px;font-weight:normal;fill:#000000;" text-anchor="start" data-z-index="2">OMF</text></g></g></g></g><g class="highcharts-axis-labels highcharts-xaxis-labels" data-z-index="7"><text x="78.781802739928" style="color:#000000;cursor:default;font-size:8px;fill:#000000;" text-anchor="middle" transform="translate(0,0)" y="179" opacity="1">2012</text><text x="157.06177763007" style="color:#000000;cursor:default;font-size:8px;fill:#000000;" text-anchor="middle" transform="translate(0,0)" y="179" opacity="1">2014</text><text x="235.23466637126" style="color:#000000;cursor:default;font-size:8px;fill:#000000;" text-anchor="middle" transform="translate(0,0)" y="179" opacity="1">2016</text><text x="313.5146412614" style="color:#000000;cursor:default;font-size:8px;fill:#000000;" text-anchor="middle" transform="translate(0,0)" y="179" opacity="1">2018</text><text x="391.68753000258" style="color:#000000;cursor:default;font-size:8px;fill:#000000;" text-anchor="middle" transform="translate(0,0)" y="179" opacity="1">2020</text></g><g class="highcharts-axis-labels highcharts-yaxis-labels" data-z-index="7"><text x="22" style="color:#000000;cursor:default;font-size:8px;fill:#000000;" text-anchor="end" transform="translate(0,0)" y="166" opacity="1">0</text><text x="22" style="color:#000000;cursor:default;font-size:8px;fill:#000000;" text-anchor="end" transform="translate(0,0)" y="93" opacity="1">5</text><text x="22" style="color:#000000;cursor:default;font-size:8px;fill:#000000;" text-anchor="end" transform="translate(0,0)" y="20" opacity="1">10</text></g><g class="highcharts-axis-labels highcharts-yaxis-labels" data-z-index="7"><text x="458" style="color:#000000;cursor:default;font-size:8px;fill:#000000;" text-anchor="start" transform="translate(0,0)" y="166" opacity="1">0</text><text x="458" style="color:#000000;cursor:default;font-size:8px;fill:#000000;" text-anchor="start" transform="translate(0,0)" y="93" opacity="1">5</text><text x="458" style="color:#000000;cursor:default;font-size:8px;fill:#000000;" text-anchor="start" transform="translate(0,0)" y="20" opacity="1">10</text></g><g class="highcharts-control-points" data-z-index="99" clip-path="url(#highcharts-778pwct-17109-)"></g></svg>