<svg xmlns:xlink="http://www.w3.org/1999/xlink" version="1.1" class="highcharts-root" style="font-family:Open Sans, sans-serif;font-size:12px;color:#000000;fill:#000000;" xmlns="http://www.w3.org/2000/svg" width="480" height="227" viewBox="0 0 480 227"><desc>Created with Highcharts 9.2.2</desc><defs><clipPath id="highcharts-tdglzai-3024-"><rect x="0" y="0" width="387" height="135" fill="none"></rect></clipPath><clipPath id="highcharts-tdglzai-3051-"><rect x="0" y="0" width="387" height="135" fill="none"></rect></clipPath><clipPath id="highcharts-tdglzai-3130-"><rect x="47" y="16" width="387" height="135" fill="none"></rect></clipPath></defs><rect fill="#ffffff" class="highcharts-background" x="0" y="0" width="480" height="227" rx="0" ry="0"></rect><rect fill="#ffffff" class="highcharts-plot-background" x="47" y="16" width="387" height="135"></rect><g class="highcharts-pane-group" data-z-index="0"></g><g class="highcharts-plot-lines-0" data-z-index="0"><path fill="none" class="highcharts-plot-line "></path></g><g class="highcharts-plot-lines-0" data-z-index="0"><path fill="none" class="highcharts-plot-line " stroke="#000000" stroke-width="0.25" d="M 47 151.125 L 434 151.125"></path></g><g class="highcharts-plot-lines-0" data-z-index="0"><path fill="none" class="highcharts-plot-line " stroke="#000000" stroke-width="0.25" d="M 47 151.125 L 434 151.125"></path></g><rect fill="none" class="highcharts-plot-border" data-z-index="1" x="47" y="16" width="387" height="135"></rect><g class="highcharts-grid highcharts-xaxis-grid" data-z-index="1"><path fill="none" stroke-dasharray="none" data-z-index="1" class="highcharts-grid-line" d="M 115.5 16 L 115.5 151" opacity="1"></path><path fill="none" stroke-dasharray="none" data-z-index="1" class="highcharts-grid-line" d="M 188.5 16 L 188.5 151" opacity="1"></path><path fill="none" stroke-dasharray="none" data-z-index="1" class="highcharts-grid-line" d="M 261.5 16 L 261.5 151" opacity="1"></path><path fill="none" stroke-dasharray="none" data-z-index="1" class="highcharts-grid-line" d="M 334.5 16 L 334.5 151" opacity="1"></path><path fill="none" stroke-dasharray="none" data-z-index="1" class="highcharts-grid-line" d="M 407.5 16 L 407.5 151" opacity="1"></path></g><g class="highcharts-grid highcharts-yaxis-grid" data-z-index="1"><path fill="none" stroke-dasharray="none" data-z-index="1" class="highcharts-grid-line" d="M 47 151.5 L 434 151.5" opacity="1"></path><path fill="none" stroke-dasharray="none" data-z-index="1" class="highcharts-grid-line" d="M 47 84.5 L 434 84.5" opacity="1"></path><path fill="none" stroke-dasharray="none" data-z-index="1" class="highcharts-grid-line" d="M 47 16.5 L 434 16.5" opacity="1"></path></g><g class="highcharts-grid highcharts-yaxis-grid" data-z-index="1"><path fill="none" stroke-dasharray="none" data-z-index="1" class="highcharts-grid-line" d="M 47 151.5 L 434 151.5" opacity="1"></path><path fill="none" stroke-dasharray="none" data-z-index="1" class="highcharts-grid-line" d="M 47 84.5 L 434 84.5" opacity="1"></path><path fill="none" stroke-dasharray="none" data-z-index="1" class="highcharts-grid-line" d="M 47 16.5 L 434 16.5" opacity="1"></path></g><g class="highcharts-axis highcharts-xaxis" data-z-index="2"><path fill="none" class="highcharts-axis-line" stroke="#000000" stroke-width="0.25" data-z-index="7" d="M 47 151.125 L 434 151.125"></path></g><g class="highcharts-axis highcharts-yaxis" data-z-index="2"><path fill="none" class="highcharts-tick" stroke="#000000" stroke-width="0.25" d="M 47 151.125 L 57 151.125" opacity="1"></path><path fill="none" class="highcharts-tick" stroke="#000000" stroke-width="0.25" d="M 47 84.125 L 57 84.125" opacity="1"></path><path fill="none" class="highcharts-tick" stroke="#000000" stroke-width="0.25" d="M 47 15.875 L 57 15.875" opacity="1"></path><path fill="none" class="highcharts-axis-line" stroke="#000000" stroke-width="0.25" data-z-index="7" d="M 46.875 16 L 46.875 151"></path></g><g class="highcharts-axis highcharts-yaxis" data-z-index="2"><path fill="none" class="highcharts-tick" stroke="#000000" stroke-width="0.25" d="M 434 151.125 L 424 151.125" opacity="1"></path><path fill="none" class="highcharts-tick" stroke="#000000" stroke-width="0.25" d="M 434 84.125 L 424 84.125" opacity="1"></path><path fill="none" class="highcharts-tick" stroke="#000000" stroke-width="0.25" d="M 434 15.875 L 424 15.875" opacity="1"></path><path fill="none" class="highcharts-axis-line" stroke="#000000" stroke-width="0.25" data-z-index="7" d="M 434.125 16 L 434.125 151"></path></g><g class="highcharts-series-group" data-z-index="3"><g class="highcharts-series highcharts-series-0 highcharts-line-series highcharts-color-0" data-z-index="0.1" opacity="1" transform="translate(47,16) scale(1 1)" clip-path="url(#highcharts-tdglzai-3024-)"><path fill="none" d="M 10.952830188679 72.9 L 25.556603773585 74.25 L 40.160377358491 74.925 L 54.764150943396 76.275 L 69.367924528302 78.3 L 83.971698113208 78.975 L 98.575471698113 81 L 113.17924528302 82.35 L 127.78301886792 81 L 142.38679245283 78.3 L 156.99056603774 83.025 L 171.59433962264 79.65 L 186.19811320755 86.4 L 200.80188679245 75.6 L 215.40566037736 71.55 L 230.00943396226 66.825 L 244.61320754717 59.400000000000006 L 259.21698113208 53.325 L 273.82075471698 46.575 L 288.42452830189 36.45 L 303.02830188679 28.349999999999994 L 317.6320754717 25.650000000000006 L 332.2358490566 25.650000000000006 L 346.83962264151 14.175000000000011 L 361.44339622642 7.425000000000011" class="highcharts-graph" data-z-index="1" stroke="#181c62" stroke-width="2" stroke-linejoin="round" stroke-linecap="round"></path></g><g class="highcharts-markers highcharts-series-0 highcharts-line-series highcharts-color-0" data-z-index="0.1" opacity="1" transform="translate(47,16) scale(1 1)" clip-path="none"></g><g class="highcharts-series highcharts-series-1 highcharts-column-series highcharts-color-1" data-z-index="0.1" opacity="1" transform="translate(47,16) scale(1 1)" clip-path="url(#highcharts-tdglzai-3024-)"><rect x="285" y="55" width="8" height="7" fill="#60c3ad" opacity="1" class="highcharts-point highcharts-color-1"></rect><rect x="300" y="45" width="8" height="13" fill="#60c3ad" opacity="1" class="highcharts-point highcharts-color-1"></rect><rect x="314" y="45" width="8" height="13" fill="#60c3ad" opacity="1" class="highcharts-point highcharts-color-1"></rect><rect x="329" y="42" width="8" height="13" fill="#60c3ad" opacity="1" class="highcharts-point highcharts-color-1"></rect><rect x="343" y="38" width="8" height="14" fill="#60c3ad" opacity="1" class="highcharts-point highcharts-color-1"></rect><rect x="358" y="38" width="8" height="14" fill="#60c3ad" opacity="1" class="highcharts-point highcharts-color-1"></rect><rect x="373" y="38" width="8" height="14" fill="#60c3ad" opacity="1" class="highcharts-point highcharts-color-1"></rect></g><g class="highcharts-markers highcharts-series-1 highcharts-column-series highcharts-color-1" data-z-index="0.1" opacity="1" transform="translate(47,16) scale(1 1)" clip-path="none"></g><g class="highcharts-series highcharts-series-2 highcharts-column-series highcharts-color-2" data-z-index="1" opacity="1" transform="translate(47,16) scale(1 1)" clip-path="url(#highcharts-tdglzai-3024-)"><rect x="256" y="75" width="8" height="31" fill="#5b91cc" opacity="1" class="highcharts-point highcharts-color-2"></rect><rect x="270" y="69" width="8" height="37" fill="#5b91cc" opacity="1" class="highcharts-point highcharts-color-2"></rect><rect x="285" y="62" width="8" height="44" fill="#5b91cc" opacity="1" class="highcharts-point highcharts-color-2"></rect><rect x="300" y="58" width="8" height="48" fill="#5b91cc" opacity="1" class="highcharts-point highcharts-color-2"></rect><rect x="314" y="58" width="8" height="48" fill="#5b91cc" opacity="1" class="highcharts-point highcharts-color-2"></rect><rect x="329" y="55" width="8" height="51" fill="#5b91cc" opacity="1" class="highcharts-point highcharts-color-2"></rect><rect x="343" y="52" width="8" height="54" fill="#5b91cc" opacity="1" class="highcharts-point highcharts-color-2"></rect><rect x="358" y="52" width="8" height="54" fill="#5b91cc" opacity="1" class="highcharts-point highcharts-color-2"></rect><rect x="373" y="52" width="8" height="54" fill="#5b91cc" opacity="1" class="highcharts-point highcharts-color-2"></rect></g><g class="highcharts-markers highcharts-series-2 highcharts-column-series highcharts-color-2" data-z-index="1" opacity="1" transform="translate(47,16) scale(1 1)" clip-path="none"></g><g class="highcharts-series highcharts-series-3 highcharts-column-series highcharts-color-3" data-z-index="2" opacity="1" transform="translate(47,16) scale(1 1)" clip-path="url(#highcharts-tdglzai-3024-)"><rect x="7" y="113" width="8" height="23" fill="#4156a6" opacity="1" class="highcharts-point highcharts-color-3"></rect><rect x="22" y="113" width="8" height="23" fill="#4156a6" opacity="1" class="highcharts-point highcharts-color-3"></rect><rect x="37" y="113" width="8" height="23" fill="#4156a6" opacity="1" class="highcharts-point highcharts-color-3"></rect><rect x="51" y="113" width="8" height="23" fill="#4156a6" opacity="1" class="highcharts-point highcharts-color-3"></rect><rect x="66" y="113" width="8" height="23" fill="#4156a6" opacity="1" class="highcharts-point highcharts-color-3"></rect><rect x="80" y="113" width="8" height="23" fill="#4156a6" opacity="1" class="highcharts-point highcharts-color-3"></rect><rect x="95" y="113" width="8" height="23" fill="#4156a6" opacity="1" class="highcharts-point highcharts-color-3"></rect><rect x="110" y="113" width="8" height="23" fill="#4156a6" opacity="1" class="highcharts-point highcharts-color-3"></rect><rect x="124" y="113" width="8" height="23" fill="#4156a6" opacity="1" class="highcharts-point highcharts-color-3"></rect><rect x="139" y="113" width="8" height="23" fill="#4156a6" opacity="1" class="highcharts-point highcharts-color-3"></rect><rect x="153" y="113" width="8" height="23" fill="#4156a6" opacity="1" class="highcharts-point highcharts-color-3"></rect><rect x="168" y="113" width="8" height="23" fill="#4156a6" opacity="1" class="highcharts-point highcharts-color-3"></rect><rect x="183" y="113" width="8" height="23" fill="#4156a6" opacity="1" class="highcharts-point highcharts-color-3"></rect><rect x="197" y="113" width="8" height="23" fill="#4156a6" opacity="1" class="highcharts-point highcharts-color-3"></rect><rect x="212" y="113" width="8" height="23" fill="#4156a6" opacity="1" class="highcharts-point highcharts-color-3"></rect><rect x="227" y="113" width="8" height="23" fill="#4156a6" opacity="1" class="highcharts-point highcharts-color-3"></rect><rect x="241" y="113" width="8" height="23" fill="#4156a6" opacity="1" class="highcharts-point highcharts-color-3"></rect><rect x="256" y="106" width="8" height="30" fill="#4156a6" opacity="1" class="highcharts-point highcharts-color-3"></rect><rect x="270" y="106" width="8" height="30" fill="#4156a6" opacity="1" class="highcharts-point highcharts-color-3"></rect><rect x="285" y="106" width="8" height="30" fill="#4156a6" opacity="1" class="highcharts-point highcharts-color-3"></rect><rect x="300" y="106" width="8" height="30" fill="#4156a6" opacity="1" class="highcharts-point highcharts-color-3"></rect><rect x="314" y="106" width="8" height="30" fill="#4156a6" opacity="1" class="highcharts-point highcharts-color-3"></rect><rect x="329" y="106" width="8" height="30" fill="#4156a6" opacity="1" class="highcharts-point highcharts-color-3"></rect><rect x="343" y="106" width="8" height="30" fill="#4156a6" opacity="1" class="highcharts-point highcharts-color-3"></rect><rect x="358" y="106" width="8" height="30" fill="#4156a6" opacity="1" class="highcharts-point highcharts-color-3"></rect><rect x="373" y="106" width="8" height="30" fill="#4156a6" opacity="1" class="highcharts-point highcharts-color-3"></rect></g><g class="highcharts-markers highcharts-series-3 highcharts-column-series highcharts-color-3" data-z-index="2" opacity="1" transform="translate(47,16) scale(1 1)" clip-path="none"></g></g><text x="13" text-anchor="start" class="highcharts-title" data-z-index="4" style="color:#333333;font-size:20px;fill:#333333;" y="31"></text><text x="13" text-anchor="start" class="highcharts-subtitle" data-z-index="4" style="color:#000000;font-size:20px;fill:#000000;" y="36"></text><text x="13" text-anchor="start" class="highcharts-caption" data-z-index="4" style="color:#666666;font-size:16px;fill:#666666;" y="230"></text><g class="highcharts-legend highcharts-no-tooltip" data-z-index="7" transform="translate(68,182)"><rect fill="none" class="highcharts-legend-box" rx="0" ry="0" x="0" y="0" width="343" height="33" visibility="visible"></rect><g data-z-index="1"><g><g class="highcharts-legend-item highcharts-line-series highcharts-color-0 highcharts-series-0" data-z-index="1" transform="translate(8,3)"><path fill="none" d="M 0 8 L 16 8" class="highcharts-graph" stroke="#181c62" stroke-width="2"></path><text x="21" y="11" style="color:#000000;cursor:pointer;font-size:8px;font-weight:normal;fill:#000000;" text-anchor="start" data-z-index="2">Faktisk ren kjernekapital</text></g><g class="highcharts-legend-item highcharts-column-series highcharts-color-1 highcharts-series-1" data-z-index="1" transform="translate(181.734375,3)"><text x="21" y="11" style="color:#000000;cursor:pointer;font-size:8px;font-weight:normal;fill:#000000;" text-anchor="start" data-z-index="2">Bufferkrav for systemviktige banker</text><rect x="4" y="4" width="8" height="8" fill="#60c3ad" class="highcharts-point" data-z-index="3"></rect></g><g class="highcharts-legend-item highcharts-column-series highcharts-color-2 highcharts-series-2" data-z-index="1" transform="translate(8,14)"><text x="21" y="11" style="color:#000000;cursor:pointer;font-size:8px;font-weight:normal;fill:#000000;" text-anchor="start" data-z-index="2">Bufferkrav for alle banker</text><rect x="4" y="4" width="8" height="8" fill="#5b91cc" class="highcharts-point" data-z-index="3"></rect></g><g class="highcharts-legend-item highcharts-column-series highcharts-color-3 highcharts-series-3" data-z-index="1" transform="translate(181.734375,14)"><text x="21" y="11" style="color:#000000;cursor:pointer;font-size:8px;font-weight:normal;fill:#000000;" text-anchor="start" data-z-index="2">Minstekrav</text><rect x="4" y="4" width="8" height="8" fill="#4156a6" class="highcharts-point" data-z-index="3"></rect></g></g></g></g><g class="highcharts-axis-labels highcharts-xaxis-labels" data-z-index="7"><text x="116.3679245283" style="color:#000000;cursor:default;font-size:8px;fill:#000000;" text-anchor="middle" transform="translate(0,0)" y="168" opacity="1">2000</text><text x="189.38679245283" style="color:#000000;cursor:default;font-size:8px;fill:#000000;" text-anchor="middle" transform="translate(0,0)" y="168" opacity="1">2005</text><text x="262.40566037736" style="color:#000000;cursor:default;font-size:8px;fill:#000000;" text-anchor="middle" transform="translate(0,0)" y="168" opacity="1">2010</text><text x="335.42452830189" style="color:#000000;cursor:default;font-size:8px;fill:#000000;" text-anchor="middle" transform="translate(0,0)" y="168" opacity="1">2015</text><text x="408.44339622642" style="color:#000000;cursor:default;font-size:8px;fill:#000000;" text-anchor="middle" transform="translate(0,0)" y="168" opacity="1">2020</text></g><g class="highcharts-axis-labels highcharts-yaxis-labels" data-z-index="7"><text x="32" style="color:#000000;cursor:default;font-size:8px;fill:#000000;" text-anchor="end" transform="translate(0,0)" y="155" opacity="1">0 %</text><text x="32" style="color:#000000;cursor:default;font-size:8px;fill:#000000;" text-anchor="end" transform="translate(0,0)" y="87" opacity="1">10 %</text><text x="32" style="color:#000000;cursor:default;font-size:8px;fill:#000000;" text-anchor="end" transform="translate(0,0)" y="20" opacity="1">20 %</text></g><g class="highcharts-axis-labels highcharts-yaxis-labels" data-z-index="7"><text x="449" style="color:#000000;cursor:default;font-size:8px;fill:#000000;" text-anchor="start" transform="translate(0,0)" y="155" opacity="1">0 %</text><text x="449" style="color:#000000;cursor:default;font-size:8px;fill:#000000;" text-anchor="start" transform="translate(0,0)" y="87" opacity="1">10 %</text><text x="449" style="color:#000000;cursor:default;font-size:8px;fill:#000000;" text-anchor="start" transform="translate(0,0)" y="20" opacity="1">20 %</text></g><g class="highcharts-control-points" data-z-index="99" clip-path="url(#highcharts-tdglzai-3130-)"></g></svg>