<svg xmlns:xlink="http://www.w3.org/1999/xlink" version="1.1" class="highcharts-root" style="font-family:Open Sans, sans-serif;font-size:12px;color:#000000;fill:#000000;" xmlns="http://www.w3.org/2000/svg" width="480" height="227" viewBox="0 0 480 227"><desc>Created with Highcharts 9.2.2</desc><defs><clipPath id="highcharts-xy6imbe-940-"><rect x="0" y="0" width="384" height="146" fill="none"></rect></clipPath><clipPath id="highcharts-xy6imbe-966-"><rect x="0" y="0" width="384" height="146" fill="none"></rect></clipPath><clipPath id="highcharts-xy6imbe-1017-"><rect x="48" y="16" width="384" height="146" fill="none"></rect></clipPath></defs><rect fill="#ffffff" class="highcharts-background" x="0" y="0" width="480" height="227" rx="0" ry="0"></rect><rect fill="#ffffff" class="highcharts-plot-background" x="48" y="16" width="384" height="146"></rect><g class="highcharts-pane-group" data-z-index="0"></g><g class="highcharts-plot-lines-0" data-z-index="0"><path fill="none" class="highcharts-plot-line "></path></g><g class="highcharts-plot-lines-0" data-z-index="0"><path fill="none" class="highcharts-plot-line " stroke="#000000" stroke-width="0.25" d="M 48 162.125 L 432 162.125"></path></g><g class="highcharts-plot-lines-0" data-z-index="0"><path fill="none" class="highcharts-plot-line " stroke="#000000" stroke-width="0.25" d="M 48 162.125 L 432 162.125"></path></g><rect fill="none" class="highcharts-plot-border" data-z-index="1" x="48" y="16" width="384" height="146"></rect><g class="highcharts-grid highcharts-xaxis-grid" data-z-index="1"><path fill="none" stroke-dasharray="none" data-z-index="1" class="highcharts-grid-line" d="M 118.5 16 L 118.5 162" opacity="1"></path><path fill="none" stroke-dasharray="none" data-z-index="1" class="highcharts-grid-line" d="M 239.5 16 L 239.5 162" opacity="1"></path><path fill="none" stroke-dasharray="none" data-z-index="1" class="highcharts-grid-line" d="M 360.5 16 L 360.5 162" opacity="1"></path></g><g class="highcharts-grid highcharts-yaxis-grid" data-z-index="1"><path fill="none" stroke-dasharray="none" data-z-index="1" class="highcharts-grid-line" d="M 48 162.5 L 432 162.5" opacity="1"></path><path fill="none" stroke-dasharray="none" data-z-index="1" class="highcharts-grid-line" d="M 48 147.5 L 432 147.5" opacity="1"></path><path fill="none" stroke-dasharray="none" data-z-index="1" class="highcharts-grid-line" d="M 48 133.5 L 432 133.5" opacity="1"></path><path fill="none" stroke-dasharray="none" data-z-index="1" class="highcharts-grid-line" d="M 48 118.5 L 432 118.5" opacity="1"></path><path fill="none" stroke-dasharray="none" data-z-index="1" class="highcharts-grid-line" d="M 48 104.5 L 432 104.5" opacity="1"></path><path fill="none" stroke-dasharray="none" data-z-index="1" class="highcharts-grid-line" d="M 48 89.5 L 432 89.5" opacity="1"></path><path fill="none" stroke-dasharray="none" data-z-index="1" class="highcharts-grid-line" d="M 48 74.5 L 432 74.5" opacity="1"></path><path fill="none" stroke-dasharray="none" data-z-index="1" class="highcharts-grid-line" d="M 48 60.5 L 432 60.5" opacity="1"></path><path fill="none" stroke-dasharray="none" data-z-index="1" class="highcharts-grid-line" d="M 48 45.5 L 432 45.5" opacity="1"></path><path fill="none" stroke-dasharray="none" data-z-index="1" class="highcharts-grid-line" d="M 48 31.5 L 432 31.5" opacity="1"></path><path fill="none" stroke-dasharray="none" data-z-index="1" class="highcharts-grid-line" d="M 48 16.5 L 432 16.5" opacity="1"></path></g><g class="highcharts-grid highcharts-yaxis-grid" data-z-index="1"><path fill="none" stroke-dasharray="none" data-z-index="1" class="highcharts-grid-line" d="M 48 162.5 L 432 162.5" opacity="1"></path><path fill="none" stroke-dasharray="none" data-z-index="1" class="highcharts-grid-line" d="M 48 147.5 L 432 147.5" opacity="1"></path><path fill="none" stroke-dasharray="none" data-z-index="1" class="highcharts-grid-line" d="M 48 133.5 L 432 133.5" opacity="1"></path><path fill="none" stroke-dasharray="none" data-z-index="1" class="highcharts-grid-line" d="M 48 118.5 L 432 118.5" opacity="1"></path><path fill="none" stroke-dasharray="none" data-z-index="1" class="highcharts-grid-line" d="M 48 104.5 L 432 104.5" opacity="1"></path><path fill="none" stroke-dasharray="none" data-z-index="1" class="highcharts-grid-line" d="M 48 89.5 L 432 89.5" opacity="1"></path><path fill="none" stroke-dasharray="none" data-z-index="1" class="highcharts-grid-line" d="M 48 74.5 L 432 74.5" opacity="1"></path><path fill="none" stroke-dasharray="none" data-z-index="1" class="highcharts-grid-line" d="M 48 60.5 L 432 60.5" opacity="1"></path><path fill="none" stroke-dasharray="none" data-z-index="1" class="highcharts-grid-line" d="M 48 45.5 L 432 45.5" opacity="1"></path><path fill="none" stroke-dasharray="none" data-z-index="1" class="highcharts-grid-line" d="M 48 31.5 L 432 31.5" opacity="1"></path><path fill="none" stroke-dasharray="none" data-z-index="1" class="highcharts-grid-line" d="M 48 16.5 L 432 16.5" opacity="1"></path></g><g class="highcharts-axis highcharts-xaxis" data-z-index="2"><path fill="none" class="highcharts-axis-line" stroke="#000000" stroke-width="0.25" data-z-index="7" d="M 48 162.125 L 432 162.125"></path></g><g class="highcharts-axis highcharts-yaxis" data-z-index="2"><path fill="none" class="highcharts-tick" stroke="#000000" stroke-width="0.25" d="M 48 162.125 L 58 162.125" opacity="1"></path><path fill="none" class="highcharts-tick" stroke="#000000" stroke-width="0.25" d="M 48 147.125 L 58 147.125" opacity="1"></path><path fill="none" class="highcharts-tick" stroke="#000000" stroke-width="0.25" d="M 48 133.125 L 58 133.125" opacity="1"></path><path fill="none" class="highcharts-tick" stroke="#000000" stroke-width="0.25" d="M 48 118.125 L 58 118.125" opacity="1"></path><path fill="none" class="highcharts-tick" stroke="#000000" stroke-width="0.25" d="M 48 104.125 L 58 104.125" opacity="1"></path><path fill="none" class="highcharts-tick" stroke="#000000" stroke-width="0.25" d="M 48 89.125 L 58 89.125" opacity="1"></path><path fill="none" class="highcharts-tick" stroke="#000000" stroke-width="0.25" d="M 48 74.125 L 58 74.125" opacity="1"></path><path fill="none" class="highcharts-tick" stroke="#000000" stroke-width="0.25" d="M 48 60.125 L 58 60.125" opacity="1"></path><path fill="none" class="highcharts-tick" stroke="#000000" stroke-width="0.25" d="M 48 45.125 L 58 45.125" opacity="1"></path><path fill="none" class="highcharts-tick" stroke="#000000" stroke-width="0.25" d="M 48 31.125 L 58 31.125" opacity="1"></path><path fill="none" class="highcharts-tick" stroke="#000000" stroke-width="0.25" d="M 48 15.875 L 58 15.875" opacity="1"></path><path fill="none" class="highcharts-axis-line" stroke="#000000" stroke-width="0.25" data-z-index="7" d="M 47.875 16 L 47.875 162"></path></g><g class="highcharts-axis highcharts-yaxis" data-z-index="2"><path fill="none" class="highcharts-tick" stroke="#000000" stroke-width="0.25" d="M 432 162.125 L 422 162.125" opacity="1"></path><path fill="none" class="highcharts-tick" stroke="#000000" stroke-width="0.25" d="M 432 147.125 L 422 147.125" opacity="1"></path><path fill="none" class="highcharts-tick" stroke="#000000" stroke-width="0.25" d="M 432 133.125 L 422 133.125" opacity="1"></path><path fill="none" class="highcharts-tick" stroke="#000000" stroke-width="0.25" d="M 432 118.125 L 422 118.125" opacity="1"></path><path fill="none" class="highcharts-tick" stroke="#000000" stroke-width="0.25" d="M 432 104.125 L 422 104.125" opacity="1"></path><path fill="none" class="highcharts-tick" stroke="#000000" stroke-width="0.25" d="M 432 89.125 L 422 89.125" opacity="1"></path><path fill="none" class="highcharts-tick" stroke="#000000" stroke-width="0.25" d="M 432 74.125 L 422 74.125" opacity="1"></path><path fill="none" class="highcharts-tick" stroke="#000000" stroke-width="0.25" d="M 432 60.125 L 422 60.125" opacity="1"></path><path fill="none" class="highcharts-tick" stroke="#000000" stroke-width="0.25" d="M 432 45.125 L 422 45.125" opacity="1"></path><path fill="none" class="highcharts-tick" stroke="#000000" stroke-width="0.25" d="M 432 31.125 L 422 31.125" opacity="1"></path><path fill="none" class="highcharts-tick" stroke="#000000" stroke-width="0.25" d="M 432 15.875 L 422 15.875" opacity="1"></path><path fill="none" class="highcharts-axis-line" stroke="#000000" stroke-width="0.25" data-z-index="7" d="M 432.125 16 L 432.125 162"></path></g><g class="highcharts-series-group" data-z-index="3"><g class="highcharts-series highcharts-series-0 highcharts-line-series highcharts-color-0" data-z-index="0.1" opacity="1" transform="translate(48,16) scale(1 1)" clip-path="url(#highcharts-xy6imbe-940-)"><path fill="none" d="M 11.04860179548 53.509 L 25.90774945826 61.393 L 40.931998761738 51.61099999999999 L 56.121349705913 59.42200000000001 L 71.310700650088 50.370000000000005 L 86.334949953565 32.485 L 101.35919925704 52.414000000000016 L 116.54855020122 45.40599999999999 L 131.73790114539 44.238 L 146.59704880817 46.135999999999996 L 161.62129811165 49.348 L 176.81064905582 54.531000000000006 L 192 54.458 L 206.85914766278 57.742999999999995 L 221.88339696626 44.238 L 237.07274791043 47.012 L 252.26209885461 50.95400000000001 L 267.12124651739 47.45 L 282.14549582086 32.120000000000005 L 297.33484676504 35.769999999999996 L 312.52419770921 36.5 L 327.54844701269 45.260000000000005 L 342.57269631617 39.42 L 357.76204726034 34.31 L 372.95139820452 29.200000000000003" class="highcharts-graph" data-z-index="1" stroke="#4156A6" stroke-width="2" stroke-linejoin="round" stroke-linecap="round"></path></g><g class="highcharts-markers highcharts-series-0 highcharts-line-series highcharts-color-0" data-z-index="0.1" opacity="1" transform="translate(48,16) scale(1 1)" clip-path="none"></g><g class="highcharts-series highcharts-series-1 highcharts-column-series" data-z-index="0.1" opacity="1" transform="translate(48,16) scale(1 1)" clip-path="url(#highcharts-xy6imbe-940-)"><rect x="68" y="74" width="8" height="22" fill="#c8d5ed" opacity="1" class="highcharts-point"></rect><rect x="83" y="74" width="8" height="22" fill="#c8d5ed" opacity="1" class="highcharts-point"></rect><rect x="98" y="74" width="8" height="22" fill="#c8d5ed" opacity="1" class="highcharts-point"></rect><rect x="113" y="74" width="8" height="22" fill="#c8d5ed" opacity="1" class="highcharts-point"></rect><rect x="128" y="74" width="8" height="15" fill="#c8d5ed" opacity="1" class="highcharts-point"></rect><rect x="143" y="74" width="8" height="15" fill="#c8d5ed" opacity="1" class="highcharts-point"></rect><rect x="158" y="74" width="8" height="15" fill="#c8d5ed" opacity="1" class="highcharts-point"></rect><rect x="173" y="74" width="8" height="15" fill="#c8d5ed" opacity="1" class="highcharts-point"></rect></g><g class="highcharts-markers highcharts-series-1 highcharts-column-series" data-z-index="0.1" opacity="1" transform="translate(48,16) scale(1 1)" clip-path="none"></g><g class="highcharts-series highcharts-series-2 highcharts-column-series" data-z-index="0.1" opacity="1" transform="translate(48,16) scale(1 1)" clip-path="url(#highcharts-xy6imbe-940-)"><rect x="68" y="96" width="8" height="51" fill="#5b91cc" opacity="1" class="highcharts-point"></rect><rect x="83" y="96" width="8" height="51" fill="#5b91cc" opacity="1" class="highcharts-point"></rect><rect x="98" y="96" width="8" height="51" fill="#5b91cc" opacity="1" class="highcharts-point"></rect><rect x="113" y="96" width="8" height="51" fill="#5b91cc" opacity="1" class="highcharts-point"></rect><rect x="128" y="89" width="8" height="58" fill="#5b91cc" opacity="1" class="highcharts-point"></rect><rect x="143" y="89" width="8" height="58" fill="#5b91cc" opacity="1" class="highcharts-point"></rect><rect x="158" y="89" width="8" height="58" fill="#5b91cc" opacity="1" class="highcharts-point"></rect><rect x="173" y="89" width="8" height="58" fill="#5b91cc" opacity="1" class="highcharts-point"></rect><rect x="188" y="74" width="8" height="73" fill="#5b91cc" opacity="1" class="highcharts-point"></rect><rect x="203" y="74" width="8" height="73" fill="#5b91cc" opacity="1" class="highcharts-point"></rect><rect x="218" y="74" width="8" height="73" fill="#5b91cc" opacity="1" class="highcharts-point"></rect><rect x="234" y="74" width="8" height="73" fill="#5b91cc" opacity="1" class="highcharts-point"></rect><rect x="249" y="74" width="8" height="73" fill="#5b91cc" opacity="1" class="highcharts-point"></rect><rect x="264" y="74" width="8" height="73" fill="#5b91cc" opacity="1" class="highcharts-point"></rect><rect x="279" y="74" width="8" height="73" fill="#5b91cc" opacity="1" class="highcharts-point"></rect><rect x="294" y="74" width="8" height="73" fill="#5b91cc" opacity="1" class="highcharts-point"></rect><rect x="309" y="74" width="8" height="73" fill="#5b91cc" opacity="1" class="highcharts-point"></rect><rect x="324" y="74" width="8" height="73" fill="#5b91cc" opacity="1" class="highcharts-point"></rect><rect x="339" y="74" width="8" height="73" fill="#5b91cc" opacity="1" class="highcharts-point"></rect><rect x="354" y="74" width="8" height="73" fill="#5b91cc" opacity="1" class="highcharts-point"></rect><rect x="369" y="74" width="8" height="73" fill="#5b91cc" opacity="1" class="highcharts-point"></rect></g><g class="highcharts-markers highcharts-series-2 highcharts-column-series" data-z-index="0.1" opacity="1" transform="translate(48,16) scale(1 1)" clip-path="none"></g></g><text x="13" text-anchor="start" class="highcharts-title" data-z-index="4" style="color:#333333;font-size:20px;fill:#333333;" y="31"></text><text x="13" text-anchor="start" class="highcharts-subtitle" data-z-index="4" style="color:#000000;font-size:20px;fill:#000000;" y="36"></text><text x="13" text-anchor="start" class="highcharts-caption" data-z-index="4" style="color:#666666;font-size:16px;fill:#666666;" y="230"></text><g class="highcharts-legend highcharts-no-tooltip" data-z-index="7" transform="translate(43,193)"><rect fill="none" class="highcharts-legend-box" rx="0" ry="0" x="0" y="0" width="393" height="22" visibility="visible"></rect><g data-z-index="1"><g><g class="highcharts-legend-item highcharts-line-series highcharts-color-0 highcharts-series-0" data-z-index="1" transform="translate(8,3)"><path fill="none" d="M 0 8 L 16 8" class="highcharts-graph" stroke="#4156A6" stroke-width="2"></path><text x="21" y="11" style="color:#000000;cursor:pointer;font-size:8px;font-weight:normal;fill:#000000;" text-anchor="start" data-z-index="2">Faktisk likviditetsreserve</text></g><g class="highcharts-legend-item highcharts-column-series highcharts-color-undefined highcharts-series-1" data-z-index="1" transform="translate(139.71875,3)"><text x="21" y="11" style="color:#000000;cursor:pointer;font-size:8px;font-weight:normal;fill:#000000;" text-anchor="start" data-z-index="2">Krav for systemviktige banker</text><rect x="4" y="4" width="8" height="8" fill="#c8d5ed" class="highcharts-point" data-z-index="3"></rect></g><g class="highcharts-legend-item highcharts-column-series highcharts-color-undefined highcharts-series-2" data-z-index="1" transform="translate(291.390625,3)"><text x="21" y="11" style="color:#000000;cursor:pointer;font-size:8px;font-weight:normal;fill:#000000;" text-anchor="start" data-z-index="2">Krav for alle banker</text><rect x="4" y="4" width="8" height="8" fill="#5b91cc" class="highcharts-point" data-z-index="3"></rect></g></g></g></g><g class="highcharts-axis-labels highcharts-xaxis-labels" data-z-index="7"><text x="119.47580229079" style="color:#000000;cursor:default;font-size:8px;fill:#000000;" text-anchor="middle" transform="translate(0,0)" y="179" opacity="1">2016</text><text x="240.1651016407" style="color:#000000;cursor:default;font-size:8px;fill:#000000;" text-anchor="middle" transform="translate(0,0)" y="179" opacity="1">2018</text><text x="360.68929934991" style="color:#000000;cursor:default;font-size:8px;fill:#000000;" text-anchor="middle" transform="translate(0,0)" y="179" opacity="1">2020</text></g><g class="highcharts-axis-labels highcharts-yaxis-labels" data-z-index="7"><text x="33" style="color:#000000;cursor:default;font-size:8px;fill:#000000;" text-anchor="end" transform="translate(0,0)" y="165" opacity="1">0%</text><text x="33" style="color:#000000;cursor:default;font-size:8px;fill:#000000;" text-anchor="end" transform="translate(0,0)" y="151" opacity="1">20%</text><text x="33" style="color:#000000;cursor:default;font-size:8px;fill:#000000;" text-anchor="end" transform="translate(0,0)" y="136" opacity="1">40%</text><text x="33" style="color:#000000;cursor:default;font-size:8px;fill:#000000;" text-anchor="end" transform="translate(0,0)" y="122" opacity="1">60%</text><text x="33" style="color:#000000;cursor:default;font-size:8px;fill:#000000;" text-anchor="end" transform="translate(0,0)" y="107" opacity="1">80%</text><text x="33" style="color:#000000;cursor:default;font-size:8px;fill:#000000;" text-anchor="end" transform="translate(0,0)" y="92" opacity="1">100%</text><text x="33" style="color:#000000;cursor:default;font-size:8px;fill:#000000;" text-anchor="end" transform="translate(0,0)" y="78" opacity="1">120%</text><text x="33" style="color:#000000;cursor:default;font-size:8px;fill:#000000;" text-anchor="end" transform="translate(0,0)" y="63" opacity="1">140%</text><text x="33" style="color:#000000;cursor:default;font-size:8px;fill:#000000;" text-anchor="end" transform="translate(0,0)" y="49" opacity="1">160%</text><text x="33" style="color:#000000;cursor:default;font-size:8px;fill:#000000;" text-anchor="end" transform="translate(0,0)" y="34" opacity="1">180%</text><text x="33" style="color:#000000;cursor:default;font-size:8px;fill:#000000;" text-anchor="end" transform="translate(0,0)" y="19" opacity="1">200%</text></g><g class="highcharts-axis-labels highcharts-yaxis-labels" data-z-index="7"><text x="447" style="color:#000000;cursor:default;font-size:8px;fill:#000000;" text-anchor="start" transform="translate(0,0)" y="165" opacity="1">0%</text><text x="447" style="color:#000000;cursor:default;font-size:8px;fill:#000000;" text-anchor="start" transform="translate(0,0)" y="151" opacity="1">20%</text><text x="447" style="color:#000000;cursor:default;font-size:8px;fill:#000000;" text-anchor="start" transform="translate(0,0)" y="136" opacity="1">40%</text><text x="447" style="color:#000000;cursor:default;font-size:8px;fill:#000000;" text-anchor="start" transform="translate(0,0)" y="122" opacity="1">60%</text><text x="447" style="color:#000000;cursor:default;font-size:8px;fill:#000000;" text-anchor="start" transform="translate(0,0)" y="107" opacity="1">80%</text><text x="447" style="color:#000000;cursor:default;font-size:8px;fill:#000000;" text-anchor="start" transform="translate(0,0)" y="92" opacity="1">100%</text><text x="447" style="color:#000000;cursor:default;font-size:8px;fill:#000000;" text-anchor="start" transform="translate(0,0)" y="78" opacity="1">120%</text><text x="447" style="color:#000000;cursor:default;font-size:8px;fill:#000000;" text-anchor="start" transform="translate(0,0)" y="63" opacity="1">140%</text><text x="447" style="color:#000000;cursor:default;font-size:8px;fill:#000000;" text-anchor="start" transform="translate(0,0)" y="49" opacity="1">160%</text><text x="447" style="color:#000000;cursor:default;font-size:8px;fill:#000000;" text-anchor="start" transform="translate(0,0)" y="34" opacity="1">180%</text><text x="447" style="color:#000000;cursor:default;font-size:8px;fill:#000000;" text-anchor="start" transform="translate(0,0)" y="19" opacity="1">200%</text></g><g class="highcharts-control-points" data-z-index="99" clip-path="url(#highcharts-xy6imbe-1017-)"></g></svg>