<svg xmlns:xlink="http://www.w3.org/1999/xlink" version="1.1" class="highcharts-root" style="font-family:Open Sans, sans-serif;font-size:12px;color:#000000;fill:#000000;" xmlns="http://www.w3.org/2000/svg" width="480" height="227" viewBox="0 0 480 227"><desc>Created with Highcharts 9.2.2</desc><defs><clipPath id="highcharts-asbyhjd-133-"><rect x="0" y="0" width="454" height="199" fill="none"></rect></clipPath><clipPath id="highcharts-asbyhjd-135-"><rect x="13" y="16" width="454" height="199" fill="none"></rect></clipPath></defs><rect fill="#ffffff" class="highcharts-background" x="0" y="0" width="480" height="227" rx="0" ry="0"></rect><rect fill="#ffffff" class="highcharts-plot-background" x="13" y="16" width="454" height="199"></rect><g class="highcharts-pane-group" data-z-index="0"></g><rect fill="none" class="highcharts-plot-border" data-z-index="1" x="13" y="16" width="454" height="199"></rect><g class="highcharts-series-group" data-z-index="3"><g class="highcharts-series highcharts-series-0 highcharts-pie-series" data-z-index="0.1" opacity="1" transform="translate(13,16) scale(1 1)"><path fill="#4156A6" d="M 226.98513185613027 10.000001514121266 A 73 73 0 0 1 237.82209430949416 155.19336724905145 L 227 83 A 0 0 0 0 0 227 83 Z" transform="translate(0,0)" stroke="#ffffff" stroke-width="5" opacity="1" stroke-linejoin="round" class="highcharts-point highcharts-color-0"></path><path fill="#F15D61" d="M 237.74989554323065 155.20415324487664 A 73 73 0 0 1 159.47033884024114 110.72624864001901 L 227 83 A 0 0 0 0 0 227 83 Z" transform="translate(0,0)" stroke="#ffffff" stroke-width="5" opacity="1" stroke-linejoin="round" class="highcharts-point highcharts-color-1"></path><path fill="#969497" d="M 159.44264636104992 110.65870512699104 A 73 73 0 0 1 226.8986044645208 10.000070418216254 L 227 83 A 0 0 0 0 0 227 83 Z" transform="translate(0,0)" stroke="#ffffff" stroke-width="5" opacity="1" stroke-linejoin="round" class="highcharts-point highcharts-color-2"></path></g><g class="highcharts-markers highcharts-series-0 highcharts-pie-series" data-z-index="0.1" opacity="1" transform="translate(13,16) scale(1 1)"></g></g><text x="13" text-anchor="start" class="highcharts-title" data-z-index="4" style="color:#333333;font-size:20px;fill:#333333;" y="31"></text><text x="13" text-anchor="start" class="highcharts-subtitle" data-z-index="4" style="color:#000000;font-size:20px;fill:#000000;" y="36"></text><text x="13" text-anchor="start" class="highcharts-caption" data-z-index="4" style="color:#666666;font-size:16px;fill:#666666;" y="230"></text><g class="highcharts-data-labels highcharts-series-0 highcharts-pie-series" data-z-index="6" opacity="1" transform="translate(13,16) scale(1 1)"><path fill="none" class="highcharts-data-label-connector highcharts-color-0" stroke="#4156A6" stroke-width="1" d="M 334.7170354507228 75.37041100615794 C 329.7170354507228 75.37041100615794 311.7664855661304 76.70373723809149 305.782968937933 77.14817931540269 L 299.79945230973556 77.59262139271388"></path><path fill="none" class="highcharts-data-label-connector highcharts-color-1" stroke="#F15D61" stroke-width="1" d="M 171.1083577009598 172.54909683579473 C 176.1083577009598 172.54909683579473 185.00204276292806 156.89974010720925 187.96660445025077 151.68328786434742 L 190.93116613757348 146.4668356214856"></path><path fill="none" class="highcharts-data-label-connector highcharts-color-2" stroke="#969497" stroke-width="1" d="M 136.4666462106871 25.614937574729197 C 141.4666462106871 25.614937574729197 156.41422260105244 35.64339508594157 161.39674806450756 38.9862142563457 L 166.37927352796268 42.329033426749824"></path><g class="highcharts-label highcharts-data-label highcharts-data-label-color-0" data-z-index="1" transform="translate(340,65)"><text x="5" data-z-index="1" y="16" style="color:#000000;font-size:11px;font-weight:bold;fill:#000000;"><tspan class="highcharts-text-outline" fill="#FFFFFF" stroke="#FFFFFF" stroke-width="2px" stroke-linejoin="round" style="">OMF<tspan x="5" y="16">​</tspan></tspan>OMF</text></g><g class="highcharts-label highcharts-data-label highcharts-data-label-color-1" data-z-index="1" transform="translate(72,163)"><text x="5" data-z-index="1" y="16" style="color:#000000;font-size:11px;font-weight:bold;fill:#000000;"><tspan class="highcharts-text-outline" fill="#FFFFFF" stroke="#FFFFFF" stroke-width="2px" stroke-linejoin="round">Statspapirer og<tspan dy="14" x="5">​</tspan>sentralbank-<tspan dy="14" x="5">​</tspan>innskudd<tspan x="5" y="16">​</tspan></tspan>Statspapirer og<tspan dy="14" x="5">​</tspan>sentralbank-<tspan dy="14" x="5">​</tspan>innskudd</text></g><g class="highcharts-label highcharts-data-label highcharts-data-label-color-2" data-z-index="1" transform="translate(87,16)"><text x="5" data-z-index="1" y="16" style="color:#000000;font-size:11px;font-weight:bold;fill:#000000;"><tspan class="highcharts-text-outline" fill="#FFFFFF" stroke="#FFFFFF" stroke-width="2px" stroke-linejoin="round" style="">Annet<tspan x="5" y="16">​</tspan></tspan>Annet</text></g></g><g class="highcharts-control-points" data-z-index="99" clip-path="url(#highcharts-asbyhjd-135-)"></g></svg>