<svg xmlns:xlink="http://www.w3.org/1999/xlink" version="1.1" class="highcharts-root" style="font-family:Open Sans, sans-serif;font-size:12px;color:#000000;fill:#000000;" xmlns="http://www.w3.org/2000/svg" width="480" height="227" viewBox="0 0 480 227"><desc>Created with Highcharts 9.2.2</desc><defs><clipPath id="highcharts-qcmehaq-3905-"><rect x="0" y="0" width="406" height="146" fill="none"></rect></clipPath><clipPath id="highcharts-qcmehaq-3939-"><rect x="0" y="0" width="406" height="146" fill="none"></rect></clipPath><clipPath id="highcharts-qcmehaq-4006-"><rect x="37" y="16" width="406" height="146" fill="none"></rect></clipPath></defs><rect fill="#ffffff" class="highcharts-background" x="0" y="0" width="480" height="227" rx="0" ry="0"></rect><rect fill="#ffffff" class="highcharts-plot-background" x="37" y="16" width="406" height="146"></rect><g class="highcharts-pane-group" data-z-index="0"></g><g class="highcharts-plot-lines-0" data-z-index="0"><path fill="none" class="highcharts-plot-line "></path></g><g class="highcharts-plot-lines-0" data-z-index="0"><path fill="none" class="highcharts-plot-line " stroke="#000000" stroke-width="0.25" d="M 37 162.125 L 443 162.125"></path></g><g class="highcharts-plot-lines-0" data-z-index="0"><path fill="none" class="highcharts-plot-line " stroke="#000000" stroke-width="0.25" d="M 37 162.125 L 443 162.125"></path></g><rect fill="none" class="highcharts-plot-border" data-z-index="1" x="37" y="16" width="406" height="146"></rect><g class="highcharts-grid highcharts-xaxis-grid" data-z-index="1"><path fill="none" stroke-dasharray="none" data-z-index="1" class="highcharts-grid-line" d="M 46.5 16 L 46.5 162" opacity="1"></path><path fill="none" stroke-dasharray="none" data-z-index="1" class="highcharts-grid-line" d="M 142.5 16 L 142.5 162" opacity="1"></path><path fill="none" stroke-dasharray="none" data-z-index="1" class="highcharts-grid-line" d="M 239.5 16 L 239.5 162" opacity="1"></path><path fill="none" stroke-dasharray="none" data-z-index="1" class="highcharts-grid-line" d="M 336.5 16 L 336.5 162" opacity="1"></path><path fill="none" stroke-dasharray="none" data-z-index="1" class="highcharts-grid-line" d="M 432.5 16 L 432.5 162" opacity="1"></path></g><g class="highcharts-grid highcharts-yaxis-grid" data-z-index="1"><path fill="none" stroke-dasharray="none" data-z-index="1" class="highcharts-grid-line" d="M 37 162.5 L 443 162.5" opacity="1"></path><path fill="none" stroke-dasharray="none" data-z-index="1" class="highcharts-grid-line" d="M 37 141.5 L 443 141.5" opacity="1"></path><path fill="none" stroke-dasharray="none" data-z-index="1" class="highcharts-grid-line" d="M 37 120.5 L 443 120.5" opacity="1"></path><path fill="none" stroke-dasharray="none" data-z-index="1" class="highcharts-grid-line" d="M 37 99.5 L 443 99.5" opacity="1"></path><path fill="none" stroke-dasharray="none" data-z-index="1" class="highcharts-grid-line" d="M 37 79.5 L 443 79.5" opacity="1"></path><path fill="none" stroke-dasharray="none" data-z-index="1" class="highcharts-grid-line" d="M 37 58.5 L 443 58.5" opacity="1"></path><path fill="none" stroke-dasharray="none" data-z-index="1" class="highcharts-grid-line" d="M 37 37.5 L 443 37.5" opacity="1"></path><path fill="none" stroke-dasharray="none" data-z-index="1" class="highcharts-grid-line" d="M 37 16.5 L 443 16.5" opacity="1"></path></g><g class="highcharts-grid highcharts-yaxis-grid" data-z-index="1"><path fill="none" stroke-dasharray="none" data-z-index="1" class="highcharts-grid-line" d="M 37 162.5 L 443 162.5" opacity="1"></path><path fill="none" stroke-dasharray="none" data-z-index="1" class="highcharts-grid-line" d="M 37 141.5 L 443 141.5" opacity="1"></path><path fill="none" stroke-dasharray="none" data-z-index="1" class="highcharts-grid-line" d="M 37 120.5 L 443 120.5" opacity="1"></path><path fill="none" stroke-dasharray="none" data-z-index="1" class="highcharts-grid-line" d="M 37 99.5 L 443 99.5" opacity="1"></path><path fill="none" stroke-dasharray="none" data-z-index="1" class="highcharts-grid-line" d="M 37 79.5 L 443 79.5" opacity="1"></path><path fill="none" stroke-dasharray="none" data-z-index="1" class="highcharts-grid-line" d="M 37 58.5 L 443 58.5" opacity="1"></path><path fill="none" stroke-dasharray="none" data-z-index="1" class="highcharts-grid-line" d="M 37 37.5 L 443 37.5" opacity="1"></path><path fill="none" stroke-dasharray="none" data-z-index="1" class="highcharts-grid-line" d="M 37 16.5 L 443 16.5" opacity="1"></path></g><g class="highcharts-axis highcharts-xaxis" data-z-index="2"><path fill="none" class="highcharts-axis-line" stroke="#000000" stroke-width="0.25" data-z-index="7" d="M 37 162.125 L 443 162.125"></path></g><g class="highcharts-axis highcharts-yaxis" data-z-index="2"><path fill="none" class="highcharts-tick" stroke="#000000" stroke-width="0.25" d="M 37 162.125 L 47 162.125" opacity="1"></path><path fill="none" class="highcharts-tick" stroke="#000000" stroke-width="0.25" d="M 37 141.125 L 47 141.125" opacity="1"></path><path fill="none" class="highcharts-tick" stroke="#000000" stroke-width="0.25" d="M 37 120.125 L 47 120.125" opacity="1"></path><path fill="none" class="highcharts-tick" stroke="#000000" stroke-width="0.25" d="M 37 99.125 L 47 99.125" opacity="1"></path><path fill="none" class="highcharts-tick" stroke="#000000" stroke-width="0.25" d="M 37 79.125 L 47 79.125" opacity="1"></path><path fill="none" class="highcharts-tick" stroke="#000000" stroke-width="0.25" d="M 37 58.125 L 47 58.125" opacity="1"></path><path fill="none" class="highcharts-tick" stroke="#000000" stroke-width="0.25" d="M 37 37.125 L 47 37.125" opacity="1"></path><path fill="none" class="highcharts-tick" stroke="#000000" stroke-width="0.25" d="M 37 15.875 L 47 15.875" opacity="1"></path><path fill="none" class="highcharts-axis-line" stroke="#000000" stroke-width="0.25" data-z-index="7" d="M 36.875 16 L 36.875 162"></path></g><g class="highcharts-axis highcharts-yaxis" data-z-index="2"><path fill="none" class="highcharts-tick" stroke="#000000" stroke-width="0.25" d="M 443 162.125 L 433 162.125" opacity="1"></path><path fill="none" class="highcharts-tick" stroke="#000000" stroke-width="0.25" d="M 443 141.125 L 433 141.125" opacity="1"></path><path fill="none" class="highcharts-tick" stroke="#000000" stroke-width="0.25" d="M 443 120.125 L 433 120.125" opacity="1"></path><path fill="none" class="highcharts-tick" stroke="#000000" stroke-width="0.25" d="M 443 99.125 L 433 99.125" opacity="1"></path><path fill="none" class="highcharts-tick" stroke="#000000" stroke-width="0.25" d="M 443 79.125 L 433 79.125" opacity="1"></path><path fill="none" class="highcharts-tick" stroke="#000000" stroke-width="0.25" d="M 443 58.125 L 433 58.125" opacity="1"></path><path fill="none" class="highcharts-tick" stroke="#000000" stroke-width="0.25" d="M 443 37.125 L 433 37.125" opacity="1"></path><path fill="none" class="highcharts-tick" stroke="#000000" stroke-width="0.25" d="M 443 15.875 L 433 15.875" opacity="1"></path><path fill="none" class="highcharts-axis-line" stroke="#000000" stroke-width="0.25" data-z-index="7" d="M 443.125 16 L 443.125 162"></path></g><g class="highcharts-series-group" data-z-index="3"><g class="highcharts-series highcharts-series-2 highcharts-column-series" data-z-index="0.1" opacity="1" transform="translate(37,16) scale(1 1)" clip-path="url(#highcharts-qcmehaq-3905-)"><rect x="6.5" y="146.5" width="6" height="0" fill="#5b91cc" stroke="#ffffff" stroke-width="1" opacity="1" class="highcharts-point"></rect><rect x="18.5" y="146.5" width="6" height="0" fill="#5b91cc" stroke="#ffffff" stroke-width="1" opacity="1" class="highcharts-point"></rect><rect x="30.5" y="145.5" width="6" height="1" fill="#5b91cc" stroke="#ffffff" stroke-width="1" opacity="1" class="highcharts-point"></rect><rect x="42.5" y="145.5" width="6" height="1" fill="#5b91cc" stroke="#ffffff" stroke-width="1" opacity="1" class="highcharts-point"></rect><rect x="54.5" y="143.5" width="6" height="3" fill="#5b91cc" stroke="#ffffff" stroke-width="1" opacity="1" class="highcharts-point"></rect><rect x="66.5" y="140.5" width="6" height="6" fill="#5b91cc" stroke="#ffffff" stroke-width="1" opacity="1" class="highcharts-point"></rect><rect x="78.5" y="138.5" width="6" height="8" fill="#5b91cc" stroke="#ffffff" stroke-width="1" opacity="1" class="highcharts-point"></rect><rect x="90.5" y="131.5" width="6" height="15" fill="#5b91cc" stroke="#ffffff" stroke-width="1" opacity="1" class="highcharts-point"></rect><rect x="103.5" y="126.5" width="6" height="20" fill="#5b91cc" stroke="#ffffff" stroke-width="1" opacity="1" class="highcharts-point"></rect><rect x="115.5" y="119.5" width="6" height="27" fill="#5b91cc" stroke="#ffffff" stroke-width="1" opacity="1" class="highcharts-point"></rect><rect x="127.5" y="103.5" width="6" height="43" fill="#5b91cc" stroke="#ffffff" stroke-width="1" opacity="1" class="highcharts-point"></rect><rect x="139.5" y="95.5" width="6" height="51" fill="#5b91cc" stroke="#ffffff" stroke-width="1" opacity="1" class="highcharts-point"></rect><rect x="151.5" y="77.5" width="6" height="69" fill="#5b91cc" stroke="#ffffff" stroke-width="1" opacity="1" class="highcharts-point"></rect><rect x="163.5" y="78.5" width="6" height="68" fill="#5b91cc" stroke="#ffffff" stroke-width="1" opacity="1" class="highcharts-point"></rect><rect x="175.5" y="59.5" width="6" height="87" fill="#5b91cc" stroke="#ffffff" stroke-width="1" opacity="1" class="highcharts-point"></rect><rect x="187.5" y="66.5" width="6" height="80" fill="#5b91cc" stroke="#ffffff" stroke-width="1" opacity="1" class="highcharts-point"></rect><rect x="199.5" y="60.5" width="6" height="86" fill="#5b91cc" stroke="#ffffff" stroke-width="1" opacity="1" class="highcharts-point"></rect><rect x="211.5" y="52.5" width="6" height="94" fill="#5b91cc" stroke="#ffffff" stroke-width="1" opacity="1" class="highcharts-point"></rect><rect x="223.5" y="53.5" width="6" height="93" fill="#5b91cc" stroke="#ffffff" stroke-width="1" opacity="1" class="highcharts-point"></rect><rect x="235.5" y="53.5" width="6" height="93" fill="#5b91cc" stroke="#ffffff" stroke-width="1" opacity="1" class="highcharts-point"></rect><rect x="247.5" y="12.5" width="6" height="134" fill="#5b91cc" stroke="#ffffff" stroke-width="1" opacity="1" class="highcharts-point"></rect><rect x="259.5" y="129.5" width="6" height="17" fill="#5b91cc" stroke="#ffffff" stroke-width="1" opacity="1" class="highcharts-point"></rect><rect x="272.5" y="134.5" width="6" height="12" fill="#5b91cc" stroke="#ffffff" stroke-width="1" opacity="1" class="highcharts-point"></rect><rect x="284.5" y="135.5" width="6" height="11" fill="#5b91cc" stroke="#ffffff" stroke-width="1" opacity="1" class="highcharts-point"></rect><rect x="296.5" y="141.5" width="6" height="5" fill="#5b91cc" stroke="#ffffff" stroke-width="1" opacity="1" class="highcharts-point"></rect><rect x="308.5" y="141.5" width="6" height="5" fill="#5b91cc" stroke="#ffffff" stroke-width="1" opacity="1" class="highcharts-point"></rect><rect x="320.5" y="142.5" width="6" height="4" fill="#5b91cc" stroke="#ffffff" stroke-width="1" opacity="1" class="highcharts-point"></rect><rect x="332.5" y="145.5" width="6" height="1" fill="#5b91cc" stroke="#ffffff" stroke-width="1" opacity="1" class="highcharts-point"></rect><rect x="344.5" y="144.5" width="6" height="2" fill="#5b91cc" stroke="#ffffff" stroke-width="1" opacity="1" class="highcharts-point"></rect><rect x="356.5" y="145.5" width="6" height="1" fill="#5b91cc" stroke="#ffffff" stroke-width="1" opacity="1" class="highcharts-point"></rect><rect x="368.5" y="145.5" width="6" height="1" fill="#5b91cc" stroke="#ffffff" stroke-width="1" opacity="1" class="highcharts-point"></rect><rect x="380.5" y="146.5" width="6" height="0" fill="#5b91cc" stroke="#ffffff" stroke-width="1" opacity="1" class="highcharts-point"></rect><rect x="392.5" y="146.5" width="6" height="0" fill="#5b91cc" stroke="#ffffff" stroke-width="1" opacity="1" class="highcharts-point"></rect></g><g class="highcharts-markers highcharts-series-2 highcharts-column-series" data-z-index="0.1" opacity="1" transform="translate(37,16) scale(1 1)" clip-path="none"></g><g class="highcharts-series highcharts-series-1 highcharts-line-series" data-z-index="1" opacity="1" transform="translate(37,16) scale(1 1)" clip-path="url(#highcharts-qcmehaq-3905-)"><path fill="none" d="M 9.8965517241379 146 L 21.965517241379 145.8957142857143 L 34.034482758621 145.37428571428572 L 46.103448275862 144.43571428571428 L 58.172413793103 142.97571428571428 L 70.241379310345 140.89 L 82.310344827586 137.24 L 94.379310344828 133.38142857142856 L 106.44827586207 125.14285714285714 L 118.51724137931 118.46857142857142 L 130.58620689655 104.18142857142857 L 142.65517241379 92.60571428571428 L 154.72413793103 84.15857142857143 L 166.79310344828 74.56428571428572 L 178.86206896552 61.841428571428565 L 190.93103448276 50.68285714285713 L 203 56.00142857142856 L 215.06896551724 42.652857142857144 L 227.13793103448 47.34571428571428 L 239.20689655172 60.902857142857144 L 251.27586206897 20.127142857142857 L 263.34482758621 132.0257142857143 L 275.41379310345 138.28285714285715 L 287.48275862069 139.63857142857142 L 299.55172413793 139.53428571428572 L 311.62068965517 140.89 L 323.68965517241 144.01857142857142 L 335.75862068966 145.27 L 347.8275862069 144.22714285714287 L 359.89655172414 145.79142857142858 L 371.96551724138 144.12285714285713 L 384.03448275862 145.37428571428572 L 396.10344827586 144.95714285714286" class="highcharts-graph" data-z-index="1" stroke="#181c62" stroke-width="2" stroke-linejoin="round" stroke-linecap="round"></path></g><g class="highcharts-markers highcharts-series-1 highcharts-line-series" data-z-index="1" opacity="1" transform="translate(37,16) scale(1 1)" clip-path="none"></g><g class="highcharts-series highcharts-series-0 highcharts-line-series" data-z-index="2" opacity="1" transform="translate(37,16) scale(1 1)" clip-path="url(#highcharts-qcmehaq-3905-)"><path fill="none" d="M 9.8965517241379 146 L 21.965517241379 145.79142857142858 L 34.034482758621 144.74857142857144 L 46.103448275862 142.66285714285715 L 58.172413793103 141.30714285714285 L 70.241379310345 137.03142857142856 L 82.310344827586 130.87857142857143 L 94.379310344828 124.72571428571429 L 106.44827586207 116.48714285714286 L 118.51724137931 102.09571428571428 L 130.58620689655 90.83285714285714 L 142.65517241379 73.62571428571428 L 154.72413793103 71.33142857142857 L 166.79310344828 64.03142857142856 L 178.86206896552 63.71857142857144 L 190.93103448276 68.82857142857142 L 203 72.47857142857143 L 215.06896551724 74.98142857142858 L 227.13793103448 84.05428571428571 L 239.20689655172 84.26285714285714 L 251.27586206897 109.18714285714286 L 263.34482758621 112.31571428571428 L 275.41379310345 120.24142857142857 L 287.48275862069 123.16142857142857 L 299.55172413793 130.87857142857143 L 311.62068965517 133.06857142857143 L 323.68965517241 137.34428571428572 L 335.75862068966 141.20285714285714 L 347.8275862069 138.90857142857143 L 359.89655172414 139.74285714285713 L 371.96551724138 141.93285714285713 L 384.03448275862 141.82857142857142 L 396.10344827586 141.20285714285714" class="highcharts-graph" data-z-index="1" stroke="#f15d61" stroke-width="2" stroke-linejoin="round" stroke-linecap="round"></path></g><g class="highcharts-markers highcharts-series-0 highcharts-line-series" data-z-index="2" opacity="1" transform="translate(37,16) scale(1 1)" clip-path="none"></g></g><text x="13" text-anchor="start" class="highcharts-title" data-z-index="4" style="color:#333333;font-size:20px;fill:#333333;" y="31"></text><text x="13" text-anchor="start" class="highcharts-subtitle" data-z-index="4" style="color:#000000;font-size:20px;fill:#000000;" y="36"></text><text x="13" text-anchor="start" class="highcharts-caption" data-z-index="4" style="color:#666666;font-size:16px;fill:#666666;" y="230"></text><g class="highcharts-legend highcharts-no-tooltip" data-z-index="7" transform="translate(153,193)"><rect fill="none" class="highcharts-legend-box" rx="0" ry="0" x="0" y="0" width="173" height="22" visibility="visible"></rect><g data-z-index="1"><g><g class="highcharts-legend-item highcharts-line-series highcharts-color-undefined highcharts-series-0" data-z-index="1" transform="translate(8,3)"><path fill="none" d="M 0 8 L 16 8" class="highcharts-graph" stroke="#f15d61" stroke-width="2"></path><text x="21" y="11" style="color:#000000;cursor:pointer;font-size:8px;font-weight:normal;fill:#000000;" text-anchor="start" data-z-index="2">2016</text></g><g class="highcharts-legend-item highcharts-line-series highcharts-color-undefined highcharts-series-1" data-z-index="1" transform="translate(67.28125,3)"><path fill="none" d="M 0 8 L 16 8" class="highcharts-graph" stroke="#181c62" stroke-width="2"></path><text x="21" y="11" style="color:#000000;cursor:pointer;font-size:8px;font-weight:normal;fill:#000000;" text-anchor="start" data-z-index="2">2019</text></g><g class="highcharts-legend-item highcharts-column-series highcharts-color-undefined highcharts-series-2" data-z-index="1" transform="translate(126.5625,3)"><text x="21" y="11" style="color:#000000;cursor:pointer;font-size:8px;font-weight:normal;fill:#000000;" text-anchor="start" data-z-index="2">2020</text><rect x="4" y="4" width="8" height="8" fill="#5b91cc" class="highcharts-point" data-z-index="3"></rect></g></g></g></g><g class="highcharts-axis-labels highcharts-xaxis-labels" data-z-index="7"><text x="46.896551724138" style="color:#000000;cursor:default;font-size:8px;fill:#000000;" text-anchor="middle" transform="translate(0,0)" y="179" opacity="1">0</text><text x="143.44827586207" style="color:#000000;cursor:default;font-size:8px;fill:#000000;" text-anchor="middle" transform="translate(0,0)" y="179" opacity="1">200</text><text x="240" style="color:#000000;cursor:default;font-size:8px;fill:#000000;" text-anchor="middle" transform="translate(0,0)" y="179" opacity="1">400</text><text x="336.55172413793" style="color:#000000;cursor:default;font-size:8px;fill:#000000;" text-anchor="middle" transform="translate(0,0)" y="179" opacity="1">600</text><text x="433.10344827586" style="color:#000000;cursor:default;font-size:8px;fill:#000000;" text-anchor="middle" transform="translate(0,0)" y="179" opacity="1">800</text></g><g class="highcharts-axis-labels highcharts-yaxis-labels" data-z-index="7"><text x="22" style="color:#000000;cursor:default;font-size:8px;fill:#000000;" text-anchor="end" transform="translate(0,0)" y="165" opacity="1">0</text><text x="22" style="color:#000000;cursor:default;font-size:8px;fill:#000000;" text-anchor="end" transform="translate(0,0)" y="145" opacity="1">2</text><text x="22" style="color:#000000;cursor:default;font-size:8px;fill:#000000;" text-anchor="end" transform="translate(0,0)" y="124" opacity="1">4</text><text x="22" style="color:#000000;cursor:default;font-size:8px;fill:#000000;" text-anchor="end" transform="translate(0,0)" y="103" opacity="1">6</text><text x="22" style="color:#000000;cursor:default;font-size:8px;fill:#000000;" text-anchor="end" transform="translate(0,0)" y="82" opacity="1">8</text><text x="22" style="color:#000000;cursor:default;font-size:8px;fill:#000000;" text-anchor="end" transform="translate(0,0)" y="61" opacity="1">10</text><text x="22" style="color:#000000;cursor:default;font-size:8px;fill:#000000;" text-anchor="end" transform="translate(0,0)" y="40" opacity="1">12</text><text x="22" style="color:#000000;cursor:default;font-size:8px;fill:#000000;" text-anchor="end" transform="translate(0,0)" y="19" opacity="1">14</text></g><g class="highcharts-axis-labels highcharts-yaxis-labels" data-z-index="7"><text x="458" style="color:#000000;cursor:default;font-size:8px;fill:#000000;" text-anchor="start" transform="translate(0,0)" y="165" opacity="1">0</text><text x="458" style="color:#000000;cursor:default;font-size:8px;fill:#000000;" text-anchor="start" transform="translate(0,0)" y="145" opacity="1">2</text><text x="458" style="color:#000000;cursor:default;font-size:8px;fill:#000000;" text-anchor="start" transform="translate(0,0)" y="124" opacity="1">4</text><text x="458" style="color:#000000;cursor:default;font-size:8px;fill:#000000;" text-anchor="start" transform="translate(0,0)" y="103" opacity="1">6</text><text x="458" style="color:#000000;cursor:default;font-size:8px;fill:#000000;" text-anchor="start" transform="translate(0,0)" y="82" opacity="1">8</text><text x="458" style="color:#000000;cursor:default;font-size:8px;fill:#000000;" text-anchor="start" transform="translate(0,0)" y="61" opacity="1">10</text><text x="458" style="color:#000000;cursor:default;font-size:8px;fill:#000000;" text-anchor="start" transform="translate(0,0)" y="40" opacity="1">12</text><text x="458" style="color:#000000;cursor:default;font-size:8px;fill:#000000;" text-anchor="start" transform="translate(0,0)" y="19" opacity="1">14</text></g><g class="highcharts-control-points" data-z-index="99" clip-path="url(#highcharts-qcmehaq-4006-)"></g></svg>