<svg xmlns:xlink="http://www.w3.org/1999/xlink" version="1.1" class="highcharts-root" style="font-family:Open Sans, sans-serif;font-size:12px;color:#000000;fill:#000000;" xmlns="http://www.w3.org/2000/svg" width="480" height="227" viewBox="0 0 480 227"><desc>Created with Highcharts 9.2.2</desc><defs><clipPath id="highcharts-9ufxl42-1706-"><rect x="0" y="0" width="402" height="145" fill="none"></rect></clipPath><clipPath id="highcharts-9ufxl42-1728-"><rect x="0" y="0" width="402" height="145" fill="none"></rect></clipPath><clipPath id="highcharts-9ufxl42-1771-"><rect x="39" y="16" width="402" height="145" fill="none"></rect></clipPath></defs><rect fill="#ffffff" class="highcharts-background" x="0" y="0" width="480" height="227" rx="0" ry="0"></rect><rect fill="#ffffff" class="highcharts-plot-background" x="39" y="16" width="402" height="145"></rect><g class="highcharts-pane-group" data-z-index="0"></g><g class="highcharts-plot-lines-0" data-z-index="0"><path fill="none" class="highcharts-plot-line "></path></g><g class="highcharts-plot-lines-0" data-z-index="0"><path fill="none" class="highcharts-plot-line " stroke="#000000" stroke-width="0.25" d="M 39 161.125 L 441 161.125"></path></g><g class="highcharts-plot-lines-0" data-z-index="0"><path fill="none" class="highcharts-plot-line " stroke="#000000" stroke-width="0.25" d="M 39 161.125 L 441 161.125"></path></g><rect fill="none" class="highcharts-plot-border" data-z-index="1" x="39" y="16" width="402" height="145"></rect><g class="highcharts-grid highcharts-xaxis-grid" data-z-index="1"><path fill="none" stroke-dasharray="none" data-z-index="1" class="highcharts-grid-line" d="M 42.5 16 L 42.5 161" opacity="1"></path><path fill="none" stroke-dasharray="none" data-z-index="1" class="highcharts-grid-line" d="M 140.5 16 L 140.5 161" opacity="1"></path><path fill="none" stroke-dasharray="none" data-z-index="1" class="highcharts-grid-line" d="M 239.5 16 L 239.5 161" opacity="1"></path><path fill="none" stroke-dasharray="none" data-z-index="1" class="highcharts-grid-line" d="M 338.5 16 L 338.5 161" opacity="1"></path><path fill="none" stroke-dasharray="none" data-z-index="1" class="highcharts-grid-line" d="M 436.5 16 L 436.5 161" opacity="1"></path></g><g class="highcharts-grid highcharts-yaxis-grid" data-z-index="1"><path fill="none" stroke-dasharray="none" data-z-index="1" class="highcharts-grid-line" d="M 39 161.5 L 441 161.5" opacity="1"></path><path fill="none" stroke-dasharray="none" data-z-index="1" class="highcharts-grid-line" d="M 39 125.5 L 441 125.5" opacity="1"></path><path fill="none" stroke-dasharray="none" data-z-index="1" class="highcharts-grid-line" d="M 39 89.5 L 441 89.5" opacity="1"></path><path fill="none" stroke-dasharray="none" data-z-index="1" class="highcharts-grid-line" d="M 39 52.5 L 441 52.5" opacity="1"></path><path fill="none" stroke-dasharray="none" data-z-index="1" class="highcharts-grid-line" d="M 39 16.5 L 441 16.5" opacity="1"></path></g><g class="highcharts-grid highcharts-yaxis-grid" data-z-index="1"><path fill="none" stroke-dasharray="none" data-z-index="1" class="highcharts-grid-line" d="M 39 161.5 L 441 161.5" opacity="1"></path><path fill="none" stroke-dasharray="none" data-z-index="1" class="highcharts-grid-line" d="M 39 125.5 L 441 125.5" opacity="1"></path><path fill="none" stroke-dasharray="none" data-z-index="1" class="highcharts-grid-line" d="M 39 89.5 L 441 89.5" opacity="1"></path><path fill="none" stroke-dasharray="none" data-z-index="1" class="highcharts-grid-line" d="M 39 52.5 L 441 52.5" opacity="1"></path><path fill="none" stroke-dasharray="none" data-z-index="1" class="highcharts-grid-line" d="M 39 16.5 L 441 16.5" opacity="1"></path></g><g class="highcharts-axis highcharts-xaxis" data-z-index="2"><path fill="none" class="highcharts-axis-line" stroke="#000000" stroke-width="0.25" data-z-index="7" d="M 39 161.125 L 441 161.125"></path></g><g class="highcharts-axis highcharts-yaxis" data-z-index="2"><path fill="none" class="highcharts-tick" stroke="#000000" stroke-width="0.25" d="M 39 161.125 L 49 161.125" opacity="1"></path><path fill="none" class="highcharts-tick" stroke="#000000" stroke-width="0.25" d="M 39 125.125 L 49 125.125" opacity="1"></path><path fill="none" class="highcharts-tick" stroke="#000000" stroke-width="0.25" d="M 39 89.125 L 49 89.125" opacity="1"></path><path fill="none" class="highcharts-tick" stroke="#000000" stroke-width="0.25" d="M 39 52.125 L 49 52.125" opacity="1"></path><path fill="none" class="highcharts-tick" stroke="#000000" stroke-width="0.25" d="M 39 15.875 L 49 15.875" opacity="1"></path><path fill="none" class="highcharts-axis-line" stroke="#000000" stroke-width="0.25" data-z-index="7" d="M 38.875 16 L 38.875 161"></path></g><g class="highcharts-axis highcharts-yaxis" data-z-index="2"><path fill="none" class="highcharts-tick" stroke="#000000" stroke-width="0.25" d="M 441 161.125 L 431 161.125" opacity="1"></path><path fill="none" class="highcharts-tick" stroke="#000000" stroke-width="0.25" d="M 441 125.125 L 431 125.125" opacity="1"></path><path fill="none" class="highcharts-tick" stroke="#000000" stroke-width="0.25" d="M 441 89.125 L 431 89.125" opacity="1"></path><path fill="none" class="highcharts-tick" stroke="#000000" stroke-width="0.25" d="M 441 52.125 L 431 52.125" opacity="1"></path><path fill="none" class="highcharts-tick" stroke="#000000" stroke-width="0.25" d="M 441 15.875 L 431 15.875" opacity="1"></path><path fill="none" class="highcharts-axis-line" stroke="#000000" stroke-width="0.25" data-z-index="7" d="M 441.125 16 L 441.125 161"></path></g><g class="highcharts-series-group" data-z-index="3"><g class="highcharts-series highcharts-series-0 highcharts-line-series highcharts-color-0" data-z-index="0.1" opacity="1" transform="translate(39,16) scale(1 1)" clip-path="url(#highcharts-9ufxl42-1706-)"><path fill="none" d="M 3.9411764705891 35.8875 L 23.64705882353 30.63125000000001 L 43.352941176471 40.056250000000006 L 63.058823529412 62.16874999999999 L 82.764705882353 71.59375 L 102.47058823529 79.02499999999999 L 122.17647058824 65.975 L 141.88235294118 59.99374999999999 L 161.58823529412 74.49374999999999 L 181.29411764706 69.41875 L 201 78.3 L 220.70588235294 101.31875 L 240.41176470588 108.025 L 260.11764705882 89.9 L 279.82352941176 115.81875 L 299.52941176471 103.67500000000001 L 319.23529411765 114.1875 L 338.94117647059 115.09375 L 358.64705882353 112.55625 L 378.35294117647 116.90625 L 398.05882352941 127.6" class="highcharts-graph" data-z-index="1" stroke="#4156A6" stroke-width="2" stroke-linejoin="round" stroke-linecap="round"></path></g><g class="highcharts-markers highcharts-series-0 highcharts-line-series highcharts-color-0" data-z-index="0.1" opacity="1" transform="translate(39,16) scale(1 1)" clip-path="none"></g><g class="highcharts-series highcharts-series-1 highcharts-line-series highcharts-color-1" data-z-index="0.1" opacity="1" transform="translate(39,16) scale(1 1)" clip-path="url(#highcharts-9ufxl42-1706-)"><path fill="none" d="M 3.9411764705891 76.125 L 23.64705882353 77.03125 L 43.352941176471 77.9375 L 63.058823529412 78.84375 L 82.764705882353 79.75 L 102.47058823529 80.65625 L 122.17647058824 81.5625 L 141.88235294118 82.46875 L 161.58823529412 83.0125 L 181.29411764706 83.73750000000001 L 201 84.64375 L 220.70588235294 85.55000000000001 L 240.41176470588 86.45625 L 260.11764705882 87 L 279.82352941176 87.54375 L 299.52941176471 93.70625 L 319.23529411765 94.61250000000001 L 338.94117647059 95.51875 L 358.64705882353 97.51249999999999 L 378.35294117647 97.875 L 398.05882352941 98.78125" class="highcharts-graph" data-z-index="1" stroke="#F15D61" stroke-width="2" stroke-linejoin="round" stroke-linecap="round"></path></g><g class="highcharts-markers highcharts-series-1 highcharts-line-series highcharts-color-1" data-z-index="0.1" opacity="1" transform="translate(39,16) scale(1 1)" clip-path="none"></g><g class="highcharts-series highcharts-series-2 highcharts-line-series highcharts-color-2" data-z-index="0.1" opacity="1" transform="translate(39,16) scale(1 1)" clip-path="url(#highcharts-9ufxl42-1706-)"><path fill="none" d="M 3.9411764705891 90.625 L 23.64705882353 90.625 L 43.352941176471 90.625 L 63.058823529412 90.625 L 82.764705882353 90.625 L 102.47058823529 90.625 L 122.17647058824 95.15625 L 141.88235294118 95.15625 L 161.58823529412 95.15625 L 181.29411764706 95.15625 L 201 95.15625 L 220.70588235294 99.6875 L 240.41176470588 99.6875 L 260.11764705882 99.6875 L 279.82352941176 99.6875 L 299.52941176471 108.75 L 319.23529411765 108.75" class="highcharts-graph" data-z-index="1" stroke="#969497" stroke-width="2" stroke-linejoin="round" stroke-linecap="round"></path></g><g class="highcharts-markers highcharts-series-2 highcharts-line-series highcharts-color-2" data-z-index="0.1" opacity="1" transform="translate(39,16) scale(1 1)" clip-path="none"></g></g><text x="13" text-anchor="start" class="highcharts-title" data-z-index="4" style="color:#333333;font-size:20px;fill:#333333;" y="31"></text><text x="13" text-anchor="start" class="highcharts-subtitle" data-z-index="4" style="color:#000000;font-size:20px;fill:#000000;" y="36"></text><text x="13" text-anchor="start" class="highcharts-caption" data-z-index="4" style="color:#666666;font-size:16px;fill:#666666;" y="230"></text><g class="highcharts-legend highcharts-no-tooltip" data-z-index="7" transform="translate(44,192)"><rect fill="none" class="highcharts-legend-box" rx="0" ry="0" x="0" y="0" width="392" height="23" visibility="visible"></rect><g data-z-index="1"><g><g class="highcharts-legend-item highcharts-line-series highcharts-color-0 highcharts-series-0" data-z-index="1" transform="translate(8,3)"><path fill="none" d="M 0 8 L 16 8" class="highcharts-graph" stroke="#4156A6" stroke-width="2"></path><text x="21" y="11" style="color:#000000;cursor:pointer;font-size:8px;font-weight:normal;font-family:&quot;Lucida Grande&quot;, &quot;Lucida Sans Unicode&quot;, Verdana, Arial, Helvetica, sans-serif;fill:#000000;" text-anchor="start" data-z-index="2">Lange renter (NOK)</text></g><g class="highcharts-legend-item highcharts-line-series highcharts-color-1 highcharts-series-1" data-z-index="1" transform="translate(123.765625,3)"><path fill="none" d="M 0 8 L 16 8" class="highcharts-graph" stroke="#F15D61" stroke-width="2"></path><text x="21" y="11" style="color:#000000;cursor:pointer;font-size:8px;font-weight:normal;font-family:&quot;Lucida Grande&quot;, &quot;Lucida Sans Unicode&quot;, Verdana, Arial, Helvetica, sans-serif;fill:#000000;" text-anchor="start" data-z-index="2">Gjennomsnittlig rentegaranti</text></g><g class="highcharts-legend-item highcharts-line-series highcharts-color-2 highcharts-series-2" data-z-index="1" transform="translate(276.59375,3)"><path fill="none" d="M 0 8 L 16 8" class="highcharts-graph" stroke="#969497" stroke-width="2"></path><text x="21" y="11" style="color:#000000;cursor:pointer;font-size:8px;font-weight:normal;font-family:&quot;Lucida Grande&quot;, &quot;Lucida Sans Unicode&quot;, Verdana, Arial, Helvetica, sans-serif;fill:#000000;" text-anchor="start" data-z-index="2">Maksimal rentegaranti</text></g></g></g></g><g class="highcharts-axis-labels highcharts-xaxis-labels" data-z-index="7"><text x="42.941176470589" style="color:#000000;cursor:default;font-size:8px;fill:#000000;" text-anchor="middle" transform="translate(0,0)" y="178" opacity="1">2000</text><text x="141.47058823529" style="color:#000000;cursor:default;font-size:8px;fill:#000000;" text-anchor="middle" transform="translate(0,0)" y="178" opacity="1">2005</text><text x="240" style="color:#000000;cursor:default;font-size:8px;fill:#000000;" text-anchor="middle" transform="translate(0,0)" y="178" opacity="1">2010</text><text x="338.52941176471" style="color:#000000;cursor:default;font-size:8px;fill:#000000;" text-anchor="middle" transform="translate(0,0)" y="178" opacity="1">2015</text><text x="437.05882352941" style="color:#000000;cursor:default;font-size:8px;fill:#000000;" text-anchor="middle" transform="translate(0,0)" y="178" opacity="1">2020</text></g><g class="highcharts-axis-labels highcharts-yaxis-labels" data-z-index="7"><text x="24" style="color:#000000;cursor:default;font-size:8px;fill:#000000;" text-anchor="end" transform="translate(0,0)" y="164" opacity="1">0%</text><text x="24" style="color:#000000;cursor:default;font-size:8px;fill:#000000;" text-anchor="end" transform="translate(0,0)" y="128" opacity="1">2%</text><text x="24" style="color:#000000;cursor:default;font-size:8px;fill:#000000;" text-anchor="end" transform="translate(0,0)" y="92" opacity="1">4%</text><text x="24" style="color:#000000;cursor:default;font-size:8px;fill:#000000;" text-anchor="end" transform="translate(0,0)" y="56" opacity="1">6%</text><text x="24" style="color:#000000;cursor:default;font-size:8px;fill:#000000;" text-anchor="end" transform="translate(0,0)" y="19" opacity="1">8%</text></g><g class="highcharts-axis-labels highcharts-yaxis-labels" data-z-index="7"><text x="456" style="color:#000000;cursor:default;font-size:8px;fill:#000000;" text-anchor="start" transform="translate(0,0)" y="164" opacity="1">0%</text><text x="456" style="color:#000000;cursor:default;font-size:8px;fill:#000000;" text-anchor="start" transform="translate(0,0)" y="128" opacity="1">2%</text><text x="456" style="color:#000000;cursor:default;font-size:8px;fill:#000000;" text-anchor="start" transform="translate(0,0)" y="92" opacity="1">4%</text><text x="456" style="color:#000000;cursor:default;font-size:8px;fill:#000000;" text-anchor="start" transform="translate(0,0)" y="56" opacity="1">6%</text><text x="456" style="color:#000000;cursor:default;font-size:8px;fill:#000000;" text-anchor="start" transform="translate(0,0)" y="19" opacity="1">8%</text></g><g class="highcharts-control-points" data-z-index="99" clip-path="url(#highcharts-9ufxl42-1771-)"></g></svg>