<svg xmlns:xlink="http://www.w3.org/1999/xlink" version="1.1" class="highcharts-root" style="font-family:Open Sans, sans-serif;font-size:12px;color:#000000;fill:#000000;" xmlns="http://www.w3.org/2000/svg" width="480" height="227" viewBox="0 0 480 227"><desc>Created with Highcharts 9.2.2</desc><defs><clipPath id="highcharts-4ovi096-1603-"><rect x="0" y="0" width="399" height="143" fill="none"></rect></clipPath><clipPath id="highcharts-4ovi096-1618-"><rect x="0" y="0" width="399" height="143" fill="none"></rect></clipPath><clipPath id="highcharts-4ovi096-1633-"><rect x="39" y="16" width="399" height="143" fill="none"></rect></clipPath></defs><rect fill="#ffffff" class="highcharts-background" x="0" y="0" width="480" height="227" rx="0" ry="0"></rect><rect fill="#ffffff" class="highcharts-plot-background" x="39" y="16" width="399" height="143"></rect><g class="highcharts-pane-group" data-z-index="0"></g><g class="highcharts-plot-lines-0" data-z-index="0"><path fill="none" class="highcharts-plot-line "></path></g><g class="highcharts-plot-lines-0" data-z-index="0"><path fill="none" class="highcharts-plot-line " stroke="#000000" stroke-width="0.25" d="M 39 159.125 L 438 159.125"></path></g><g class="highcharts-plot-lines-0" data-z-index="0"><path fill="none" class="highcharts-plot-line " stroke="#000000" stroke-width="0.25" d="M 39 159.125 L 438 159.125"></path></g><rect fill="none" class="highcharts-plot-border" data-z-index="1" x="39" y="16" width="399" height="143"></rect><g class="highcharts-grid highcharts-xaxis-grid" data-z-index="1"><path fill="none" stroke-dasharray="none" data-z-index="1" class="highcharts-grid-line" d="M 140.5 16 L 140.5 159" opacity="1"></path><path fill="none" stroke-dasharray="none" data-z-index="1" class="highcharts-grid-line" d="M 419.5 16 L 419.5 159" opacity="1"></path><path fill="none" stroke-dasharray="none" data-z-index="1" class="highcharts-grid-line" d="M 84.5 16 L 84.5 159" opacity="1"></path><path fill="none" stroke-dasharray="none" data-z-index="1" class="highcharts-grid-line" d="M 196.5 16 L 196.5 159" opacity="1"></path><path fill="none" stroke-dasharray="none" data-z-index="1" class="highcharts-grid-line" d="M 251.5 16 L 251.5 159" opacity="1"></path><path fill="none" stroke-dasharray="none" data-z-index="1" class="highcharts-grid-line" d="M 307.5 16 L 307.5 159" opacity="1"></path><path fill="none" stroke-dasharray="none" data-z-index="1" class="highcharts-grid-line" d="M 363.5 16 L 363.5 159" opacity="1"></path></g><g class="highcharts-grid highcharts-yaxis-grid" data-z-index="1"><path fill="none" stroke-dasharray="none" data-z-index="1" class="highcharts-grid-line" d="M 39 159.5 L 438 159.5" opacity="1"></path><path fill="none" stroke-dasharray="none" data-z-index="1" class="highcharts-grid-line" d="M 39 111.5 L 438 111.5" opacity="1"></path><path fill="none" stroke-dasharray="none" data-z-index="1" class="highcharts-grid-line" d="M 39 64.5 L 438 64.5" opacity="1"></path><path fill="none" stroke-dasharray="none" data-z-index="1" class="highcharts-grid-line" d="M 39 16.5 L 438 16.5" opacity="1"></path></g><g class="highcharts-grid highcharts-yaxis-grid" data-z-index="1"><path fill="none" stroke-dasharray="none" data-z-index="1" class="highcharts-grid-line" d="M 39 159.5 L 438 159.5" opacity="1"></path><path fill="none" stroke-dasharray="none" data-z-index="1" class="highcharts-grid-line" d="M 39 111.5 L 438 111.5" opacity="1"></path><path fill="none" stroke-dasharray="none" data-z-index="1" class="highcharts-grid-line" d="M 39 64.5 L 438 64.5" opacity="1"></path><path fill="none" stroke-dasharray="none" data-z-index="1" class="highcharts-grid-line" d="M 39 16.5 L 438 16.5" opacity="1"></path></g><g class="highcharts-axis highcharts-xaxis" data-z-index="2"><path fill="none" class="highcharts-axis-line" stroke="#000000" stroke-width="0.25" data-z-index="7" d="M 39 159.125 L 438 159.125"></path></g><g class="highcharts-axis highcharts-yaxis" data-z-index="2"><path fill="none" class="highcharts-tick" stroke="#000000" stroke-width="0.25" d="M 39 159.125 L 49 159.125" opacity="1"></path><path fill="none" class="highcharts-tick" stroke="#000000" stroke-width="0.25" d="M 39 111.125 L 49 111.125" opacity="1"></path><path fill="none" class="highcharts-tick" stroke="#000000" stroke-width="0.25" d="M 39 64.125 L 49 64.125" opacity="1"></path><path fill="none" class="highcharts-tick" stroke="#000000" stroke-width="0.25" d="M 39 15.875 L 49 15.875" opacity="1"></path><path fill="none" class="highcharts-axis-line" stroke="#000000" stroke-width="0.25" data-z-index="7" d="M 38.875 16 L 38.875 159"></path></g><g class="highcharts-axis highcharts-yaxis" data-z-index="2"><path fill="none" class="highcharts-tick" stroke="#000000" stroke-width="0.25" d="M 438 159.125 L 428 159.125" opacity="1"></path><path fill="none" class="highcharts-tick" stroke="#000000" stroke-width="0.25" d="M 438 111.125 L 428 111.125" opacity="1"></path><path fill="none" class="highcharts-tick" stroke="#000000" stroke-width="0.25" d="M 438 64.125 L 428 64.125" opacity="1"></path><path fill="none" class="highcharts-tick" stroke="#000000" stroke-width="0.25" d="M 438 15.875 L 428 15.875" opacity="1"></path><path fill="none" class="highcharts-axis-line" stroke="#000000" stroke-width="0.25" data-z-index="7" d="M 438.125 16 L 438.125 159"></path></g><g class="highcharts-series-group" data-z-index="3"><g class="highcharts-series highcharts-series-0 highcharts-column-series" data-z-index="0.1" opacity="1" transform="translate(39,16) scale(1 1)" clip-path="url(#highcharts-4ovi096-1603-)"><rect x="11" y="52" width="14" height="20" fill="#f15d61" opacity="1" class="highcharts-point"></rect><rect x="39" y="52" width="14" height="20" fill="#f15d61" opacity="1" class="highcharts-point"></rect><rect x="67" y="52" width="14" height="20" fill="#f15d61" opacity="1" class="highcharts-point"></rect><rect x="95" y="52" width="14" height="19" fill="#f15d61" opacity="1" class="highcharts-point"></rect><rect x="123" y="52" width="14" height="18" fill="#f15d61" opacity="1" class="highcharts-point"></rect><rect x="151" y="58" width="14" height="16" fill="#f15d61" opacity="1" class="highcharts-point"></rect><rect x="179" y="59" width="14" height="16" fill="#f15d61" opacity="1" class="highcharts-point"></rect><rect x="207" y="63" width="14" height="16" fill="#f15d61" opacity="1" class="highcharts-point"></rect><rect x="235" y="62" width="14" height="16" fill="#f15d61" opacity="1" class="highcharts-point"></rect><rect x="263" y="62" width="14" height="15" fill="#f15d61" opacity="1" class="highcharts-point"></rect><rect x="291" y="58" width="14" height="18" fill="#f15d61" opacity="1" class="highcharts-point"></rect><rect x="319" y="57" width="14" height="17" fill="#f15d61" opacity="1" class="highcharts-point"></rect><rect x="347" y="55" width="14" height="18" fill="#f15d61" opacity="1" class="highcharts-point"></rect><rect x="375" y="61" width="14" height="17" fill="#f15d61" opacity="1" class="highcharts-point"></rect></g><g class="highcharts-markers highcharts-series-0 highcharts-column-series" data-z-index="0.1" opacity="1" transform="translate(39,16) scale(1 1)" clip-path="none"></g><g class="highcharts-series highcharts-series-1 highcharts-column-series" data-z-index="0.1" opacity="1" transform="translate(39,16) scale(1 1)" clip-path="url(#highcharts-4ovi096-1603-)"><rect x="11" y="72" width="14" height="72" fill="#5b91cc" opacity="1" class="highcharts-point"></rect><rect x="39" y="72" width="14" height="72" fill="#5b91cc" opacity="1" class="highcharts-point"></rect><rect x="67" y="72" width="14" height="72" fill="#5b91cc" opacity="1" class="highcharts-point"></rect><rect x="95" y="71" width="14" height="73" fill="#5b91cc" opacity="1" class="highcharts-point"></rect><rect x="123" y="70" width="14" height="74" fill="#5b91cc" opacity="1" class="highcharts-point"></rect><rect x="151" y="74" width="14" height="70" fill="#5b91cc" opacity="1" class="highcharts-point"></rect><rect x="179" y="75" width="14" height="69" fill="#5b91cc" opacity="1" class="highcharts-point"></rect><rect x="207" y="79" width="14" height="65" fill="#5b91cc" opacity="1" class="highcharts-point"></rect><rect x="235" y="78" width="14" height="66" fill="#5b91cc" opacity="1" class="highcharts-point"></rect><rect x="263" y="77" width="14" height="67" fill="#5b91cc" opacity="1" class="highcharts-point"></rect><rect x="291" y="76" width="14" height="68" fill="#5b91cc" opacity="1" class="highcharts-point"></rect><rect x="319" y="74" width="14" height="70" fill="#5b91cc" opacity="1" class="highcharts-point"></rect><rect x="347" y="73" width="14" height="71" fill="#5b91cc" opacity="1" class="highcharts-point"></rect><rect x="375" y="78" width="14" height="66" fill="#5b91cc" opacity="1" class="highcharts-point"></rect></g><g class="highcharts-markers highcharts-series-1 highcharts-column-series" data-z-index="0.1" opacity="1" transform="translate(39,16) scale(1 1)" clip-path="none"></g></g><text x="10" text-anchor="start" class="highcharts-title" data-z-index="4" style="color:#333333;font-size:20px;fill:#333333;" y="31"></text><text x="10" text-anchor="start" class="highcharts-subtitle" data-z-index="4" style="color:#000000;font-size:20px;fill:#000000;" y="36"></text><text x="10" text-anchor="start" class="highcharts-caption" data-z-index="4" style="color:#666666;font-size:16px;fill:#666666;" y="227"></text><g class="highcharts-legend highcharts-no-tooltip" data-z-index="7" transform="translate(142,190)"><rect fill="none" class="highcharts-legend-box" rx="0" ry="0" x="0" y="0" width="193" height="22" visibility="visible"></rect><g data-z-index="1"><g><g class="highcharts-legend-item highcharts-column-series highcharts-color-undefined highcharts-series-0" data-z-index="1" transform="translate(8,3)"><text x="21" y="11" style="color:#000000;cursor:pointer;font-size:8px;font-weight:normal;fill:#000000;" text-anchor="start" data-z-index="2">Kostnadsprosent</text><rect x="4" y="4" width="8" height="8" fill="#f15d61" class="highcharts-point" data-z-index="3"></rect></g><g class="highcharts-legend-item highcharts-column-series highcharts-color-undefined highcharts-series-1" data-z-index="1" transform="translate(112.78125,3)"><text x="21" y="11" style="color:#000000;cursor:pointer;font-size:8px;font-weight:normal;fill:#000000;" text-anchor="start" data-z-index="2">Skadeprosent</text><rect x="4" y="4" width="8" height="8" fill="#5b91cc" class="highcharts-point" data-z-index="3"></rect></g></g></g></g><g class="highcharts-axis-labels highcharts-xaxis-labels" data-z-index="7"><text x="140.56872370267" style="color:#000000;cursor:default;font-size:8px;fill:#000000;" text-anchor="middle" transform="translate(0,0)" y="176" opacity="1">2010</text><text x="420.37237026648" style="color:#000000;cursor:default;font-size:8px;fill:#000000;" text-anchor="middle" transform="translate(0,0)" y="176" opacity="1">2020</text><text x="84.607994389904" style="color:#000000;cursor:default;font-size:8px;fill:#000000;" text-anchor="middle" transform="translate(0,0)" y="176" opacity="1">2008</text><text x="196.52945301543" style="color:#000000;cursor:default;font-size:8px;fill:#000000;" text-anchor="middle" transform="translate(0,0)" y="176" opacity="1">2012</text><text x="252.49018232819" style="color:#000000;cursor:default;font-size:8px;fill:#000000;" text-anchor="middle" transform="translate(0,0)" y="176" opacity="1">2014</text><text x="308.45091164095" style="color:#000000;cursor:default;font-size:8px;fill:#000000;" text-anchor="middle" transform="translate(0,0)" y="176" opacity="1">2016</text><text x="364.41164095371" style="color:#000000;cursor:default;font-size:8px;fill:#000000;" text-anchor="middle" transform="translate(0,0)" y="176" opacity="1">2018</text></g><g class="highcharts-axis-labels highcharts-yaxis-labels" data-z-index="7"><text x="24" style="color:#000000;cursor:default;font-size:8px;fill:#000000;" text-anchor="end" transform="translate(0,0)" y="162" opacity="1">0</text><text x="24" style="color:#000000;cursor:default;font-size:8px;fill:#000000;" text-anchor="end" transform="translate(0,0)" y="115" opacity="1">50</text><text x="24" style="color:#000000;cursor:default;font-size:8px;fill:#000000;" text-anchor="end" transform="translate(0,0)" y="67" opacity="1">100</text><text x="24" style="color:#000000;cursor:default;font-size:8px;fill:#000000;" text-anchor="end" transform="translate(0,0)" y="19" opacity="1">150</text></g><g class="highcharts-axis-labels highcharts-yaxis-labels" data-z-index="7"><text x="453" style="color:#000000;cursor:default;font-size:8px;fill:#000000;" text-anchor="start" transform="translate(0,0)" y="162" opacity="1">0</text><text x="453" style="color:#000000;cursor:default;font-size:8px;fill:#000000;" text-anchor="start" transform="translate(0,0)" y="115" opacity="1">50</text><text x="453" style="color:#000000;cursor:default;font-size:8px;fill:#000000;" text-anchor="start" transform="translate(0,0)" y="67" opacity="1">100</text><text x="453" style="color:#000000;cursor:default;font-size:8px;fill:#000000;" text-anchor="start" transform="translate(0,0)" y="19" opacity="1">150</text></g><g class="highcharts-control-points" data-z-index="99" clip-path="url(#highcharts-4ovi096-1633-)"></g></svg>