<svg xmlns:xlink="http://www.w3.org/1999/xlink" version="1.1" class="highcharts-root" style="font-family:Open Sans, sans-serif;font-size:12px;color:#000000;fill:#000000;" xmlns="http://www.w3.org/2000/svg" width="480" height="227" viewBox="0 0 480 227"><desc>Created with Highcharts 9.2.2</desc><defs><clipPath id="highcharts-l6cg0mo-779-"><rect x="0" y="0" width="387" height="135" fill="none"></rect></clipPath><clipPath id="highcharts-l6cg0mo-789-"><rect x="0" y="0" width="387" height="135" fill="none"></rect></clipPath><clipPath id="highcharts-l6cg0mo-799-"><rect x="0" y="0" width="387" height="135" fill="none"></rect></clipPath><clipPath id="highcharts-l6cg0mo-827-"><rect x="47" y="16" width="387" height="135" fill="none"></rect></clipPath></defs><rect fill="#ffffff" class="highcharts-background" x="0" y="0" width="480" height="227" rx="0" ry="0"></rect><rect fill="#ffffff" class="highcharts-plot-background" x="47" y="16" width="387" height="135"></rect><g class="highcharts-pane-group" data-z-index="0"></g><g class="highcharts-plot-lines-0" data-z-index="0"><path fill="none" class="highcharts-plot-line "></path></g><g class="highcharts-plot-lines-0" data-z-index="0"><path fill="none" class="highcharts-plot-line " stroke="#000000" stroke-width="0.25" d="M 47 151.125 L 434 151.125"></path></g><g class="highcharts-plot-lines-0" data-z-index="0"><path fill="none" class="highcharts-plot-line " stroke="#000000" stroke-width="0.25" d="M 47 151.125 L 434 151.125"></path></g><rect fill="none" class="highcharts-plot-border" data-z-index="1" x="47" y="16" width="387" height="135"></rect><g class="highcharts-grid highcharts-xaxis-grid" data-z-index="1"><path fill="none" stroke-dasharray="none" data-z-index="1" class="highcharts-grid-line" d="M 113.5 16 L 113.5 151" opacity="1"></path><path fill="none" stroke-dasharray="none" data-z-index="1" class="highcharts-grid-line" d="M 197.5 16 L 197.5 151" opacity="1"></path><path fill="none" stroke-dasharray="none" data-z-index="1" class="highcharts-grid-line" d="M 282.5 16 L 282.5 151" opacity="1"></path><path fill="none" stroke-dasharray="none" data-z-index="1" class="highcharts-grid-line" d="M 366.5 16 L 366.5 151" opacity="1"></path></g><g class="highcharts-grid highcharts-yaxis-grid" data-z-index="1"><path fill="none" stroke-dasharray="none" data-z-index="1" class="highcharts-grid-line" d="M 47 151.5 L 434 151.5" opacity="1"></path><path fill="none" stroke-dasharray="none" data-z-index="1" class="highcharts-grid-line" d="M 47 106.5 L 434 106.5" opacity="1"></path><path fill="none" stroke-dasharray="none" data-z-index="1" class="highcharts-grid-line" d="M 47 61.5 L 434 61.5" opacity="1"></path><path fill="none" stroke-dasharray="none" data-z-index="1" class="highcharts-grid-line" d="M 47 16.5 L 434 16.5" opacity="1"></path></g><g class="highcharts-grid highcharts-yaxis-grid" data-z-index="1"><path fill="none" stroke-dasharray="none" data-z-index="1" class="highcharts-grid-line" d="M 47 151.5 L 434 151.5" opacity="1"></path><path fill="none" stroke-dasharray="none" data-z-index="1" class="highcharts-grid-line" d="M 47 106.5 L 434 106.5" opacity="1"></path><path fill="none" stroke-dasharray="none" data-z-index="1" class="highcharts-grid-line" d="M 47 61.5 L 434 61.5" opacity="1"></path><path fill="none" stroke-dasharray="none" data-z-index="1" class="highcharts-grid-line" d="M 47 16.5 L 434 16.5" opacity="1"></path></g><g class="highcharts-axis highcharts-xaxis" data-z-index="2"><path fill="none" class="highcharts-axis-line" stroke="#000000" stroke-width="0.25" data-z-index="7" d="M 47 151.125 L 434 151.125"></path></g><g class="highcharts-axis highcharts-yaxis" data-z-index="2"><path fill="none" class="highcharts-tick" stroke="#000000" stroke-width="0.25" d="M 47 151.125 L 57 151.125" opacity="1"></path><path fill="none" class="highcharts-tick" stroke="#000000" stroke-width="0.25" d="M 47 106.125 L 57 106.125" opacity="1"></path><path fill="none" class="highcharts-tick" stroke="#000000" stroke-width="0.25" d="M 47 61.125 L 57 61.125" opacity="1"></path><path fill="none" class="highcharts-tick" stroke="#000000" stroke-width="0.25" d="M 47 15.875 L 57 15.875" opacity="1"></path><path fill="none" class="highcharts-axis-line" stroke="#000000" stroke-width="0.25" data-z-index="7" d="M 46.875 16 L 46.875 151"></path></g><g class="highcharts-axis highcharts-yaxis" data-z-index="2"><path fill="none" class="highcharts-tick" stroke="#000000" stroke-width="0.25" d="M 434 151.125 L 424 151.125" opacity="1"></path><path fill="none" class="highcharts-tick" stroke="#000000" stroke-width="0.25" d="M 434 106.125 L 424 106.125" opacity="1"></path><path fill="none" class="highcharts-tick" stroke="#000000" stroke-width="0.25" d="M 434 61.125 L 424 61.125" opacity="1"></path><path fill="none" class="highcharts-tick" stroke="#000000" stroke-width="0.25" d="M 434 15.875 L 424 15.875" opacity="1"></path><path fill="none" class="highcharts-axis-line" stroke="#000000" stroke-width="0.25" data-z-index="7" d="M 434.125 16 L 434.125 151"></path></g><g class="highcharts-series-group" data-z-index="3"><g class="highcharts-series highcharts-series-0 highcharts-column-series highcharts-color-0" data-z-index="0.1" opacity="1" transform="translate(47,16) scale(1 1)" clip-path="url(#highcharts-l6cg0mo-779-)"><rect x="310" y="46" width="21" height="9" fill="#b1ded3" opacity="1" class="highcharts-point highcharts-color-0"></rect><rect x="352" y="46" width="21" height="9" fill="#b1ded3" opacity="1" class="highcharts-point highcharts-color-0"></rect></g><g class="highcharts-markers highcharts-series-0 highcharts-column-series highcharts-color-0" data-z-index="0.1" opacity="1" transform="translate(47,16) scale(1 1)" clip-path="none"></g><g class="highcharts-series highcharts-series-1 highcharts-column-series highcharts-color-1" data-z-index="0.1" opacity="1" transform="translate(47,16) scale(1 1)" clip-path="url(#highcharts-l6cg0mo-779-)"><rect x="14" y="96" width="21" height="0" fill="#60c3ad" opacity="1" class="highcharts-point highcharts-color-1"></rect><rect x="57" y="87" width="21" height="0" fill="#60c3ad" opacity="1" class="highcharts-point highcharts-color-1"></rect><rect x="99" y="69" width="21" height="9" fill="#60c3ad" opacity="1" class="highcharts-point highcharts-color-1"></rect><rect x="141" y="55" width="21" height="18" fill="#60c3ad" opacity="1" class="highcharts-point highcharts-color-1"></rect><rect x="183" y="51" width="21" height="18" fill="#60c3ad" opacity="1" class="highcharts-point highcharts-color-1"></rect><rect x="226" y="51" width="21" height="18" fill="#60c3ad" opacity="1" class="highcharts-point highcharts-color-1"></rect><rect x="268" y="46" width="21" height="18" fill="#60c3ad" opacity="1" class="highcharts-point highcharts-color-1"></rect><rect x="310" y="55" width="21" height="9" fill="#60c3ad" opacity="1" class="highcharts-point highcharts-color-1"></rect><rect x="352" y="55" width="21" height="9" fill="#60c3ad" opacity="1" class="highcharts-point highcharts-color-1"></rect></g><g class="highcharts-markers highcharts-series-1 highcharts-column-series highcharts-color-1" data-z-index="0.1" opacity="1" transform="translate(47,16) scale(1 1)" clip-path="none"></g><g class="highcharts-series highcharts-series-2 highcharts-column-series highcharts-color-2" data-z-index="0.1" opacity="1" transform="translate(47,16) scale(1 1)" clip-path="url(#highcharts-l6cg0mo-779-)"><rect x="14" y="96" width="21" height="0" fill="#5b91cc" opacity="1" class="highcharts-point highcharts-color-2"></rect><rect x="57" y="87" width="21" height="0" fill="#5b91cc" opacity="1" class="highcharts-point highcharts-color-2"></rect><rect x="99" y="78" width="21" height="9" fill="#5b91cc" opacity="1" class="highcharts-point highcharts-color-2"></rect><rect x="141" y="73" width="21" height="14" fill="#5b91cc" opacity="1" class="highcharts-point highcharts-color-2"></rect><rect x="183" y="69" width="21" height="18" fill="#5b91cc" opacity="1" class="highcharts-point highcharts-color-2"></rect><rect x="226" y="69" width="21" height="18" fill="#5b91cc" opacity="1" class="highcharts-point highcharts-color-2"></rect><rect x="268" y="64" width="21" height="23" fill="#5b91cc" opacity="1" class="highcharts-point highcharts-color-2"></rect><rect x="310" y="64" width="21" height="9" fill="#5b91cc" opacity="1" class="highcharts-point highcharts-color-2"></rect><rect x="352" y="64" width="21" height="9" fill="#5b91cc" opacity="1" class="highcharts-point highcharts-color-2"></rect></g><g class="highcharts-markers highcharts-series-2 highcharts-column-series highcharts-color-2" data-z-index="0.1" opacity="1" transform="translate(47,16) scale(1 1)" clip-path="none"></g><g class="highcharts-series highcharts-series-3 highcharts-column-series highcharts-color-3" data-z-index="0.1" opacity="1" transform="translate(47,16) scale(1 1)" clip-path="url(#highcharts-l6cg0mo-779-)"><rect x="14" y="96" width="21" height="18" fill="#4156a6" opacity="1" class="highcharts-point highcharts-color-3"></rect><rect x="57" y="87" width="21" height="27" fill="#4156a6" opacity="1" class="highcharts-point highcharts-color-3"></rect><rect x="99" y="87" width="21" height="27" fill="#4156a6" opacity="1" class="highcharts-point highcharts-color-3"></rect><rect x="141" y="87" width="21" height="27" fill="#4156a6" opacity="1" class="highcharts-point highcharts-color-3"></rect><rect x="183" y="87" width="21" height="27" fill="#4156a6" opacity="1" class="highcharts-point highcharts-color-3"></rect><rect x="226" y="87" width="21" height="27" fill="#4156a6" opacity="1" class="highcharts-point highcharts-color-3"></rect><rect x="268" y="87" width="21" height="27" fill="#4156a6" opacity="1" class="highcharts-point highcharts-color-3"></rect><rect x="310" y="73" width="21" height="41" fill="#4156a6" opacity="1" class="highcharts-point highcharts-color-3"></rect><rect x="352" y="73" width="21" height="41" fill="#4156a6" opacity="1" class="highcharts-point highcharts-color-3"></rect></g><g class="highcharts-markers highcharts-series-3 highcharts-column-series highcharts-color-3" data-z-index="0.1" opacity="1" transform="translate(47,16) scale(1 1)" clip-path="none"></g><g class="highcharts-series highcharts-series-4 highcharts-column-series highcharts-color-4" data-z-index="0.1" opacity="1" transform="translate(47,16) scale(1 1)" clip-path="url(#highcharts-l6cg0mo-779-)"><rect x="14" y="114" width="21" height="22" fill="#181c62" opacity="1" class="highcharts-point highcharts-color-4"></rect><rect x="57" y="114" width="21" height="22" fill="#181c62" opacity="1" class="highcharts-point highcharts-color-4"></rect><rect x="99" y="114" width="21" height="22" fill="#181c62" opacity="1" class="highcharts-point highcharts-color-4"></rect><rect x="141" y="114" width="21" height="22" fill="#181c62" opacity="1" class="highcharts-point highcharts-color-4"></rect><rect x="183" y="114" width="21" height="22" fill="#181c62" opacity="1" class="highcharts-point highcharts-color-4"></rect><rect x="226" y="114" width="21" height="22" fill="#181c62" opacity="1" class="highcharts-point highcharts-color-4"></rect><rect x="268" y="114" width="21" height="22" fill="#181c62" opacity="1" class="highcharts-point highcharts-color-4"></rect><rect x="310" y="114" width="21" height="22" fill="#181c62" opacity="1" class="highcharts-point highcharts-color-4"></rect><rect x="352" y="114" width="21" height="22" fill="#181c62" opacity="1" class="highcharts-point highcharts-color-4"></rect></g><g class="highcharts-markers highcharts-series-4 highcharts-column-series highcharts-color-4" data-z-index="0.1" opacity="1" transform="translate(47,16) scale(1 1)" clip-path="none"></g></g><text x="13" text-anchor="start" class="highcharts-title" data-z-index="4" style="color:#333333;font-size:20px;fill:#333333;" y="31"></text><text x="13" text-anchor="start" class="highcharts-subtitle" data-z-index="4" style="color:#000000;font-size:20px;fill:#000000;" y="36"></text><text x="13" text-anchor="start" class="highcharts-caption" data-z-index="4" style="color:#666666;font-size:16px;fill:#666666;" y="230"></text><g class="highcharts-legend highcharts-no-tooltip" data-z-index="7" transform="translate(84,182)"><rect fill="none" class="highcharts-legend-box" rx="0" ry="0" x="0" y="0" width="312" height="33" visibility="visible"></rect><g data-z-index="1"><g><g class="highcharts-legend-item highcharts-column-series highcharts-color-1 highcharts-series-1" data-z-index="1" transform="translate(8,3)"><text x="21" y="11" style="color:#000000;cursor:pointer;font-size:8px;font-weight:normal;fill:#000000;" text-anchor="start" data-z-index="2">Buffer for systemviktige banker</text><rect x="4" y="4" width="8" height="8" fill="#60c3ad" class="highcharts-point" data-z-index="3"></rect></g><g class="highcharts-legend-item highcharts-column-series highcharts-color-2 highcharts-series-2" data-z-index="1" transform="translate(166,3)"><text x="21" y="11" style="color:#000000;cursor:pointer;font-size:8px;font-weight:normal;fill:#000000;" text-anchor="start" data-z-index="2">Motsyklisk buffer</text><rect x="4" y="4" width="8" height="8" fill="#5b91cc" class="highcharts-point" data-z-index="3"></rect></g><g class="highcharts-legend-item highcharts-column-series highcharts-color-3 highcharts-series-3" data-z-index="1" transform="translate(8,14)"><text x="21" y="11" style="color:#000000;cursor:pointer;font-size:8px;font-weight:normal;fill:#000000;" text-anchor="start" data-z-index="2">Systemrisikobuffer</text><rect x="4" y="4" width="8" height="8" fill="#4156a6" class="highcharts-point" data-z-index="3"></rect></g><g class="highcharts-legend-item highcharts-column-series highcharts-color-4 highcharts-series-4" data-z-index="1" transform="translate(166,14)"><text x="21" y="11" style="color:#000000;cursor:pointer;font-size:8px;font-weight:normal;fill:#000000;" text-anchor="start" data-z-index="2">Bevaringsbuffer</text><rect x="4" y="4" width="8" height="8" fill="#181c62" class="highcharts-point" data-z-index="3"></rect></g></g></g></g><g class="highcharts-axis-labels highcharts-xaxis-labels" data-z-index="7"><text x="113.75327510917" style="color:#000000;cursor:default;font-size:8px;fill:#000000;" text-anchor="middle" transform="translate(0,0)" y="168" opacity="1">2014</text><text x="198.25109170306" style="color:#000000;cursor:default;font-size:8px;fill:#000000;" text-anchor="middle" transform="translate(0,0)" y="168" opacity="1">2016</text><text x="282.74890829694" style="color:#000000;cursor:default;font-size:8px;fill:#000000;" text-anchor="middle" transform="translate(0,0)" y="168" opacity="1">2018</text><text x="367.24672489083" style="color:#000000;cursor:default;font-size:8px;fill:#000000;" text-anchor="middle" transform="translate(0,0)" y="168" opacity="1">2020</text></g><g class="highcharts-axis-labels highcharts-yaxis-labels" data-z-index="7"><text x="32" style="color:#000000;cursor:default;font-size:8px;fill:#000000;" text-anchor="end" transform="translate(0,0)" y="155" opacity="1">0 %</text><text x="32" style="color:#000000;cursor:default;font-size:8px;fill:#000000;" text-anchor="end" transform="translate(0,0)" y="110" opacity="1">5 %</text><text x="32" style="color:#000000;cursor:default;font-size:8px;fill:#000000;" text-anchor="end" transform="translate(0,0)" y="65" opacity="1">10 %</text><text x="32" style="color:#000000;cursor:default;font-size:8px;fill:#000000;" text-anchor="end" transform="translate(0,0)" y="20" opacity="1">15 %</text></g><g class="highcharts-axis-labels highcharts-yaxis-labels" data-z-index="7"><text x="449" style="color:#000000;cursor:default;font-size:8px;fill:#000000;" text-anchor="start" transform="translate(0,0)" y="155" opacity="1">0 %</text><text x="449" style="color:#000000;cursor:default;font-size:8px;fill:#000000;" text-anchor="start" transform="translate(0,0)" y="110" opacity="1">5 %</text><text x="449" style="color:#000000;cursor:default;font-size:8px;fill:#000000;" text-anchor="start" transform="translate(0,0)" y="65" opacity="1">10 %</text><text x="449" style="color:#000000;cursor:default;font-size:8px;fill:#000000;" text-anchor="start" transform="translate(0,0)" y="20" opacity="1">15 %</text></g><g class="highcharts-control-points" data-z-index="99" clip-path="url(#highcharts-l6cg0mo-827-)"></g></svg>