<svg xmlns:xlink="http://www.w3.org/1999/xlink" version="1.1" class="highcharts-root" style="font-family:Open Sans, sans-serif;font-size:12px;color:#000000;fill:#000000;" xmlns="http://www.w3.org/2000/svg" width="480" height="227" viewBox="0 0 480 227"><desc>Created with Highcharts 9.2.2</desc><defs><clipPath id="highcharts-ya4yyok-2386-"><rect x="0" y="0" width="396" height="146" fill="none"></rect></clipPath><clipPath id="highcharts-ya4yyok-2395-"><rect x="0" y="0" width="396" height="146" fill="none"></rect></clipPath><clipPath id="highcharts-ya4yyok-2404-"><rect x="42" y="16" width="396" height="146" fill="none"></rect></clipPath></defs><rect fill="#ffffff" class="highcharts-background" x="0" y="0" width="480" height="227" rx="0" ry="0"></rect><rect fill="#ffffff" class="highcharts-plot-background" x="42" y="16" width="396" height="146"></rect><g class="highcharts-pane-group" data-z-index="0"></g><g class="highcharts-plot-lines-0" data-z-index="0"><path fill="none" class="highcharts-plot-line "></path></g><g class="highcharts-plot-lines-0" data-z-index="0"><path fill="none" class="highcharts-plot-line " stroke="#000000" stroke-width="0.25" d="M 42 162.125 L 438 162.125"></path></g><g class="highcharts-plot-lines-0" data-z-index="0"><path fill="none" class="highcharts-plot-line " stroke="#000000" stroke-width="0.25" d="M 42 162.125 L 438 162.125"></path></g><rect fill="none" class="highcharts-plot-border" data-z-index="1" x="42" y="16" width="396" height="146"></rect><g class="highcharts-grid highcharts-xaxis-grid" data-z-index="1"><path fill="none" stroke-dasharray="none" data-z-index="1" class="highcharts-grid-line" d="M 117.5 16 L 117.5 162" opacity="1"></path><path fill="none" stroke-dasharray="none" data-z-index="1" class="highcharts-grid-line" d="M 215.5 16 L 215.5 162" opacity="1"></path><path fill="none" stroke-dasharray="none" data-z-index="1" class="highcharts-grid-line" d="M 312.5 16 L 312.5 162" opacity="1"></path><path fill="none" stroke-dasharray="none" data-z-index="1" class="highcharts-grid-line" d="M 409.5 16 L 409.5 162" opacity="1"></path></g><g class="highcharts-grid highcharts-yaxis-grid" data-z-index="1"><path fill="none" stroke-dasharray="none" data-z-index="1" class="highcharts-grid-line" d="M 42 162.5 L 438 162.5" opacity="1"></path><path fill="none" stroke-dasharray="none" data-z-index="1" class="highcharts-grid-line" d="M 42 133.5 L 438 133.5" opacity="1"></path><path fill="none" stroke-dasharray="none" data-z-index="1" class="highcharts-grid-line" d="M 42 104.5 L 438 104.5" opacity="1"></path><path fill="none" stroke-dasharray="none" data-z-index="1" class="highcharts-grid-line" d="M 42 74.5 L 438 74.5" opacity="1"></path><path fill="none" stroke-dasharray="none" data-z-index="1" class="highcharts-grid-line" d="M 42 45.5 L 438 45.5" opacity="1"></path><path fill="none" stroke-dasharray="none" data-z-index="1" class="highcharts-grid-line" d="M 42 16.5 L 438 16.5" opacity="1"></path></g><g class="highcharts-grid highcharts-yaxis-grid" data-z-index="1"><path fill="none" stroke-dasharray="none" data-z-index="1" class="highcharts-grid-line" d="M 42 162.5 L 438 162.5" opacity="1"></path><path fill="none" stroke-dasharray="none" data-z-index="1" class="highcharts-grid-line" d="M 42 133.5 L 438 133.5" opacity="1"></path><path fill="none" stroke-dasharray="none" data-z-index="1" class="highcharts-grid-line" d="M 42 104.5 L 438 104.5" opacity="1"></path><path fill="none" stroke-dasharray="none" data-z-index="1" class="highcharts-grid-line" d="M 42 74.5 L 438 74.5" opacity="1"></path><path fill="none" stroke-dasharray="none" data-z-index="1" class="highcharts-grid-line" d="M 42 45.5 L 438 45.5" opacity="1"></path><path fill="none" stroke-dasharray="none" data-z-index="1" class="highcharts-grid-line" d="M 42 16.5 L 438 16.5" opacity="1"></path></g><g class="highcharts-axis highcharts-xaxis" data-z-index="2"><path fill="none" class="highcharts-axis-line" stroke="#000000" stroke-width="0.25" data-z-index="7" d="M 42 162.125 L 438 162.125"></path></g><g class="highcharts-axis highcharts-yaxis" data-z-index="2"><path fill="none" class="highcharts-tick" stroke="#000000" stroke-width="0.25" d="M 42 162.125 L 52 162.125" opacity="1"></path><path fill="none" class="highcharts-tick" stroke="#000000" stroke-width="0.25" d="M 42 133.125 L 52 133.125" opacity="1"></path><path fill="none" class="highcharts-tick" stroke="#000000" stroke-width="0.25" d="M 42 104.125 L 52 104.125" opacity="1"></path><path fill="none" class="highcharts-tick" stroke="#000000" stroke-width="0.25" d="M 42 74.125 L 52 74.125" opacity="1"></path><path fill="none" class="highcharts-tick" stroke="#000000" stroke-width="0.25" d="M 42 45.125 L 52 45.125" opacity="1"></path><path fill="none" class="highcharts-tick" stroke="#000000" stroke-width="0.25" d="M 42 15.875 L 52 15.875" opacity="1"></path><path fill="none" class="highcharts-axis-line" stroke="#000000" stroke-width="0.25" data-z-index="7" d="M 41.875 16 L 41.875 162"></path></g><g class="highcharts-axis highcharts-yaxis" data-z-index="2"><path fill="none" class="highcharts-tick" stroke="#000000" stroke-width="0.25" d="M 438 162.125 L 428 162.125" opacity="1"></path><path fill="none" class="highcharts-tick" stroke="#000000" stroke-width="0.25" d="M 438 133.125 L 428 133.125" opacity="1"></path><path fill="none" class="highcharts-tick" stroke="#000000" stroke-width="0.25" d="M 438 104.125 L 428 104.125" opacity="1"></path><path fill="none" class="highcharts-tick" stroke="#000000" stroke-width="0.25" d="M 438 74.125 L 428 74.125" opacity="1"></path><path fill="none" class="highcharts-tick" stroke="#000000" stroke-width="0.25" d="M 438 45.125 L 428 45.125" opacity="1"></path><path fill="none" class="highcharts-tick" stroke="#000000" stroke-width="0.25" d="M 438 15.875 L 428 15.875" opacity="1"></path><path fill="none" class="highcharts-axis-line" stroke="#000000" stroke-width="0.25" data-z-index="7" d="M 438.125 16 L 438.125 162"></path></g><g class="highcharts-series-group" data-z-index="3"><g class="highcharts-series highcharts-series-0 highcharts-column-series" data-z-index="0.1" opacity="1" transform="translate(42,16) scale(1 1)" clip-path="url(#highcharts-ya4yyok-2386-)"><rect x="16" y="37" width="24" height="12" fill="#f15d61" opacity="1" class="highcharts-point"></rect><rect x="65" y="19" width="24" height="10" fill="#f15d61" opacity="1" class="highcharts-point"></rect><rect x="113" y="61" width="24" height="18" fill="#f15d61" opacity="1" class="highcharts-point"></rect><rect x="162" y="70" width="24" height="6" fill="#f15d61" opacity="1" class="highcharts-point"></rect><rect x="211" y="36" width="24" height="6" fill="#f15d61" opacity="1" class="highcharts-point"></rect><rect x="259" y="37" width="24" height="3" fill="#f15d61" opacity="1" class="highcharts-point"></rect><rect x="308" y="27" width="24" height="4" fill="#f15d61" opacity="1" class="highcharts-point"></rect><rect x="357" y="24" width="24" height="12" fill="#f15d61" opacity="1" class="highcharts-point"></rect></g><g class="highcharts-markers highcharts-series-0 highcharts-column-series" data-z-index="0.1" opacity="1" transform="translate(42,16) scale(1 1)" clip-path="none"></g><g class="highcharts-series highcharts-series-1 highcharts-column-series" data-z-index="0.1" opacity="1" transform="translate(42,16) scale(1 1)" clip-path="url(#highcharts-ya4yyok-2386-)"><rect x="16" y="49" width="24" height="98" fill="#5b91cc" opacity="1" class="highcharts-point"></rect><rect x="65" y="29" width="24" height="118" fill="#5b91cc" opacity="1" class="highcharts-point"></rect><rect x="113" y="79" width="24" height="68" fill="#5b91cc" opacity="1" class="highcharts-point"></rect><rect x="162" y="76" width="24" height="71" fill="#5b91cc" opacity="1" class="highcharts-point"></rect><rect x="211" y="42" width="24" height="105" fill="#5b91cc" opacity="1" class="highcharts-point"></rect><rect x="259" y="40" width="24" height="107" fill="#5b91cc" opacity="1" class="highcharts-point"></rect><rect x="308" y="31" width="24" height="116" fill="#5b91cc" opacity="1" class="highcharts-point"></rect><rect x="357" y="36" width="24" height="111" fill="#5b91cc" opacity="1" class="highcharts-point"></rect></g><g class="highcharts-markers highcharts-series-1 highcharts-column-series" data-z-index="0.1" opacity="1" transform="translate(42,16) scale(1 1)" clip-path="none"></g></g><text x="13" text-anchor="start" class="highcharts-title" data-z-index="4" style="color:#333333;font-size:20px;fill:#333333;" y="31"></text><text x="13" text-anchor="start" class="highcharts-subtitle" data-z-index="4" style="color:#000000;font-size:20px;fill:#000000;" y="36"></text><text x="13" text-anchor="start" class="highcharts-caption" data-z-index="4" style="color:#666666;font-size:16px;fill:#666666;" y="230"></text><g class="highcharts-legend highcharts-no-tooltip" data-z-index="7" transform="translate(116,193)"><rect fill="none" class="highcharts-legend-box" rx="0" ry="0" x="0" y="0" width="247" height="22" visibility="visible"></rect><g data-z-index="1"><g><g class="highcharts-legend-item highcharts-column-series highcharts-color-undefined highcharts-series-0" data-z-index="1" transform="translate(8,3)"><text x="21" y="11" style="color:#000000;cursor:pointer;font-size:8px;font-weight:normal;fill:#000000;" text-anchor="start" data-z-index="2">Sikkerhetshendelser</text><rect x="4" y="4" width="8" height="8" fill="#f15d61" class="highcharts-point" data-z-index="3"></rect></g><g class="highcharts-legend-item highcharts-column-series highcharts-color-undefined highcharts-series-1" data-z-index="1" transform="translate(125.828125,3)"><text x="21" y="11" style="color:#000000;cursor:pointer;font-size:8px;font-weight:normal;fill:#000000;" text-anchor="start" data-z-index="2">Operasjonelle hendelser</text><rect x="4" y="4" width="8" height="8" fill="#5b91cc" class="highcharts-point" data-z-index="3"></rect></g></g></g></g><g class="highcharts-axis-labels highcharts-xaxis-labels" data-z-index="7"><text x="118.37837837838" style="color:#000000;cursor:default;font-size:8px;fill:#000000;" text-anchor="middle" transform="translate(0,0)" y="179" opacity="1">2014</text><text x="215.67567567568" style="color:#000000;cursor:default;font-size:8px;fill:#000000;" text-anchor="middle" transform="translate(0,0)" y="179" opacity="1">2016</text><text x="312.97297297297" style="color:#000000;cursor:default;font-size:8px;fill:#000000;" text-anchor="middle" transform="translate(0,0)" y="179" opacity="1">2018</text><text x="410.27027027027" style="color:#000000;cursor:default;font-size:8px;fill:#000000;" text-anchor="middle" transform="translate(0,0)" y="179" opacity="1">2020</text></g><g class="highcharts-axis-labels highcharts-yaxis-labels" data-z-index="7"><text x="27" style="color:#000000;cursor:default;font-size:8px;fill:#000000;" text-anchor="end" transform="translate(0,0)" y="165" opacity="1">0</text><text x="27" style="color:#000000;cursor:default;font-size:8px;fill:#000000;" text-anchor="end" transform="translate(0,0)" y="136" opacity="1">50</text><text x="27" style="color:#000000;cursor:default;font-size:8px;fill:#000000;" text-anchor="end" transform="translate(0,0)" y="107" opacity="1">100</text><text x="27" style="color:#000000;cursor:default;font-size:8px;fill:#000000;" text-anchor="end" transform="translate(0,0)" y="78" opacity="1">150</text><text x="27" style="color:#000000;cursor:default;font-size:8px;fill:#000000;" text-anchor="end" transform="translate(0,0)" y="49" opacity="1">200</text><text x="27" style="color:#000000;cursor:default;font-size:8px;fill:#000000;" text-anchor="end" transform="translate(0,0)" y="19" opacity="1">250</text></g><g class="highcharts-axis-labels highcharts-yaxis-labels" data-z-index="7"><text x="453" style="color:#000000;cursor:default;font-size:8px;fill:#000000;" text-anchor="start" transform="translate(0,0)" y="165" opacity="1">0</text><text x="453" style="color:#000000;cursor:default;font-size:8px;fill:#000000;" text-anchor="start" transform="translate(0,0)" y="136" opacity="1">50</text><text x="453" style="color:#000000;cursor:default;font-size:8px;fill:#000000;" text-anchor="start" transform="translate(0,0)" y="107" opacity="1">100</text><text x="453" style="color:#000000;cursor:default;font-size:8px;fill:#000000;" text-anchor="start" transform="translate(0,0)" y="78" opacity="1">150</text><text x="453" style="color:#000000;cursor:default;font-size:8px;fill:#000000;" text-anchor="start" transform="translate(0,0)" y="49" opacity="1">200</text><text x="453" style="color:#000000;cursor:default;font-size:8px;fill:#000000;" text-anchor="start" transform="translate(0,0)" y="19" opacity="1">250</text></g><g class="highcharts-control-points" data-z-index="99" clip-path="url(#highcharts-ya4yyok-2404-)"></g></svg>