<svg xmlns:xlink="http://www.w3.org/1999/xlink" version="1.1" class="highcharts-root" style="font-family:Open Sans, sans-serif;font-size:12px;color:#000000;fill:#000000;" xmlns="http://www.w3.org/2000/svg" width="480" height="227" viewBox="0 0 480 227"><desc>Created with Highcharts 9.2.2</desc><defs><clipPath id="highcharts-gwoqi9t-1626-"><rect x="0" y="0" width="396" height="180" fill="none"></rect></clipPath><clipPath id="highcharts-gwoqi9t-1779-"><rect x="0" y="0" width="396" height="180" fill="none"></rect></clipPath><clipPath id="highcharts-gwoqi9t-1780-"><rect x="42" y="16" width="396" height="180" fill="none"></rect></clipPath></defs><rect fill="#ffffff" class="highcharts-background" x="0" y="0" width="480" height="227" rx="0" ry="0"></rect><rect fill="#ffffff" class="highcharts-plot-background" x="42" y="16" width="396" height="180"></rect><g class="highcharts-pane-group" data-z-index="0"></g><g class="highcharts-plot-lines-0" data-z-index="0"><path fill="none" class="highcharts-plot-line "></path></g><g class="highcharts-plot-lines-0" data-z-index="0"><path fill="none" class="highcharts-plot-line " stroke="#000000" stroke-width="0.25" d="M 42 196.125 L 438 196.125"></path></g><g class="highcharts-plot-lines-0" data-z-index="0"><path fill="none" class="highcharts-plot-line " stroke="#000000" stroke-width="0.25" d="M 42 196.125 L 438 196.125"></path></g><rect fill="none" class="highcharts-plot-border" data-z-index="1" x="42" y="16" width="396" height="180"></rect><g class="highcharts-grid highcharts-xaxis-grid" data-z-index="1"><path fill="none" stroke-dasharray="none" data-z-index="1" class="highcharts-grid-line" d="M 117.5 16 L 117.5 196" opacity="1"></path><path fill="none" stroke-dasharray="none" data-z-index="1" class="highcharts-grid-line" d="M 220.5 16 L 220.5 196" opacity="1"></path><path fill="none" stroke-dasharray="none" data-z-index="1" class="highcharts-grid-line" d="M 323.5 16 L 323.5 196" opacity="1"></path><path fill="none" stroke-dasharray="none" data-z-index="1" class="highcharts-grid-line" d="M 425.5 16 L 425.5 196" opacity="1"></path></g><g class="highcharts-grid highcharts-yaxis-grid" data-z-index="1"><path fill="none" stroke-dasharray="none" data-z-index="1" class="highcharts-grid-line" d="M 42 196.5 L 438 196.5" opacity="1"></path><path fill="none" stroke-dasharray="none" data-z-index="1" class="highcharts-grid-line" d="M 42 106.5 L 438 106.5" opacity="1"></path><path fill="none" stroke-dasharray="none" data-z-index="1" class="highcharts-grid-line" d="M 42 16.5 L 438 16.5" opacity="1"></path></g><g class="highcharts-grid highcharts-yaxis-grid" data-z-index="1"><path fill="none" stroke-dasharray="none" data-z-index="1" class="highcharts-grid-line" d="M 42 196.5 L 438 196.5" opacity="1"></path><path fill="none" stroke-dasharray="none" data-z-index="1" class="highcharts-grid-line" d="M 42 106.5 L 438 106.5" opacity="1"></path><path fill="none" stroke-dasharray="none" data-z-index="1" class="highcharts-grid-line" d="M 42 16.5 L 438 16.5" opacity="1"></path></g><g class="highcharts-axis highcharts-xaxis" data-z-index="2"><path fill="none" class="highcharts-axis-line" stroke="#000000" stroke-width="0.25" data-z-index="7" d="M 42 196.125 L 438 196.125"></path></g><g class="highcharts-axis highcharts-yaxis" data-z-index="2"><path fill="none" class="highcharts-tick" stroke="#000000" stroke-width="0.25" d="M 42 196.125 L 52 196.125" opacity="1"></path><path fill="none" class="highcharts-tick" stroke="#000000" stroke-width="0.25" d="M 42 106.125 L 52 106.125" opacity="1"></path><path fill="none" class="highcharts-tick" stroke="#000000" stroke-width="0.25" d="M 42 15.875 L 52 15.875" opacity="1"></path><path fill="none" class="highcharts-axis-line" stroke="#000000" stroke-width="0.25" data-z-index="7" d="M 41.875 16 L 41.875 196"></path></g><g class="highcharts-axis highcharts-yaxis" data-z-index="2"><path fill="none" class="highcharts-tick" stroke="#000000" stroke-width="0.25" d="M 438 196.125 L 428 196.125" opacity="1"></path><path fill="none" class="highcharts-tick" stroke="#000000" stroke-width="0.25" d="M 438 106.125 L 428 106.125" opacity="1"></path><path fill="none" class="highcharts-tick" stroke="#000000" stroke-width="0.25" d="M 438 15.875 L 428 15.875" opacity="1"></path><path fill="none" class="highcharts-axis-line" stroke="#000000" stroke-width="0.25" data-z-index="7" d="M 438.125 16 L 438.125 196"></path></g><g class="highcharts-series-group" data-z-index="3"><g class="highcharts-series highcharts-series-0 highcharts-line-series highcharts-color-0" data-z-index="0.1" opacity="1" transform="translate(42,16) scale(1 1)" clip-path="url(#highcharts-gwoqi9t-1626-)"><path fill="none" d="M 3.8823529411765 78.534 L 6.4165258792812 77.976 L 8.978856294476 78.624 L 11.569344186761 79.74 L 14.159832079046 77.74199999999999 L 16.722162494241 74.88 L 19.284492909435 73.908 L 21.87498080172 70.56 L 24.465468694005 69.246 L 26.99964163211 70.524 L 29.561972047305 73.17 L 32.152459939589 77.274 L 34.742947831874 80.01 L 37.277120769979 75.384 L 39.839451185174 76.482 L 42.429939077459 75.744 L 45.020426969744 77.814 L 47.554599907848 74.556 L 50.116930323043 71.334 L 52.707418215328 74.286 L 55.297906107613 74.106 L 57.860236522808 72.756 L 60.422566938002 69.642 L 63.013054830287 73.458 L 65.603542722572 68.41799999999999 L 68.137715660677 64.31400000000001 L 70.700046075872 65.934 L 73.290533968156 69.38999999999999 L 75.881021860441 68.202 L 78.415194798546 66.618 L 80.977525213741 69.75 L 83.568013106026 75.6 L 86.158500998311 72.91799999999999 L 88.692673936415 69.624 L 91.25500435161 74.808 L 93.845492243895 84.852 L 96.43598013618 83.106 L 98.998310551375 85.824 L 101.56064096657 89.586 L 104.15112885885 86.85 L 106.74161675114 85.788 L 109.27578968924 83.826 L 111.83812010444 88.38 L 114.42860799672 89.622 L 117.01909588901 90.46799999999999 L 119.55326882711 93.09599999999999 L 122.11559924231 95.922 L 124.70608713459 98.82 L 127.29657502688 100.872 L 129.83074796498 100.134 L 132.39307838018 101.86200000000001 L 134.98356627246 102.312 L 137.57405416475 102.81599999999999 L 140.13638457994 102.54599999999999 L 142.69871499514 102.204 L 145.28920288742 99.36 L 147.87969077971 96.102 L 150.41386371781 91.98 L 152.97619413301 92.268 L 155.56668202529 90.486 L 158.15716991758 86.922 L 160.69134285568 82.548 L 163.25367327087 83.646 L 165.84416116316 83.43 L 168.43464905544 80.154 L 170.96882199355 78.912 L 173.53115240874 77.562 L 176.12164030103 79.11 L 178.71212819331 76.878 L 181.27445860851 70.66799999999999 L 183.8367890237 57.92400000000001 L 186.42727691599 57.97799999999998 L 189.01776480827 58.71600000000001 L 191.55193774638 56.483999999999995 L 194.11426816157 58.53599999999999 L 196.70475605386 59.274000000000015 L 199.29524394614 57.456 L 201.82941688425 59.616 L 204.39174729944 60.462 L 206.98223519173 59.45399999999999 L 209.57272308401 58.5 L 212.10689602212 56.843999999999994 L 214.66922643731 60.245999999999995 L 217.2597143296 65.98799999999999 L 219.85020222188 64.63799999999999 L 222.41253263708 63.647999999999996 L 224.97486305227 63.054 L 227.56535094456 68.39999999999999 L 230.15583883684 66.78 L 232.69001177494 67.392 L 235.25234219014 67.392 L 237.84283008242 61.72200000000001 L 240.43331797471 63.306 L 242.96749091281 58.391999999999996 L 245.52982132801 55.548 L 248.12030922029 53.67599999999999 L 250.71079711258 50.54399999999998 L 253.24497005068 48.653999999999996 L 255.80730046588 49.15799999999999 L 258.39778835816 44.946 L 260.98827625045 40.085999999999984 L 263.55060666564 38.591999999999985 L 266.11293708084 35.71199999999999 L 268.70342497312 25.812000000000012 L 271.29391286541 25.379999999999995 L 273.82808580351 26.801999999999992 L 276.39041621871 29.75399999999999 L 278.98090411099 31.94999999999999 L 281.57139200328 32.74199999999999 L 284.10556494138 30.852000000000004 L 286.66789535658 31.895999999999987 L 289.25838324886 31.518 L 291.84887114115 33.768 L 294.38304407925 33.156000000000006 L 296.94537449445 33.19199999999998 L 299.53586238673 32.50800000000001 L 302.12635027901 32.52599999999998 L 304.68868069421 32.03999999999999 L 307.2510111094 32.147999999999996 L 309.84149900169 32.849999999999994 L 312.43198689397 31.031999999999982 L 314.96615983208 28.853999999999985 L 317.52849024727 31.157999999999987 L 320.11897813956 32.22 L 322.70946603184 32.31 L 325.24363896995 31.049999999999983 L 327.80596938514 32.400000000000006 L 330.39645727743 28.853999999999985 L 332.98694516971 28.602000000000004 L 335.52111810782 27.48599999999999 L 338.08344852301 27.090000000000003 L 340.6739364153 25.433999999999997 L 343.26442430758 24.372000000000014 L 345.82675472278 26.622000000000014 L 348.38908513797 29.033999999999992 L 350.97957303026 28.818000000000012 L 353.57006092254 28.799999999999983 L 356.10423386065 27.468000000000018 L 358.66656427584 30.49199999999999 L 361.25705216813 30.077999999999975 L 363.84754006041 32.418000000000006 L 366.38171299852 32.54399999999998 L 368.94404341371 35.298 L 371.53453130599 33.804 L 374.12501919828 32.72400000000002 L 376.65919213638 30.49199999999999 L 379.22152255158 30.762 L 381.81201044386 30.563999999999993 L 384.40249833615 24.641999999999996 L 386.96482875134 23.292 L 389.52715916654 21.599999999999994 L 392.11764705882 22.644000000000005" class="highcharts-graph" data-z-index="1" stroke="#4156A6" stroke-width="2" stroke-linejoin="round" stroke-linecap="round"></path></g><g class="highcharts-markers highcharts-series-0 highcharts-line-series highcharts-color-0" data-z-index="0.1" opacity="1" transform="translate(42,16) scale(1 1)" clip-path="none"></g></g><text x="13" text-anchor="start" class="highcharts-title" data-z-index="4" style="color:#333333;font-size:20px;fill:#333333;" y="31"></text><text x="13" text-anchor="start" class="highcharts-subtitle" data-z-index="4" style="color:#000000;font-size:20px;fill:#000000;" y="36"></text><text x="13" text-anchor="start" class="highcharts-caption" data-z-index="4" style="color:#666666;font-size:16px;fill:#666666;" y="230"></text><g class="highcharts-axis-labels highcharts-xaxis-labels" data-z-index="7"><text x="117.88102186044" style="color:#000000;cursor:default;font-size:8px;fill:#000000;" text-anchor="middle" transform="translate(0,0)" y="213" opacity="1">1990</text><text x="220.71212819331" style="color:#000000;cursor:default;font-size:8px;fill:#000000;" text-anchor="middle" transform="translate(0,0)" y="213" opacity="1">2000</text><text x="323.57139200328" style="color:#000000;cursor:default;font-size:8px;fill:#000000;" text-anchor="middle" transform="translate(0,0)" y="213" opacity="1">2010</text><text x="426.40249833615" style="color:#000000;cursor:default;font-size:8px;fill:#000000;" text-anchor="middle" transform="translate(0,0)" y="213" opacity="1">2020</text></g><g class="highcharts-axis-labels highcharts-yaxis-labels" data-z-index="7"><text x="27" style="color:#000000;cursor:default;font-size:8px;fill:#000000;" text-anchor="end" transform="translate(0,0)" y="200" opacity="1">0</text><text x="27" style="color:#000000;cursor:default;font-size:8px;fill:#000000;" text-anchor="end" transform="translate(0,0)" y="110" opacity="1">50</text><text x="27" style="color:#000000;cursor:default;font-size:8px;fill:#000000;" text-anchor="end" transform="translate(0,0)" y="20" opacity="1">100</text></g><g class="highcharts-axis-labels highcharts-yaxis-labels" data-z-index="7"><text x="453" style="color:#000000;cursor:default;font-size:8px;fill:#000000;" text-anchor="start" transform="translate(0,0)" y="200" opacity="1">0</text><text x="453" style="color:#000000;cursor:default;font-size:8px;fill:#000000;" text-anchor="start" transform="translate(0,0)" y="110" opacity="1">50</text><text x="453" style="color:#000000;cursor:default;font-size:8px;fill:#000000;" text-anchor="start" transform="translate(0,0)" y="20" opacity="1">100</text></g><g class="highcharts-control-points" data-z-index="99" clip-path="url(#highcharts-gwoqi9t-1780-)"></g></svg>